# Blender 4.0.2
# www.blender.org
mtllib RA_big_linkage.mtl
o RA_big_linkage
v -0.003000 -0.272500 -0.000000
v 0.000000 -0.272500 -0.000000
v 0.000000 -0.287500 -0.000000
v 0.000000 -0.287282 -0.001795
v 0.000000 -0.286641 -0.003485
v 0.000000 -0.285614 -0.004973
v 0.000000 -0.284261 -0.006172
v 0.000000 -0.282660 -0.007013
v 0.000000 -0.280904 -0.007445
v 0.000000 -0.279096 -0.007445
v 0.000000 -0.277340 -0.007013
v 0.000000 -0.275740 -0.006172
v 0.000000 -0.274386 -0.004973
v 0.000000 -0.273359 -0.003485
v 0.000000 -0.272718 -0.001795
v -0.003000 -0.287500 -0.000000
v -0.003000 -0.287282 -0.001795
v -0.003000 -0.286641 -0.003485
v -0.003000 -0.285614 -0.004973
v -0.003000 -0.284261 -0.006172
v -0.003000 -0.282660 -0.007013
v -0.003000 -0.280904 -0.007445
v -0.003000 -0.279096 -0.007445
v -0.003000 -0.277340 -0.007013
v -0.003000 -0.275740 -0.006172
v -0.003000 -0.274386 -0.004973
v -0.003000 -0.273359 -0.003485
v -0.003000 -0.272718 -0.001795
v -0.003000 0.006000 -0.000000
v -0.000000 0.006000 0.000000
v 0.000000 -0.006000 0.000000
v 0.000000 -0.005826 -0.001436
v 0.000000 -0.005313 -0.002788
v 0.000000 -0.004491 -0.003979
v 0.000000 -0.003408 -0.004938
v 0.000000 -0.002128 -0.005610
v 0.000000 -0.000723 -0.005956
v 0.000000 0.000723 -0.005956
v 0.000000 0.002128 -0.005610
v 0.000000 0.003408 -0.004938
v -0.000000 0.004491 -0.003979
v -0.000000 0.005313 -0.002788
v -0.000000 0.005826 -0.001436
v -0.003000 -0.006000 -0.000000
v -0.003000 -0.005826 -0.001436
v -0.003000 -0.005313 -0.002788
v -0.003000 -0.004491 -0.003979
v -0.003000 -0.003408 -0.004938
v -0.003000 -0.002128 -0.005610
v -0.003000 -0.000723 -0.005956
v -0.003000 0.000723 -0.005956
v -0.003000 0.002128 -0.005610
v -0.003000 0.003408 -0.004938
v -0.003000 0.004491 -0.003979
v -0.003000 0.005313 -0.002788
v -0.003000 0.005826 -0.001436
v -0.003000 0.035000 -0.000000
v -0.003000 0.034739 -0.004268
v -0.003000 0.033959 -0.008473
v -0.003000 0.032672 -0.012551
v -0.003000 0.030897 -0.016442
v -0.003000 0.028662 -0.020088
v -0.003000 0.025998 -0.023433
v -0.003000 0.022946 -0.026429
v -0.003000 0.019552 -0.029030
v -0.003000 0.015865 -0.031198
v -0.003000 0.011942 -0.032900
v -0.003000 0.007841 -0.034110
v -0.003000 0.003622 -0.034812
v -0.003000 -0.000650 -0.034994
v -0.003000 -0.004913 -0.034653
v -0.003000 -0.009103 -0.033796
v -0.003000 -0.013156 -0.032433
v -0.000000 0.035000 0.000000
v -0.000000 0.034739 -0.004268
v -0.000000 0.033959 -0.008473
v -0.000000 0.032672 -0.012551
v -0.000000 0.030897 -0.016442
v -0.000000 0.028662 -0.020088
v -0.000000 0.025998 -0.023433
v -0.000000 0.022946 -0.026429
v 0.000000 0.019552 -0.029030
v 0.000000 0.015865 -0.031198
v 0.000000 0.011942 -0.032900
v 0.000000 0.007841 -0.034110
v 0.000000 0.003622 -0.034812
v 0.000000 -0.000650 -0.034994
v 0.000000 -0.004913 -0.034653
v 0.000000 -0.009103 -0.033796
v 0.000000 -0.013156 -0.032433
v -0.003000 -0.279235 0.034992
v -0.003000 -0.283625 0.034812
v -0.003000 -0.287957 0.034083
v -0.003000 -0.292164 0.032818
v -0.003000 -0.296180 0.031036
v -0.003000 -0.299941 0.028764
v -0.003000 -0.303387 0.026039
v -0.003000 -0.306465 0.022904
v -0.003000 -0.309126 0.019409
v -0.003000 -0.311328 0.015607
v -0.003000 -0.313036 0.011559
v -0.003000 -0.314224 0.007329
v -0.003000 -0.314873 0.002984
v -0.003000 -0.314972 -0.001408
v -0.003000 -0.314520 -0.005778
v -0.003000 -0.313524 -0.010057
v -0.003000 -0.312000 -0.014178
v -0.003000 -0.309972 -0.018075
v -0.003000 -0.307471 -0.021687
v -0.003000 -0.304538 -0.024958
v -0.003000 -0.301218 -0.027835
v -0.003000 -0.297564 -0.030274
v -0.003000 -0.293632 -0.032236
v -0.003000 -0.289487 -0.033690
v -0.003000 -0.285191 -0.034613
v -0.003000 -0.280814 -0.034991
v -0.003000 -0.276424 -0.034817
v -0.003000 -0.272091 -0.034095
v -0.003000 -0.267882 -0.032835
v 0.000000 -0.267882 -0.032835
v 0.000000 -0.279235 0.034992
v 0.000000 -0.283625 0.034812
v 0.000000 -0.287957 0.034083
v 0.000000 -0.292164 0.032818
v 0.000000 -0.296180 0.031036
v 0.000000 -0.299941 0.028764
v 0.000000 -0.303387 0.026039
v 0.000000 -0.306465 0.022904
v 0.000000 -0.309126 0.019409
v 0.000000 -0.311328 0.015607
v 0.000000 -0.313036 0.011559
v 0.000000 -0.314224 0.007329
v 0.000000 -0.314873 0.002984
v 0.000000 -0.314972 -0.001408
v 0.000000 -0.314520 -0.005778
v 0.000000 -0.313524 -0.010057
v 0.000000 -0.312000 -0.014178
v 0.000000 -0.309972 -0.018075
v 0.000000 -0.307471 -0.021687
v 0.000000 -0.304538 -0.024958
v 0.000000 -0.301218 -0.027835
v 0.000000 -0.297564 -0.030274
v 0.000000 -0.293632 -0.032236
v 0.000000 -0.289487 -0.033690
v 0.000000 -0.285191 -0.034613
v 0.000000 -0.280814 -0.034991
v 0.000000 -0.276424 -0.034817
v 0.000000 -0.272091 -0.034095
v -0.003000 0.035000 -0.000000
v -0.000000 0.035000 0.000000
v -0.003000 -0.002847 0.034884
v -0.003000 0.001597 0.034964
v -0.003000 0.006016 0.034479
v -0.003000 0.010338 0.033438
v -0.003000 0.014493 0.031858
v -0.003000 0.018414 0.029764
v -0.003000 0.022039 0.027190
v -0.003000 0.025307 0.024177
v -0.003000 0.028168 0.020775
v -0.003000 0.030574 0.017037
v -0.003000 0.032487 0.013024
v -0.003000 0.033875 0.008801
v -0.003000 0.034718 0.004436
v -0.000000 -0.002847 0.034884
v -0.000000 0.001597 0.034964
v -0.000000 0.006016 0.034479
v -0.000000 0.010338 0.033438
v -0.000000 0.014493 0.031858
v -0.000000 0.018414 0.029764
v -0.000000 0.022039 0.027190
v -0.000000 0.025307 0.024177
v -0.000000 0.028168 0.020775
v -0.000000 0.030574 0.017037
v -0.000000 0.032487 0.013024
v -0.000000 0.033875 0.008801
v -0.000000 0.034718 0.004436
v 0.000000 -0.078410 -0.013888
v -0.003000 -0.078410 -0.013888
v 0.000000 -0.056816 -0.018757
v -0.003000 -0.056816 -0.018757
v -0.003000 -0.211058 -0.016023
v -0.003000 -0.201590 -0.013888
v 0.000000 -0.201590 -0.013888
v 0.000000 -0.211058 -0.016023
v -0.003000 -0.279235 0.034992
v -0.003000 -0.283625 0.034812
v -0.003000 -0.287957 0.034083
v -0.003000 -0.292164 0.032818
v -0.003000 -0.296180 0.031036
v -0.003000 -0.299941 0.028764
v -0.003000 -0.303387 0.026039
v -0.003000 -0.306465 0.022904
v -0.003000 -0.309126 0.019409
v -0.003000 -0.311328 0.015607
v -0.003000 -0.313036 0.011559
v -0.003000 -0.314224 0.007329
v -0.003000 -0.314873 0.002984
v -0.003000 -0.314972 -0.001408
v -0.003000 -0.314520 -0.005778
v -0.003000 -0.313524 -0.010057
v -0.003000 -0.312000 -0.014178
v -0.003000 -0.309972 -0.018075
v -0.003000 -0.307471 -0.021687
v -0.003000 -0.304538 -0.024958
v -0.003000 -0.301218 -0.027835
v -0.003000 -0.297564 -0.030274
v -0.003000 -0.293632 -0.032236
v -0.003000 -0.289487 -0.033690
v -0.003000 -0.285191 -0.034613
v -0.003000 -0.280814 -0.034991
v -0.003000 -0.276424 -0.034817
v -0.003000 -0.272091 -0.034095
v -0.003000 -0.267882 -0.032835
v -0.003000 -0.211058 -0.016023
v -0.003000 -0.225464 -0.019521
v -0.003000 -0.239747 -0.023493
v -0.003000 -0.253891 -0.027932
v -0.003000 -0.201590 -0.013888
v -0.003000 -0.078410 -0.013888
v -0.003000 -0.090582 -0.011425
v -0.003000 -0.102851 -0.009505
v -0.003000 -0.115194 -0.008131
v -0.003000 -0.127585 -0.007305
v -0.003000 -0.140000 -0.007030
v -0.003000 -0.152415 -0.007305
v -0.003000 -0.164806 -0.008131
v -0.003000 -0.177149 -0.009505
v -0.003000 -0.189418 -0.011425
v -0.003000 -0.056816 -0.018757
v -0.003000 -0.013156 -0.032433
v -0.003000 -0.023852 -0.028347
v -0.003000 -0.034706 -0.024702
v -0.003000 -0.045701 -0.021503
v -0.003000 0.035000 -0.000000
v -0.003000 0.034739 -0.004268
v -0.003000 0.033959 -0.008473
v -0.003000 0.032672 -0.012551
v -0.003000 0.030897 -0.016442
v -0.003000 0.028662 -0.020088
v -0.003000 0.025998 -0.023433
v -0.003000 0.022946 -0.026429
v -0.003000 0.019552 -0.029030
v -0.003000 0.015865 -0.031198
v -0.003000 0.011942 -0.032900
v -0.003000 0.007841 -0.034110
v -0.003000 0.003622 -0.034812
v -0.003000 -0.000650 -0.034994
v -0.003000 -0.004913 -0.034653
v -0.003000 -0.009103 -0.033796
v -0.003000 -0.002847 0.034884
v -0.003000 0.001597 0.034964
v -0.003000 0.006016 0.034479
v -0.003000 0.010338 0.033438
v -0.003000 0.014493 0.031858
v -0.003000 0.018414 0.029764
v -0.003000 0.022039 0.027190
v -0.003000 0.025307 0.024177
v -0.003000 0.028168 0.020775
v -0.003000 0.030574 0.017037
v -0.003000 0.032487 0.013024
v -0.003000 0.033875 0.008801
v -0.003000 0.034718 0.004436
v -0.003000 -0.083691 0.040043
v -0.003000 -0.072283 0.037871
v -0.003000 -0.060796 0.036174
v -0.003000 -0.049247 0.034954
v -0.003000 -0.037658 0.034215
v -0.003000 -0.026049 0.033956
v -0.003000 -0.014438 0.034180
v -0.003000 -0.190715 0.041816
v -0.003000 -0.178892 0.043657
v -0.003000 -0.167000 0.044990
v -0.003000 -0.155063 0.045814
v -0.003000 -0.143101 0.046127
v -0.003000 -0.131137 0.045928
v -0.003000 -0.119192 0.045219
v -0.003000 -0.107288 0.044000
v -0.003000 -0.095447 0.042274
v -0.003000 -0.264415 0.034912
v -0.003000 -0.249600 0.035320
v -0.003000 -0.234806 0.036216
v -0.003000 -0.220051 0.037598
v -0.003000 -0.205348 0.039466
v -0.003000 -0.287500 -0.000000
v -0.003000 -0.287282 -0.001795
v -0.003000 -0.286641 -0.003485
v -0.003000 -0.285614 -0.004973
v -0.003000 -0.284261 -0.006172
v -0.003000 -0.282660 -0.007013
v -0.003000 -0.280904 -0.007445
v -0.003000 -0.279096 -0.007445
v -0.003000 -0.277340 -0.007013
v -0.003000 -0.275740 -0.006172
v -0.003000 -0.274386 -0.004973
v -0.003000 -0.273359 -0.003485
v -0.003000 -0.272718 -0.001795
v -0.003000 -0.272500 -0.000000
v -0.003000 -0.272718 0.001795
v -0.003000 -0.273359 0.003485
v -0.003000 -0.274386 0.004973
v -0.003000 -0.275740 0.006172
v -0.003000 -0.277340 0.007013
v -0.003000 -0.279096 0.007445
v -0.003000 -0.280904 0.007445
v -0.003000 -0.282660 0.007013
v -0.003000 -0.284261 0.006172
v -0.003000 -0.285614 0.004973
v -0.003000 -0.286641 0.003485
v -0.003000 -0.287282 0.001795
v -0.003000 -0.006000 -0.000000
v -0.003000 -0.005826 -0.001436
v -0.003000 -0.005313 -0.002788
v -0.003000 -0.004491 -0.003979
v -0.003000 -0.003408 -0.004938
v -0.003000 -0.002128 -0.005610
v -0.003000 -0.000723 -0.005956
v -0.003000 0.000723 -0.005956
v -0.003000 0.002128 -0.005610
v -0.003000 0.003408 -0.004938
v -0.003000 0.004491 -0.003979
v -0.003000 0.005313 -0.002788
v -0.003000 0.005826 -0.001436
v -0.003000 0.006000 -0.000000
v -0.003000 0.005826 0.001436
v -0.003000 0.005313 0.002788
v -0.003000 0.004491 0.003979
v -0.003000 0.003408 0.004938
v -0.003000 0.002128 0.005610
v -0.003000 0.000723 0.005956
v -0.003000 -0.000723 0.005956
v -0.003000 -0.002128 0.005610
v -0.003000 -0.003408 0.004938
v -0.003000 -0.004491 0.003979
v -0.003000 -0.005313 0.002788
v -0.003000 -0.005826 0.001436
v -0.000000 -0.002847 0.034884
v -0.000000 0.001597 0.034964
v -0.000000 0.006016 0.034479
v -0.000000 0.010338 0.033438
v -0.000000 0.014493 0.031858
v -0.000000 0.018414 0.029764
v -0.000000 0.022039 0.027190
v -0.000000 0.025307 0.024177
v -0.000000 0.028168 0.020775
v -0.000000 0.030574 0.017037
v -0.000000 0.032487 0.013024
v -0.000000 0.033875 0.008801
v -0.000000 0.034718 0.004436
v -0.000000 0.035000 0.000000
v -0.000000 -0.014438 0.034180
v -0.000000 -0.026049 0.033956
v 0.000000 -0.037658 0.034215
v 0.000000 -0.049247 0.034954
v 0.000000 -0.060796 0.036174
v 0.000000 -0.072283 0.037871
v 0.000000 -0.083691 0.040043
v 0.000000 -0.095447 0.042274
v 0.000000 -0.107288 0.044000
v 0.000000 -0.119192 0.045219
v 0.000000 -0.131137 0.045928
v 0.000000 -0.143101 0.046127
v 0.000000 -0.155063 0.045814
v 0.000000 -0.167000 0.044990
v 0.000000 -0.178892 0.043657
v 0.000000 -0.190715 0.041816
v 0.000000 -0.205348 0.039466
v 0.000000 -0.220051 0.037598
v 0.000000 -0.234806 0.036216
v 0.000000 -0.249600 0.035320
v 0.000000 -0.264415 0.034912
v 0.000000 -0.279235 0.034992
v 0.000000 -0.283625 0.034812
v 0.000000 -0.287957 0.034083
v 0.000000 -0.292164 0.032818
v 0.000000 -0.296180 0.031036
v 0.000000 -0.299941 0.028764
v 0.000000 -0.303387 0.026039
v 0.000000 -0.306465 0.022904
v 0.000000 -0.309126 0.019409
v 0.000000 -0.311328 0.015607
v 0.000000 -0.313036 0.011559
v 0.000000 -0.314224 0.007329
v 0.000000 -0.314873 0.002984
v 0.000000 -0.314972 -0.001408
v 0.000000 -0.314520 -0.005778
v 0.000000 -0.313524 -0.010057
v 0.000000 -0.312000 -0.014178
v 0.000000 -0.309972 -0.018075
v 0.000000 -0.307471 -0.021687
v 0.000000 -0.304538 -0.024958
v 0.000000 -0.301218 -0.027835
v 0.000000 -0.297564 -0.030274
v 0.000000 -0.293632 -0.032236
v 0.000000 -0.289487 -0.033690
v 0.000000 -0.285191 -0.034613
v 0.000000 -0.280814 -0.034991
v 0.000000 -0.276424 -0.034817
v 0.000000 -0.272091 -0.034095
v 0.000000 -0.267882 -0.032835
v 0.000000 -0.253891 -0.027932
v 0.000000 -0.239747 -0.023493
v 0.000000 -0.225464 -0.019521
v 0.000000 -0.211058 -0.016023
v 0.000000 -0.201590 -0.013888
v 0.000000 -0.189418 -0.011425
v 0.000000 -0.177149 -0.009505
v 0.000000 -0.164806 -0.008131
v 0.000000 -0.152415 -0.007305
v 0.000000 -0.140000 -0.007030
v 0.000000 -0.127585 -0.007305
v 0.000000 -0.115194 -0.008131
v 0.000000 -0.102851 -0.009505
v 0.000000 -0.090582 -0.011425
v 0.000000 -0.078410 -0.013888
v 0.000000 -0.056816 -0.018757
v 0.000000 -0.045701 -0.021503
v 0.000000 -0.034706 -0.024702
v 0.000000 -0.023852 -0.028347
v 0.000000 -0.013156 -0.032433
v -0.000000 0.034739 -0.004268
v -0.000000 0.033959 -0.008473
v -0.000000 0.032672 -0.012551
v -0.000000 0.030897 -0.016442
v -0.000000 0.028662 -0.020088
v -0.000000 0.025998 -0.023433
v -0.000000 0.022946 -0.026429
v 0.000000 0.019552 -0.029030
v 0.000000 0.015865 -0.031198
v 0.000000 0.011942 -0.032900
v 0.000000 0.007841 -0.034110
v 0.000000 0.003622 -0.034812
v 0.000000 -0.000650 -0.034994
v 0.000000 -0.004913 -0.034653
v 0.000000 -0.009103 -0.033796
v 0.000000 -0.272500 -0.000000
v 0.000000 -0.272718 0.001795
v 0.000000 -0.273359 0.003485
v 0.000000 -0.274386 0.004973
v 0.000000 -0.275740 0.006172
v 0.000000 -0.277340 0.007013
v 0.000000 -0.279096 0.007445
v 0.000000 -0.280904 0.007445
v 0.000000 -0.282660 0.007013
v 0.000000 -0.284261 0.006172
v 0.000000 -0.285614 0.004973
v 0.000000 -0.286641 0.003485
v 0.000000 -0.287282 0.001795
v 0.000000 -0.287500 -0.000000
v 0.000000 -0.287282 -0.001795
v 0.000000 -0.286641 -0.003485
v 0.000000 -0.285614 -0.004973
v 0.000000 -0.284261 -0.006172
v 0.000000 -0.282660 -0.007013
v 0.000000 -0.280904 -0.007445
v 0.000000 -0.279096 -0.007445
v 0.000000 -0.277340 -0.007013
v 0.000000 -0.275740 -0.006172
v 0.000000 -0.274386 -0.004973
v 0.000000 -0.273359 -0.003485
v 0.000000 -0.272718 -0.001795
v -0.000000 0.006000 0.000000
v -0.000000 0.005826 0.001436
v -0.000000 0.005313 0.002788
v -0.000000 0.004491 0.003979
v -0.000000 0.003408 0.004938
v -0.000000 0.002128 0.005610
v -0.000000 0.000723 0.005956
v -0.000000 -0.000723 0.005956
v -0.000000 -0.002128 0.005610
v -0.000000 -0.003408 0.004938
v 0.000000 -0.004491 0.003979
v 0.000000 -0.005313 0.002788
v 0.000000 -0.005826 0.001436
v 0.000000 -0.006000 0.000000
v 0.000000 -0.005826 -0.001436
v 0.000000 -0.005313 -0.002788
v 0.000000 -0.004491 -0.003979
v 0.000000 -0.003408 -0.004938
v 0.000000 -0.002128 -0.005610
v 0.000000 -0.000723 -0.005956
v 0.000000 0.000723 -0.005956
v 0.000000 0.002128 -0.005610
v 0.000000 0.003408 -0.004938
v -0.000000 0.004491 -0.003979
v -0.000000 0.005313 -0.002788
v -0.000000 0.005826 -0.001436
v 0.000000 -0.279235 0.034992
v -0.003000 -0.279235 0.034992
v -0.003000 -0.264415 0.034912
v -0.003000 -0.249600 0.035320
v -0.003000 -0.234806 0.036216
v -0.003000 -0.220051 0.037598
v -0.003000 -0.205348 0.039466
v -0.003000 -0.190715 0.041816
v 0.000000 -0.190715 0.041816
v 0.000000 -0.205348 0.039466
v 0.000000 -0.220051 0.037598
v 0.000000 -0.234806 0.036216
v 0.000000 -0.249600 0.035320
v 0.000000 -0.264415 0.034912
v -0.003000 -0.267882 -0.032835
v 0.000000 -0.267882 -0.032835
v 0.000000 -0.253891 -0.027932
v 0.000000 -0.239747 -0.023493
v 0.000000 -0.225464 -0.019521
v 0.000000 -0.211058 -0.016023
v -0.003000 -0.211058 -0.016023
v -0.003000 -0.225464 -0.019521
v -0.003000 -0.239747 -0.023493
v -0.003000 -0.253891 -0.027932
v -0.003000 -0.201590 -0.013888
v 0.000000 -0.201590 -0.013888
v 0.000000 -0.189418 -0.011425
v 0.000000 -0.177149 -0.009505
v 0.000000 -0.164806 -0.008131
v 0.000000 -0.152415 -0.007305
v 0.000000 -0.140000 -0.007030
v 0.000000 -0.127585 -0.007305
v 0.000000 -0.115194 -0.008131
v 0.000000 -0.102851 -0.009505
v 0.000000 -0.090582 -0.011425
v 0.000000 -0.078410 -0.013888
v -0.003000 -0.078410 -0.013888
v -0.003000 -0.090582 -0.011425
v -0.003000 -0.102851 -0.009505
v -0.003000 -0.115194 -0.008131
v -0.003000 -0.127585 -0.007305
v -0.003000 -0.140000 -0.007030
v -0.003000 -0.152415 -0.007305
v -0.003000 -0.164806 -0.008131
v -0.003000 -0.177149 -0.009505
v -0.003000 -0.189418 -0.011425
v 0.000000 -0.083691 0.040043
v 0.000000 -0.095447 0.042274
v 0.000000 -0.107288 0.044000
v 0.000000 -0.119192 0.045219
v 0.000000 -0.131137 0.045928
v 0.000000 -0.143101 0.046127
v 0.000000 -0.155063 0.045814
v 0.000000 -0.167000 0.044990
v 0.000000 -0.178892 0.043657
v 0.000000 -0.190715 0.041816
v -0.003000 -0.083691 0.040043
v -0.003000 -0.190715 0.041816
v -0.003000 -0.178892 0.043657
v -0.003000 -0.167000 0.044990
v -0.003000 -0.155063 0.045814
v -0.003000 -0.143101 0.046127
v -0.003000 -0.131137 0.045928
v -0.003000 -0.119192 0.045219
v -0.003000 -0.107288 0.044000
v -0.003000 -0.095447 0.042274
v -0.003000 -0.056816 -0.018757
v 0.000000 -0.056816 -0.018757
v 0.000000 -0.045701 -0.021503
v 0.000000 -0.034706 -0.024702
v 0.000000 -0.023852 -0.028347
v 0.000000 -0.013156 -0.032433
v -0.003000 -0.013156 -0.032433
v -0.003000 -0.023852 -0.028347
v -0.003000 -0.034706 -0.024702
v -0.003000 -0.045701 -0.021503
v -0.003000 -0.002847 0.034884
v -0.000000 -0.002847 0.034884
v -0.000000 -0.014438 0.034180
v -0.000000 -0.026049 0.033956
v 0.000000 -0.037658 0.034215
v 0.000000 -0.049247 0.034954
v 0.000000 -0.060796 0.036174
v 0.000000 -0.072283 0.037871
v 0.000000 -0.083691 0.040043
v -0.003000 -0.083691 0.040043
v -0.003000 -0.072283 0.037871
v -0.003000 -0.060796 0.036174
v -0.003000 -0.049247 0.034954
v -0.003000 -0.037658 0.034215
v -0.003000 -0.026049 0.033956
v -0.003000 -0.014438 0.034180
v -0.000000 0.006000 0.000000
v -0.000000 0.005826 0.001436
v -0.000000 0.005313 0.002788
v -0.000000 0.004491 0.003979
v -0.000000 0.003408 0.004938
v -0.000000 0.002128 0.005610
v -0.000000 0.000723 0.005956
v -0.000000 -0.000723 0.005956
v -0.000000 -0.002128 0.005610
v -0.000000 -0.003408 0.004938
v 0.000000 -0.004491 0.003979
v 0.000000 -0.005313 0.002788
v 0.000000 -0.005826 0.001436
v 0.000000 -0.006000 0.000000
v -0.003000 0.006000 -0.000000
v -0.003000 0.005826 0.001436
v -0.003000 0.005313 0.002788
v -0.003000 0.004491 0.003979
v -0.003000 0.003408 0.004938
v -0.003000 0.002128 0.005610
v -0.003000 0.000723 0.005956
v -0.003000 -0.000723 0.005956
v -0.003000 -0.002128 0.005610
v -0.003000 -0.003408 0.004938
v -0.003000 -0.004491 0.003979
v -0.003000 -0.005313 0.002788
v -0.003000 -0.005826 0.001436
v -0.003000 -0.006000 -0.000000
v 0.000000 -0.272500 -0.000000
v 0.000000 -0.272718 0.001795
v 0.000000 -0.273359 0.003485
v 0.000000 -0.274386 0.004973
v 0.000000 -0.275740 0.006172
v 0.000000 -0.277340 0.007013
v 0.000000 -0.279096 0.007445
v 0.000000 -0.280904 0.007445
v 0.000000 -0.282660 0.007013
v 0.000000 -0.284261 0.006172
v 0.000000 -0.285614 0.004973
v 0.000000 -0.286641 0.003485
v 0.000000 -0.287282 0.001795
v 0.000000 -0.287500 -0.000000
v -0.003000 -0.272500 -0.000000
v -0.003000 -0.272718 0.001795
v -0.003000 -0.273359 0.003485
v -0.003000 -0.274386 0.004973
v -0.003000 -0.275740 0.006172
v -0.003000 -0.277340 0.007013
v -0.003000 -0.279096 0.007445
v -0.003000 -0.280904 0.007445
v -0.003000 -0.282660 0.007013
v -0.003000 -0.284261 0.006172
v -0.003000 -0.285614 0.004973
v -0.003000 -0.286641 0.003485
v -0.003000 -0.287282 0.001795
v -0.003000 -0.287500 -0.000000
vn -0.0000 0.9798 0.1998
vn -0.0000 0.9927 0.1205
vn -0.0000 0.9605 0.2784
vn -0.0000 0.9927 0.1206
vn -0.0000 0.8855 0.4647
vn -0.0000 0.7485 0.6631
vn -0.0000 0.9798 0.1999
vn -0.0000 0.5681 0.8230
vn -0.0000 0.3546 0.9350
vn -0.0000 0.1606 0.9870
vn -0.0000 0.0803 0.9968
vn -0.0000 -0.0803 0.9968
vn -0.0000 -0.1606 0.9870
vn -0.0000 -0.3165 0.9486
vn -0.0000 -0.3921 0.9199
vn -0.0000 -0.5681 0.8230
vn -0.0000 -0.7485 0.6631
vn -0.0000 -0.8659 0.5001
vn -0.0000 -0.9035 0.4286
vn -0.0000 -0.9605 0.2784
vn -0.0000 -0.9798 0.1999
vn -0.0000 -0.9035 0.4285
vn -0.0000 -0.8659 0.5002
vn -0.0000 -0.9927 0.1205
vn -0.0000 -0.9798 0.1998
vn -0.0000 -0.9927 0.1206
vn -0.0000 0.9035 0.4285
vn -0.0000 0.8659 0.5001
vn -0.0000 0.7747 0.6323
vn -0.0000 0.7211 0.6928
vn -0.0000 0.9035 0.4286
vn -0.0000 0.5680 0.8230
vn -0.0000 -0.3546 0.9350
vn -0.0000 -0.7211 0.6928
vn -0.0000 -0.7747 0.6323
vn -0.0000 -0.5680 0.8230
vn -0.0000 -0.2797 -0.9601
vn -0.0000 -0.3186 -0.9479
vn -0.0000 -0.2403 -0.9707
vn -0.0000 -0.1404 -0.9901
vn -0.0000 -0.0186 -0.9998
vn -0.0000 0.1035 -0.9946
vn -0.0000 0.2240 -0.9746
vn -0.0000 0.3220 -0.9467
vn -0.0000 0.3603 -0.9328
vn -0.0000 0.4350 -0.9004
vn -0.0000 0.4714 -0.8819
vn -0.0000 0.3219 -0.9468
vn -0.0000 0.5586 -0.8294
vn -0.0000 0.6556 -0.7551
vn -0.0000 0.7290 -0.6845
vn -0.0000 0.7563 -0.6542
vn -0.0000 0.8070 -0.5905
vn -0.0000 0.8304 -0.5571
vn -0.0000 0.8730 -0.4877
vn -0.0000 0.8922 -0.4517
vn -0.0000 0.9260 -0.3776
vn -0.0000 0.9406 -0.3395
vn -0.0000 0.9651 -0.2618
vn -0.0000 0.9750 -0.2222
vn -0.0000 0.9898 -0.1422
vn -0.0000 0.9750 -0.2223
vn -0.0000 0.9948 -0.1017
vn -0.0000 0.9981 -0.0611
vn -0.0000 -0.0827 0.9966
vn -0.0000 -0.0409 0.9992
vn -0.0000 -0.1244 0.9922
vn -0.0000 -0.2069 0.9784
vn -0.0000 -0.2477 0.9688
vn -0.0000 -0.3278 0.9447
vn -0.0000 -0.3671 0.9302
vn -0.0000 -0.4436 0.8962
vn -0.0000 -0.4807 0.8769
vn -0.0000 -0.5697 0.8218
vn -0.0000 -0.4808 0.8769
vn -0.0000 -0.6682 0.7440
vn -0.0000 -0.4808 0.8768
vn -0.0000 -0.7423 0.6701
vn -0.0000 -0.7697 0.6384
vn -0.0000 -0.8204 0.5719
vn -0.0000 -0.8436 0.5369
vn -0.0000 -0.8204 0.5718
vn -0.0000 -0.8855 0.4646
vn -0.0000 -0.8436 0.5370
vn -0.0000 -0.9042 0.4271
vn -0.0000 -0.9368 0.3500
vn -0.0000 -0.9506 0.3104
vn -0.0000 -0.9732 0.2299
vn -0.0000 -0.9732 0.2298
vn -0.0000 -0.9820 0.1889
vn -0.0000 -0.9944 0.1061
vn -0.0000 -0.9979 0.0644
vn -0.0000 -0.9998 -0.0193
vn -0.0000 -0.9981 -0.0611
vn -0.0000 -0.9895 -0.1444
vn -0.0000 -0.9981 -0.0612
vn -0.0000 -0.9826 -0.1857
vn -0.0000 -0.9636 -0.2672
vn -0.0000 -0.9516 -0.3073
vn -0.0000 -0.9226 -0.3858
vn -0.0000 -0.9516 -0.3074
vn -0.0000 -0.9056 -0.4241
vn -0.0000 -0.8670 -0.4984
vn -0.0000 -0.9056 -0.4242
vn -0.0000 -0.8453 -0.5343
vn -0.0000 -0.7977 -0.6031
vn -0.0000 -0.7717 -0.6359
vn -0.0000 -0.7159 -0.6982
vn -0.0000 -0.6860 -0.7276
vn -0.0000 -0.6228 -0.7824
vn -0.0000 -0.5894 -0.8078
vn -0.0000 -0.5198 -0.8543
vn -0.0000 -0.4836 -0.8753
vn -0.0000 -0.6227 -0.7824
vn -0.0000 -0.4087 -0.9127
vn -0.0000 -0.3701 -0.9290
vn -0.0000 -0.2912 -0.9567
vn -0.0000 -0.2508 -0.9680
vn -0.0000 -0.1690 -0.9856
vn -0.0000 -0.1276 -0.9918
vn -0.0000 -0.2911 -0.9567
vn -0.0000 -0.0442 -0.9990
vn -0.0000 -0.0023 -1.0000
vn -0.0000 0.0813 -0.9967
vn -0.0000 0.1230 -0.9924
vn -0.0000 0.2055 -0.9787
vn -0.0000 0.2463 -0.9692
vn -0.0000 0.2867 -0.9580
vn -0.0000 0.9944 0.1057
vn -0.0000 0.9980 0.0635
vn -0.0000 0.9890 0.1478
vn -0.0000 0.9730 0.2309
vn -0.0000 0.9623 0.2719
vn -0.0000 0.9359 0.3523
vn -0.0000 0.9201 0.3917
vn -0.0000 0.8735 0.4867
vn -0.0000 0.8048 0.5936
vn -0.0000 0.8735 0.4868
vn -0.0000 0.7231 0.6908
vn -0.0000 0.6297 0.7769
vn -0.0000 0.7230 0.6908
vn -0.0000 0.8048 0.5935
vn -0.0000 0.5440 0.8391
vn -0.0000 0.6297 0.7768
vn -0.0000 0.5080 0.8614
vn -0.0000 0.4333 0.9012
vn -0.0000 0.3947 0.9188
vn -0.0000 0.3156 0.9489
vn -0.0000 0.2750 0.9614
vn -0.0000 0.4333 0.9013
vn -0.0000 0.1719 0.9851
vn -0.0000 0.0456 0.9990
vn -0.0000 -0.0179 0.9998
vn -0.0000 0.0457 0.9990
vn -0.0000 -0.2200 -0.9755
vn -0.0000 0.2200 -0.9755
vn -1.0000 -0.0000 -0.0000
vn 1.0000 -0.0000 -0.0000
vn -0.0000 0.0054 1.0000
vn -0.0000 -0.0056 1.0000
vn -0.0000 -0.0166 0.9999
vn -0.0000 -0.0440 0.9990
vn -0.0000 -0.0714 0.9974
vn -0.0000 -0.0823 0.9966
vn -0.0000 -0.1042 0.9946
vn -0.0000 -0.1151 0.9934
vn -0.0000 -0.1369 0.9906
vn -0.0000 -0.1478 0.9890
vn -0.0000 -0.1586 0.9873
vn -0.0000 0.2360 -0.9718
vn -0.0000 0.2467 -0.9691
vn -0.0000 0.2573 -0.9663
vn -0.0000 0.2784 -0.9605
vn -0.0000 0.2890 -0.9573
vn -0.0000 0.3099 -0.9508
vn -0.0000 0.2785 -0.9604
vn -0.0000 0.3204 -0.9473
vn -0.0000 0.3307 -0.9437
vn -0.0000 0.3203 -0.9473
vn -0.0000 -0.1983 -0.9801
vn -0.0000 -0.1838 -0.9830
vn -0.0000 -0.1692 -0.9856
vn -0.0000 -0.1400 -0.9901
vn -0.0000 -0.1253 -0.9921
vn -0.0000 -0.0960 -0.9954
vn -0.0000 -0.1400 -0.9902
vn -0.0000 -0.0812 -0.9967
vn -0.0000 -0.0517 -0.9987
vn -0.0000 -0.0369 -0.9993
vn -0.0000 -0.0074 -1.0000
vn -0.0000 0.0074 -1.0000
vn -0.0000 0.0369 -0.9993
vn -0.0000 0.0517 -0.9987
vn -0.0000 0.0812 -0.9967
vn -0.0000 0.0960 -0.9954
vn -0.0000 0.1253 -0.9921
vn -0.0000 0.1400 -0.9901
vn -0.0000 0.1692 -0.9856
vn -0.0000 0.1400 -0.9902
vn -0.0000 0.1837 -0.9830
vn -0.0000 0.1983 -0.9801
vn -0.0000 0.1838 -0.9830
vn -0.0000 0.1864 0.9825
vn -0.0000 0.1724 0.9850
vn -0.0000 0.1584 0.9874
vn -0.0000 0.1302 0.9915
vn -0.0000 0.1160 0.9932
vn -0.0000 0.0877 0.9961
vn -0.0000 0.0735 0.9973
vn -0.0000 0.0451 0.9990
vn -0.0000 0.0308 0.9995
vn -0.0000 0.0450 0.9990
vn -0.0000 0.0023 1.0000
vn -0.0000 -0.0119 0.9999
vn -0.0000 -0.0475 0.9989
vn -0.0000 -0.0830 0.9965
vn -0.0000 -0.0972 0.9953
vn -0.0000 -0.1256 0.9921
vn -0.0000 -0.0973 0.9953
vn -0.0000 -0.1397 0.9902
vn -0.0000 -0.0831 0.9965
vn -0.0000 -0.1538 0.9881
vn -0.0000 -0.3569 -0.9342
vn -0.0000 -0.3441 -0.9389
vn -0.0000 -0.3313 -0.9435
vn -0.0000 -0.3054 -0.9522
vn -0.0000 -0.2924 -0.9563
vn -0.0000 -0.2596 -0.9657
vn -0.0000 -0.2597 -0.9657
vn -0.0000 -0.2399 -0.9708
vn -0.0000 -0.0607 0.9982
vn -0.0000 -0.0469 0.9989
vn -0.0000 -0.0330 0.9995
vn -0.0000 -0.0054 1.0000
vn -0.0000 0.0084 1.0000
vn -0.0000 0.0360 0.9993
vn -0.0000 0.0499 0.9988
vn -0.0000 0.0775 0.9970
vn -0.0000 0.0361 0.9993
vn -0.0000 0.0913 0.9958
vn -0.0000 0.1187 0.9929
vn -0.0000 0.1325 0.9912
vn -0.0000 0.1598 0.9871
vn -0.0000 0.1735 0.9848
vn -0.0000 0.1870 0.9824
vn -0.0000 -0.9798 -0.1999
vn -0.0000 -0.9927 -0.1205
vn -0.0000 -0.9605 -0.2784
vn -0.0000 -0.9035 -0.4285
vn -0.0000 -0.8659 -0.5001
vn -0.0000 -0.7747 -0.6323
vn -0.0000 -0.7211 -0.6928
vn -0.0000 -0.9035 -0.4286
vn -0.0000 -0.6009 -0.7993
vn -0.0000 -0.5343 -0.8453
vn -0.0000 -0.3921 -0.9199
vn -0.0000 -0.3165 -0.9486
vn -0.0000 -0.1205 -0.9927
vn -0.0000 -0.1206 -0.9927
vn -0.0000 0.0803 -0.9968
vn -0.0000 0.1606 -0.9870
vn -0.0000 0.3546 -0.9350
vn -0.0000 0.5681 -0.8230
vn -0.0000 0.5680 -0.8230
vn -0.0000 0.7485 -0.6631
vn -0.0000 0.8659 -0.5001
vn -0.0000 0.9035 -0.4286
vn -0.0000 0.9605 -0.2784
vn -0.0000 0.9798 -0.1999
vn -0.0000 0.9035 -0.4285
vn -0.0000 0.9927 -0.1205
vn -0.0000 -0.9798 -0.1998
vn -0.0000 -0.9927 -0.1206
vn -0.0000 -0.8659 -0.5002
vn -0.0000 -0.7211 -0.6929
vn -0.0000 -0.3546 -0.9350
vn -0.0000 0.3165 -0.9486
vn -0.0000 0.3921 -0.9199
vn -0.0000 0.5343 -0.8453
vn -0.0000 0.6009 -0.7993
vn -0.0000 0.7211 -0.6929
vn -0.0000 0.7747 -0.6323
vn -0.0000 0.7211 -0.6928
vn -0.0000 0.8855 -0.4647
vn -0.0000 0.9709 -0.2393
vn -0.0000 0.9927 -0.1206
s 0
usemtl material18.002
f 4//1 16//2 3//2
f 4//1 17//3 16//4
f 5//5 18//5 17//3
f 5//5 19//6 18//5
f 5//5 17//3 4//7
f 6//6 19//6 5//5
f 7//8 20//8 19//6
f 7//8 21//9 20//8
f 7//8 19//6 6//6
f 8//9 21//9 7//8
f 9//10 22//11 21//9
f 9//10 21//9 8//9
f 10//12 23//13 22//11
f 10//12 22//11 9//10
f 11//14 24//15 23//13
f 11//14 23//13 10//12
f 12//16 25//16 24//15
f 12//16 26//17 25//16
f 12//16 24//15 11//14
f 13//17 26//17 12//16
f 14//18 27//19 26//17
f 14//18 26//17 13//17
f 15//20 28//21 27//19
f 15//20 27//22 14//23
f 2//24 1//24 28//25
f 2//26 28//25 15//20
f 32//7 44//2 31//2
f 32//7 45//3 44//2
f 33//27 46//28 45//3
f 33//27 45//3 32//7
f 34//29 47//30 46//28
f 34//29 46//28 33//31
f 35//32 48//32 47//30
f 35//8 49//9 48//8
f 35//32 47//30 34//29
f 36//9 49//9 35//8
f 37//10 50//11 49//9
f 37//10 49//9 36//9
f 38//12 51//13 50//11
f 38//12 50//11 37//10
f 39//33 52//33 51//13
f 39//33 53//16 52//33
f 39//33 51//13 38//12
f 40//16 53//16 39//33
f 41//34 54//35 53//36
f 41//34 53//36 40//36
f 42//18 55//19 54//35
f 42//18 54//35 41//34
f 43//20 56//21 55//22
f 43//20 55//22 42//18
f 30//24 29//24 56//21
f 30//24 56//21 43//20
f 89//37 73//38 72//39
f 89//37 90//38 73//38
f 88//40 71//40 70//41
f 88//40 72//39 71//40
f 88//40 89//37 72//39
f 87//41 88//40 70//41
f 86//42 69//42 68//43
f 86//42 70//41 69//42
f 86//42 87//41 70//41
f 85//43 86//42 68//43
f 84//44 68//43 67//45
f 84//44 85//43 68//43
f 83//46 67//45 66//47
f 83//46 84//48 67//45
f 82//49 65//49 64//50
f 82//49 66//47 65//49
f 82//49 83//46 66//47
f 81//50 82//49 64//50
f 80//51 64//50 63//52
f 80//51 81//50 64//50
f 79//53 63//52 62//54
f 79//53 80//51 63//52
f 78//55 62//54 61//56
f 78//55 79//53 62//54
f 77//57 61//56 60//58
f 77//57 78//55 61//56
f 76//59 60//58 59//60
f 76//59 77//57 60//58
f 75//61 59//62 58//63
f 75//61 76//59 59//62
f 74//64 58//63 57//64
f 74//64 75//61 58//63
f 122//65 91//66 92//67
f 122//65 121//66 91//66
f 123//68 92//67 93//69
f 123//68 122//65 92//67
f 124//70 93//69 94//71
f 124//70 123//68 93//69
f 125//72 94//71 95//73
f 125//72 124//70 94//71
f 126//74 95//75 96//74
f 126//74 96//74 97//76
f 126//74 125//72 95//77
f 127//76 126//74 97//76
f 128//78 97//76 98//79
f 128//78 127//76 97//76
f 129//80 98//79 99//81
f 129//82 128//78 98//79
f 130//83 99//84 100//85
f 130//83 129//82 99//84
f 131//86 130//83 100//85
f 131//86 100//85 101//87
f 132//88 131//86 101//87
f 132//89 101//87 102//90
f 133//91 132//88 102//90
f 133//91 102//90 103//92
f 134//93 103//92 104//94
f 134//93 133//91 103//92
f 135//95 104//96 105//97
f 135//95 134//93 104//96
f 136//98 105//97 106//99
f 136//98 135//95 105//97
f 137//100 136//98 106//101
f 137//100 106//101 107//102
f 138//103 107//104 108//105
f 138//103 137//100 107//102
f 139//106 108//105 109//107
f 139//106 138//103 108//105
f 140//108 109//107 110//109
f 140//108 139//106 109//107
f 141//110 110//109 111//111
f 141//110 140//108 110//109
f 142//112 111//111 112//113
f 142//112 141//114 111//111
f 143//115 112//113 113//116
f 143//115 142//112 112//113
f 144//117 113//116 114//118
f 144//117 143//115 113//116
f 145//119 114//118 115//120
f 145//119 144//121 114//118
f 146//122 115//120 116//123
f 146//122 145//119 115//120
f 147//124 116//123 117//125
f 147//124 146//122 116//123
f 148//126 117//125 118//127
f 148//126 147//124 117//125
f 120//128 118//127 119//128
f 120//128 148//126 118//127
f 176//129 150//130 149//130
f 176//129 149//130 163//131
f 175//132 163//131 162//133
f 175//132 176//129 163//131
f 174//134 162//133 161//135
f 174//134 175//132 162//133
f 173//136 160//136 159//137
f 173//138 161//135 160//138
f 173//138 174//134 161//135
f 172//137 173//136 159//137
f 171//139 158//139 157//140
f 171//141 159//142 158//141
f 171//141 172//142 159//142
f 170//140 171//139 157//140
f 169//143 157//144 156//145
f 169//143 170//144 157//144
f 168//146 156//145 155//147
f 168//146 169//143 156//145
f 167//148 155//147 154//149
f 167//148 168//150 155//147
f 166//151 153//151 152//152
f 166//151 154//149 153//151
f 166//151 167//148 154//149
f 165//152 166//151 152//152
f 164//153 152//154 151//153
f 164//153 165//154 152//154
f 177//155 180//155 179//155
f 177//155 178//155 180//155
f 183//156 181//156 182//156
f 183//156 184//156 181//156
f 287//157 203//157 202//157
f 287//157 204//157 203//157
f 288//157 205//157 204//157
f 288//157 206//157 205//157
f 288//157 204//157 287//157
f 286//157 202//157 201//157
f 286//157 287//157 202//157
f 289//157 207//157 206//157
f 289//157 208//157 207//157
f 289//157 206//157 288//157
f 285//157 200//157 199//157
f 285//157 201//157 200//157
f 285//157 286//157 201//157
f 290//157 209//157 208//157
f 290//157 210//157 209//157
f 290//157 208//157 289//157
f 284//157 198//157 197//157
f 284//157 199//157 198//157
f 284//157 285//157 199//157
f 291//157 211//157 210//157
f 291//157 212//157 211//157
f 291//157 210//157 290//157
f 309//157 196//157 195//157
f 309//157 197//157 196//157
f 309//157 284//157 197//157
f 292//157 213//157 212//157
f 292//157 212//157 291//157
f 308//157 194//157 193//157
f 308//157 195//157 194//157
f 308//157 309//157 195//157
f 293//157 213//157 292//157
f 217//157 213//157 293//157
f 307//157 193//157 192//157
f 307//157 308//157 193//157
f 294//157 217//157 293//157
f 191//157 307//157 192//157
f 191//157 306//157 307//157
f 295//157 217//157 294//157
f 296//157 217//157 295//157
f 190//157 306//157 191//157
f 189//157 305//157 306//157
f 189//157 306//157 190//157
f 216//157 296//157 297//157
f 216//157 297//157 298//157
f 216//157 217//157 296//157
f 188//157 305//157 189//157
f 187//157 304//157 305//157
f 187//157 305//157 188//157
f 186//157 304//157 187//157
f 185//157 302//157 303//157
f 185//157 303//157 304//157
f 185//157 304//157 186//157
f 279//157 299//157 300//157
f 279//157 300//157 301//157
f 279//157 301//157 302//157
f 279//157 302//157 185//157
f 280//157 298//157 299//157
f 280//157 216//157 298//157
f 280//157 299//157 279//157
f 281//157 215//157 216//157
f 281//157 216//157 280//157
f 282//157 214//157 215//157
f 282//157 218//157 214//157
f 282//157 215//157 281//157
f 283//157 228//157 218//157
f 283//157 218//157 282//157
f 270//157 227//157 228//157
f 270//157 228//157 283//157
f 271//157 226//157 227//157
f 271//157 227//157 270//157
f 272//157 225//157 226//157
f 272//157 226//157 271//157
f 273//157 225//157 272//157
f 274//157 225//157 273//157
f 274//157 224//157 225//157
f 275//157 224//157 274//157
f 275//157 223//157 224//157
f 276//157 223//157 275//157
f 276//157 222//157 223//157
f 277//157 222//157 276//157
f 277//157 221//157 222//157
f 278//157 221//157 277//157
f 263//157 221//157 278//157
f 263//157 220//157 221//157
f 264//157 220//157 263//157
f 264//157 219//157 220//157
f 265//157 219//157 264//157
f 265//157 229//157 219//157
f 266//157 229//157 265//157
f 314//157 230//157 231//157
f 314//157 231//157 313//157
f 312//157 231//157 232//157
f 312//157 313//157 231//157
f 315//157 230//157 314//157
f 315//157 249//157 230//157
f 311//157 312//157 232//157
f 316//157 247//157 248//157
f 316//157 248//157 249//157
f 316//157 249//157 315//157
f 310//157 232//157 233//157
f 310//157 311//157 232//157
f 317//157 245//157 246//157
f 317//157 246//157 247//157
f 317//157 247//157 316//157
f 335//157 310//157 233//157
f 318//157 245//157 317//157
f 318//157 243//157 244//157
f 318//157 244//157 245//157
f 267//157 229//157 266//157
f 267//157 233//157 229//157
f 267//157 335//157 233//157
f 319//157 241//157 242//157
f 319//157 242//157 243//157
f 319//157 243//157 318//157
f 320//157 241//157 319//157
f 240//157 241//157 320//157
f 268//157 333//157 334//157
f 268//157 334//157 335//157
f 268//157 335//157 267//157
f 239//157 320//157 321//157
f 239//157 240//157 320//157
f 238//157 239//157 321//157
f 269//157 331//157 332//157
f 269//157 332//157 333//157
f 269//157 333//157 268//157
f 237//157 321//157 322//157
f 237//157 238//157 321//157
f 236//157 237//157 322//157
f 235//157 236//157 322//157
f 235//157 322//157 323//157
f 250//157 330//157 331//157
f 250//157 331//157 269//157
f 234//157 235//157 323//157
f 251//157 329//157 330//157
f 251//157 330//157 250//157
f 262//157 234//157 323//157
f 262//157 323//157 324//157
f 252//157 329//157 251//157
f 261//157 262//157 324//157
f 253//157 328//157 329//157
f 253//157 329//157 252//157
f 260//157 261//157 324//157
f 260//157 324//157 325//157
f 254//157 328//157 253//157
f 254//157 327//157 328//157
f 259//157 260//157 325//157
f 255//157 327//157 254//157
f 258//157 325//157 326//157
f 258//157 259//157 325//157
f 256//157 327//157 255//157
f 256//157 326//157 327//157
f 257//157 258//157 326//157
f 257//157 326//157 256//157
f 451//158 388//158 389//158
f 451//158 389//158 390//158
f 452//158 390//158 391//158
f 452//158 391//158 392//158
f 452//158 451//158 390//158
f 450//158 387//158 388//158
f 450//158 388//158 451//158
f 453//158 392//158 393//158
f 453//158 393//158 394//158
f 453//158 452//158 392//158
f 449//158 385//158 386//158
f 449//158 386//158 387//158
f 449//158 387//158 450//158
f 454//158 394//158 395//158
f 454//158 395//158 396//158
f 454//158 453//158 394//158
f 448//158 383//158 384//158
f 448//158 384//158 385//158
f 448//158 385//158 449//158
f 455//158 396//158 397//158
f 455//158 397//158 398//158
f 455//158 454//158 396//158
f 447//158 381//158 382//158
f 447//158 382//158 383//158
f 447//158 383//158 448//158
f 456//158 455//158 398//158
f 456//158 398//158 399//158
f 446//158 379//158 380//158
f 446//158 380//158 381//158
f 446//158 381//158 447//158
f 457//158 456//158 399//158
f 400//158 457//158 399//158
f 445//158 378//158 379//158
f 445//158 379//158 446//158
f 458//158 457//158 400//158
f 377//158 445//158 444//158
f 377//158 378//158 445//158
f 459//158 458//158 400//158
f 460//158 459//158 400//158
f 376//158 377//158 444//158
f 375//158 444//158 443//158
f 375//158 376//158 444//158
f 401//158 435//158 460//158
f 401//158 460//158 400//158
f 401//158 436//158 435//158
f 374//158 375//158 443//158
f 373//158 443//158 442//158
f 373//158 374//158 443//158
f 372//158 373//158 442//158
f 371//158 441//158 440//158
f 371//158 442//158 441//158
f 371//158 372//158 442//158
f 370//158 438//158 437//158
f 370//158 439//158 438//158
f 370//158 440//158 439//158
f 370//158 371//158 440//158
f 369//158 437//158 436//158
f 369//158 436//158 401//158
f 369//158 370//158 437//158
f 368//158 401//158 402//158
f 368//158 369//158 401//158
f 367//158 402//158 403//158
f 367//158 403//158 404//158
f 367//158 368//158 402//158
f 366//158 404//158 405//158
f 366//158 367//158 404//158
f 365//158 405//158 406//158
f 365//158 366//158 405//158
f 364//158 406//158 407//158
f 364//158 365//158 406//158
f 363//158 407//158 408//158
f 363//158 364//158 407//158
f 362//158 363//158 408//158
f 361//158 408//158 409//158
f 361//158 362//158 408//158
f 360//158 361//158 409//158
f 360//158 409//158 410//158
f 359//158 410//158 411//158
f 359//158 360//158 410//158
f 358//158 359//158 411//158
f 358//158 411//158 412//158
f 357//158 358//158 412//158
f 356//158 357//158 412//158
f 356//158 412//158 413//158
f 355//158 356//158 413//158
f 355//158 413//158 414//158
f 354//158 355//158 414//158
f 354//158 414//158 415//158
f 353//158 354//158 415//158
f 478//158 477//158 418//158
f 478//158 418//158 419//158
f 476//158 418//158 477//158
f 476//158 417//158 418//158
f 479//158 478//158 419//158
f 479//158 419//158 434//158
f 475//158 417//158 476//158
f 480//158 479//158 434//158
f 480//158 433//158 432//158
f 480//158 434//158 433//158
f 474//158 417//158 475//158
f 474//158 416//158 417//158
f 481//158 480//158 432//158
f 481//158 431//158 430//158
f 481//158 432//158 431//158
f 473//158 416//158 474//158
f 482//158 481//158 430//158
f 482//158 429//158 428//158
f 482//158 430//158 429//158
f 352//158 353//158 415//158
f 352//158 416//158 473//158
f 352//158 415//158 416//158
f 483//158 482//158 428//158
f 483//158 427//158 426//158
f 483//158 428//158 427//158
f 484//158 483//158 426//158
f 425//158 484//158 426//158
f 351//158 472//158 471//158
f 351//158 473//158 472//158
f 351//158 352//158 473//158
f 424//158 485//158 484//158
f 424//158 484//158 425//158
f 423//158 485//158 424//158
f 350//158 470//158 469//158
f 350//158 471//158 470//158
f 350//158 351//158 471//158
f 422//158 485//158 423//158
f 422//158 486//158 485//158
f 421//158 486//158 422//158
f 420//158 486//158 421//158
f 420//158 461//158 486//158
f 336//158 469//158 468//158
f 336//158 350//158 469//158
f 349//158 461//158 420//158
f 337//158 468//158 467//158
f 337//158 336//158 468//158
f 348//158 462//158 461//158
f 348//158 461//158 349//158
f 338//158 337//158 467//158
f 347//158 462//158 348//158
f 339//158 467//158 466//158
f 339//158 338//158 467//158
f 346//158 463//158 462//158
f 346//158 462//158 347//158
f 340//158 339//158 466//158
f 340//158 466//158 465//158
f 345//158 463//158 346//158
f 341//158 340//158 465//158
f 344//158 464//158 463//158
f 344//158 463//158 345//158
f 342//158 465//158 464//158
f 342//158 341//158 465//158
f 343//158 464//158 344//158
f 343//158 342//158 464//158
f 487//159 489//160 488//159
f 500//161 490//162 489//160
f 500//161 489//160 487//159
f 499//162 490//162 500//161
f 498//163 491//164 490//162
f 498//163 490//162 499//162
f 497//165 492//166 491//164
f 497//165 491//164 498//163
f 496//167 493//168 492//166
f 496//167 492//166 497//165
f 495//169 494//169 493//168
f 495//169 493//168 496//167
f 506//170 508//171 507//170
f 505//172 509//173 508//171
f 505//172 508//171 506//170
f 504//174 510//175 509//176
f 504//174 509//173 505//172
f 503//177 501//178 510//175
f 503//179 510//175 504//174
f 502//178 501//178 503//177
f 522//180 524//181 523//180
f 521//182 525//183 524//181
f 521//182 524//181 522//180
f 520//184 526//185 525//186
f 520//184 525//183 521//182
f 519//187 527//188 526//185
f 519//187 526//185 520//184
f 518//189 528//190 527//188
f 518//189 527//188 519//187
f 517//191 529//192 528//190
f 517//191 528//190 518//189
f 516//193 530//194 529//192
f 516//193 529//192 517//191
f 515//195 531//196 530//194
f 515//195 530//194 516//193
f 514//197 532//198 531//196
f 514//199 531//196 515//195
f 513//200 511//201 532//198
f 513//202 532//198 514//197
f 512//201 511//201 513//202
f 533//203 543//203 552//204
f 534//205 552//204 551//206
f 534//205 533//203 552//204
f 535//207 551//206 550//208
f 535//207 534//205 551//206
f 536//209 550//208 549//210
f 536//209 535//207 550//208
f 537//211 549//212 548//213
f 537//211 536//209 549//210
f 538//214 548//213 547//215
f 538//214 537//211 548//213
f 539//215 538//214 547//215
f 540//216 547//215 546//217
f 540//216 539//215 547//215
f 541//218 546//219 545//220
f 541//218 540//221 546//219
f 542//222 545//220 544//222
f 542//222 541//218 545//220
f 558//223 560//224 559//223
f 557//225 561//226 560//224
f 557//225 560//224 558//223
f 556//227 562//228 561//226
f 556//227 561//226 557//225
f 555//229 562//229 556//227
f 554//230 553//230 562//228
f 554//230 562//228 555//228
f 563//231 565//232 564//231
f 578//233 566//234 565//232
f 578//233 565//232 563//231
f 577//235 567//236 566//234
f 577//235 566//234 578//233
f 576//237 568//238 567//239
f 576//237 567//236 577//235
f 575//240 569//241 568//238
f 575//240 568//238 576//237
f 574//242 570//243 569//241
f 574//242 569//241 575//240
f 573//244 571//245 570//243
f 573//244 570//243 574//242
f 572//245 571//245 573//244
f 580//246 593//247 579//247
f 580//246 594//248 593//247
f 581//249 595//250 594//248
f 581//249 594//248 580//246
f 582//251 596//252 595//250
f 582//251 595//250 581//253
f 583//254 597//255 596//252
f 583//254 596//252 582//251
f 584//256 598//257 597//255
f 584//256 597//255 583//254
f 585//258 599//258 598//257
f 585//259 600//260 599//259
f 585//258 598//257 584//256
f 586//261 601//262 600//260
f 586//261 600//260 585//259
f 587//262 601//262 586//261
f 588//263 602//263 601//262
f 588//264 603//265 602//264
f 588//263 601//262 587//262
f 589//265 603//265 588//264
f 590//266 604//267 603//265
f 590//266 603//265 589//265
f 591//268 605//269 604//270
f 591//268 604//270 590//266
f 592//271 606//271 605//269
f 592//271 605//269 591//268
f 608//272 621//247 607//247
f 608//272 622//248 621//273
f 609//249 623//274 622//248
f 609//253 622//248 608//246
f 610//251 624//252 623//250
f 610//251 623//250 609//253
f 611//254 625//255 624//252
f 611//254 624//275 610//251
f 612//276 626//276 625//255
f 612//276 627//258 626//276
f 612//276 625//255 611//254
f 613//259 627//259 612//276
f 614//260 628//261 627//259
f 614//260 627//259 613//259
f 615//277 629//278 628//261
f 615//277 628//261 614//260
f 616//279 630//280 629//278
f 616//279 629//278 615//277
f 617//281 631//282 630//280
f 617//283 630//280 616//279
f 618//284 632//284 631//282
f 618//284 633//285 632//284
f 618//284 631//282 617//283
f 619//285 633//285 618//284
f 620//271 634//271 633//285
f 620//286 633//285 619//285
