# Blender 4.0.2
# www.blender.org
mtllib RA_base_plate_left.mtl
o RA_base_plate_right
v 0.002672 -0.014637 -0.084989
v -0.007328 -0.014637 -0.084989
v -0.007328 0.020363 -0.084989
v -0.007328 0.020167 -0.087598
v -0.007328 0.019585 -0.090148
v -0.007328 0.018630 -0.092582
v -0.007328 0.017322 -0.094847
v -0.007328 0.015691 -0.096892
v -0.007328 0.013774 -0.098671
v -0.007328 0.011613 -0.100145
v -0.007328 0.009256 -0.101280
v -0.007328 0.006757 -0.102051
v -0.007328 0.004171 -0.102440
v -0.007328 0.001555 -0.102440
v -0.007328 -0.001031 -0.102051
v -0.007328 -0.003531 -0.101280
v -0.007328 -0.005887 -0.100145
v -0.007328 -0.008048 -0.098671
v -0.007328 -0.009966 -0.096892
v -0.007328 -0.011596 -0.094847
v -0.007328 -0.012904 -0.092582
v -0.007328 -0.013860 -0.090148
v -0.007328 -0.014442 -0.087598
v 0.002672 0.020363 -0.084989
v 0.002672 0.020167 -0.087598
v 0.002672 0.019585 -0.090148
v 0.002672 0.018630 -0.092582
v 0.002672 0.017322 -0.094847
v 0.002672 0.015691 -0.096892
v 0.002672 0.013774 -0.098671
v 0.002672 0.011613 -0.100145
v 0.002672 0.009256 -0.101280
v 0.002672 0.006757 -0.102051
v 0.002672 0.004171 -0.102440
v 0.002672 0.001555 -0.102440
v 0.002672 -0.001031 -0.102051
v 0.002672 -0.003531 -0.101280
v 0.002672 -0.005887 -0.100145
v 0.002672 -0.008048 -0.098671
v 0.002672 -0.009966 -0.096892
v 0.002672 -0.011596 -0.094847
v 0.002672 -0.012904 -0.092582
v 0.002672 -0.013860 -0.090148
v 0.002672 -0.014442 -0.087598
v 0.002672 -0.035137 -0.032989
v -0.007328 -0.035137 -0.032989
v -0.007328 -0.029137 -0.032989
v -0.007328 -0.029224 -0.033707
v -0.007328 -0.029481 -0.034384
v -0.007328 -0.029892 -0.034979
v -0.007328 -0.030433 -0.035458
v -0.007328 -0.031073 -0.035794
v -0.007328 -0.031776 -0.035968
v -0.007328 -0.032499 -0.035968
v -0.007328 -0.033201 -0.035794
v -0.007328 -0.033841 -0.035458
v -0.007328 -0.034383 -0.034979
v -0.007328 -0.034794 -0.034384
v -0.007328 -0.035050 -0.033707
v 0.002672 -0.029137 -0.032989
v 0.002672 -0.029224 -0.033707
v 0.002672 -0.029481 -0.034384
v 0.002672 -0.029892 -0.034979
v 0.002672 -0.030433 -0.035458
v 0.002672 -0.031073 -0.035794
v 0.002672 -0.031776 -0.035968
v 0.002672 -0.032499 -0.035968
v 0.002672 -0.033201 -0.035794
v 0.002672 -0.033841 -0.035458
v 0.002672 -0.034383 -0.034979
v 0.002672 -0.034794 -0.034384
v 0.002672 -0.035050 -0.033707
v 0.002672 0.034863 -0.092989
v -0.007328 0.034863 -0.092989
v -0.007328 0.040863 -0.092989
v -0.007328 0.040776 -0.093707
v -0.007328 0.040519 -0.094384
v -0.007328 0.040108 -0.094979
v -0.007328 0.039567 -0.095458
v -0.007328 0.038927 -0.095794
v -0.007328 0.038224 -0.095968
v -0.007328 0.037501 -0.095968
v -0.007328 0.036799 -0.095794
v -0.007328 0.036159 -0.095458
v -0.007328 0.035617 -0.094979
v -0.007328 0.035206 -0.094384
v -0.007328 0.034950 -0.093707
v 0.002672 0.040863 -0.092989
v 0.002672 0.040776 -0.093707
v 0.002672 0.040519 -0.094384
v 0.002672 0.040108 -0.094979
v 0.002672 0.039567 -0.095458
v 0.002672 0.038927 -0.095794
v 0.002672 0.038224 -0.095968
v 0.002672 0.037501 -0.095968
v 0.002672 0.036799 -0.095794
v 0.002672 0.036159 -0.095458
v 0.002672 0.035617 -0.094979
v 0.002672 0.035206 -0.094384
v 0.002672 0.034950 -0.093707
v 0.002672 -0.035137 -0.092989
v -0.007328 -0.035137 -0.092989
v -0.007328 -0.029137 -0.092989
v -0.007328 -0.029224 -0.093707
v -0.007328 -0.029481 -0.094384
v -0.007328 -0.029892 -0.094979
v -0.007328 -0.030433 -0.095458
v -0.007328 -0.031073 -0.095794
v -0.007328 -0.031776 -0.095968
v -0.007328 -0.032499 -0.095968
v -0.007328 -0.033201 -0.095794
v -0.007328 -0.033841 -0.095458
v -0.007328 -0.034383 -0.094979
v -0.007328 -0.034794 -0.094384
v -0.007328 -0.035050 -0.093707
v 0.002672 -0.029137 -0.092989
v 0.002672 -0.029224 -0.093707
v 0.002672 -0.029481 -0.094384
v 0.002672 -0.029892 -0.094979
v 0.002672 -0.030433 -0.095458
v 0.002672 -0.031073 -0.095794
v 0.002672 -0.031776 -0.095968
v 0.002672 -0.032499 -0.095968
v 0.002672 -0.033201 -0.095794
v 0.002672 -0.033841 -0.095458
v 0.002672 -0.034383 -0.094979
v 0.002672 -0.034794 -0.094384
v 0.002672 -0.035050 -0.093707
v 0.002672 0.034863 -0.032989
v -0.007328 0.034863 -0.032989
v -0.007328 0.040863 -0.032989
v -0.007328 0.040776 -0.033707
v -0.007328 0.040519 -0.034384
v -0.007328 0.040108 -0.034979
v -0.007328 0.039567 -0.035458
v -0.007328 0.038927 -0.035794
v -0.007328 0.038224 -0.035968
v -0.007328 0.037501 -0.035968
v -0.007328 0.036799 -0.035794
v -0.007328 0.036159 -0.035458
v -0.007328 0.035617 -0.034979
v -0.007328 0.035206 -0.034384
v -0.007328 0.034950 -0.033707
v 0.002672 0.040863 -0.032989
v 0.002672 0.040776 -0.033707
v 0.002672 0.040519 -0.034384
v 0.002672 0.040108 -0.034979
v 0.002672 0.039567 -0.035458
v 0.002672 0.038927 -0.035794
v 0.002672 0.038224 -0.035968
v 0.002672 0.037501 -0.035968
v 0.002672 0.036799 -0.035794
v 0.002672 0.036159 -0.035458
v 0.002672 0.035617 -0.034979
v 0.002672 0.035206 -0.034384
v 0.002672 0.034950 -0.033707
v 0.002672 0.018753 -0.018879
v -0.007328 0.018753 -0.018879
v -0.007328 0.023753 -0.018879
v -0.007328 0.023680 -0.019477
v -0.007328 0.023466 -0.020041
v -0.007328 0.023124 -0.020537
v -0.007328 0.022673 -0.020937
v -0.007328 0.022139 -0.021217
v -0.007328 0.021554 -0.021361
v -0.007328 0.020951 -0.021361
v -0.007328 0.020366 -0.021217
v -0.007328 0.019832 -0.020937
v -0.007328 0.019381 -0.020537
v -0.007328 0.019039 -0.020041
v -0.007328 0.018825 -0.019477
v 0.002672 0.023753 -0.018879
v 0.002672 0.023680 -0.019477
v 0.002672 0.023466 -0.020041
v 0.002672 0.023124 -0.020537
v 0.002672 0.022673 -0.020937
v 0.002672 0.022139 -0.021217
v 0.002672 0.021554 -0.021361
v 0.002672 0.020951 -0.021361
v 0.002672 0.020366 -0.021217
v 0.002672 0.019832 -0.020937
v 0.002672 0.019381 -0.020537
v 0.002672 0.019039 -0.020041
v 0.002672 0.018825 -0.019477
v 0.002672 -0.018027 -0.018879
v -0.007328 -0.018027 -0.018879
v -0.007328 -0.013027 -0.018879
v -0.007328 -0.013100 -0.019477
v -0.007328 -0.013313 -0.020041
v -0.007328 -0.013656 -0.020537
v -0.007328 -0.014107 -0.020937
v -0.007328 -0.014640 -0.021217
v -0.007328 -0.015226 -0.021361
v -0.007328 -0.015828 -0.021361
v -0.007328 -0.016413 -0.021217
v -0.007328 -0.016947 -0.020937
v -0.007328 -0.017398 -0.020537
v -0.007328 -0.017741 -0.020041
v -0.007328 -0.017954 -0.019477
v 0.002672 -0.013027 -0.018879
v 0.002672 -0.013100 -0.019477
v 0.002672 -0.013313 -0.020041
v 0.002672 -0.013656 -0.020537
v 0.002672 -0.014107 -0.020937
v 0.002672 -0.014640 -0.021217
v 0.002672 -0.015226 -0.021361
v 0.002672 -0.015828 -0.021361
v 0.002672 -0.016413 -0.021217
v 0.002672 -0.016947 -0.020937
v 0.002672 -0.017398 -0.020537
v 0.002672 -0.017741 -0.020041
v 0.002672 -0.017954 -0.019477
v 0.002672 -0.018027 0.017900
v -0.007328 -0.018027 0.017900
v -0.007328 -0.013027 0.017900
v -0.007328 -0.013100 0.017302
v -0.007328 -0.013313 0.016739
v -0.007328 -0.013656 0.016243
v -0.007328 -0.014107 0.015843
v -0.007328 -0.014640 0.015563
v -0.007328 -0.015226 0.015419
v -0.007328 -0.015828 0.015419
v -0.007328 -0.016413 0.015563
v -0.007328 -0.016947 0.015843
v -0.007328 -0.017398 0.016243
v -0.007328 -0.017741 0.016739
v -0.007328 -0.017954 0.017302
v 0.002672 -0.013027 0.017900
v 0.002672 -0.013100 0.017302
v 0.002672 -0.013313 0.016739
v 0.002672 -0.013656 0.016243
v 0.002672 -0.014107 0.015843
v 0.002672 -0.014640 0.015563
v 0.002672 -0.015226 0.015419
v 0.002672 -0.015828 0.015419
v 0.002672 -0.016413 0.015563
v 0.002672 -0.016947 0.015843
v 0.002672 -0.017398 0.016243
v 0.002672 -0.017741 0.016739
v 0.002672 -0.017954 0.017302
v 0.002672 0.018753 0.017900
v -0.007328 0.018753 0.017900
v -0.007328 0.023753 0.017900
v -0.007328 0.023680 0.017302
v -0.007328 0.023466 0.016739
v -0.007328 0.023124 0.016243
v -0.007328 0.022673 0.015843
v -0.007328 0.022139 0.015563
v -0.007328 0.021554 0.015419
v -0.007328 0.020951 0.015419
v -0.007328 0.020366 0.015563
v -0.007328 0.019832 0.015843
v -0.007328 0.019381 0.016243
v -0.007328 0.019039 0.016739
v -0.007328 0.018825 0.017302
v 0.002672 0.023753 0.017900
v 0.002672 0.023680 0.017302
v 0.002672 0.023466 0.016739
v 0.002672 0.023124 0.016243
v 0.002672 0.022673 0.015843
v 0.002672 0.022139 0.015563
v 0.002672 0.021554 0.015419
v 0.002672 0.020951 0.015419
v 0.002672 0.020366 0.015563
v 0.002672 0.019832 0.015843
v 0.002672 0.019381 0.016243
v 0.002672 0.019039 0.016739
v 0.002672 0.018825 0.017302
v 0.002672 -0.014637 -0.000489
v -0.007328 -0.014637 -0.000489
v -0.007328 0.020363 -0.000489
v -0.007328 0.020167 -0.003098
v -0.007328 0.019585 -0.005648
v -0.007328 0.018630 -0.008082
v -0.007328 0.017322 -0.010347
v -0.007328 0.015691 -0.012392
v -0.007328 0.013774 -0.014171
v -0.007328 0.011613 -0.015645
v -0.007328 0.009256 -0.016780
v -0.007328 0.006757 -0.017551
v -0.007328 0.004171 -0.017940
v -0.007328 0.001555 -0.017940
v -0.007328 -0.001031 -0.017551
v -0.007328 -0.003531 -0.016780
v -0.007328 -0.005887 -0.015645
v -0.007328 -0.008048 -0.014171
v -0.007328 -0.009966 -0.012392
v -0.007328 -0.011596 -0.010347
v -0.007328 -0.012904 -0.008082
v -0.007328 -0.013860 -0.005648
v -0.007328 -0.014442 -0.003098
v 0.002672 0.020363 -0.000489
v 0.002672 0.020167 -0.003098
v 0.002672 0.019585 -0.005648
v 0.002672 0.018630 -0.008082
v 0.002672 0.017322 -0.010347
v 0.002672 0.015691 -0.012392
v 0.002672 0.013774 -0.014171
v 0.002672 0.011613 -0.015645
v 0.002672 0.009256 -0.016780
v 0.002672 0.006757 -0.017551
v 0.002672 0.004171 -0.017940
v 0.002672 0.001555 -0.017940
v 0.002672 -0.001031 -0.017551
v 0.002672 -0.003531 -0.016780
v 0.002672 -0.005887 -0.015645
v 0.002672 -0.008048 -0.014171
v 0.002672 -0.009966 -0.012392
v 0.002672 -0.011596 -0.010347
v 0.002672 -0.012904 -0.008082
v 0.002672 -0.013860 -0.005648
v 0.002672 -0.014442 -0.003098
v -0.007328 -0.039637 -0.036919
v -0.007328 -0.039637 0.016761
v -0.007328 -0.039445 0.018712
v -0.007328 -0.038876 0.020587
v -0.007328 -0.037952 0.022316
v -0.007328 -0.036708 0.023832
v -0.007328 -0.035193 0.025075
v -0.007328 -0.033464 0.025999
v -0.007328 -0.031588 0.026568
v -0.007328 -0.029637 0.026761
v -0.007328 0.035363 0.026761
v -0.007328 0.037314 0.026568
v -0.007328 0.039190 0.025999
v -0.007328 0.040918 0.025075
v -0.007328 0.042434 0.023832
v -0.007328 0.043677 0.022316
v -0.007328 0.044602 0.020587
v -0.007328 0.045171 0.018712
v -0.007328 0.045363 0.016761
v -0.007328 0.045363 -0.053239
v -0.007328 0.085363 -0.093239
v -0.007328 0.085363 -0.117739
v -0.007328 -0.074637 -0.117739
v -0.007328 -0.074637 -0.053239
v -0.007328 -0.014637 -0.084989
v -0.007328 -0.014442 -0.082381
v -0.007328 -0.013860 -0.079831
v -0.007328 -0.012904 -0.077396
v -0.007328 -0.011596 -0.075131
v -0.007328 -0.009966 -0.073086
v -0.007328 -0.008048 -0.071307
v -0.007328 -0.005887 -0.069834
v -0.007328 -0.003531 -0.068699
v -0.007328 -0.001031 -0.067928
v -0.007328 0.001555 -0.067538
v -0.007328 0.004171 -0.067538
v -0.007328 0.006757 -0.067928
v -0.007328 0.009256 -0.068699
v -0.007328 0.011613 -0.069834
v -0.007328 0.013774 -0.071307
v -0.007328 0.015691 -0.073086
v -0.007328 0.017322 -0.075131
v -0.007328 0.018630 -0.077396
v -0.007328 0.019585 -0.079831
v -0.007328 0.020167 -0.082381
v -0.007328 0.020363 -0.084989
v -0.007328 0.020167 -0.087598
v -0.007328 0.019585 -0.090148
v -0.007328 0.018630 -0.092582
v -0.007328 0.017322 -0.094847
v -0.007328 0.015691 -0.096892
v -0.007328 0.013774 -0.098671
v -0.007328 0.011613 -0.100145
v -0.007328 0.009256 -0.101280
v -0.007328 0.006757 -0.102051
v -0.007328 0.004171 -0.102440
v -0.007328 0.001555 -0.102440
v -0.007328 -0.001031 -0.102051
v -0.007328 -0.003531 -0.101280
v -0.007328 -0.005887 -0.100145
v -0.007328 -0.008048 -0.098671
v -0.007328 -0.009966 -0.096892
v -0.007328 -0.011596 -0.094847
v -0.007328 -0.012904 -0.092582
v -0.007328 -0.013860 -0.090148
v -0.007328 -0.014442 -0.087598
v -0.007328 -0.035137 -0.032989
v -0.007328 -0.035050 -0.032271
v -0.007328 -0.034794 -0.031595
v -0.007328 -0.034383 -0.031000
v -0.007328 -0.033841 -0.030520
v -0.007328 -0.033201 -0.030184
v -0.007328 -0.032499 -0.030011
v -0.007328 -0.031776 -0.030011
v -0.007328 -0.031073 -0.030184
v -0.007328 -0.030433 -0.030520
v -0.007328 -0.029892 -0.031000
v -0.007328 -0.029481 -0.031595
v -0.007328 -0.029224 -0.032271
v -0.007328 -0.029137 -0.032989
v -0.007328 -0.029224 -0.033707
v -0.007328 -0.029481 -0.034384
v -0.007328 -0.029892 -0.034979
v -0.007328 -0.030433 -0.035458
v -0.007328 -0.031073 -0.035794
v -0.007328 -0.031776 -0.035968
v -0.007328 -0.032499 -0.035968
v -0.007328 -0.033201 -0.035794
v -0.007328 -0.033841 -0.035458
v -0.007328 -0.034383 -0.034979
v -0.007328 -0.034794 -0.034384
v -0.007328 -0.035050 -0.033707
v -0.007328 0.034863 -0.092989
v -0.007328 0.034950 -0.092271
v -0.007328 0.035206 -0.091595
v -0.007328 0.035617 -0.091000
v -0.007328 0.036159 -0.090520
v -0.007328 0.036799 -0.090184
v -0.007328 0.037501 -0.090011
v -0.007328 0.038224 -0.090011
v -0.007328 0.038927 -0.090184
v -0.007328 0.039567 -0.090520
v -0.007328 0.040108 -0.091000
v -0.007328 0.040519 -0.091595
v -0.007328 0.040776 -0.092271
v -0.007328 0.040863 -0.092989
v -0.007328 0.040776 -0.093707
v -0.007328 0.040519 -0.094384
v -0.007328 0.040108 -0.094979
v -0.007328 0.039567 -0.095458
v -0.007328 0.038927 -0.095794
v -0.007328 0.038224 -0.095968
v -0.007328 0.037501 -0.095968
v -0.007328 0.036799 -0.095794
v -0.007328 0.036159 -0.095458
v -0.007328 0.035617 -0.094979
v -0.007328 0.035206 -0.094384
v -0.007328 0.034950 -0.093707
v -0.007328 -0.035137 -0.092989
v -0.007328 -0.035050 -0.092271
v -0.007328 -0.034794 -0.091595
v -0.007328 -0.034383 -0.091000
v -0.007328 -0.033841 -0.090520
v -0.007328 -0.033201 -0.090184
v -0.007328 -0.032499 -0.090011
v -0.007328 -0.031776 -0.090011
v -0.007328 -0.031073 -0.090184
v -0.007328 -0.030433 -0.090520
v -0.007328 -0.029892 -0.091000
v -0.007328 -0.029481 -0.091595
v -0.007328 -0.029224 -0.092271
v -0.007328 -0.029137 -0.092989
v -0.007328 -0.029224 -0.093707
v -0.007328 -0.029481 -0.094384
v -0.007328 -0.029892 -0.094979
v -0.007328 -0.030433 -0.095458
v -0.007328 -0.031073 -0.095794
v -0.007328 -0.031776 -0.095968
v -0.007328 -0.032499 -0.095968
v -0.007328 -0.033201 -0.095794
v -0.007328 -0.033841 -0.095458
v -0.007328 -0.034383 -0.094979
v -0.007328 -0.034794 -0.094384
v -0.007328 -0.035050 -0.093707
v -0.007328 0.034863 -0.032989
v -0.007328 0.034950 -0.032271
v -0.007328 0.035206 -0.031595
v -0.007328 0.035617 -0.031000
v -0.007328 0.036159 -0.030520
v -0.007328 0.036799 -0.030184
v -0.007328 0.037501 -0.030011
v -0.007328 0.038224 -0.030011
v -0.007328 0.038927 -0.030184
v -0.007328 0.039567 -0.030520
v -0.007328 0.040108 -0.031000
v -0.007328 0.040519 -0.031595
v -0.007328 0.040776 -0.032271
v -0.007328 0.040863 -0.032989
v -0.007328 0.040776 -0.033707
v -0.007328 0.040519 -0.034384
v -0.007328 0.040108 -0.034979
v -0.007328 0.039567 -0.035458
v -0.007328 0.038927 -0.035794
v -0.007328 0.038224 -0.035968
v -0.007328 0.037501 -0.035968
v -0.007328 0.036799 -0.035794
v -0.007328 0.036159 -0.035458
v -0.007328 0.035617 -0.034979
v -0.007328 0.035206 -0.034384
v -0.007328 0.034950 -0.033707
v -0.007328 0.018753 -0.018879
v -0.007328 0.018825 -0.018281
v -0.007328 0.019039 -0.017717
v -0.007328 0.019381 -0.017221
v -0.007328 0.019832 -0.016822
v -0.007328 0.020366 -0.016542
v -0.007328 0.020951 -0.016397
v -0.007328 0.021554 -0.016397
v -0.007328 0.022139 -0.016542
v -0.007328 0.022673 -0.016822
v -0.007328 0.023124 -0.017221
v -0.007328 0.023466 -0.017717
v -0.007328 0.023680 -0.018281
v -0.007328 0.023753 -0.018879
v -0.007328 0.023680 -0.019477
v -0.007328 0.023466 -0.020041
v -0.007328 0.023124 -0.020537
v -0.007328 0.022673 -0.020937
v -0.007328 0.022139 -0.021217
v -0.007328 0.021554 -0.021361
v -0.007328 0.020951 -0.021361
v -0.007328 0.020366 -0.021217
v -0.007328 0.019832 -0.020937
v -0.007328 0.019381 -0.020537
v -0.007328 0.019039 -0.020041
v -0.007328 0.018825 -0.019477
v -0.007328 -0.018027 -0.018879
v -0.007328 -0.017954 -0.018281
v -0.007328 -0.017741 -0.017717
v -0.007328 -0.017398 -0.017221
v -0.007328 -0.016947 -0.016822
v -0.007328 -0.016413 -0.016542
v -0.007328 -0.015828 -0.016397
v -0.007328 -0.015226 -0.016397
v -0.007328 -0.014640 -0.016542
v -0.007328 -0.014107 -0.016822
v -0.007328 -0.013656 -0.017221
v -0.007328 -0.013313 -0.017717
v -0.007328 -0.013100 -0.018281
v -0.007328 -0.013027 -0.018879
v -0.007328 -0.013100 -0.019477
v -0.007328 -0.013313 -0.020041
v -0.007328 -0.013656 -0.020537
v -0.007328 -0.014107 -0.020937
v -0.007328 -0.014640 -0.021217
v -0.007328 -0.015226 -0.021361
v -0.007328 -0.015828 -0.021361
v -0.007328 -0.016413 -0.021217
v -0.007328 -0.016947 -0.020937
v -0.007328 -0.017398 -0.020537
v -0.007328 -0.017741 -0.020041
v -0.007328 -0.017954 -0.019477
v -0.007328 -0.018027 0.017900
v -0.007328 -0.017954 0.018499
v -0.007328 -0.017741 0.019062
v -0.007328 -0.017398 0.019558
v -0.007328 -0.016947 0.019958
v -0.007328 -0.016413 0.020238
v -0.007328 -0.015828 0.020382
v -0.007328 -0.015226 0.020382
v -0.007328 -0.014640 0.020238
v -0.007328 -0.014107 0.019958
v -0.007328 -0.013656 0.019558
v -0.007328 -0.013313 0.019062
v -0.007328 -0.013100 0.018499
v -0.007328 -0.013027 0.017900
v -0.007328 -0.013100 0.017302
v -0.007328 -0.013313 0.016739
v -0.007328 -0.013656 0.016243
v -0.007328 -0.014107 0.015843
v -0.007328 -0.014640 0.015563
v -0.007328 -0.015226 0.015419
v -0.007328 -0.015828 0.015419
v -0.007328 -0.016413 0.015563
v -0.007328 -0.016947 0.015843
v -0.007328 -0.017398 0.016243
v -0.007328 -0.017741 0.016739
v -0.007328 -0.017954 0.017302
v -0.007328 0.018753 0.017900
v -0.007328 0.018825 0.018499
v -0.007328 0.019039 0.019062
v -0.007328 0.019381 0.019558
v -0.007328 0.019832 0.019958
v -0.007328 0.020366 0.020238
v -0.007328 0.020951 0.020382
v -0.007328 0.021554 0.020382
v -0.007328 0.022139 0.020238
v -0.007328 0.022673 0.019958
v -0.007328 0.023124 0.019558
v -0.007328 0.023466 0.019062
v -0.007328 0.023680 0.018499
v -0.007328 0.023753 0.017900
v -0.007328 0.023680 0.017302
v -0.007328 0.023466 0.016739
v -0.007328 0.023124 0.016243
v -0.007328 0.022673 0.015843
v -0.007328 0.022139 0.015563
v -0.007328 0.021554 0.015419
v -0.007328 0.020951 0.015419
v -0.007328 0.020366 0.015563
v -0.007328 0.019832 0.015843
v -0.007328 0.019381 0.016243
v -0.007328 0.019039 0.016739
v -0.007328 0.018825 0.017302
v -0.007328 -0.014637 -0.000489
v -0.007328 -0.014442 0.002119
v -0.007328 -0.013860 0.004669
v -0.007328 -0.012904 0.007104
v -0.007328 -0.011596 0.009369
v -0.007328 -0.009966 0.011414
v -0.007328 -0.008048 0.013193
v -0.007328 -0.005887 0.014666
v -0.007328 -0.003531 0.015801
v -0.007328 -0.001031 0.016572
v -0.007328 0.001555 0.016962
v -0.007328 0.004171 0.016962
v -0.007328 0.006757 0.016572
v -0.007328 0.009256 0.015801
v -0.007328 0.011613 0.014666
v -0.007328 0.013774 0.013193
v -0.007328 0.015691 0.011414
v -0.007328 0.017322 0.009369
v -0.007328 0.018630 0.007104
v -0.007328 0.019585 0.004669
v -0.007328 0.020167 0.002119
v -0.007328 0.020363 -0.000489
v -0.007328 0.020167 -0.003098
v -0.007328 0.019585 -0.005648
v -0.007328 0.018630 -0.008082
v -0.007328 0.017322 -0.010347
v -0.007328 0.015691 -0.012392
v -0.007328 0.013774 -0.014171
v -0.007328 0.011613 -0.015645
v -0.007328 0.009256 -0.016780
v -0.007328 0.006757 -0.017551
v -0.007328 0.004171 -0.017940
v -0.007328 0.001555 -0.017940
v -0.007328 -0.001031 -0.017551
v -0.007328 -0.003531 -0.016780
v -0.007328 -0.005887 -0.015645
v -0.007328 -0.008048 -0.014171
v -0.007328 -0.009966 -0.012392
v -0.007328 -0.011596 -0.010347
v -0.007328 -0.012904 -0.008082
v -0.007328 -0.013860 -0.005648
v -0.007328 -0.014442 -0.003098
v 0.002672 0.045363 0.016761
v 0.002672 0.045171 0.018712
v 0.002672 0.044602 0.020587
v 0.002672 0.043677 0.022316
v 0.002672 0.042434 0.023832
v 0.002672 0.040918 0.025075
v 0.002672 0.039190 0.025999
v 0.002672 0.037314 0.026568
v 0.002672 0.035363 0.026761
v 0.002672 0.045363 -0.053239
v 0.002672 0.085363 -0.093239
v 0.002672 0.085363 -0.117739
v 0.002672 -0.074637 -0.117739
v 0.002672 -0.074637 -0.053239
v 0.002672 -0.039637 -0.036919
v 0.002672 -0.039637 0.016761
v 0.002672 -0.029637 0.026761
v 0.002672 -0.031588 0.026568
v 0.002672 -0.033464 0.025999
v 0.002672 -0.035193 0.025075
v 0.002672 -0.036708 0.023832
v 0.002672 -0.037952 0.022316
v 0.002672 -0.038876 0.020587
v 0.002672 -0.039445 0.018712
v 0.002672 0.020363 -0.084989
v 0.002672 0.020167 -0.087598
v 0.002672 0.019585 -0.090148
v 0.002672 0.018630 -0.092582
v 0.002672 0.017322 -0.094847
v 0.002672 0.015691 -0.096892
v 0.002672 0.013774 -0.098671
v 0.002672 0.011613 -0.100145
v 0.002672 0.009256 -0.101280
v 0.002672 0.006757 -0.102051
v 0.002672 0.004171 -0.102440
v 0.002672 0.001555 -0.102440
v 0.002672 -0.001031 -0.102051
v 0.002672 -0.003531 -0.101280
v 0.002672 -0.005887 -0.100145
v 0.002672 -0.008048 -0.098671
v 0.002672 -0.009966 -0.096892
v 0.002672 -0.011596 -0.094847
v 0.002672 -0.012904 -0.092582
v 0.002672 -0.013860 -0.090148
v 0.002672 -0.014442 -0.087598
v 0.002672 -0.014637 -0.084989
v 0.002672 -0.014442 -0.082381
v 0.002672 -0.013860 -0.079831
v 0.002672 -0.012904 -0.077396
v 0.002672 -0.011596 -0.075131
v 0.002672 -0.009966 -0.073086
v 0.002672 -0.008048 -0.071307
v 0.002672 -0.005887 -0.069834
v 0.002672 -0.003531 -0.068699
v 0.002672 -0.001031 -0.067928
v 0.002672 0.001555 -0.067538
v 0.002672 0.004171 -0.067538
v 0.002672 0.006757 -0.067928
v 0.002672 0.009256 -0.068699
v 0.002672 0.011613 -0.069834
v 0.002672 0.013774 -0.071307
v 0.002672 0.015691 -0.073086
v 0.002672 0.017322 -0.075131
v 0.002672 0.018630 -0.077396
v 0.002672 0.019585 -0.079831
v 0.002672 0.020167 -0.082381
v 0.002672 -0.029137 -0.032989
v 0.002672 -0.029224 -0.033707
v 0.002672 -0.029481 -0.034384
v 0.002672 -0.029892 -0.034979
v 0.002672 -0.030433 -0.035458
v 0.002672 -0.031073 -0.035794
v 0.002672 -0.031776 -0.035968
v 0.002672 -0.032499 -0.035968
v 0.002672 -0.033201 -0.035794
v 0.002672 -0.033841 -0.035458
v 0.002672 -0.034383 -0.034979
v 0.002672 -0.034794 -0.034384
v 0.002672 -0.035050 -0.033707
v 0.002672 -0.035137 -0.032989
v 0.002672 -0.035050 -0.032271
v 0.002672 -0.034794 -0.031595
v 0.002672 -0.034383 -0.031000
v 0.002672 -0.033841 -0.030520
v 0.002672 -0.033201 -0.030184
v 0.002672 -0.032499 -0.030011
v 0.002672 -0.031776 -0.030011
v 0.002672 -0.031073 -0.030184
v 0.002672 -0.030433 -0.030520
v 0.002672 -0.029892 -0.031000
v 0.002672 -0.029481 -0.031595
v 0.002672 -0.029224 -0.032271
v 0.002672 0.040863 -0.092989
v 0.002672 0.040776 -0.093707
v 0.002672 0.040519 -0.094384
v 0.002672 0.040108 -0.094979
v 0.002672 0.039567 -0.095458
v 0.002672 0.038927 -0.095794
v 0.002672 0.038224 -0.095968
v 0.002672 0.037501 -0.095968
v 0.002672 0.036799 -0.095794
v 0.002672 0.036159 -0.095458
v 0.002672 0.035617 -0.094979
v 0.002672 0.035206 -0.094384
v 0.002672 0.034950 -0.093707
v 0.002672 0.034863 -0.092989
v 0.002672 0.034950 -0.092271
v 0.002672 0.035206 -0.091595
v 0.002672 0.035617 -0.091000
v 0.002672 0.036159 -0.090520
v 0.002672 0.036799 -0.090184
v 0.002672 0.037501 -0.090011
v 0.002672 0.038224 -0.090011
v 0.002672 0.038927 -0.090184
v 0.002672 0.039567 -0.090520
v 0.002672 0.040108 -0.091000
v 0.002672 0.040519 -0.091595
v 0.002672 0.040776 -0.092271
v 0.002672 -0.029137 -0.092989
v 0.002672 -0.029224 -0.093707
v 0.002672 -0.029481 -0.094384
v 0.002672 -0.029892 -0.094979
v 0.002672 -0.030433 -0.095458
v 0.002672 -0.031073 -0.095794
v 0.002672 -0.031776 -0.095968
v 0.002672 -0.032499 -0.095968
v 0.002672 -0.033201 -0.095794
v 0.002672 -0.033841 -0.095458
v 0.002672 -0.034383 -0.094979
v 0.002672 -0.034794 -0.094384
v 0.002672 -0.035050 -0.093707
v 0.002672 -0.035137 -0.092989
v 0.002672 -0.035050 -0.092271
v 0.002672 -0.034794 -0.091595
v 0.002672 -0.034383 -0.091000
v 0.002672 -0.033841 -0.090520
v 0.002672 -0.033201 -0.090184
v 0.002672 -0.032499 -0.090011
v 0.002672 -0.031776 -0.090011
v 0.002672 -0.031073 -0.090184
v 0.002672 -0.030433 -0.090520
v 0.002672 -0.029892 -0.091000
v 0.002672 -0.029481 -0.091595
v 0.002672 -0.029224 -0.092271
v 0.002672 0.040863 -0.032989
v 0.002672 0.040776 -0.033707
v 0.002672 0.040519 -0.034384
v 0.002672 0.040108 -0.034979
v 0.002672 0.039567 -0.035458
v 0.002672 0.038927 -0.035794
v 0.002672 0.038224 -0.035968
v 0.002672 0.037501 -0.035968
v 0.002672 0.036799 -0.035794
v 0.002672 0.036159 -0.035458
v 0.002672 0.035617 -0.034979
v 0.002672 0.035206 -0.034384
v 0.002672 0.034950 -0.033707
v 0.002672 0.034863 -0.032989
v 0.002672 0.034950 -0.032271
v 0.002672 0.035206 -0.031595
v 0.002672 0.035617 -0.031000
v 0.002672 0.036159 -0.030520
v 0.002672 0.036799 -0.030184
v 0.002672 0.037501 -0.030011
v 0.002672 0.038224 -0.030011
v 0.002672 0.038927 -0.030184
v 0.002672 0.039567 -0.030520
v 0.002672 0.040108 -0.031000
v 0.002672 0.040519 -0.031595
v 0.002672 0.040776 -0.032271
v 0.002672 0.023753 -0.018879
v 0.002672 0.023680 -0.019477
v 0.002672 0.023466 -0.020041
v 0.002672 0.023124 -0.020537
v 0.002672 0.022673 -0.020937
v 0.002672 0.022139 -0.021217
v 0.002672 0.021554 -0.021361
v 0.002672 0.020951 -0.021361
v 0.002672 0.020366 -0.021217
v 0.002672 0.019832 -0.020937
v 0.002672 0.019381 -0.020537
v 0.002672 0.019039 -0.020041
v 0.002672 0.018825 -0.019477
v 0.002672 0.018753 -0.018879
v 0.002672 0.018825 -0.018281
v 0.002672 0.019039 -0.017717
v 0.002672 0.019381 -0.017221
v 0.002672 0.019832 -0.016822
v 0.002672 0.020366 -0.016542
v 0.002672 0.020951 -0.016397
v 0.002672 0.021554 -0.016397
v 0.002672 0.022139 -0.016542
v 0.002672 0.022673 -0.016822
v 0.002672 0.023124 -0.017221
v 0.002672 0.023466 -0.017717
v 0.002672 0.023680 -0.018281
v 0.002672 -0.013027 -0.018879
v 0.002672 -0.013100 -0.019477
v 0.002672 -0.013313 -0.020041
v 0.002672 -0.013656 -0.020537
v 0.002672 -0.014107 -0.020937
v 0.002672 -0.014640 -0.021217
v 0.002672 -0.015226 -0.021361
v 0.002672 -0.015828 -0.021361
v 0.002672 -0.016413 -0.021217
v 0.002672 -0.016947 -0.020937
v 0.002672 -0.017398 -0.020537
v 0.002672 -0.017741 -0.020041
v 0.002672 -0.017954 -0.019477
v 0.002672 -0.018027 -0.018879
v 0.002672 -0.017954 -0.018281
v 0.002672 -0.017741 -0.017717
v 0.002672 -0.017398 -0.017221
v 0.002672 -0.016947 -0.016822
v 0.002672 -0.016413 -0.016542
v 0.002672 -0.015828 -0.016397
v 0.002672 -0.015226 -0.016397
v 0.002672 -0.014640 -0.016542
v 0.002672 -0.014107 -0.016822
v 0.002672 -0.013656 -0.017221
v 0.002672 -0.013313 -0.017717
v 0.002672 -0.013100 -0.018281
v 0.002672 -0.013027 0.017900
v 0.002672 -0.013100 0.017302
v 0.002672 -0.013313 0.016739
v 0.002672 -0.013656 0.016243
v 0.002672 -0.014107 0.015843
v 0.002672 -0.014640 0.015563
v 0.002672 -0.015226 0.015419
v 0.002672 -0.015828 0.015419
v 0.002672 -0.016413 0.015563
v 0.002672 -0.016947 0.015843
v 0.002672 -0.017398 0.016243
v 0.002672 -0.017741 0.016739
v 0.002672 -0.017954 0.017302
v 0.002672 -0.018027 0.017900
v 0.002672 -0.017954 0.018499
v 0.002672 -0.017741 0.019062
v 0.002672 -0.017398 0.019558
v 0.002672 -0.016947 0.019958
v 0.002672 -0.016413 0.020238
v 0.002672 -0.015828 0.020382
v 0.002672 -0.015226 0.020382
v 0.002672 -0.014640 0.020238
v 0.002672 -0.014107 0.019958
v 0.002672 -0.013656 0.019558
v 0.002672 -0.013313 0.019062
v 0.002672 -0.013100 0.018499
v 0.002672 0.023753 0.017900
v 0.002672 0.023680 0.017302
v 0.002672 0.023466 0.016739
v 0.002672 0.023124 0.016243
v 0.002672 0.022673 0.015843
v 0.002672 0.022139 0.015563
v 0.002672 0.021554 0.015419
v 0.002672 0.020951 0.015419
v 0.002672 0.020366 0.015563
v 0.002672 0.019832 0.015843
v 0.002672 0.019381 0.016243
v 0.002672 0.019039 0.016739
v 0.002672 0.018825 0.017302
v 0.002672 0.018753 0.017900
v 0.002672 0.018825 0.018499
v 0.002672 0.019039 0.019062
v 0.002672 0.019381 0.019558
v 0.002672 0.019832 0.019958
v 0.002672 0.020366 0.020238
v 0.002672 0.020951 0.020382
v 0.002672 0.021554 0.020382
v 0.002672 0.022139 0.020238
v 0.002672 0.022673 0.019958
v 0.002672 0.023124 0.019558
v 0.002672 0.023466 0.019062
v 0.002672 0.023680 0.018499
v 0.002672 0.020363 -0.000489
v 0.002672 0.020167 -0.003098
v 0.002672 0.019585 -0.005648
v 0.002672 0.018630 -0.008082
v 0.002672 0.017322 -0.010347
v 0.002672 0.015691 -0.012392
v 0.002672 0.013774 -0.014171
v 0.002672 0.011613 -0.015645
v 0.002672 0.009256 -0.016780
v 0.002672 0.006757 -0.017551
v 0.002672 0.004171 -0.017940
v 0.002672 0.001555 -0.017940
v 0.002672 -0.001031 -0.017551
v 0.002672 -0.003531 -0.016780
v 0.002672 -0.005887 -0.015645
v 0.002672 -0.008048 -0.014171
v 0.002672 -0.009966 -0.012392
v 0.002672 -0.011596 -0.010347
v 0.002672 -0.012904 -0.008082
v 0.002672 -0.013860 -0.005648
v 0.002672 -0.014442 -0.003098
v 0.002672 -0.014637 -0.000489
v 0.002672 -0.014442 0.002119
v 0.002672 -0.013860 0.004669
v 0.002672 -0.012904 0.007104
v 0.002672 -0.011596 0.009369
v 0.002672 -0.009966 0.011414
v 0.002672 -0.008048 0.013193
v 0.002672 -0.005887 0.014666
v 0.002672 -0.003531 0.015801
v 0.002672 -0.001031 0.016572
v 0.002672 0.001555 0.016962
v 0.002672 0.004171 0.016962
v 0.002672 0.006757 0.016572
v 0.002672 0.009256 0.015801
v 0.002672 0.011613 0.014666
v 0.002672 0.013774 0.013193
v 0.002672 0.015691 0.011414
v 0.002672 0.017322 0.009369
v 0.002672 0.018630 0.007104
v 0.002672 0.019585 0.004669
v 0.002672 0.020167 0.002119
v -0.007328 0.045363 -0.053239
v -0.007328 0.045363 0.016761
v 0.002672 0.045363 0.016761
v 0.002672 0.045363 -0.053239
v -0.007328 0.035363 0.026761
v -0.007328 -0.029637 0.026761
v 0.002672 -0.029637 0.026761
v 0.002672 0.035363 0.026761
v -0.007328 -0.039637 -0.036919
v 0.002672 -0.039637 -0.036919
v -0.007328 -0.039637 0.016761
v 0.002672 -0.039637 0.016761
v 0.002672 -0.074637 -0.053239
v 0.002672 -0.074637 -0.117739
v -0.007328 -0.074637 -0.053239
v -0.007328 -0.074637 -0.117739
v -0.007328 0.085363 -0.093239
v 0.002672 0.085363 -0.093239
v 0.002672 0.045363 -0.053239
v -0.007328 0.045363 -0.053239
v -0.007328 -0.039637 -0.036919
v 0.002672 -0.039637 -0.036919
v 0.002672 -0.074637 -0.053239
v -0.007328 -0.074637 -0.053239
v -0.007328 -0.039637 0.016761
v -0.007328 -0.039445 0.018712
v -0.007328 -0.038876 0.020587
v -0.007328 -0.037952 0.022316
v -0.007328 -0.036708 0.023832
v -0.007328 -0.035193 0.025075
v -0.007328 -0.033464 0.025999
v -0.007328 -0.031588 0.026568
v -0.007328 -0.029637 0.026761
v 0.002672 -0.039637 0.016761
v 0.002672 -0.029637 0.026761
v 0.002672 -0.031588 0.026568
v 0.002672 -0.033464 0.025999
v 0.002672 -0.035193 0.025075
v 0.002672 -0.036708 0.023832
v 0.002672 -0.037952 0.022316
v 0.002672 -0.038876 0.020587
v 0.002672 -0.039445 0.018712
v -0.007328 0.035363 0.026761
v -0.007328 0.037314 0.026568
v -0.007328 0.039190 0.025999
v -0.007328 0.040918 0.025075
v -0.007328 0.042434 0.023832
v -0.007328 0.043677 0.022316
v -0.007328 0.044602 0.020587
v -0.007328 0.045171 0.018712
v -0.007328 0.045363 0.016761
v 0.002672 0.035363 0.026761
v 0.002672 0.045363 0.016761
v 0.002672 0.045171 0.018712
v 0.002672 0.044602 0.020587
v 0.002672 0.043677 0.022316
v 0.002672 0.042434 0.023832
v 0.002672 0.040918 0.025075
v 0.002672 0.039190 0.025999
v 0.002672 0.037314 0.026568
v -0.007328 -0.014637 -0.000489
v -0.007328 -0.014442 0.002119
v -0.007328 -0.013860 0.004669
v -0.007328 -0.012904 0.007104
v -0.007328 -0.011596 0.009369
v -0.007328 -0.009966 0.011414
v -0.007328 -0.008048 0.013193
v -0.007328 -0.005887 0.014666
v -0.007328 -0.003531 0.015801
v -0.007328 -0.001031 0.016572
v -0.007328 0.001555 0.016962
v -0.007328 0.004171 0.016962
v -0.007328 0.006757 0.016572
v -0.007328 0.009256 0.015801
v -0.007328 0.011613 0.014666
v -0.007328 0.013774 0.013193
v -0.007328 0.015691 0.011414
v -0.007328 0.017322 0.009369
v -0.007328 0.018630 0.007104
v -0.007328 0.019585 0.004669
v -0.007328 0.020167 0.002119
v -0.007328 0.020363 -0.000489
v 0.002672 -0.014637 -0.000489
v 0.002672 -0.014442 0.002119
v 0.002672 -0.013860 0.004669
v 0.002672 -0.012904 0.007104
v 0.002672 -0.011596 0.009369
v 0.002672 -0.009966 0.011414
v 0.002672 -0.008048 0.013193
v 0.002672 -0.005887 0.014666
v 0.002672 -0.003531 0.015801
v 0.002672 -0.001031 0.016572
v 0.002672 0.001555 0.016962
v 0.002672 0.004171 0.016962
v 0.002672 0.006757 0.016572
v 0.002672 0.009256 0.015801
v 0.002672 0.011613 0.014666
v 0.002672 0.013774 0.013193
v 0.002672 0.015691 0.011414
v 0.002672 0.017322 0.009369
v 0.002672 0.018630 0.007104
v 0.002672 0.019585 0.004669
v 0.002672 0.020167 0.002119
v 0.002672 0.020363 -0.000489
v -0.007328 0.018753 0.017900
v -0.007328 0.018825 0.018499
v -0.007328 0.019039 0.019062
v -0.007328 0.019381 0.019558
v -0.007328 0.019832 0.019958
v -0.007328 0.020366 0.020238
v -0.007328 0.020951 0.020382
v -0.007328 0.021554 0.020382
v -0.007328 0.022139 0.020238
v -0.007328 0.022673 0.019958
v -0.007328 0.023124 0.019558
v -0.007328 0.023466 0.019062
v -0.007328 0.023680 0.018499
v -0.007328 0.023753 0.017900
v 0.002672 0.018753 0.017900
v 0.002672 0.018825 0.018499
v 0.002672 0.019039 0.019062
v 0.002672 0.019381 0.019558
v 0.002672 0.019832 0.019958
v 0.002672 0.020366 0.020238
v 0.002672 0.020951 0.020382
v 0.002672 0.021554 0.020382
v 0.002672 0.022139 0.020238
v 0.002672 0.022673 0.019958
v 0.002672 0.023124 0.019558
v 0.002672 0.023466 0.019062
v 0.002672 0.023680 0.018499
v 0.002672 0.023753 0.017900
v -0.007328 -0.018027 0.017900
v -0.007328 -0.017954 0.018499
v -0.007328 -0.017741 0.019062
v -0.007328 -0.017398 0.019558
v -0.007328 -0.016947 0.019958
v -0.007328 -0.016413 0.020238
v -0.007328 -0.015828 0.020382
v -0.007328 -0.015226 0.020382
v -0.007328 -0.014640 0.020238
v -0.007328 -0.014107 0.019958
v -0.007328 -0.013656 0.019558
v -0.007328 -0.013313 0.019062
v -0.007328 -0.013100 0.018499
v -0.007328 -0.013027 0.017900
v 0.002672 -0.018027 0.017900
v 0.002672 -0.017954 0.018499
v 0.002672 -0.017741 0.019062
v 0.002672 -0.017398 0.019558
v 0.002672 -0.016947 0.019958
v 0.002672 -0.016413 0.020238
v 0.002672 -0.015828 0.020382
v 0.002672 -0.015226 0.020382
v 0.002672 -0.014640 0.020238
v 0.002672 -0.014107 0.019958
v 0.002672 -0.013656 0.019558
v 0.002672 -0.013313 0.019062
v 0.002672 -0.013100 0.018499
v 0.002672 -0.013027 0.017900
v -0.007328 -0.018027 -0.018879
v -0.007328 -0.017954 -0.018281
v -0.007328 -0.017741 -0.017717
v -0.007328 -0.017398 -0.017221
v -0.007328 -0.016947 -0.016822
v -0.007328 -0.016413 -0.016542
v -0.007328 -0.015828 -0.016397
v -0.007328 -0.015226 -0.016397
v -0.007328 -0.014640 -0.016542
v -0.007328 -0.014107 -0.016822
v -0.007328 -0.013656 -0.017221
v -0.007328 -0.013313 -0.017717
v -0.007328 -0.013100 -0.018281
v -0.007328 -0.013027 -0.018879
v 0.002672 -0.018027 -0.018879
v 0.002672 -0.017954 -0.018281
v 0.002672 -0.017741 -0.017717
v 0.002672 -0.017398 -0.017221
v 0.002672 -0.016947 -0.016822
v 0.002672 -0.016413 -0.016542
v 0.002672 -0.015828 -0.016397
v 0.002672 -0.015226 -0.016397
v 0.002672 -0.014640 -0.016542
v 0.002672 -0.014107 -0.016822
v 0.002672 -0.013656 -0.017221
v 0.002672 -0.013313 -0.017717
v 0.002672 -0.013100 -0.018281
v 0.002672 -0.013027 -0.018879
v -0.007328 0.018753 -0.018879
v -0.007328 0.018825 -0.018281
v -0.007328 0.019039 -0.017717
v -0.007328 0.019381 -0.017221
v -0.007328 0.019832 -0.016822
v -0.007328 0.020366 -0.016542
v -0.007328 0.020951 -0.016397
v -0.007328 0.021554 -0.016397
v -0.007328 0.022139 -0.016542
v -0.007328 0.022673 -0.016822
v -0.007328 0.023124 -0.017221
v -0.007328 0.023466 -0.017717
v -0.007328 0.023680 -0.018281
v -0.007328 0.023753 -0.018879
v 0.002672 0.018753 -0.018879
v 0.002672 0.018825 -0.018281
v 0.002672 0.019039 -0.017717
v 0.002672 0.019381 -0.017221
v 0.002672 0.019832 -0.016822
v 0.002672 0.020366 -0.016542
v 0.002672 0.020951 -0.016397
v 0.002672 0.021554 -0.016397
v 0.002672 0.022139 -0.016542
v 0.002672 0.022673 -0.016822
v 0.002672 0.023124 -0.017221
v 0.002672 0.023466 -0.017717
v 0.002672 0.023680 -0.018281
v 0.002672 0.023753 -0.018879
v -0.007328 0.085363 -0.117739
v -0.007328 0.085363 -0.093239
v 0.002672 0.085363 -0.117739
v 0.002672 0.085363 -0.093239
v -0.007328 0.034863 -0.032989
v -0.007328 0.034950 -0.032271
v -0.007328 0.035206 -0.031595
v -0.007328 0.035617 -0.031000
v -0.007328 0.036159 -0.030520
v -0.007328 0.036799 -0.030184
v -0.007328 0.037501 -0.030011
v -0.007328 0.038224 -0.030011
v -0.007328 0.038927 -0.030184
v -0.007328 0.039567 -0.030520
v -0.007328 0.040108 -0.031000
v -0.007328 0.040519 -0.031595
v -0.007328 0.040776 -0.032271
v -0.007328 0.040863 -0.032989
v 0.002672 0.034863 -0.032989
v 0.002672 0.034950 -0.032271
v 0.002672 0.035206 -0.031595
v 0.002672 0.035617 -0.031000
v 0.002672 0.036159 -0.030520
v 0.002672 0.036799 -0.030184
v 0.002672 0.037501 -0.030011
v 0.002672 0.038224 -0.030011
v 0.002672 0.038927 -0.030184
v 0.002672 0.039567 -0.030520
v 0.002672 0.040108 -0.031000
v 0.002672 0.040519 -0.031595
v 0.002672 0.040776 -0.032271
v 0.002672 0.040863 -0.032989
v -0.007328 -0.035137 -0.092989
v -0.007328 -0.035050 -0.092271
v -0.007328 -0.034794 -0.091595
v -0.007328 -0.034383 -0.091000
v -0.007328 -0.033841 -0.090520
v -0.007328 -0.033201 -0.090184
v -0.007328 -0.032499 -0.090011
v -0.007328 -0.031776 -0.090011
v -0.007328 -0.031073 -0.090184
v -0.007328 -0.030433 -0.090520
v -0.007328 -0.029892 -0.091000
v -0.007328 -0.029481 -0.091595
v -0.007328 -0.029224 -0.092271
v -0.007328 -0.029137 -0.092989
v 0.002672 -0.035137 -0.092989
v 0.002672 -0.035050 -0.092271
v 0.002672 -0.034794 -0.091595
v 0.002672 -0.034383 -0.091000
v 0.002672 -0.033841 -0.090520
v 0.002672 -0.033201 -0.090184
v 0.002672 -0.032499 -0.090011
v 0.002672 -0.031776 -0.090011
v 0.002672 -0.031073 -0.090184
v 0.002672 -0.030433 -0.090520
v 0.002672 -0.029892 -0.091000
v 0.002672 -0.029481 -0.091595
v 0.002672 -0.029224 -0.092271
v 0.002672 -0.029137 -0.092989
v -0.007328 0.034863 -0.092989
v -0.007328 0.034950 -0.092271
v -0.007328 0.035206 -0.091595
v -0.007328 0.035617 -0.091000
v -0.007328 0.036159 -0.090520
v -0.007328 0.036799 -0.090184
v -0.007328 0.037501 -0.090011
v -0.007328 0.038224 -0.090011
v -0.007328 0.038927 -0.090184
v -0.007328 0.039567 -0.090520
v -0.007328 0.040108 -0.091000
v -0.007328 0.040519 -0.091595
v -0.007328 0.040776 -0.092271
v -0.007328 0.040863 -0.092989
v 0.002672 0.034863 -0.092989
v 0.002672 0.034950 -0.092271
v 0.002672 0.035206 -0.091595
v 0.002672 0.035617 -0.091000
v 0.002672 0.036159 -0.090520
v 0.002672 0.036799 -0.090184
v 0.002672 0.037501 -0.090011
v 0.002672 0.038224 -0.090011
v 0.002672 0.038927 -0.090184
v 0.002672 0.039567 -0.090520
v 0.002672 0.040108 -0.091000
v 0.002672 0.040519 -0.091595
v 0.002672 0.040776 -0.092271
v 0.002672 0.040863 -0.092989
v -0.007328 -0.035137 -0.032989
v -0.007328 -0.035050 -0.032271
v -0.007328 -0.034794 -0.031595
v -0.007328 -0.034383 -0.031000
v -0.007328 -0.033841 -0.030520
v -0.007328 -0.033201 -0.030184
v -0.007328 -0.032499 -0.030011
v -0.007328 -0.031776 -0.030011
v -0.007328 -0.031073 -0.030184
v -0.007328 -0.030433 -0.030520
v -0.007328 -0.029892 -0.031000
v -0.007328 -0.029481 -0.031595
v -0.007328 -0.029224 -0.032271
v -0.007328 -0.029137 -0.032989
v 0.002672 -0.035137 -0.032989
v 0.002672 -0.035050 -0.032271
v 0.002672 -0.034794 -0.031595
v 0.002672 -0.034383 -0.031000
v 0.002672 -0.033841 -0.030520
v 0.002672 -0.033201 -0.030184
v 0.002672 -0.032499 -0.030011
v 0.002672 -0.031776 -0.030011
v 0.002672 -0.031073 -0.030184
v 0.002672 -0.030433 -0.030520
v 0.002672 -0.029892 -0.031000
v 0.002672 -0.029481 -0.031595
v 0.002672 -0.029224 -0.032271
v 0.002672 -0.029137 -0.032989
v -0.007328 -0.014637 -0.084989
v -0.007328 -0.014442 -0.082381
v -0.007328 -0.013860 -0.079831
v -0.007328 -0.012904 -0.077396
v -0.007328 -0.011596 -0.075131
v -0.007328 -0.009966 -0.073086
v -0.007328 -0.008048 -0.071307
v -0.007328 -0.005887 -0.069834
v -0.007328 -0.003531 -0.068699
v -0.007328 -0.001031 -0.067928
v -0.007328 0.001555 -0.067538
v -0.007328 0.004171 -0.067538
v -0.007328 0.006757 -0.067928
v -0.007328 0.009256 -0.068699
v -0.007328 0.011613 -0.069834
v -0.007328 0.013774 -0.071307
v -0.007328 0.015691 -0.073086
v -0.007328 0.017322 -0.075131
v -0.007328 0.018630 -0.077396
v -0.007328 0.019585 -0.079831
v -0.007328 0.020167 -0.082381
v -0.007328 0.020363 -0.084989
v 0.002672 -0.014637 -0.084989
v 0.002672 -0.014442 -0.082381
v 0.002672 -0.013860 -0.079831
v 0.002672 -0.012904 -0.077396
v 0.002672 -0.011596 -0.075131
v 0.002672 -0.009966 -0.073086
v 0.002672 -0.008048 -0.071307
v 0.002672 -0.005887 -0.069834
v 0.002672 -0.003531 -0.068699
v 0.002672 -0.001031 -0.067928
v 0.002672 0.001555 -0.067538
v 0.002672 0.004171 -0.067538
v 0.002672 0.006757 -0.067928
v 0.002672 0.009256 -0.068699
v 0.002672 0.011613 -0.069834
v 0.002672 0.013774 -0.071307
v 0.002672 0.015691 -0.073086
v 0.002672 0.017322 -0.075131
v 0.002672 0.018630 -0.077396
v 0.002672 0.019585 -0.079831
v 0.002672 0.020167 -0.082381
v 0.002672 0.020363 -0.084989
v 0.002672 0.085363 -0.117739
v 0.002672 -0.074637 -0.117739
v -0.007328 0.085363 -0.117739
v -0.007328 -0.074637 -0.117739
vn -0.0000 -0.9972 0.0747
vn -0.0000 -0.9888 0.1490
vn -0.0000 -0.9626 0.2708
vn -0.0000 -0.9479 0.3185
vn -0.0000 -0.9888 0.1491
vn -0.0000 -0.9115 0.4112
vn -0.0000 -0.8899 0.4562
vn -0.0000 -0.8401 0.5425
vn -0.0000 -0.8119 0.5838
vn -0.0000 -0.8898 0.4563
vn -0.0000 -0.9115 0.4113
vn -0.0000 -0.7498 0.6616
vn -0.0000 -0.7158 0.6983
vn -0.0000 -0.8400 0.5425
vn -0.0000 -0.6428 0.7660
vn -0.0000 -0.6038 0.7971
vn -0.0000 -0.7498 0.6617
vn -0.0000 -0.5000 0.8660
vn -0.0000 -0.6038 0.7972
vn -0.0000 -0.3654 0.9309
vn -0.0000 -0.2468 0.9691
vn -0.0000 -0.1981 0.9802
vn -0.0000 -0.3653 0.9309
vn -0.0000 -0.0996 0.9950
vn -0.0000 -0.0498 0.9988
vn -0.0000 0.0747 0.9972
vn -0.0000 0.2225 0.9749
vn -0.0000 0.3653 0.9309
vn -0.0000 0.3654 0.9309
vn -0.0000 0.5000 0.8660
vn -0.0000 0.6038 0.7972
vn -0.0000 0.6428 0.7660
vn -0.0000 0.7158 0.6983
vn -0.0000 0.6038 0.7971
vn -0.0000 0.7498 0.6617
vn -0.0000 0.8262 0.5633
vn -0.0000 0.7498 0.6616
vn -0.0000 0.9010 0.4339
vn -0.0000 0.9556 0.2948
vn -0.0000 0.9556 0.2947
vn -0.0000 0.9888 0.1491
vn -0.0000 0.9972 0.0747
vn -0.0000 0.9888 0.1490
vn -0.0000 -0.9927 0.1205
vn -0.0000 -0.9709 0.2393
vn -0.0000 -0.8854 0.4647
vn -0.0000 -0.8855 0.4647
vn -0.0000 -0.7485 0.6631
vn -0.0000 -0.6009 0.7993
vn -0.0000 -0.5343 0.8453
vn -0.0000 -0.3546 0.9350
vn -0.0000 -0.1206 0.9927
vn -0.0000 -0.1205 0.9927
vn -0.0000 0.0803 0.9968
vn -0.0000 0.1606 0.9870
vn -0.0000 0.3165 0.9486
vn -0.0000 0.3921 0.9199
vn -0.0000 0.5343 0.8453
vn -0.0000 0.6009 0.7993
vn -0.0000 0.7485 0.6631
vn -0.0000 0.8659 0.5002
vn -0.0000 0.9035 0.4285
vn -0.0000 0.9709 0.2393
vn -0.0000 0.8659 0.5001
vn -0.0000 0.9927 0.1205
vn -0.0000 0.7211 0.6928
vn -0.0000 0.7747 0.6323
vn -0.0000 0.8855 0.4647
vn -0.0000 0.8854 0.4647
vn -0.0000 -0.7747 0.6323
vn -0.0000 -0.7211 0.6928
vn -0.0000 -0.5681 0.8230
vn -0.0000 -0.3921 0.9199
vn -0.0000 -0.3165 0.9486
vn -0.0000 -0.1606 0.9870
vn -0.0000 -0.0803 0.9968
vn -0.0000 0.9605 0.2784
vn -0.0000 0.9798 0.1999
vn -0.0000 -0.9927 0.1206
vn -0.0000 0.9035 0.4286
vn -0.0000 0.7211 0.6929
vn -1.0000 -0.0000 -0.0000
vn 1.0000 -0.0000 -0.0000
vn -0.0000 1.0000 -0.0000
vn -0.0000 -0.0000 1.0000
vn -0.0000 -1.0000 -0.0000
vn -0.0000 0.7071 0.7071
vn -0.0000 -0.4226 0.9063
vn -0.0000 -0.9952 0.0980
vn -0.0000 -0.9867 0.1628
vn -0.0000 -0.9739 0.2272
vn -0.0000 -0.9359 0.3522
vn -0.0000 -0.9739 0.2271
vn -0.0000 -0.9108 0.4128
vn -0.0000 -0.9359 0.3521
vn -0.0000 -0.8493 0.5280
vn -0.0000 -0.8128 0.5826
vn -0.0000 -0.7299 0.6835
vn -0.0001 -0.8128 0.5826
vn -0.0000 -0.6835 0.7299
vn -0.0000 -0.5826 0.8128
vn -0.0000 -0.5280 0.8493
vn -0.0000 -0.4128 0.9108
vn -0.0000 -0.3521 0.9359
vn -0.0000 -0.1951 0.9808
vn -0.0000 -0.3522 0.9359
vn -0.0000 -0.0980 0.9952
vn -0.0000 0.9952 0.0980
vn -0.0000 0.9867 0.1628
vn -0.0000 0.9739 0.2272
vn -0.0000 0.9359 0.3521
vn -0.0000 0.9108 0.4128
vn -0.0000 0.8493 0.5280
vn -0.0000 0.8128 0.5826
vn -0.0000 0.7299 0.6835
vn -0.0000 0.6835 0.7299
vn -0.0000 0.5556 0.8315
vn -0.0000 0.3827 0.9239
vn -0.0000 0.2272 0.9739
vn -0.0000 0.1628 0.9867
vn -0.0000 0.0980 0.9952
vn -0.0000 0.9922 -0.1243
vn -0.0000 0.9972 -0.0747
vn -0.0000 0.9848 -0.1737
vn -0.0000 0.9626 -0.2708
vn -0.0000 0.9479 -0.3185
vn -0.0000 0.9010 -0.4339
vn -0.0000 0.8262 -0.5633
vn -0.0000 0.7331 -0.6802
vn -0.0000 0.7330 -0.6802
vn -0.0000 0.6235 -0.7818
vn -0.0000 0.5000 -0.8660
vn -0.0000 0.3654 -0.9309
vn -0.0000 0.2468 -0.9691
vn -0.0000 0.1981 -0.9802
vn -0.0000 0.3653 -0.9309
vn -0.0000 0.0747 -0.9972
vn -0.0000 -0.0747 -0.9972
vn -0.0000 -0.2225 -0.9749
vn -0.0000 -0.3653 -0.9309
vn -0.0000 -0.4782 -0.8782
vn -0.0000 -0.3654 -0.9309
vn -0.0000 -0.5215 -0.8533
vn -0.0000 -0.6038 -0.7972
vn -0.0000 -0.6428 -0.7660
vn -0.0000 -0.7158 -0.6983
vn -0.0000 -0.6038 -0.7971
vn -0.0000 -0.7498 -0.6617
vn -0.0000 -0.8119 -0.5838
vn -0.0000 -0.7498 -0.6616
vn -0.0000 -0.8400 -0.5425
vn -0.0000 -0.8898 -0.4563
vn -0.0000 -0.8401 -0.5425
vn -0.0000 -0.9115 -0.4113
vn -0.0000 -0.9479 -0.3185
vn -0.0000 -0.9115 -0.4112
vn -0.0000 -0.8899 -0.4562
vn -0.0000 -0.9626 -0.2708
vn -0.0000 -0.9848 -0.1737
vn -0.0000 -0.9922 -0.1243
vn -0.0000 -0.9972 -0.0747
vn -0.0000 0.9798 -0.1999
vn -0.0000 0.9927 -0.1205
vn -0.0000 0.9605 -0.2784
vn -0.0000 0.8854 -0.4647
vn -0.0000 0.7485 -0.6631
vn -0.0000 0.8855 -0.4647
vn -0.0000 0.6009 -0.7993
vn -0.0000 0.5343 -0.8453
vn -0.0000 0.3546 -0.9350
vn -0.0000 0.1205 -0.9927
vn -0.0000 -0.0803 -0.9968
vn -0.0000 -0.1606 -0.9870
vn -0.0000 0.1206 -0.9927
vn -0.0000 -0.3165 -0.9486
vn -0.0000 -0.3921 -0.9199
vn -0.0000 -0.5343 -0.8453
vn -0.0000 -0.6009 -0.7993
vn -0.0000 -0.7485 -0.6631
vn -0.0000 -0.8659 -0.5001
vn -0.0000 -0.9035 -0.4285
vn -0.0000 -0.9709 -0.2393
vn -0.0000 -0.9927 -0.1205
vn -0.0000 0.9798 -0.1998
vn -0.0000 0.9035 -0.4285
vn -0.0000 0.8659 -0.5002
vn -0.0000 0.9035 -0.4286
vn -0.0000 0.1606 -0.9870
vn -0.0000 0.0803 -0.9968
vn -0.0000 -0.3546 -0.9350
vn -0.0000 -0.5681 -0.8230
vn -0.0000 -0.9035 -0.4286
vn -0.0000 -0.9927 -0.1206
vn -0.0000 0.9709 -0.2393
vn -0.0000 -0.7211 -0.6928
vn -0.0000 -0.7747 -0.6323
vn -0.0000 -0.8854 -0.4647
vn -0.0000 -0.8855 -0.4647
vn -0.0000 -0.7211 -0.6929
vn -0.0000 -0.4782 -0.8783
vn -0.0000 -0.0000 -1.0000
s 0
usemtl material10
f 3//1 25//2 24//1
f 4//2 25//2 3//1
f 5//3 26//4 25//5
f 5//3 25//5 4//5
f 6//6 27//7 26//4
f 6//6 26//4 5//3
f 7//8 28//9 27//10
f 7//8 27//10 6//11
f 8//12 29//13 28//9
f 8//12 28//9 7//14
f 9//15 30//16 29//13
f 9//15 29//13 8//17
f 10//18 31//18 30//19
f 10//18 32//20 31//18
f 10//18 30//19 9//15
f 11//20 32//20 10//18
f 12//21 33//22 32//23
f 12//21 32//23 11//23
f 13//24 34//25 33//22
f 13//24 33//22 12//21
f 14//26 35//26 34//25
f 14//26 36//27 35//26
f 14//26 34//25 13//24
f 15//27 36//27 14//26
f 16//28 37//28 36//27
f 16//29 38//30 37//29
f 16//28 36//27 15//27
f 17//30 38//30 16//29
f 18//31 38//30 17//30
f 18//31 39//32 38//30
f 19//33 39//32 18//34
f 19//33 40//35 39//32
f 20//36 40//37 19//33
f 20//36 41//36 40//37
f 20//36 42//38 41//36
f 21//38 42//38 20//36
f 22//39 42//38 21//38
f 22//39 43//39 42//38
f 22//40 44//41 43//40
f 23//41 44//41 22//40
f 2//42 44//43 23//43
f 2//42 1//42 44//43
f 47//44 61//45 60//44
f 48//45 61//45 47//44
f 49//46 62//46 61//45
f 49//47 63//48 62//47
f 49//47 61//45 48//45
f 50//48 63//48 49//47
f 51//49 64//50 63//48
f 51//49 63//48 50//48
f 52//51 65//51 64//50
f 52//51 66//52 65//51
f 52//51 64//50 51//49
f 53//53 66//53 52//51
f 54//54 67//55 66//52
f 54//54 66//52 53//52
f 55//56 68//57 67//55
f 55//56 67//55 54//54
f 56//58 69//59 68//57
f 56//58 68//57 55//56
f 57//60 70//60 69//59
f 57//60 71//61 70//60
f 57//60 69//59 56//58
f 58//62 72//63 71//64
f 58//62 71//61 57//60
f 59//63 72//63 58//62
f 46//65 45//65 72//63
f 46//65 72//63 59//63
f 75//44 89//45 88//44
f 76//45 89//45 75//44
f 77//46 90//46 89//45
f 77//47 91//48 90//47
f 77//46 89//45 76//45
f 78//48 91//48 77//47
f 79//49 92//50 91//48
f 79//49 91//48 78//48
f 80//51 93//51 92//50
f 80//51 94//53 93//51
f 80//51 92//50 79//49
f 81//53 94//53 80//51
f 82//54 95//55 94//52
f 82//54 94//52 81//52
f 83//56 96//57 95//55
f 83//56 95//55 82//54
f 84//58 97//59 96//57
f 84//58 96//57 83//56
f 85//66 98//67 97//59
f 85//66 97//59 84//58
f 86//68 99//68 98//67
f 86//68 100//63 99//68
f 86//68 98//67 85//66
f 87//63 100//63 86//69
f 74//65 73//65 100//63
f 74//65 100//63 87//63
f 103//44 117//45 116//44
f 104//45 117//45 103//44
f 105//46 118//46 117//45
f 105//47 119//48 118//47
f 105//47 117//45 104//45
f 106//48 119//48 105//47
f 107//49 120//50 119//48
f 107//49 119//48 106//48
f 108//51 121//51 120//50
f 108//51 122//53 121//51
f 108//51 120//50 107//49
f 109//53 122//53 108//51
f 110//54 123//55 122//52
f 110//54 122//52 109//52
f 111//56 124//57 123//55
f 111//56 123//55 110//54
f 112//58 125//59 124//57
f 112//58 124//57 111//56
f 113//60 126//60 125//59
f 113//60 127//61 126//60
f 113//60 125//59 112//58
f 114//62 128//63 127//64
f 114//62 127//61 113//60
f 115//63 128//63 114//62
f 102//65 101//65 128//63
f 102//65 128//63 115//63
f 131//44 145//45 144//44
f 132//45 145//45 131//44
f 133//46 146//46 145//45
f 133//47 147//48 146//47
f 133//46 145//45 132//45
f 134//48 147//48 133//47
f 135//49 148//50 147//48
f 135//49 147//48 134//48
f 136//51 149//51 148//50
f 136//51 150//52 149//51
f 136//51 148//50 135//49
f 137//52 150//52 136//51
f 138//54 151//55 150//52
f 138//54 150//52 137//52
f 139//56 152//57 151//55
f 139//56 151//55 138//54
f 140//58 153//59 152//57
f 140//58 152//57 139//56
f 141//66 154//67 153//59
f 141//66 153//59 140//58
f 142//69 155//68 154//67
f 142//68 156//63 155//69
f 142//68 154//67 141//66
f 143//63 156//63 142//69
f 130//65 129//65 156//63
f 130//65 156//63 143//63
f 159//44 173//45 172//44
f 160//45 173//45 159//44
f 161//46 174//46 173//45
f 161//46 175//70 174//46
f 161//46 173//45 160//45
f 162//71 176//72 175//70
f 162//71 175//70 161//47
f 163//72 176//72 162//71
f 164//73 177//74 176//72
f 164//73 176//72 163//72
f 165//75 178//76 177//74
f 165//75 177//74 164//73
f 166//54 179//55 178//76
f 166//54 178//76 165//75
f 167//56 180//57 179//55
f 167//56 179//55 166//54
f 168//58 181//59 180//57
f 168//58 180//57 167//56
f 169//60 182//60 181//59
f 169//60 183//68 182//60
f 169//60 181//59 168//58
f 170//69 183//69 169//60
f 171//77 184//78 183//69
f 171//77 183//69 170//69
f 158//65 157//65 184//78
f 158//65 184//78 171//77
f 187//79 201//45 200//79
f 188//45 201//45 187//44
f 189//47 202//47 201//45
f 189//46 203//48 202//46
f 189//47 201//45 188//45
f 190//48 203//48 189//46
f 191//49 204//50 203//48
f 191//49 203//48 190//48
f 192//51 205//51 204//50
f 192//51 206//53 205//51
f 192//51 204//50 191//49
f 193//53 206//53 192//51
f 194//54 207//55 206//52
f 194//54 206//52 193//52
f 195//56 208//57 207//55
f 195//56 207//55 194//54
f 196//58 209//59 208//57
f 196//58 208//57 195//56
f 197//60 210//60 209//59
f 197//60 211//61 210//60
f 197//60 209//59 196//58
f 198//62 212//63 211//61
f 198//62 211//61 197//60
f 199//63 212//63 198//80
f 186//65 185//65 212//63
f 186//65 212//63 199//63
f 215//79 229//45 228//79
f 216//45 229//45 215//44
f 217//47 230//47 229//45
f 217//46 231//48 230//46
f 217//46 229//45 216//45
f 218//48 231//48 217//46
f 219//49 232//50 231//48
f 219//49 231//48 218//48
f 220//51 233//51 232//50
f 220//51 234//53 233//51
f 220//51 232//50 219//49
f 221//53 234//53 220//51
f 222//54 235//55 234//52
f 222//54 234//52 221//52
f 223//56 236//57 235//55
f 223//56 235//55 222//54
f 224//58 237//59 236//57
f 224//58 236//57 223//56
f 225//81 238//67 237//59
f 225//66 237//59 224//58
f 226//68 239//68 238//67
f 226//69 240//63 239//69
f 226//68 238//67 225//66
f 227//63 240//63 226//68
f 214//65 213//65 240//63
f 214//65 240//63 227//63
f 243//44 257//45 256//44
f 244//45 257//45 243//44
f 245//47 258//47 257//45
f 245//46 259//48 258//46
f 245//47 257//45 244//45
f 246//48 259//48 245//47
f 247//49 260//50 259//48
f 247//49 259//48 246//48
f 248//51 261//51 260//50
f 248//51 262//53 261//51
f 248//51 260//50 247//49
f 249//53 262//53 248//51
f 250//54 263//55 262//52
f 250//54 262//52 249//52
f 251//56 264//57 263//55
f 251//56 263//55 250//54
f 252//58 265//59 264//57
f 252//58 264//57 251//56
f 253//66 266//67 265//59
f 253//66 265//59 252//58
f 254//69 267//69 266//67
f 254//68 268//63 267//68
f 254//68 266//67 253//66
f 255//63 268//63 254//68
f 242//65 241//65 268//63
f 242//65 268//63 255//63
f 271//1 293//2 292//1
f 272//2 293//2 271//1
f 273//3 294//4 293//5
f 273//3 293//5 272//5
f 274//6 295//7 294//4
f 274//6 294//4 273//3
f 275//8 296//9 295//10
f 275//8 295//10 274//11
f 276//12 297//13 296//9
f 276//12 296//9 275//14
f 277//15 298//16 297//13
f 277//15 297//13 276//17
f 278//18 299//18 298//19
f 278//18 300//20 299//18
f 278//18 298//19 277//15
f 279//20 300//20 278//18
f 280//21 301//22 300//23
f 280//21 300//23 279//23
f 281//24 302//25 301//22
f 281//24 301//22 280//21
f 282//26 303//26 302//25
f 282//26 304//27 303//26
f 282//26 302//25 281//24
f 283//27 304//27 282//26
f 284//28 305//28 304//27
f 284//29 306//30 305//29
f 284//28 304//27 283//27
f 285//30 306//30 284//29
f 286//31 306//30 285//30
f 286//31 307//32 306//30
f 287//33 307//32 286//34
f 287//33 308//35 307//32
f 288//36 308//37 287//33
f 288//36 309//36 308//37
f 288//36 310//38 309//36
f 289//38 310//38 288//36
f 290//39 310//38 289//38
f 290//39 311//39 310//38
f 290//40 312//41 311//40
f 291//41 312//41 290//40
f 270//42 312//43 291//43
f 270//42 269//42 312//43
f 422//82 421//82 334//82
f 420//82 333//82 334//82
f 420//82 334//82 421//82
f 423//82 422//82 334//82
f 419//82 333//82 420//82
f 424//82 423//82 334//82
f 418//82 333//82 419//82
f 425//82 424//82 334//82
f 417//82 333//82 418//82
f 416//82 333//82 417//82
f 415//82 333//82 416//82
f 363//82 428//82 427//82
f 364//82 427//82 426//82
f 364//82 363//82 427//82
f 362//82 429//82 428//82
f 362//82 428//82 363//82
f 365//82 426//82 425//82
f 365//82 364//82 426//82
f 361//82 430//82 429//82
f 361//82 429//82 362//82
f 366//82 425//82 334//82
f 366//82 365//82 425//82
f 360//82 405//82 430//82
f 360//82 430//82 361//82
f 360//82 406//82 405//82
f 367//82 366//82 334//82
f 359//82 406//82 360//82
f 359//82 407//82 406//82
f 368//82 367//82 334//82
f 358//82 407//82 359//82
f 358//82 408//82 407//82
f 358//82 409//82 408//82
f 357//82 409//82 358//82
f 357//82 410//82 409//82
f 356//82 410//82 357//82
f 356//82 411//82 410//82
f 332//82 414//82 413//82
f 332//82 415//82 414//82
f 332//82 333//82 415//82
f 332//82 412//82 411//82
f 332//82 413//82 412//82
f 355//82 411//82 356//82
f 355//82 332//82 411//82
f 354//82 332//82 355//82
f 353//82 332//82 354//82
f 352//82 332//82 353//82
f 351//82 332//82 352//82
f 474//82 473//82 332//82
f 472//82 332//82 473//82
f 475//82 474//82 332//82
f 471//82 332//82 472//82
f 476//82 475//82 332//82
f 470//82 332//82 471//82
f 477//82 476//82 332//82
f 478//82 477//82 332//82
f 479//82 332//82 351//82
f 479//82 478//82 332//82
f 480//82 351//82 350//82
f 480//82 479//82 351//82
f 481//82 350//82 349//82
f 481//82 480//82 350//82
f 447//82 375//82 374//82
f 448//82 447//82 374//82
f 448//82 374//82 373//82
f 446//82 376//82 375//82
f 446//82 375//82 447//82
f 449//82 448//82 373//82
f 449//82 373//82 372//82
f 445//82 376//82 446//82
f 445//82 377//82 376//82
f 450//82 449//82 372//82
f 450//82 372//82 371//82
f 444//82 377//82 445//82
f 443//82 377//82 444//82
f 443//82 378//82 377//82
f 442//82 378//82 443//82
f 442//82 337//82 378//82
f 441//82 337//82 442//82
f 440//82 338//82 337//82
f 440//82 337//82 441//82
f 439//82 339//82 338//82
f 439//82 338//82 440//82
f 438//82 340//82 339//82
f 438//82 339//82 439//82
f 437//82 340//82 438//82
f 499//82 460//82 459//82
f 500//82 459//82 458//82
f 500//82 499//82 459//82
f 498//82 461//82 460//82
f 498//82 460//82 499//82
f 501//82 458//82 457//82
f 501//82 500//82 458//82
f 497//82 462//82 461//82
f 497//82 461//82 498//82
f 335//82 450//82 371//82
f 335//82 432//82 431//82
f 335//82 451//82 450//82
f 335//82 452//82 451//82
f 335//82 453//82 452//82
f 335//82 454//82 453//82
f 335//82 455//82 454//82
f 335//82 456//82 455//82
f 335//82 431//82 456//82
f 335//82 369//82 368//82
f 335//82 370//82 369//82
f 335//82 371//82 370//82
f 335//82 368//82 334//82
f 502//82 457//82 482//82
f 502//82 501//82 457//82
f 496//82 463//82 462//82
f 496//82 462//82 497//82
f 503//82 482//82 481//82
f 503//82 502//82 482//82
f 495//82 464//82 463//82
f 495//82 463//82 496//82
f 504//82 503//82 481//82
f 504//82 349//82 348//82
f 504//82 481//82 349//82
f 494//82 465//82 464//82
f 494//82 464//82 495//82
f 505//82 504//82 348//82
f 331//82 466//82 465//82
f 331//82 467//82 466//82
f 331//82 468//82 467//82
f 331//82 469//82 468//82
f 331//82 465//82 494//82
f 613//82 487//82 486//82
f 613//82 488//82 487//82
f 614//82 485//82 484//82
f 614//82 486//82 485//82
f 614//82 613//82 486//82
f 612//82 488//82 613//82
f 612//82 489//82 488//82
f 612//82 490//82 489//82
f 615//82 484//82 483//82
f 615//82 614//82 484//82
f 615//82 483//82 508//82
f 611//82 490//82 612//82
f 611//82 491//82 490//82
f 611//82 492//82 491//82
f 616//82 615//82 508//82
f 616//82 507//82 506//82
f 616//82 508//82 507//82
f 610//82 492//82 611//82
f 610//82 493//82 492//82
f 617//82 616//82 506//82
f 617//82 506//82 505//82
f 329//82 330//82 331//82
f 609//82 331//82 494//82
f 609//82 493//82 610//82
f 609//82 494//82 493//82
f 618//82 505//82 348//82
f 618//82 617//82 505//82
f 328//82 329//82 331//82
f 608//82 331//82 609//82
f 619//82 618//82 348//82
f 619//82 348//82 347//82
f 607//82 331//82 608//82
f 326//82 327//82 328//82
f 326//82 328//82 331//82
f 323//82 324//82 325//82
f 323//82 325//82 326//82
f 323//82 326//82 331//82
f 525//82 621//82 620//82
f 577//82 331//82 607//82
f 577//82 607//82 606//82
f 526//82 620//82 619//82
f 526//82 619//82 347//82
f 526//82 525//82 620//82
f 578//82 577//82 606//82
f 578//82 606//82 605//82
f 524//82 621//82 525//82
f 576//82 331//82 577//82
f 527//82 526//82 347//82
f 527//82 347//82 346//82
f 579//82 578//82 605//82
f 523//82 622//82 621//82
f 523//82 621//82 524//82
f 575//82 323//82 331//82
f 575//82 331//82 576//82
f 580//82 579//82 605//82
f 580//82 605//82 604//82
f 522//82 622//82 523//82
f 574//82 323//82 575//82
f 581//82 580//82 604//82
f 521//82 623//82 622//82
f 521//82 622//82 522//82
f 573//82 323//82 574//82
f 395//82 345//82 344//82
f 396//82 344//82 343//82
f 396//82 395//82 344//82
f 394//82 345//82 395//82
f 394//82 528//82 527//82
f 394//82 346//82 345//82
f 394//82 527//82 346//82
f 582//82 581//82 604//82
f 397//82 396//82 343//82
f 397//82 343//82 342//82
f 393//82 528//82 394//82
f 393//82 529//82 528//82
f 520//82 623//82 521//82
f 572//82 323//82 573//82
f 603//82 582//82 604//82
f 398//82 342//82 341//82
f 398//82 397//82 342//82
f 583//82 582//82 603//82
f 392//82 530//82 529//82
f 392//82 529//82 393//82
f 519//82 623//82 520//82
f 571//82 323//82 572//82
f 399//82 398//82 341//82
f 584//82 583//82 603//82
f 391//82 531//82 530//82
f 391//82 530//82 392//82
f 570//82 323//82 571//82
f 624//82 623//82 519//82
f 624//82 519//82 518//82
f 390//82 532//82 531//82
f 390//82 531//82 391//82
f 517//82 624//82 518//82
f 569//82 323//82 570//82
f 568//82 323//82 569//82
f 389//82 533//82 532//82
f 389//82 532//82 390//82
f 602//82 585//82 584//82
f 602//82 584//82 603//82
f 602//82 586//82 585//82
f 567//82 323//82 568//82
f 566//82 323//82 567//82
f 388//82 534//82 533//82
f 388//82 533//82 389//82
f 387//82 509//82 534//82
f 387//82 534//82 388//82
f 625//82 516//82 515//82
f 625//82 517//82 516//82
f 625//82 624//82 517//82
f 386//82 509//82 387//82
f 386//82 510//82 509//82
f 385//82 510//82 386//82
f 385//82 511//82 510//82
f 313//82 399//82 341//82
f 313//82 436//82 435//82
f 313//82 437//82 436//82
f 313//82 341//82 340//82
f 313//82 340//82 437//82
f 313//82 400//82 399//82
f 313//82 401//82 400//82
f 313//82 402//82 401//82
f 313//82 403//82 402//82
f 313//82 404//82 403//82
f 313//82 379//82 404//82
f 380//82 379//82 313//82
f 384//82 511//82 385//82
f 601//82 562//82 561//82
f 601//82 561//82 586//82
f 601//82 586//82 602//82
f 381//82 380//82 313//82
f 382//82 381//82 313//82
f 626//82 515//82 514//82
f 626//82 625//82 515//82
f 626//82 514//82 513//82
f 600//82 562//82 601//82
f 600//82 563//82 562//82
f 600//82 564//82 563//82
f 627//82 626//82 513//82
f 627//82 513//82 512//82
f 599//82 565//82 564//82
f 599//82 564//82 600//82
f 628//82 627//82 512//82
f 628//82 512//82 511//82
f 598//82 565//82 599//82
f 598//82 566//82 565//82
f 597//82 566//82 598//82
f 336//82 433//82 432//82
f 336//82 434//82 433//82
f 336//82 435//82 434//82
f 336//82 432//82 335//82
f 336//82 313//82 435//82
f 551//82 593//82 592//82
f 552//82 551//82 592//82
f 550//82 593//82 551//82
f 553//82 592//82 591//82
f 553//82 552//82 592//82
f 549//82 593//82 550//82
f 549//82 594//82 593//82
f 554//82 553//82 591//82
f 548//82 594//82 549//82
f 555//82 591//82 590//82
f 555//82 554//82 591//82
f 547//82 595//82 594//82
f 547//82 594//82 548//82
f 556//82 555//82 590//82
f 546//82 595//82 547//82
f 557//82 590//82 589//82
f 557//82 556//82 590//82
f 545//82 596//82 595//82
f 545//82 595//82 546//82
f 558//82 589//82 588//82
f 558//82 557//82 589//82
f 544//82 596//82 545//82
f 544//82 597//82 596//82
f 543//82 323//82 566//82
f 543//82 566//82 597//82
f 543//82 597//82 544//82
f 314//82 558//82 588//82
f 314//82 587//82 628//82
f 314//82 628//82 511//82
f 314//82 511//82 384//82
f 314//82 382//82 313//82
f 314//82 559//82 558//82
f 314//82 560//82 559//82
f 314//82 383//82 382//82
f 314//82 384//82 383//82
f 314//82 588//82 587//82
f 322//82 323//82 543//82
f 322//82 536//82 535//82
f 322//82 537//82 536//82
f 322//82 538//82 537//82
f 322//82 539//82 538//82
f 322//82 540//82 539//82
f 322//82 541//82 540//82
f 322//82 542//82 541//82
f 322//82 560//82 314//82
f 322//82 543//82 542//82
f 322//82 535//82 560//82
f 316//82 314//82 315//82
f 320//82 321//82 322//82
f 318//82 316//82 317//82
f 318//82 319//82 320//82
f 318//82 320//82 322//82
f 318//82 314//82 316//82
f 318//82 322//82 314//82
f 331//82 332//82 470//82
f 331//82 470//82 469//82
f 725//83 640//83 724//83
f 723//83 640//83 639//83
f 723//83 724//83 640//83
f 726//83 640//83 725//83
f 722//83 723//83 639//83
f 727//83 640//83 726//83
f 721//83 722//83 639//83
f 728//83 640//83 727//83
f 746//83 721//83 639//83
f 745//83 746//83 639//83
f 744//83 745//83 639//83
f 658//83 730//83 731//83
f 659//83 729//83 730//83
f 659//83 730//83 658//83
f 657//83 731//83 732//83
f 657//83 658//83 731//83
f 660//83 729//83 659//83
f 660//83 728//83 729//83
f 656//83 732//83 733//83
f 656//83 657//83 732//83
f 661//83 640//83 728//83
f 661//83 728//83 660//83
f 655//83 733//83 734//83
f 655//83 734//83 735//83
f 655//83 656//83 733//83
f 662//83 640//83 661//83
f 654//83 735//83 736//83
f 654//83 655//83 735//83
f 663//83 640//83 662//83
f 653//83 736//83 737//83
f 653//83 737//83 738//83
f 653//83 654//83 736//83
f 694//83 738//83 739//83
f 694//83 653//83 738//83
f 693//83 739//83 740//83
f 693//83 694//83 739//83
f 638//83 740//83 741//83
f 638//83 741//83 742//83
f 638//83 742//83 743//83
f 638//83 743//83 744//83
f 638//83 744//83 639//83
f 692//83 693//83 740//83
f 692//83 740//83 638//83
f 691//83 692//83 638//83
f 690//83 691//83 638//83
f 689//83 690//83 638//83
f 688//83 689//83 638//83
f 777//83 638//83 776//83
f 775//83 776//83 638//83
f 778//83 638//83 777//83
f 774//83 775//83 638//83
f 779//83 638//83 778//83
f 773//83 774//83 638//83
f 780//83 638//83 779//83
f 781//83 638//83 780//83
f 782//83 688//83 638//83
f 782//83 638//83 781//83
f 783//83 688//83 782//83
f 783//83 687//83 688//83
f 784//83 686//83 687//83
f 784//83 687//83 783//83
f 750//83 669//83 670//83
f 751//83 668//83 669//83
f 751//83 669//83 750//83
f 749//83 750//83 670//83
f 749//83 670//83 671//83
f 752//83 668//83 751//83
f 752//83 667//83 668//83
f 748//83 749//83 671//83
f 748//83 671//83 672//83
f 753//83 667//83 752//83
f 753//83 666//83 667//83
f 747//83 748//83 672//83
f 772//83 747//83 672//83
f 772//83 672//83 673//83
f 771//83 772//83 673//83
f 771//83 673//83 674//83
f 770//83 771//83 674//83
f 769//83 770//83 674//83
f 769//83 674//83 675//83
f 768//83 769//83 675//83
f 768//83 675//83 676//83
f 767//83 768//83 676//83
f 767//83 676//83 677//83
f 766//83 767//83 677//83
f 802//83 788//83 789//83
f 803//83 787//83 788//83
f 803//83 788//83 802//83
f 801//83 789//83 790//83
f 801//83 802//83 789//83
f 804//83 786//83 787//83
f 804//83 787//83 803//83
f 800//83 790//83 791//83
f 800//83 801//83 790//83
f 641//83 666//83 753//83
f 641//83 753//83 754//83
f 641//83 754//83 755//83
f 641//83 755//83 756//83
f 641//83 756//83 757//83
f 641//83 757//83 758//83
f 641//83 758//83 759//83
f 641//83 759//83 760//83
f 641//83 760//83 761//83
f 641//83 663//83 664//83
f 641//83 664//83 665//83
f 641//83 665//83 666//83
f 641//83 640//83 663//83
f 805//83 785//83 786//83
f 805//83 786//83 804//83
f 799//83 791//83 792//83
f 799//83 800//83 791//83
f 806//83 784//83 785//83
f 806//83 785//83 805//83
f 824//83 792//83 793//83
f 824//83 799//83 792//83
f 807//83 685//83 686//83
f 807//83 686//83 784//83
f 807//83 784//83 806//83
f 823//83 793//83 794//83
f 823//83 824//83 793//83
f 808//83 685//83 807//83
f 629//83 794//83 795//83
f 629//83 795//83 796//83
f 629//83 796//83 797//83
f 629//83 797//83 798//83
f 629//83 823//83 794//83
f 908//83 815//83 816//83
f 908//83 816//83 817//83
f 909//83 813//83 814//83
f 909//83 814//83 815//83
f 909//83 815//83 908//83
f 907//83 908//83 817//83
f 907//83 817//83 818//83
f 907//83 818//83 819//83
f 910//83 813//83 909//83
f 910//83 811//83 812//83
f 910//83 812//83 813//83
f 906//83 907//83 819//83
f 906//83 819//83 820//83
f 906//83 820//83 821//83
f 911//83 811//83 910//83
f 911//83 809//83 810//83
f 911//83 810//83 811//83
f 905//83 906//83 821//83
f 905//83 821//83 822//83
f 912//83 808//83 809//83
f 912//83 809//83 911//83
f 631//83 629//83 630//83
f 904//83 823//83 629//83
f 904//83 905//83 822//83
f 904//83 822//83 823//83
f 913//83 808//83 912//83
f 913//83 685//83 808//83
f 632//83 629//83 631//83
f 903//83 904//83 629//83
f 914//83 685//83 913//83
f 914//83 684//83 685//83
f 944//83 903//83 629//83
f 634//83 632//83 633//83
f 634//83 629//83 632//83
f 636//83 634//83 635//83
f 637//83 629//83 634//83
f 637//83 634//83 636//83
f 828//83 915//83 916//83
f 880//83 943//83 944//83
f 880//83 944//83 629//83
f 829//83 684//83 914//83
f 829//83 915//83 828//83
f 829//83 914//83 915//83
f 881//83 942//83 943//83
f 881//83 943//83 880//83
f 827//83 828//83 916//83
f 879//83 880//83 629//83
f 830//83 684//83 829//83
f 830//83 683//83 684//83
f 882//83 942//83 881//83
f 826//83 827//83 916//83
f 826//83 916//83 917//83
f 878//83 629//83 637//83
f 878//83 879//83 629//83
f 883//83 941//83 942//83
f 883//83 942//83 882//83
f 825//83 826//83 917//83
f 877//83 878//83 637//83
f 884//83 941//83 883//83
f 850//83 825//83 917//83
f 850//83 917//83 918//83
f 902//83 877//83 637//83
f 698//83 681//83 682//83
f 699//83 681//83 698//83
f 699//83 680//83 681//83
f 697//83 830//83 831//83
f 697//83 698//83 682//83
f 697//83 682//83 683//83
f 697//83 683//83 830//83
f 885//83 941//83 884//83
f 700//83 680//83 699//83
f 700//83 679//83 680//83
f 696//83 831//83 832//83
f 696//83 697//83 831//83
f 849//83 850//83 918//83
f 901//83 902//83 637//83
f 940//83 941//83 885//83
f 701//83 679//83 700//83
f 701//83 678//83 679//83
f 886//83 940//83 885//83
f 695//83 832//83 833//83
f 695//83 696//83 832//83
f 848//83 849//83 918//83
f 900//83 901//83 637//83
f 702//83 678//83 701//83
f 887//83 940//83 886//83
f 720//83 833//83 834//83
f 720//83 695//83 833//83
f 899//83 900//83 637//83
f 919//83 847//83 848//83
f 919//83 848//83 918//83
f 719//83 834//83 835//83
f 719//83 720//83 834//83
f 846//83 847//83 919//83
f 898//83 899//83 637//83
f 897//83 898//83 637//83
f 718//83 835//83 836//83
f 718//83 719//83 835//83
f 939//83 887//83 888//83
f 939//83 888//83 889//83
f 939//83 940//83 887//83
f 896//83 897//83 637//83
f 895//83 896//83 637//83
f 717//83 836//83 837//83
f 717//83 718//83 836//83
f 716//83 837//83 838//83
f 716//83 717//83 837//83
f 920//83 844//83 845//83
f 920//83 845//83 846//83
f 920//83 846//83 919//83
f 715//83 716//83 838//83
f 715//83 838//83 839//83
f 714//83 839//83 840//83
f 714//83 715//83 839//83
f 643//83 764//83 765//83
f 643//83 765//83 766//83
f 643//83 678//83 702//83
f 643//83 677//83 678//83
f 643//83 766//83 677//83
f 643//83 702//83 703//83
f 643//83 703//83 704//83
f 643//83 704//83 705//83
f 643//83 705//83 706//83
f 643//83 706//83 707//83
f 643//83 707//83 708//83
f 709//83 643//83 708//83
f 713//83 714//83 840//83
f 938//83 939//83 889//83
f 938//83 889//83 890//83
f 938//83 890//83 891//83
f 710//83 643//83 709//83
f 711//83 643//83 710//83
f 921//83 844//83 920//83
f 921//83 842//83 843//83
f 921//83 843//83 844//83
f 937//83 938//83 891//83
f 937//83 891//83 892//83
f 937//83 892//83 893//83
f 922//83 841//83 842//83
f 922//83 842//83 921//83
f 936//83 937//83 893//83
f 936//83 893//83 894//83
f 923//83 840//83 841//83
f 923//83 841//83 922//83
f 935//83 936//83 894//83
f 935//83 894//83 895//83
f 934//83 935//83 895//83
f 642//83 641//83 761//83
f 642//83 761//83 762//83
f 642//83 762//83 763//83
f 642//83 763//83 764//83
f 642//83 764//83 643//83
f 854//83 929//83 930//83
f 855//83 929//83 854//83
f 853//83 854//83 930//83
f 856//83 929//83 855//83
f 856//83 928//83 929//83
f 852//83 853//83 930//83
f 852//83 930//83 931//83
f 857//83 928//83 856//83
f 851//83 852//83 931//83
f 858//83 928//83 857//83
f 858//83 927//83 928//83
f 876//83 931//83 932//83
f 876//83 851//83 931//83
f 859//83 927//83 858//83
f 875//83 876//83 932//83
f 860//83 927//83 859//83
f 860//83 926//83 927//83
f 874//83 932//83 933//83
f 874//83 875//83 932//83
f 861//83 925//83 926//83
f 861//83 926//83 860//83
f 873//83 933//83 934//83
f 873//83 874//83 933//83
f 872//83 895//83 637//83
f 872//83 934//83 895//83
f 872//83 873//83 934//83
f 645//83 872//83 637//83
f 645//83 863//83 864//83
f 645//83 864//83 865//83
f 645//83 865//83 866//83
f 645//83 866//83 867//83
f 645//83 867//83 868//83
f 645//83 868//83 869//83
f 645//83 869//83 870//83
f 645//83 870//83 871//83
f 645//83 871//83 872//83
f 644//83 925//83 861//83
f 644//83 863//83 645//83
f 644//83 713//83 840//83
f 644//83 861//83 862//83
f 644//83 862//83 863//83
f 644//83 643//83 711//83
f 644//83 840//83 923//83
f 644//83 711//83 712//83
f 644//83 712//83 713//83
f 644//83 923//83 924//83
f 644//83 924//83 925//83
f 647//83 645//83 646//83
f 648//83 652//83 644//83
f 648//83 645//83 647//83
f 648//83 644//83 645//83
f 649//83 650//83 651//83
f 649//83 651//83 652//83
f 649//83 652//83 648//83
f 629//83 773//83 638//83
f 629//83 798//83 773//83
f 946//84 947//84 948//84
f 946//84 948//84 945//84
f 950//85 951//85 952//85
f 950//85 952//85 949//85
f 955//86 953//86 954//86
f 955//86 954//86 956//86
f 959//86 958//86 957//86
f 959//86 960//86 958//86
f 964//87 962//87 961//87
f 963//87 962//87 964//87
f 967//88 966//88 965//88
f 967//88 965//88 968//88
f 969//89 978//89 986//90
f 970//91 986//90 985//92
f 970//93 969//89 986//90
f 971//94 985//95 984//96
f 971//94 970//91 985//95
f 972//97 984//96 983//98
f 972//99 971//94 984//96
f 973//100 983//98 982//101
f 973//100 972//97 983//98
f 974//102 982//101 981//103
f 974//102 973//100 982//101
f 975//104 981//103 980//105
f 975//106 974//102 981//103
f 976//105 975//104 980//105
f 977//107 980//105 979//107
f 977//107 976//105 980//105
f 997//108 995//108 994//109
f 998//110 994//109 993//111
f 998//110 997//108 994//109
f 999//112 993//111 992//113
f 999//112 998//110 993//111
f 1000//114 992//113 991//115
f 1000//114 999//112 992//113
f 1001//116 991//115 990//117
f 1001//116 1000//114 991//115
f 1002//117 1001//116 990//117
f 1003//118 989//118 988//119
f 1003//118 990//117 989//118
f 1003//118 1002//117 990//117
f 1004//120 988//119 987//121
f 1004//120 1003//118 988//119
f 996//121 1004//120 987//121
f 1006//122 1027//123 1005//123
f 1006//122 1028//124 1027//123
f 1007//125 1029//126 1028//124
f 1007//125 1028//124 1006//122
f 1008//127 1030//127 1029//126
f 1008//127 1031//128 1030//127
f 1008//127 1029//126 1007//125
f 1009//128 1031//128 1008//127
f 1010//129 1032//129 1031//128
f 1010//130 1033//131 1032//130
f 1010//129 1031//128 1009//128
f 1011//131 1033//131 1010//130
f 1012//132 1034//132 1033//131
f 1012//132 1035//133 1034//132
f 1012//132 1033//131 1011//131
f 1013//133 1035//133 1012//132
f 1014//134 1036//135 1035//136
f 1014//134 1035//136 1013//136
f 1015//137 1037//137 1036//135
f 1015//137 1038//138 1037//137
f 1015//137 1036//135 1014//134
f 1016//138 1038//138 1015//137
f 1017//139 1039//139 1038//138
f 1017//139 1040//140 1039//139
f 1017//139 1038//138 1016//138
f 1018//140 1040//140 1017//139
f 1019//141 1040//142 1018//142
f 1019//141 1041//143 1040//142
f 1020//144 1041//143 1019//141
f 1020//144 1042//145 1041//143
f 1021//146 1042//145 1020//147
f 1021//146 1043//148 1042//145
f 1022//149 1043//150 1021//146
f 1022//149 1044//151 1043//150
f 1023//152 1044//153 1022//149
f 1023//152 1045//154 1044//153
f 1024//155 1045//156 1023//157
f 1024//155 1046//158 1045//156
f 1025//159 1046//158 1024//155
f 1025//159 1047//160 1046//158
f 1026//161 1047//160 1025//159
f 1026//161 1048//161 1047//160
f 1050//162 1063//163 1049//163
f 1050//162 1064//164 1063//163
f 1051//165 1065//165 1064//164
f 1051//165 1066//166 1065//165
f 1051//165 1064//164 1050//162
f 1052//166 1066//166 1051//167
f 1053//168 1067//169 1066//166
f 1053//168 1066//166 1052//166
f 1054//170 1068//170 1067//169
f 1054//170 1069//171 1068//170
f 1054//170 1067//169 1053//168
f 1055//171 1069//171 1054//170
f 1056//172 1070//173 1069//174
f 1056//172 1069//174 1055//174
f 1057//175 1071//176 1070//173
f 1057//175 1070//173 1056//172
f 1058//177 1072//178 1071//176
f 1058//177 1071//176 1057//175
f 1059//179 1073//179 1072//178
f 1059//179 1074//180 1073//179
f 1059//179 1072//178 1058//177
f 1060//181 1075//182 1074//180
f 1060//181 1074//180 1059//179
f 1061//182 1075//182 1060//181
f 1062//183 1076//183 1075//182
f 1062//183 1075//182 1061//182
f 1078//162 1091//163 1077//163
f 1078//184 1092//164 1091//163
f 1079//185 1093//186 1092//164
f 1079//187 1092//164 1078//184
f 1080//166 1094//166 1093//186
f 1080//166 1095//168 1094//166
f 1080//166 1093//186 1079//185
f 1081//169 1096//170 1095//168
f 1081//169 1095//168 1080//166
f 1082//170 1096//170 1081//169
f 1083//188 1097//189 1096//170
f 1083//188 1096//170 1082//170
f 1084//172 1098//173 1097//189
f 1084//172 1097//189 1083//188
f 1085//190 1099//190 1098//173
f 1085//190 1100//191 1099//190
f 1085//190 1098//173 1084//172
f 1086//191 1100//191 1085//190
f 1087//179 1101//179 1100//191
f 1087//179 1102//180 1101//179
f 1087//179 1100//191 1086//191
f 1088//192 1103//182 1102//180
f 1088//181 1102//180 1087//179
f 1089//182 1103//182 1088//181
f 1090//193 1104//193 1103//182
f 1090//183 1103//182 1089//182
f 1105//163 1120//194 1119//163
f 1106//194 1120//194 1105//163
f 1107//165 1121//165 1120//194
f 1107//167 1122//166 1121//167
f 1107//167 1120//194 1106//194
f 1108//166 1122//166 1107//167
f 1109//168 1123//169 1122//166
f 1109//168 1122//166 1108//166
f 1110//170 1124//170 1123//169
f 1110//170 1125//171 1124//170
f 1110//170 1123//169 1109//168
f 1111//171 1125//171 1110//170
f 1112//172 1126//173 1125//174
f 1112//172 1125//174 1111//174
f 1113//175 1127//176 1126//173
f 1113//175 1126//173 1112//172
f 1114//177 1128//178 1127//176
f 1114//177 1127//176 1113//175
f 1115//195 1129//196 1128//178
f 1115//195 1128//178 1114//177
f 1116//197 1130//197 1129//196
f 1116//198 1131//182 1130//198
f 1116//197 1129//196 1115//199
f 1117//182 1131//182 1116//197
f 1118//193 1132//193 1131//182
f 1118//183 1131//182 1117//182
f 1133//163 1148//194 1147//163
f 1134//194 1148//194 1133//163
f 1135//167 1149//167 1148//194
f 1135//165 1150//166 1149//165
f 1135//167 1148//194 1134//194
f 1136//166 1150//166 1135//167
f 1137//168 1151//169 1150//166
f 1137//168 1150//166 1136//166
f 1138//170 1152//170 1151//169
f 1138//170 1153//171 1152//170
f 1138//170 1151//169 1137//168
f 1139//171 1153//171 1138//170
f 1140//172 1154//173 1153//174
f 1140//172 1153//174 1139//174
f 1141//175 1155//176 1154//173
f 1141//175 1154//173 1140//172
f 1142//177 1156//178 1155//176
f 1142//177 1155//176 1141//175
f 1143//195 1157//196 1156//178
f 1143//195 1156//178 1142//177
f 1144//197 1158//197 1157//196
f 1144//198 1159//182 1158//198
f 1144//198 1157//196 1143//195
f 1145//182 1159//182 1144//198
f 1146//183 1160//183 1159//182
f 1146//183 1159//182 1145//182
f 1162//84 1163//84 1161//84
f 1162//84 1164//84 1163//84
f 1166//162 1179//163 1165//163
f 1166//162 1180//164 1179//163
f 1167//167 1181//165 1180//164
f 1167//167 1182//166 1181//167
f 1167//165 1180//164 1166//162
f 1168//166 1182//166 1167//167
f 1169//168 1183//169 1182//166
f 1169//168 1182//166 1168//166
f 1170//170 1184//170 1183//169
f 1170//170 1185//171 1184//170
f 1170//170 1183//169 1169//168
f 1171//174 1185//174 1170//170
f 1172//172 1186//173 1185//174
f 1172//172 1185//174 1171//174
f 1173//175 1187//176 1186//173
f 1173//175 1186//173 1172//172
f 1174//177 1188//178 1187//176
f 1174//177 1187//176 1173//175
f 1175//179 1189//179 1188//178
f 1175//179 1190//180 1189//179
f 1175//179 1188//178 1174//177
f 1176//181 1191//182 1190//180
f 1176//181 1190//180 1175//179
f 1177//182 1191//182 1176//181
f 1178//183 1192//183 1191//182
f 1178//183 1191//182 1177//182
f 1193//163 1208//194 1207//163
f 1194//194 1208//194 1193//163
f 1195//165 1209//165 1208//194
f 1195//167 1210//166 1209//167
f 1195//167 1208//194 1194//194
f 1196//166 1210//166 1195//167
f 1197//168 1211//169 1210//166
f 1197//168 1210//166 1196//166
f 1198//170 1212//170 1211//169
f 1198//170 1213//171 1212//170
f 1198//170 1211//169 1197//168
f 1199//171 1213//171 1198//170
f 1200//172 1214//173 1213//174
f 1200//172 1213//174 1199//174
f 1201//175 1215//176 1214//173
f 1201//175 1214//173 1200//172
f 1202//177 1216//178 1215//176
f 1202//177 1215//176 1201//175
f 1203//195 1217//196 1216//178
f 1203//195 1216//178 1202//177
f 1204//198 1218//198 1217//196
f 1204//197 1219//182 1218//197
f 1204//198 1217//196 1203//199
f 1205//182 1219//182 1204//198
f 1206//183 1220//183 1219//182
f 1206//183 1219//182 1205//182
f 1222//162 1235//163 1221//163
f 1222//162 1236//164 1235//163
f 1223//167 1237//167 1236//164
f 1223//167 1238//166 1237//167
f 1223//165 1236//164 1222//162
f 1224//166 1238//166 1223//167
f 1225//168 1239//169 1238//166
f 1225//168 1238//166 1224//166
f 1226//170 1240//170 1239//169
f 1226//170 1241//171 1240//170
f 1226//170 1239//169 1225//168
f 1227//171 1241//171 1226//170
f 1228//172 1242//173 1241//174
f 1228//172 1241//174 1227//174
f 1229//175 1243//176 1242//173
f 1229//175 1242//173 1228//172
f 1230//177 1244//178 1243//176
f 1230//177 1243//176 1229//175
f 1231//179 1245//179 1244//178
f 1231//179 1246//180 1245//179
f 1231//179 1244//178 1230//177
f 1232//181 1247//182 1246//180
f 1232//192 1246//180 1231//179
f 1233//182 1247//182 1232//181
f 1234//183 1248//183 1247//182
f 1234//183 1247//182 1233//182
f 1249//163 1264//194 1263//163
f 1250//194 1264//194 1249//163
f 1251//165 1265//165 1264//194
f 1251//167 1266//166 1265//167
f 1251//167 1264//194 1250//194
f 1252//166 1266//166 1251//167
f 1253//168 1267//169 1266//166
f 1253//168 1266//166 1252//166
f 1254//170 1268//170 1267//169
f 1254//170 1269//174 1268//170
f 1254//170 1267//169 1253//168
f 1255//171 1269//171 1254//170
f 1256//172 1270//173 1269//174
f 1256//172 1269//174 1255//174
f 1257//175 1271//176 1270//173
f 1257//175 1270//173 1256//172
f 1258//177 1272//178 1271//176
f 1258//177 1271//176 1257//175
f 1259//195 1273//196 1272//178
f 1259//195 1272//178 1258//177
f 1260//198 1274//198 1273//196
f 1260//197 1275//182 1274//197
f 1260//198 1273//196 1259//199
f 1261//182 1275//182 1260//198
f 1262//183 1276//183 1275//182
f 1262//183 1275//182 1261//182
f 1278//122 1299//123 1277//123
f 1278//122 1300//124 1299//123
f 1279//125 1301//126 1300//124
f 1279//125 1300//124 1278//122
f 1280//127 1302//127 1301//126
f 1280//127 1303//128 1302//127
f 1280//127 1301//126 1279//125
f 1281//128 1303//128 1280//127
f 1282//129 1304//129 1303//128
f 1282//130 1305//131 1304//130
f 1282//129 1303//128 1281//128
f 1283//131 1305//131 1282//130
f 1284//132 1306//132 1305//131
f 1284//132 1307//133 1306//132
f 1284//132 1305//131 1283//131
f 1285//133 1307//133 1284//132
f 1286//134 1308//135 1307//136
f 1286//134 1307//136 1285//136
f 1287//137 1309//137 1308//135
f 1287//137 1310//138 1309//137
f 1287//137 1308//135 1286//134
f 1288//138 1310//138 1287//137
f 1289//139 1311//139 1310//138
f 1289//139 1312//140 1311//139
f 1289//139 1310//138 1288//138
f 1290//140 1312//140 1289//139
f 1291//141 1312//142 1290//142
f 1291//200 1313//143 1312//142
f 1292//144 1313//143 1291//141
f 1292//144 1314//145 1313//143
f 1293//146 1314//145 1292//147
f 1293//146 1315//148 1314//145
f 1294//149 1315//150 1293//146
f 1294//149 1316//151 1315//150
f 1295//152 1316//153 1294//149
f 1295//152 1317//154 1316//153
f 1296//155 1317//156 1295//157
f 1296//155 1318//158 1317//156
f 1297//159 1318//158 1296//155
f 1297//159 1319//160 1318//158
f 1298//161 1319//160 1297//159
f 1298//161 1320//161 1319//160
f 1323//201 1321//201 1322//201
f 1323//201 1322//201 1324//201
