# Blender 4.0.2
# www.blender.org
mtllib RA_bottom_sandwich_right.mtl
o RA_bottom_sandwich_right
v 0.000000 -0.091974 0.005000
v 0.003000 -0.091974 0.005000
v 0.003000 -0.091974 -0.005000
v 0.003000 -0.090778 -0.004855
v 0.003000 -0.089651 -0.004427
v 0.003000 -0.088659 -0.003743
v 0.003000 -0.087859 -0.002840
v 0.003000 -0.087299 -0.001773
v 0.003000 -0.087011 -0.000603
v 0.003000 -0.087011 0.000603
v 0.003000 -0.087299 0.001773
v 0.003000 -0.087859 0.002840
v 0.003000 -0.088659 0.003743
v 0.003000 -0.089651 0.004427
v 0.003000 -0.090778 0.004855
v 0.000000 -0.091974 -0.005000
v 0.000000 -0.090778 -0.004855
v 0.000000 -0.089651 -0.004427
v 0.000000 -0.088659 -0.003743
v 0.000000 -0.087859 -0.002840
v 0.000000 -0.087299 -0.001773
v 0.000000 -0.087011 -0.000603
v 0.000000 -0.087011 0.000603
v 0.000000 -0.087299 0.001773
v 0.000000 -0.087859 0.002840
v 0.000000 -0.088659 0.003743
v 0.000000 -0.089651 0.004427
v 0.000000 -0.090778 0.004855
v 0.000000 -0.041974 0.005000
v 0.003000 -0.041974 0.005000
v 0.003000 -0.041974 -0.005000
v 0.003000 -0.040778 -0.004855
v 0.003000 -0.039651 -0.004427
v 0.003000 -0.038659 -0.003743
v 0.003000 -0.037859 -0.002840
v 0.003000 -0.037299 -0.001773
v 0.003000 -0.037011 -0.000603
v 0.003000 -0.037011 0.000603
v 0.003000 -0.037299 0.001773
v 0.003000 -0.037859 0.002840
v 0.003000 -0.038659 0.003743
v 0.003000 -0.039651 0.004427
v 0.003000 -0.040778 0.004855
v 0.000000 -0.041974 -0.005000
v 0.000000 -0.040778 -0.004855
v 0.000000 -0.039651 -0.004427
v 0.000000 -0.038659 -0.003743
v 0.000000 -0.037859 -0.002840
v 0.000000 -0.037299 -0.001773
v 0.000000 -0.037011 -0.000603
v 0.000000 -0.037011 0.000603
v 0.000000 -0.037299 0.001773
v 0.000000 -0.037859 0.002840
v 0.000000 -0.038659 0.003743
v 0.000000 -0.039651 0.004427
v 0.000000 -0.040778 0.004855
v 0.000000 0.000000 0.009000
v 0.003000 0.000000 0.009000
v 0.003000 -0.000000 -0.009000
v 0.003000 0.002154 -0.008738
v 0.003000 0.004183 -0.007969
v 0.003000 0.005968 -0.006737
v 0.003000 0.007407 -0.005113
v 0.003000 0.008415 -0.003191
v 0.003000 0.008934 -0.001085
v 0.003000 0.008934 0.001085
v 0.003000 0.008415 0.003191
v 0.003000 0.007407 0.005113
v 0.003000 0.005968 0.006737
v 0.003000 0.004183 0.007969
v 0.003000 0.002154 0.008738
v 0.000000 -0.000000 -0.009000
v 0.000000 0.002154 -0.008738
v 0.000000 0.004183 -0.007969
v 0.000000 0.005968 -0.006737
v 0.000000 0.007407 -0.005113
v 0.000000 0.008415 -0.003191
v 0.000000 0.008934 -0.001085
v 0.000000 0.008934 0.001085
v 0.000000 0.008415 0.003191
v 0.000000 0.007407 0.005113
v 0.000000 0.005968 0.006737
v 0.000000 0.004183 0.007969
v 0.000000 0.002154 0.008738
v 0.000000 -0.350000 0.006000
v 0.003000 -0.350000 0.006000
v 0.003000 -0.350000 -0.006000
v 0.003000 -0.348564 -0.005826
v 0.003000 -0.347212 -0.005313
v 0.003000 -0.346021 -0.004491
v 0.003000 -0.345062 -0.003408
v 0.003000 -0.344390 -0.002128
v 0.003000 -0.344044 -0.000723
v 0.003000 -0.344044 0.000723
v 0.003000 -0.344390 0.002128
v 0.003000 -0.345062 0.003408
v 0.003000 -0.346021 0.004491
v 0.003000 -0.347212 0.005313
v 0.003000 -0.348564 0.005826
v 0.000000 -0.350000 -0.006000
v 0.000000 -0.348564 -0.005826
v 0.000000 -0.347212 -0.005313
v 0.000000 -0.346021 -0.004491
v 0.000000 -0.345062 -0.003408
v 0.000000 -0.344390 -0.002128
v 0.000000 -0.344044 -0.000723
v 0.000000 -0.344044 0.000723
v 0.000000 -0.344390 0.002128
v 0.000000 -0.345062 0.003408
v 0.000000 -0.346021 0.004491
v 0.000000 -0.347212 0.005313
v 0.000000 -0.348564 0.005826
v 0.000000 -0.141974 0.005000
v 0.003000 -0.141974 0.005000
v 0.003000 -0.141974 -0.005000
v 0.003000 -0.140778 -0.004855
v 0.003000 -0.139651 -0.004427
v 0.003000 -0.138659 -0.003743
v 0.003000 -0.137859 -0.002840
v 0.003000 -0.137299 -0.001773
v 0.003000 -0.137011 -0.000603
v 0.003000 -0.137011 0.000603
v 0.003000 -0.137299 0.001773
v 0.003000 -0.137859 0.002840
v 0.003000 -0.138659 0.003743
v 0.003000 -0.139651 0.004427
v 0.003000 -0.140778 0.004855
v 0.000000 -0.141974 -0.005000
v 0.000000 -0.140778 -0.004855
v 0.000000 -0.139651 -0.004427
v 0.000000 -0.138659 -0.003743
v 0.000000 -0.137859 -0.002840
v 0.000000 -0.137299 -0.001773
v 0.000000 -0.137011 -0.000603
v 0.000000 -0.137011 0.000603
v 0.000000 -0.137299 0.001773
v 0.000000 -0.137859 0.002840
v 0.000000 -0.138659 0.003743
v 0.000000 -0.139651 0.004427
v 0.000000 -0.140778 0.004855
v 0.000000 -0.191974 0.005000
v 0.003000 -0.191974 0.005000
v 0.003000 -0.191974 -0.005000
v 0.003000 -0.190778 -0.004855
v 0.003000 -0.189651 -0.004427
v 0.003000 -0.188659 -0.003743
v 0.003000 -0.187859 -0.002840
v 0.003000 -0.187299 -0.001773
v 0.003000 -0.187011 -0.000603
v 0.003000 -0.187011 0.000603
v 0.003000 -0.187299 0.001773
v 0.003000 -0.187859 0.002840
v 0.003000 -0.188659 0.003743
v 0.003000 -0.189651 0.004427
v 0.003000 -0.190778 0.004855
v 0.000000 -0.191974 -0.005000
v 0.000000 -0.190778 -0.004855
v 0.000000 -0.189651 -0.004427
v 0.000000 -0.188659 -0.003743
v 0.000000 -0.187859 -0.002840
v 0.000000 -0.187299 -0.001773
v 0.000000 -0.187011 -0.000603
v 0.000000 -0.187011 0.000603
v 0.000000 -0.187299 0.001773
v 0.000000 -0.187859 0.002840
v 0.000000 -0.188659 0.003743
v 0.000000 -0.189651 0.004427
v 0.000000 -0.190778 0.004855
v 0.000000 -0.241974 0.005000
v 0.003000 -0.241974 0.005000
v 0.003000 -0.241974 -0.005000
v 0.003000 -0.240778 -0.004855
v 0.003000 -0.239651 -0.004427
v 0.003000 -0.238659 -0.003743
v 0.003000 -0.237859 -0.002840
v 0.003000 -0.237299 -0.001773
v 0.003000 -0.237011 -0.000603
v 0.003000 -0.237011 0.000603
v 0.003000 -0.237299 0.001773
v 0.003000 -0.237859 0.002840
v 0.003000 -0.238659 0.003743
v 0.003000 -0.239651 0.004427
v 0.003000 -0.240778 0.004855
v 0.000000 -0.241974 -0.005000
v 0.000000 -0.240778 -0.004855
v 0.000000 -0.239651 -0.004427
v 0.000000 -0.238659 -0.003743
v 0.000000 -0.237859 -0.002840
v 0.000000 -0.237299 -0.001773
v 0.000000 -0.237011 -0.000603
v 0.000000 -0.237011 0.000603
v 0.000000 -0.237299 0.001773
v 0.000000 -0.237859 0.002840
v 0.000000 -0.238659 0.003743
v 0.000000 -0.239651 0.004427
v 0.000000 -0.240778 0.004855
v 0.000000 -0.291974 0.005000
v 0.003000 -0.291974 0.005000
v 0.003000 -0.291974 -0.005000
v 0.003000 -0.290778 -0.004855
v 0.003000 -0.289651 -0.004427
v 0.003000 -0.288659 -0.003743
v 0.003000 -0.287859 -0.002840
v 0.003000 -0.287299 -0.001773
v 0.003000 -0.287011 -0.000603
v 0.003000 -0.287011 0.000603
v 0.003000 -0.287299 0.001773
v 0.003000 -0.287859 0.002840
v 0.003000 -0.288659 0.003743
v 0.003000 -0.289651 0.004427
v 0.003000 -0.290778 0.004855
v 0.000000 -0.291974 -0.005000
v 0.000000 -0.290778 -0.004855
v 0.000000 -0.289651 -0.004427
v 0.000000 -0.288659 -0.003743
v 0.000000 -0.287859 -0.002840
v 0.000000 -0.287299 -0.001773
v 0.000000 -0.287011 -0.000603
v 0.000000 -0.287011 0.000603
v 0.000000 -0.287299 0.001773
v 0.000000 -0.287859 0.002840
v 0.000000 -0.288659 0.003743
v 0.000000 -0.289651 0.004427
v 0.000000 -0.290778 0.004855
v 0.003000 -0.291974 0.005000
v 0.003000 -0.293171 0.004855
v 0.003000 -0.294298 0.004427
v 0.003000 -0.295290 0.003743
v 0.003000 -0.296089 0.002840
v 0.003000 -0.296649 0.001773
v 0.003000 -0.296938 0.000603
v 0.003000 -0.296938 -0.000603
v 0.003000 -0.296649 -0.001773
v 0.003000 -0.296089 -0.002840
v 0.003000 -0.295290 -0.003743
v 0.003000 -0.294298 -0.004427
v 0.003000 -0.293171 -0.004855
v 0.003000 -0.291974 -0.005000
v 0.000000 -0.291974 0.005000
v 0.000000 -0.293171 0.004855
v 0.000000 -0.294298 0.004427
v 0.000000 -0.295290 0.003743
v 0.000000 -0.296089 0.002840
v 0.000000 -0.296649 0.001773
v 0.000000 -0.296938 0.000603
v 0.000000 -0.296938 -0.000603
v 0.000000 -0.296649 -0.001773
v 0.000000 -0.296089 -0.002840
v 0.000000 -0.295290 -0.003743
v 0.000000 -0.294298 -0.004427
v 0.000000 -0.293171 -0.004855
v 0.000000 -0.291974 -0.005000
v 0.003000 -0.241974 0.005000
v 0.003000 -0.243171 0.004855
v 0.003000 -0.244298 0.004427
v 0.003000 -0.245290 0.003743
v 0.003000 -0.246089 0.002840
v 0.003000 -0.246649 0.001773
v 0.003000 -0.246938 0.000603
v 0.003000 -0.246938 -0.000603
v 0.003000 -0.246649 -0.001773
v 0.003000 -0.246089 -0.002840
v 0.003000 -0.245290 -0.003743
v 0.003000 -0.244298 -0.004427
v 0.003000 -0.243171 -0.004855
v 0.003000 -0.241974 -0.005000
v 0.000000 -0.241974 0.005000
v 0.000000 -0.243171 0.004855
v 0.000000 -0.244298 0.004427
v 0.000000 -0.245290 0.003743
v 0.000000 -0.246089 0.002840
v 0.000000 -0.246649 0.001773
v 0.000000 -0.246938 0.000603
v 0.000000 -0.246938 -0.000603
v 0.000000 -0.246649 -0.001773
v 0.000000 -0.246089 -0.002840
v 0.000000 -0.245290 -0.003743
v 0.000000 -0.244298 -0.004427
v 0.000000 -0.243171 -0.004855
v 0.000000 -0.241974 -0.005000
v 0.003000 -0.191974 0.005000
v 0.003000 -0.193171 0.004855
v 0.003000 -0.194298 0.004427
v 0.003000 -0.195290 0.003743
v 0.003000 -0.196089 0.002840
v 0.003000 -0.196649 0.001773
v 0.003000 -0.196938 0.000603
v 0.003000 -0.196938 -0.000603
v 0.003000 -0.196649 -0.001773
v 0.003000 -0.196089 -0.002840
v 0.003000 -0.195290 -0.003743
v 0.003000 -0.194298 -0.004427
v 0.003000 -0.193171 -0.004855
v 0.003000 -0.191974 -0.005000
v 0.000000 -0.191974 0.005000
v 0.000000 -0.193171 0.004855
v 0.000000 -0.194298 0.004427
v 0.000000 -0.195290 0.003743
v 0.000000 -0.196089 0.002840
v 0.000000 -0.196649 0.001773
v 0.000000 -0.196938 0.000603
v 0.000000 -0.196938 -0.000603
v 0.000000 -0.196649 -0.001773
v 0.000000 -0.196089 -0.002840
v 0.000000 -0.195290 -0.003743
v 0.000000 -0.194298 -0.004427
v 0.000000 -0.193171 -0.004855
v 0.000000 -0.191974 -0.005000
v 0.003000 -0.141974 0.005000
v 0.003000 -0.143171 0.004855
v 0.003000 -0.144298 0.004427
v 0.003000 -0.145290 0.003743
v 0.003000 -0.146089 0.002840
v 0.003000 -0.146649 0.001773
v 0.003000 -0.146938 0.000603
v 0.003000 -0.146938 -0.000603
v 0.003000 -0.146649 -0.001773
v 0.003000 -0.146089 -0.002840
v 0.003000 -0.145290 -0.003743
v 0.003000 -0.144298 -0.004427
v 0.003000 -0.143171 -0.004855
v 0.003000 -0.141974 -0.005000
v 0.000000 -0.141974 0.005000
v 0.000000 -0.143171 0.004855
v 0.000000 -0.144298 0.004427
v 0.000000 -0.145290 0.003743
v 0.000000 -0.146089 0.002840
v 0.000000 -0.146649 0.001773
v 0.000000 -0.146938 0.000603
v 0.000000 -0.146938 -0.000603
v 0.000000 -0.146649 -0.001773
v 0.000000 -0.146089 -0.002840
v 0.000000 -0.145290 -0.003743
v 0.000000 -0.144298 -0.004427
v 0.000000 -0.143171 -0.004855
v 0.000000 -0.141974 -0.005000
v 0.000000 0.000000 -0.035000
v 0.000000 -0.011054 -0.034516
v 0.000000 -0.020857 -0.033512
v 0.000000 -0.030646 -0.031919
v 0.000000 -0.040981 -0.029656
v 0.000000 -0.059840 -0.024937
v 0.000000 -0.069209 -0.022919
v 0.000000 -0.079824 -0.021193
v 0.000000 -0.085555 -0.020523
v 0.000000 -0.091694 -0.020000
v 0.003000 0.000000 -0.035000
v 0.003000 -0.011054 -0.034516
v 0.003000 -0.020857 -0.033512
v 0.003000 -0.030646 -0.031919
v 0.003000 -0.040981 -0.029656
v 0.003000 -0.059840 -0.024937
v 0.003000 -0.069209 -0.022919
v 0.003000 -0.079824 -0.021193
v 0.003000 -0.085555 -0.020523
v 0.003000 -0.091694 -0.020000
v 0.000000 0.000000 -0.035000
v 0.000000 0.004766 -0.034674
v 0.000000 0.009443 -0.033702
v 0.000000 0.013944 -0.032102
v 0.000000 0.018185 -0.029905
v 0.000000 0.022088 -0.027150
v 0.000000 0.025579 -0.023889
v 0.000000 0.028594 -0.020184
v 0.000000 0.031076 -0.016102
v 0.000000 0.032979 -0.011721
v 0.000000 0.034268 -0.007121
v 0.000000 0.034918 -0.002388
v 0.000000 0.034918 0.002388
v 0.000000 0.034268 0.007121
v 0.000000 0.032979 0.011721
v 0.000000 0.031076 0.016102
v 0.000000 0.028594 0.020184
v 0.000000 0.025579 0.023889
v 0.000000 0.022088 0.027150
v 0.000000 0.018185 0.029905
v 0.000000 0.013944 0.032102
v 0.000000 0.009443 0.033702
v 0.000000 0.004766 0.034674
v 0.000000 0.000000 0.035000
v 0.003000 0.000000 0.035000
v 0.003000 0.000000 -0.035000
v 0.003000 0.004766 -0.034674
v 0.003000 0.009443 -0.033702
v 0.003000 0.013944 -0.032102
v 0.003000 0.018185 -0.029905
v 0.003000 0.022088 -0.027150
v 0.003000 0.025579 -0.023889
v 0.003000 0.028594 -0.020184
v 0.003000 0.031076 -0.016102
v 0.003000 0.032979 -0.011721
v 0.003000 0.034268 -0.007121
v 0.003000 0.034918 -0.002388
v 0.003000 0.034918 0.002388
v 0.003000 0.034268 0.007121
v 0.003000 0.032979 0.011721
v 0.003000 0.031076 0.016102
v 0.003000 0.028594 0.020184
v 0.003000 0.025579 0.023889
v 0.003000 0.022088 0.027150
v 0.003000 0.018185 0.029905
v 0.003000 0.013944 0.032102
v 0.003000 0.009443 0.033702
v 0.003000 0.004766 0.034674
v 0.003000 0.000000 0.035000
v 0.000000 0.000000 0.035000
v 0.003000 -0.011054 0.034516
v 0.003000 -0.020857 0.033512
v 0.003000 -0.030646 0.031919
v 0.003000 -0.040981 0.029656
v 0.003000 -0.059840 0.024937
v 0.003000 -0.069209 0.022919
v 0.003000 -0.079824 0.021193
v 0.003000 -0.085555 0.020523
v 0.003000 -0.091694 0.020000
v 0.000000 -0.091694 0.020000
v 0.000000 -0.011054 0.034516
v 0.000000 -0.020857 0.033512
v 0.000000 -0.030646 0.031919
v 0.000000 -0.040981 0.029656
v 0.000000 -0.059840 0.024937
v 0.000000 -0.069209 0.022919
v 0.000000 -0.079824 0.021193
v 0.000000 -0.085555 0.020523
v 0.003000 -0.091694 0.020000
v 0.000000 -0.091694 0.020000
v 0.003000 -0.258306 0.020000
v 0.000000 -0.258306 0.020000
v 0.000000 -0.350000 0.035000
v 0.000000 -0.338946 0.034516
v 0.000000 -0.329143 0.033512
v 0.000000 -0.319354 0.031919
v 0.000000 -0.309019 0.029656
v 0.000000 -0.290160 0.024937
v 0.000000 -0.280791 0.022919
v 0.000000 -0.270176 0.021193
v 0.000000 -0.264445 0.020523
v 0.000000 -0.258306 0.020000
v 0.003000 -0.350000 0.035000
v 0.003000 -0.338946 0.034516
v 0.003000 -0.329143 0.033512
v 0.003000 -0.319354 0.031919
v 0.003000 -0.309019 0.029656
v 0.003000 -0.290160 0.024937
v 0.003000 -0.280791 0.022919
v 0.003000 -0.270176 0.021193
v 0.003000 -0.264445 0.020523
v 0.003000 -0.258306 0.020000
v 0.000000 -0.350000 -0.035000
v 0.000000 -0.354766 -0.034674
v 0.000000 -0.359443 -0.033702
v 0.000000 -0.363944 -0.032102
v 0.000000 -0.368185 -0.029905
v 0.000000 -0.372088 -0.027150
v 0.000000 -0.375579 -0.023889
v 0.000000 -0.378594 -0.020184
v 0.000000 -0.381076 -0.016102
v 0.000000 -0.382979 -0.011721
v 0.000000 -0.384268 -0.007121
v 0.000000 -0.384918 -0.002388
v 0.000000 -0.384918 0.002388
v 0.000000 -0.384268 0.007121
v 0.000000 -0.382979 0.011721
v 0.000000 -0.381076 0.016102
v 0.000000 -0.378594 0.020184
v 0.000000 -0.375579 0.023889
v 0.000000 -0.372088 0.027150
v 0.000000 -0.368185 0.029905
v 0.000000 -0.363944 0.032102
v 0.000000 -0.359443 0.033702
v 0.000000 -0.354766 0.034674
v 0.000000 -0.350000 0.035000
v 0.003000 -0.350000 -0.035000
v 0.003000 -0.354766 -0.034674
v 0.003000 -0.359443 -0.033702
v 0.003000 -0.363944 -0.032102
v 0.003000 -0.368185 -0.029905
v 0.003000 -0.372088 -0.027150
v 0.003000 -0.375579 -0.023889
v 0.003000 -0.378594 -0.020184
v 0.003000 -0.381076 -0.016102
v 0.003000 -0.382979 -0.011721
v 0.003000 -0.384268 -0.007121
v 0.003000 -0.384918 -0.002388
v 0.003000 -0.384918 0.002388
v 0.003000 -0.384268 0.007121
v 0.003000 -0.382979 0.011721
v 0.003000 -0.381076 0.016102
v 0.003000 -0.378594 0.020184
v 0.003000 -0.375579 0.023889
v 0.003000 -0.372088 0.027150
v 0.003000 -0.368185 0.029905
v 0.003000 -0.363944 0.032102
v 0.003000 -0.359443 0.033702
v 0.003000 -0.354766 0.034674
v 0.003000 -0.350000 0.035000
v 0.003000 -0.350000 -0.035000
v 0.000000 -0.350000 -0.035000
v 0.003000 -0.338946 -0.034516
v 0.003000 -0.329143 -0.033512
v 0.003000 -0.319354 -0.031919
v 0.003000 -0.309019 -0.029656
v 0.003000 -0.290160 -0.024937
v 0.003000 -0.280791 -0.022919
v 0.003000 -0.270176 -0.021193
v 0.003000 -0.264445 -0.020523
v 0.003000 -0.258306 -0.020000
v 0.000000 -0.258306 -0.020000
v 0.000000 -0.338946 -0.034516
v 0.000000 -0.329143 -0.033512
v 0.000000 -0.319354 -0.031919
v 0.000000 -0.309019 -0.029656
v 0.000000 -0.290160 -0.024937
v 0.000000 -0.280791 -0.022919
v 0.000000 -0.270176 -0.021193
v 0.000000 -0.264445 -0.020523
v 0.000000 -0.091694 -0.020000
v 0.000000 -0.258306 -0.020000
v 0.003000 -0.091694 -0.020000
v 0.003000 -0.258306 -0.020000
v 0.003000 0.000000 -0.035000
v 0.003000 -0.011054 -0.034516
v 0.003000 -0.020857 -0.033512
v 0.003000 -0.030646 -0.031919
v 0.003000 -0.040981 -0.029656
v 0.003000 -0.059840 -0.024937
v 0.003000 -0.069209 -0.022919
v 0.003000 -0.079824 -0.021193
v 0.003000 -0.085555 -0.020523
v 0.003000 -0.091694 -0.020000
v 0.003000 0.004766 -0.034674
v 0.003000 0.009443 -0.033702
v 0.003000 0.013944 -0.032102
v 0.003000 0.018185 -0.029905
v 0.003000 0.022088 -0.027150
v 0.003000 0.025579 -0.023889
v 0.003000 0.028594 -0.020184
v 0.003000 0.031076 -0.016102
v 0.003000 0.032979 -0.011721
v 0.003000 0.034268 -0.007121
v 0.003000 0.034918 -0.002388
v 0.003000 0.034918 0.002388
v 0.003000 0.034268 0.007121
v 0.003000 0.032979 0.011721
v 0.003000 0.031076 0.016102
v 0.003000 0.028594 0.020184
v 0.003000 0.025579 0.023889
v 0.003000 0.022088 0.027150
v 0.003000 0.018185 0.029905
v 0.003000 0.013944 0.032102
v 0.003000 0.009443 0.033702
v 0.003000 0.004766 0.034674
v 0.003000 0.000000 0.035000
v 0.003000 -0.011054 0.034516
v 0.003000 -0.020857 0.033512
v 0.003000 -0.030646 0.031919
v 0.003000 -0.040981 0.029656
v 0.003000 -0.059840 0.024937
v 0.003000 -0.069209 0.022919
v 0.003000 -0.079824 0.021193
v 0.003000 -0.085555 0.020523
v 0.003000 -0.091694 0.020000
v 0.003000 -0.258306 0.020000
v 0.003000 -0.350000 0.035000
v 0.003000 -0.338946 0.034516
v 0.003000 -0.329143 0.033512
v 0.003000 -0.319354 0.031919
v 0.003000 -0.309019 0.029656
v 0.003000 -0.290160 0.024937
v 0.003000 -0.280791 0.022919
v 0.003000 -0.270176 0.021193
v 0.003000 -0.264445 0.020523
v 0.003000 -0.350000 -0.035000
v 0.003000 -0.354766 -0.034674
v 0.003000 -0.359443 -0.033702
v 0.003000 -0.363944 -0.032102
v 0.003000 -0.368185 -0.029905
v 0.003000 -0.372088 -0.027150
v 0.003000 -0.375579 -0.023889
v 0.003000 -0.378594 -0.020184
v 0.003000 -0.381076 -0.016102
v 0.003000 -0.382979 -0.011721
v 0.003000 -0.384268 -0.007121
v 0.003000 -0.384918 -0.002388
v 0.003000 -0.384918 0.002388
v 0.003000 -0.384268 0.007121
v 0.003000 -0.382979 0.011721
v 0.003000 -0.381076 0.016102
v 0.003000 -0.378594 0.020184
v 0.003000 -0.375579 0.023889
v 0.003000 -0.372088 0.027150
v 0.003000 -0.368185 0.029905
v 0.003000 -0.363944 0.032102
v 0.003000 -0.359443 0.033702
v 0.003000 -0.354766 0.034674
v 0.003000 -0.338946 -0.034516
v 0.003000 -0.329143 -0.033512
v 0.003000 -0.319354 -0.031919
v 0.003000 -0.309019 -0.029656
v 0.003000 -0.290160 -0.024937
v 0.003000 -0.280791 -0.022919
v 0.003000 -0.270176 -0.021193
v 0.003000 -0.264445 -0.020523
v 0.003000 -0.258306 -0.020000
v 0.003000 -0.091974 0.005000
v 0.003000 -0.093171 0.004855
v 0.003000 -0.094298 0.004427
v 0.003000 -0.095290 0.003743
v 0.003000 -0.096089 0.002840
v 0.003000 -0.096649 0.001773
v 0.003000 -0.096938 0.000603
v 0.003000 -0.096938 -0.000603
v 0.003000 -0.096649 -0.001773
v 0.003000 -0.096089 -0.002840
v 0.003000 -0.095290 -0.003743
v 0.003000 -0.094298 -0.004427
v 0.003000 -0.093171 -0.004855
v 0.003000 -0.091974 -0.005000
v 0.003000 -0.090778 -0.004855
v 0.003000 -0.089651 -0.004427
v 0.003000 -0.088659 -0.003743
v 0.003000 -0.087859 -0.002840
v 0.003000 -0.087299 -0.001773
v 0.003000 -0.087011 -0.000603
v 0.003000 -0.087011 0.000603
v 0.003000 -0.087299 0.001773
v 0.003000 -0.087859 0.002840
v 0.003000 -0.088659 0.003743
v 0.003000 -0.089651 0.004427
v 0.003000 -0.090778 0.004855
v 0.003000 -0.041974 0.005000
v 0.003000 -0.043171 0.004855
v 0.003000 -0.044298 0.004427
v 0.003000 -0.045290 0.003743
v 0.003000 -0.046089 0.002840
v 0.003000 -0.046649 0.001773
v 0.003000 -0.046938 0.000603
v 0.003000 -0.046938 -0.000603
v 0.003000 -0.046649 -0.001773
v 0.003000 -0.046089 -0.002840
v 0.003000 -0.045290 -0.003743
v 0.003000 -0.044298 -0.004427
v 0.003000 -0.043171 -0.004855
v 0.003000 -0.041974 -0.005000
v 0.003000 -0.040778 -0.004855
v 0.003000 -0.039651 -0.004427
v 0.003000 -0.038659 -0.003743
v 0.003000 -0.037859 -0.002840
v 0.003000 -0.037299 -0.001773
v 0.003000 -0.037011 -0.000603
v 0.003000 -0.037011 0.000603
v 0.003000 -0.037299 0.001773
v 0.003000 -0.037859 0.002840
v 0.003000 -0.038659 0.003743
v 0.003000 -0.039651 0.004427
v 0.003000 -0.040778 0.004855
v 0.003000 0.000000 0.009000
v 0.003000 -0.002154 0.008738
v 0.003000 -0.004183 0.007969
v 0.003000 -0.005968 0.006737
v 0.003000 -0.007407 0.005113
v 0.003000 -0.008415 0.003191
v 0.003000 -0.008934 0.001085
v 0.003000 -0.008934 -0.001085
v 0.003000 -0.008415 -0.003191
v 0.003000 -0.007407 -0.005113
v 0.003000 -0.005968 -0.006737
v 0.003000 -0.004183 -0.007969
v 0.003000 -0.002154 -0.008738
v 0.003000 -0.000000 -0.009000
v 0.003000 0.002154 -0.008738
v 0.003000 0.004183 -0.007969
v 0.003000 0.005968 -0.006737
v 0.003000 0.007407 -0.005113
v 0.003000 0.008415 -0.003191
v 0.003000 0.008934 -0.001085
v 0.003000 0.008934 0.001085
v 0.003000 0.008415 0.003191
v 0.003000 0.007407 0.005113
v 0.003000 0.005968 0.006737
v 0.003000 0.004183 0.007969
v 0.003000 0.002154 0.008738
v 0.003000 -0.350000 0.006000
v 0.003000 -0.351436 0.005826
v 0.003000 -0.352788 0.005313
v 0.003000 -0.353979 0.004491
v 0.003000 -0.354938 0.003408
v 0.003000 -0.355610 0.002128
v 0.003000 -0.355956 0.000723
v 0.003000 -0.355956 -0.000723
v 0.003000 -0.355610 -0.002128
v 0.003000 -0.354938 -0.003408
v 0.003000 -0.353979 -0.004491
v 0.003000 -0.352788 -0.005313
v 0.003000 -0.351436 -0.005826
v 0.003000 -0.350000 -0.006000
v 0.003000 -0.348564 -0.005826
v 0.003000 -0.347212 -0.005313
v 0.003000 -0.346021 -0.004491
v 0.003000 -0.345062 -0.003408
v 0.003000 -0.344390 -0.002128
v 0.003000 -0.344044 -0.000723
v 0.003000 -0.344044 0.000723
v 0.003000 -0.344390 0.002128
v 0.003000 -0.345062 0.003408
v 0.003000 -0.346021 0.004491
v 0.003000 -0.347212 0.005313
v 0.003000 -0.348564 0.005826
v 0.003000 -0.141974 0.005000
v 0.003000 -0.143171 0.004855
v 0.003000 -0.144298 0.004427
v 0.003000 -0.145290 0.003743
v 0.003000 -0.146089 0.002840
v 0.003000 -0.146649 0.001773
v 0.003000 -0.146938 0.000603
v 0.003000 -0.146938 -0.000603
v 0.003000 -0.146649 -0.001773
v 0.003000 -0.146089 -0.002840
v 0.003000 -0.145290 -0.003743
v 0.003000 -0.144298 -0.004427
v 0.003000 -0.143171 -0.004855
v 0.003000 -0.141974 -0.005000
v 0.003000 -0.140778 -0.004855
v 0.003000 -0.139651 -0.004427
v 0.003000 -0.138659 -0.003743
v 0.003000 -0.137859 -0.002840
v 0.003000 -0.137299 -0.001773
v 0.003000 -0.137011 -0.000603
v 0.003000 -0.137011 0.000603
v 0.003000 -0.137299 0.001773
v 0.003000 -0.137859 0.002840
v 0.003000 -0.138659 0.003743
v 0.003000 -0.139651 0.004427
v 0.003000 -0.140778 0.004855
v 0.003000 -0.191974 0.005000
v 0.003000 -0.193171 0.004855
v 0.003000 -0.194298 0.004427
v 0.003000 -0.195290 0.003743
v 0.003000 -0.196089 0.002840
v 0.003000 -0.196649 0.001773
v 0.003000 -0.196938 0.000603
v 0.003000 -0.196938 -0.000603
v 0.003000 -0.196649 -0.001773
v 0.003000 -0.196089 -0.002840
v 0.003000 -0.195290 -0.003743
v 0.003000 -0.194298 -0.004427
v 0.003000 -0.193171 -0.004855
v 0.003000 -0.191974 -0.005000
v 0.003000 -0.190778 -0.004855
v 0.003000 -0.189651 -0.004427
v 0.003000 -0.188659 -0.003743
v 0.003000 -0.187859 -0.002840
v 0.003000 -0.187299 -0.001773
v 0.003000 -0.187011 -0.000603
v 0.003000 -0.187011 0.000603
v 0.003000 -0.187299 0.001773
v 0.003000 -0.187859 0.002840
v 0.003000 -0.188659 0.003743
v 0.003000 -0.189651 0.004427
v 0.003000 -0.190778 0.004855
v 0.003000 -0.241974 0.005000
v 0.003000 -0.243171 0.004855
v 0.003000 -0.244298 0.004427
v 0.003000 -0.245290 0.003743
v 0.003000 -0.246089 0.002840
v 0.003000 -0.246649 0.001773
v 0.003000 -0.246938 0.000603
v 0.003000 -0.246938 -0.000603
v 0.003000 -0.246649 -0.001773
v 0.003000 -0.246089 -0.002840
v 0.003000 -0.245290 -0.003743
v 0.003000 -0.244298 -0.004427
v 0.003000 -0.243171 -0.004855
v 0.003000 -0.241974 -0.005000
v 0.003000 -0.240778 -0.004855
v 0.003000 -0.239651 -0.004427
v 0.003000 -0.238659 -0.003743
v 0.003000 -0.237859 -0.002840
v 0.003000 -0.237299 -0.001773
v 0.003000 -0.237011 -0.000603
v 0.003000 -0.237011 0.000603
v 0.003000 -0.237299 0.001773
v 0.003000 -0.237859 0.002840
v 0.003000 -0.238659 0.003743
v 0.003000 -0.239651 0.004427
v 0.003000 -0.240778 0.004855
v 0.003000 -0.291974 0.005000
v 0.003000 -0.293171 0.004855
v 0.003000 -0.294298 0.004427
v 0.003000 -0.295290 0.003743
v 0.003000 -0.296089 0.002840
v 0.003000 -0.296649 0.001773
v 0.003000 -0.296938 0.000603
v 0.003000 -0.296938 -0.000603
v 0.003000 -0.296649 -0.001773
v 0.003000 -0.296089 -0.002840
v 0.003000 -0.295290 -0.003743
v 0.003000 -0.294298 -0.004427
v 0.003000 -0.293171 -0.004855
v 0.003000 -0.291974 -0.005000
v 0.003000 -0.290778 -0.004855
v 0.003000 -0.289651 -0.004427
v 0.003000 -0.288659 -0.003743
v 0.003000 -0.287859 -0.002840
v 0.003000 -0.287299 -0.001773
v 0.003000 -0.287011 -0.000603
v 0.003000 -0.287011 0.000603
v 0.003000 -0.287299 0.001773
v 0.003000 -0.287859 0.002840
v 0.003000 -0.288659 0.003743
v 0.003000 -0.289651 0.004427
v 0.003000 -0.290778 0.004855
v 0.000000 0.000000 -0.035000
v 0.000000 0.004766 -0.034674
v 0.000000 0.009443 -0.033702
v 0.000000 0.013944 -0.032102
v 0.000000 0.018185 -0.029905
v 0.000000 0.022088 -0.027150
v 0.000000 0.025579 -0.023889
v 0.000000 0.028594 -0.020184
v 0.000000 0.031076 -0.016102
v 0.000000 0.032979 -0.011721
v 0.000000 0.034268 -0.007121
v 0.000000 0.034918 -0.002388
v 0.000000 0.034918 0.002388
v 0.000000 0.034268 0.007121
v 0.000000 0.032979 0.011721
v 0.000000 0.031076 0.016102
v 0.000000 0.028594 0.020184
v 0.000000 0.025579 0.023889
v 0.000000 0.022088 0.027150
v 0.000000 0.018185 0.029905
v 0.000000 0.013944 0.032102
v 0.000000 0.009443 0.033702
v 0.000000 0.004766 0.034674
v 0.000000 0.000000 0.035000
v 0.000000 -0.011054 0.034516
v 0.000000 -0.020857 0.033512
v 0.000000 -0.030646 0.031919
v 0.000000 -0.040981 0.029656
v 0.000000 -0.059840 0.024937
v 0.000000 -0.069209 0.022919
v 0.000000 -0.079824 0.021193
v 0.000000 -0.085555 0.020523
v 0.000000 -0.091694 0.020000
v 0.000000 -0.258306 0.020000
v 0.000000 -0.350000 0.035000
v 0.000000 -0.338946 0.034516
v 0.000000 -0.329143 0.033512
v 0.000000 -0.319354 0.031919
v 0.000000 -0.309019 0.029656
v 0.000000 -0.290160 0.024937
v 0.000000 -0.280791 0.022919
v 0.000000 -0.270176 0.021193
v 0.000000 -0.264445 0.020523
v 0.000000 -0.350000 -0.035000
v 0.000000 -0.354766 -0.034674
v 0.000000 -0.359443 -0.033702
v 0.000000 -0.363944 -0.032102
v 0.000000 -0.368185 -0.029905
v 0.000000 -0.372088 -0.027150
v 0.000000 -0.375579 -0.023889
v 0.000000 -0.378594 -0.020184
v 0.000000 -0.381076 -0.016102
v 0.000000 -0.382979 -0.011721
v 0.000000 -0.384268 -0.007121
v 0.000000 -0.384918 -0.002388
v 0.000000 -0.384918 0.002388
v 0.000000 -0.384268 0.007121
v 0.000000 -0.382979 0.011721
v 0.000000 -0.381076 0.016102
v 0.000000 -0.378594 0.020184
v 0.000000 -0.375579 0.023889
v 0.000000 -0.372088 0.027150
v 0.000000 -0.368185 0.029905
v 0.000000 -0.363944 0.032102
v 0.000000 -0.359443 0.033702
v 0.000000 -0.354766 0.034674
v 0.000000 -0.338946 -0.034516
v 0.000000 -0.329143 -0.033512
v 0.000000 -0.319354 -0.031919
v 0.000000 -0.309019 -0.029656
v 0.000000 -0.290160 -0.024937
v 0.000000 -0.280791 -0.022919
v 0.000000 -0.270176 -0.021193
v 0.000000 -0.264445 -0.020523
v 0.000000 -0.258306 -0.020000
v 0.000000 -0.091694 -0.020000
v 0.000000 -0.011054 -0.034516
v 0.000000 -0.020857 -0.033512
v 0.000000 -0.030646 -0.031919
v 0.000000 -0.040981 -0.029656
v 0.000000 -0.059840 -0.024937
v 0.000000 -0.069209 -0.022919
v 0.000000 -0.079824 -0.021193
v 0.000000 -0.085555 -0.020523
v 0.000000 -0.091974 -0.005000
v 0.000000 -0.090778 -0.004855
v 0.000000 -0.089651 -0.004427
v 0.000000 -0.088659 -0.003743
v 0.000000 -0.087859 -0.002840
v 0.000000 -0.087299 -0.001773
v 0.000000 -0.087011 -0.000603
v 0.000000 -0.087011 0.000603
v 0.000000 -0.087299 0.001773
v 0.000000 -0.087859 0.002840
v 0.000000 -0.088659 0.003743
v 0.000000 -0.089651 0.004427
v 0.000000 -0.090778 0.004855
v 0.000000 -0.091974 0.005000
v 0.000000 -0.093171 0.004855
v 0.000000 -0.094298 0.004427
v 0.000000 -0.095290 0.003743
v 0.000000 -0.096089 0.002840
v 0.000000 -0.096649 0.001773
v 0.000000 -0.096938 0.000603
v 0.000000 -0.096938 -0.000603
v 0.000000 -0.096649 -0.001773
v 0.000000 -0.096089 -0.002840
v 0.000000 -0.095290 -0.003743
v 0.000000 -0.094298 -0.004427
v 0.000000 -0.093171 -0.004855
v 0.000000 -0.041974 -0.005000
v 0.000000 -0.040778 -0.004855
v 0.000000 -0.039651 -0.004427
v 0.000000 -0.038659 -0.003743
v 0.000000 -0.037859 -0.002840
v 0.000000 -0.037299 -0.001773
v 0.000000 -0.037011 -0.000603
v 0.000000 -0.037011 0.000603
v 0.000000 -0.037299 0.001773
v 0.000000 -0.037859 0.002840
v 0.000000 -0.038659 0.003743
v 0.000000 -0.039651 0.004427
v 0.000000 -0.040778 0.004855
v 0.000000 -0.041974 0.005000
v 0.000000 -0.043171 0.004855
v 0.000000 -0.044298 0.004427
v 0.000000 -0.045290 0.003743
v 0.000000 -0.046089 0.002840
v 0.000000 -0.046649 0.001773
v 0.000000 -0.046938 0.000603
v 0.000000 -0.046938 -0.000603
v 0.000000 -0.046649 -0.001773
v 0.000000 -0.046089 -0.002840
v 0.000000 -0.045290 -0.003743
v 0.000000 -0.044298 -0.004427
v 0.000000 -0.043171 -0.004855
v 0.000000 -0.000000 -0.009000
v 0.000000 0.002154 -0.008738
v 0.000000 0.004183 -0.007969
v 0.000000 0.005968 -0.006737
v 0.000000 0.007407 -0.005113
v 0.000000 0.008415 -0.003191
v 0.000000 0.008934 -0.001085
v 0.000000 0.008934 0.001085
v 0.000000 0.008415 0.003191
v 0.000000 0.007407 0.005113
v 0.000000 0.005968 0.006737
v 0.000000 0.004183 0.007969
v 0.000000 0.002154 0.008738
v 0.000000 0.000000 0.009000
v 0.000000 -0.002154 0.008738
v 0.000000 -0.004183 0.007969
v 0.000000 -0.005968 0.006737
v 0.000000 -0.007407 0.005113
v 0.000000 -0.008415 0.003191
v 0.000000 -0.008934 0.001085
v 0.000000 -0.008934 -0.001085
v 0.000000 -0.008415 -0.003191
v 0.000000 -0.007407 -0.005113
v 0.000000 -0.005968 -0.006737
v 0.000000 -0.004183 -0.007969
v 0.000000 -0.002154 -0.008738
v 0.000000 -0.350000 -0.006000
v 0.000000 -0.348564 -0.005826
v 0.000000 -0.347212 -0.005313
v 0.000000 -0.346021 -0.004491
v 0.000000 -0.345062 -0.003408
v 0.000000 -0.344390 -0.002128
v 0.000000 -0.344044 -0.000723
v 0.000000 -0.344044 0.000723
v 0.000000 -0.344390 0.002128
v 0.000000 -0.345062 0.003408
v 0.000000 -0.346021 0.004491
v 0.000000 -0.347212 0.005313
v 0.000000 -0.348564 0.005826
v 0.000000 -0.350000 0.006000
v 0.000000 -0.351436 0.005826
v 0.000000 -0.352788 0.005313
v 0.000000 -0.353979 0.004491
v 0.000000 -0.354938 0.003408
v 0.000000 -0.355610 0.002128
v 0.000000 -0.355956 0.000723
v 0.000000 -0.355956 -0.000723
v 0.000000 -0.355610 -0.002128
v 0.000000 -0.354938 -0.003408
v 0.000000 -0.353979 -0.004491
v 0.000000 -0.352788 -0.005313
v 0.000000 -0.351436 -0.005826
v 0.000000 -0.141974 -0.005000
v 0.000000 -0.140778 -0.004855
v 0.000000 -0.139651 -0.004427
v 0.000000 -0.138659 -0.003743
v 0.000000 -0.137859 -0.002840
v 0.000000 -0.137299 -0.001773
v 0.000000 -0.137011 -0.000603
v 0.000000 -0.137011 0.000603
v 0.000000 -0.137299 0.001773
v 0.000000 -0.137859 0.002840
v 0.000000 -0.138659 0.003743
v 0.000000 -0.139651 0.004427
v 0.000000 -0.140778 0.004855
v 0.000000 -0.141974 0.005000
v 0.000000 -0.143171 0.004855
v 0.000000 -0.144298 0.004427
v 0.000000 -0.145290 0.003743
v 0.000000 -0.146089 0.002840
v 0.000000 -0.146649 0.001773
v 0.000000 -0.146938 0.000603
v 0.000000 -0.146938 -0.000603
v 0.000000 -0.146649 -0.001773
v 0.000000 -0.146089 -0.002840
v 0.000000 -0.145290 -0.003743
v 0.000000 -0.144298 -0.004427
v 0.000000 -0.143171 -0.004855
v 0.000000 -0.191974 -0.005000
v 0.000000 -0.190778 -0.004855
v 0.000000 -0.189651 -0.004427
v 0.000000 -0.188659 -0.003743
v 0.000000 -0.187859 -0.002840
v 0.000000 -0.187299 -0.001773
v 0.000000 -0.187011 -0.000603
v 0.000000 -0.187011 0.000603
v 0.000000 -0.187299 0.001773
v 0.000000 -0.187859 0.002840
v 0.000000 -0.188659 0.003743
v 0.000000 -0.189651 0.004427
v 0.000000 -0.190778 0.004855
v 0.000000 -0.191974 0.005000
v 0.000000 -0.193171 0.004855
v 0.000000 -0.194298 0.004427
v 0.000000 -0.195290 0.003743
v 0.000000 -0.196089 0.002840
v 0.000000 -0.196649 0.001773
v 0.000000 -0.196938 0.000603
v 0.000000 -0.196938 -0.000603
v 0.000000 -0.196649 -0.001773
v 0.000000 -0.196089 -0.002840
v 0.000000 -0.195290 -0.003743
v 0.000000 -0.194298 -0.004427
v 0.000000 -0.193171 -0.004855
v 0.000000 -0.241974 -0.005000
v 0.000000 -0.240778 -0.004855
v 0.000000 -0.239651 -0.004427
v 0.000000 -0.238659 -0.003743
v 0.000000 -0.237859 -0.002840
v 0.000000 -0.237299 -0.001773
v 0.000000 -0.237011 -0.000603
v 0.000000 -0.237011 0.000603
v 0.000000 -0.237299 0.001773
v 0.000000 -0.237859 0.002840
v 0.000000 -0.238659 0.003743
v 0.000000 -0.239651 0.004427
v 0.000000 -0.240778 0.004855
v 0.000000 -0.241974 0.005000
v 0.000000 -0.243171 0.004855
v 0.000000 -0.244298 0.004427
v 0.000000 -0.245290 0.003743
v 0.000000 -0.246089 0.002840
v 0.000000 -0.246649 0.001773
v 0.000000 -0.246938 0.000603
v 0.000000 -0.246938 -0.000603
v 0.000000 -0.246649 -0.001773
v 0.000000 -0.246089 -0.002840
v 0.000000 -0.245290 -0.003743
v 0.000000 -0.244298 -0.004427
v 0.000000 -0.243171 -0.004855
v 0.000000 -0.291974 -0.005000
v 0.000000 -0.290778 -0.004855
v 0.000000 -0.289651 -0.004427
v 0.000000 -0.288659 -0.003743
v 0.000000 -0.287859 -0.002840
v 0.000000 -0.287299 -0.001773
v 0.000000 -0.287011 -0.000603
v 0.000000 -0.287011 0.000603
v 0.000000 -0.287299 0.001773
v 0.000000 -0.287859 0.002840
v 0.000000 -0.288659 0.003743
v 0.000000 -0.289651 0.004427
v 0.000000 -0.290778 0.004855
v 0.000000 -0.291974 0.005000
v 0.000000 -0.293171 0.004855
v 0.000000 -0.294298 0.004427
v 0.000000 -0.295290 0.003743
v 0.000000 -0.296089 0.002840
v 0.000000 -0.296649 0.001773
v 0.000000 -0.296938 0.000603
v 0.000000 -0.296938 -0.000603
v 0.000000 -0.296649 -0.001773
v 0.000000 -0.296089 -0.002840
v 0.000000 -0.295290 -0.003743
v 0.000000 -0.294298 -0.004427
v 0.000000 -0.293171 -0.004855
v 0.003000 -0.350000 0.006000
v 0.003000 -0.351436 0.005826
v 0.003000 -0.352788 0.005313
v 0.003000 -0.353979 0.004491
v 0.003000 -0.354938 0.003408
v 0.003000 -0.355610 0.002128
v 0.003000 -0.355956 0.000723
v 0.003000 -0.355956 -0.000723
v 0.003000 -0.355610 -0.002128
v 0.003000 -0.354938 -0.003408
v 0.003000 -0.353979 -0.004491
v 0.003000 -0.352788 -0.005313
v 0.003000 -0.351436 -0.005826
v 0.003000 -0.350000 -0.006000
v 0.000000 -0.350000 0.006000
v 0.000000 -0.351436 0.005826
v 0.000000 -0.352788 0.005313
v 0.000000 -0.353979 0.004491
v 0.000000 -0.354938 0.003408
v 0.000000 -0.355610 0.002128
v 0.000000 -0.355956 0.000723
v 0.000000 -0.355956 -0.000723
v 0.000000 -0.355610 -0.002128
v 0.000000 -0.354938 -0.003408
v 0.000000 -0.353979 -0.004491
v 0.000000 -0.352788 -0.005313
v 0.000000 -0.351436 -0.005826
v 0.000000 -0.350000 -0.006000
v 0.003000 0.000000 0.009000
v 0.003000 -0.002154 0.008738
v 0.003000 -0.004183 0.007969
v 0.003000 -0.005968 0.006737
v 0.003000 -0.007407 0.005113
v 0.003000 -0.008415 0.003191
v 0.003000 -0.008934 0.001085
v 0.003000 -0.008934 -0.001085
v 0.003000 -0.008415 -0.003191
v 0.003000 -0.007407 -0.005113
v 0.003000 -0.005968 -0.006737
v 0.003000 -0.004183 -0.007969
v 0.003000 -0.002154 -0.008738
v 0.003000 -0.000000 -0.009000
v 0.000000 0.000000 0.009000
v 0.000000 -0.002154 0.008738
v 0.000000 -0.004183 0.007969
v 0.000000 -0.005968 0.006737
v 0.000000 -0.007407 0.005113
v 0.000000 -0.008415 0.003191
v 0.000000 -0.008934 0.001085
v 0.000000 -0.008934 -0.001085
v 0.000000 -0.008415 -0.003191
v 0.000000 -0.007407 -0.005113
v 0.000000 -0.005968 -0.006737
v 0.000000 -0.004183 -0.007969
v 0.000000 -0.002154 -0.008738
v 0.000000 -0.000000 -0.009000
v 0.003000 -0.041974 0.005000
v 0.003000 -0.043171 0.004855
v 0.003000 -0.044298 0.004427
v 0.003000 -0.045290 0.003743
v 0.003000 -0.046089 0.002840
v 0.003000 -0.046649 0.001773
v 0.003000 -0.046938 0.000603
v 0.003000 -0.046938 -0.000603
v 0.003000 -0.046649 -0.001773
v 0.003000 -0.046089 -0.002840
v 0.003000 -0.045290 -0.003743
v 0.003000 -0.044298 -0.004427
v 0.003000 -0.043171 -0.004855
v 0.003000 -0.041974 -0.005000
v 0.000000 -0.041974 0.005000
v 0.000000 -0.043171 0.004855
v 0.000000 -0.044298 0.004427
v 0.000000 -0.045290 0.003743
v 0.000000 -0.046089 0.002840
v 0.000000 -0.046649 0.001773
v 0.000000 -0.046938 0.000603
v 0.000000 -0.046938 -0.000603
v 0.000000 -0.046649 -0.001773
v 0.000000 -0.046089 -0.002840
v 0.000000 -0.045290 -0.003743
v 0.000000 -0.044298 -0.004427
v 0.000000 -0.043171 -0.004855
v 0.000000 -0.041974 -0.005000
v 0.003000 -0.091974 0.005000
v 0.003000 -0.093171 0.004855
v 0.003000 -0.094298 0.004427
v 0.003000 -0.095290 0.003743
v 0.003000 -0.096089 0.002840
v 0.003000 -0.096649 0.001773
v 0.003000 -0.096938 0.000603
v 0.003000 -0.096938 -0.000603
v 0.003000 -0.096649 -0.001773
v 0.003000 -0.096089 -0.002840
v 0.003000 -0.095290 -0.003743
v 0.003000 -0.094298 -0.004427
v 0.003000 -0.093171 -0.004855
v 0.003000 -0.091974 -0.005000
v 0.000000 -0.091974 0.005000
v 0.000000 -0.093171 0.004855
v 0.000000 -0.094298 0.004427
v 0.000000 -0.095290 0.003743
v 0.000000 -0.096089 0.002840
v 0.000000 -0.096649 0.001773
v 0.000000 -0.096938 0.000603
v 0.000000 -0.096938 -0.000603
v 0.000000 -0.096649 -0.001773
v 0.000000 -0.096089 -0.002840
v 0.000000 -0.095290 -0.003743
v 0.000000 -0.094298 -0.004427
v 0.000000 -0.093171 -0.004855
v 0.000000 -0.091974 -0.005000
vn -0.0000 -0.1999 0.9798
vn -0.0000 -0.1205 0.9927
vn -0.0000 -0.2784 0.9605
vn -0.0000 -0.4285 0.9035
vn -0.0000 -0.5001 0.8659
vn -0.0000 -0.6323 0.7747
vn -0.0000 -0.6928 0.7211
vn -0.0000 -0.4286 0.9035
vn -0.0000 -0.7993 0.6009
vn -0.0000 -0.8453 0.5343
vn -0.0000 -0.9350 0.3546
vn -0.0000 -0.9870 0.1606
vn -0.0000 -0.7994 0.6009
vn -0.0000 -0.9968 0.0803
vn -0.0000 -0.9927 -0.1206
vn -0.0000 -0.9486 -0.3165
vn -0.0000 -0.9199 -0.3921
vn -0.0000 -0.9927 -0.1205
vn -0.0000 -0.8453 -0.5343
vn -0.0000 -0.7994 -0.6009
vn -0.0000 -0.6631 -0.7485
vn -0.0000 -0.7993 -0.6009
vn -0.0000 -0.4647 -0.8855
vn -0.0000 -0.2784 -0.9605
vn -0.0000 -0.1999 -0.9798
vn -0.0000 -0.4647 -0.8854
vn -0.0000 -0.1205 -0.9927
vn -0.0000 -0.9199 0.3921
vn -0.0000 -0.9486 0.3165
vn -0.0000 -0.9927 0.1205
vn -0.0000 -0.9927 0.1206
vn -0.0000 -0.9350 -0.3546
vn -0.0000 -0.8230 -0.5681
vn -0.0000 -0.8230 -0.5680
vn -0.0000 -0.2393 -0.9709
vn -0.0000 -0.2393 0.9709
vn -0.0000 -0.4647 0.8854
vn -0.0000 -0.6631 0.7485
vn -0.0000 -0.4647 0.8855
vn -0.0000 -0.8230 0.5680
vn -0.0000 -0.8230 0.5681
vn -0.0000 -0.6928 -0.7211
vn -0.0000 -0.6323 -0.7747
vn -0.0000 -0.5001 -0.8659
vn -0.0000 -0.4285 -0.9035
vn -0.0000 0.1999 -0.9798
vn -0.0000 0.1205 -0.9927
vn -0.0000 0.2784 -0.9605
vn -0.0000 0.4647 -0.8854
vn -0.0000 0.4647 -0.8855
vn -0.0000 0.6631 -0.7485
vn -0.0000 0.8230 -0.5681
vn -0.0000 0.9350 -0.3546
vn -0.0000 0.9870 -0.1606
vn -0.0000 0.9968 -0.0803
vn -0.0000 0.9968 0.0803
vn -0.0000 0.9870 0.1606
vn -0.0000 0.9350 0.3546
vn -0.0000 0.8230 0.5681
vn -0.0000 0.6928 0.7211
vn -0.0000 0.6323 0.7747
vn -0.0000 0.4647 0.8855
vn -0.0000 0.4647 0.8854
vn -0.0000 0.2393 0.9709
vn -0.0000 0.1205 0.9927
vn -0.0000 0.8230 -0.5680
vn -0.0000 0.8230 0.5680
vn -0.0000 -0.0712 -0.9975
vn -0.0000 -0.0437 -0.9990
vn -0.0000 -0.1314 -0.9913
vn -0.0000 -0.1792 -0.9838
vn -0.0000 -0.1969 -0.9804
vn -0.0000 -0.2326 -0.9726
vn -0.0000 -0.1970 -0.9804
vn -0.0000 -0.2322 -0.9727
vn -0.0000 -0.1842 -0.9829
vn -0.0000 -0.1511 -0.9885
vn -0.0000 -0.1375 -0.9905
vn -0.0000 -0.1052 -0.9945
vn -0.0000 -0.0948 -0.9955
vn -0.0000 -0.0849 -0.9964
vn -0.0000 -0.0949 -0.9955
vn -0.0000 0.1135 0.9935
vn -0.0000 0.0682 0.9977
vn -0.0000 0.1587 0.9873
vn -0.0000 0.2478 0.9688
vn -0.0000 0.2917 0.9565
vn -0.0000 0.1136 0.9935
vn -0.0000 0.3774 0.9261
vn -0.0000 0.4192 0.9079
vn -0.0000 0.5000 0.8660
vn -0.0000 0.5389 0.8424
vn -0.0000 0.6311 0.7757
vn -0.0000 0.7308 0.6825
vn -0.0000 0.8170 0.5767
vn -0.0000 0.8879 0.4601
vn -0.0000 0.7308 0.6826
vn -0.0000 0.9344 0.3563
vn -0.0000 0.9496 0.3133
vn -0.0000 0.9742 0.2257
vn -0.0000 0.9497 0.3133
vn -0.0000 0.9835 0.1811
vn -0.0000 0.9977 0.0683
vn -0.0000 0.9977 -0.0683
vn -0.0000 0.9977 0.0682
vn -0.0000 0.9835 -0.1811
vn -0.0000 0.9977 -0.0682
vn -0.0000 0.9742 -0.2257
vn -0.0000 0.9497 -0.3133
vn -0.0000 0.9344 -0.3563
vn -0.0000 0.8981 -0.4397
vn -0.0000 0.9496 -0.3133
vn -0.0000 0.8772 -0.4802
vn -0.0000 0.8299 -0.5579
vn -0.0000 0.8036 -0.5951
vn -0.0000 0.7462 -0.6657
vn -0.0000 0.8036 -0.5952
vn -0.0000 0.7151 -0.6990
vn -0.0000 0.6311 -0.7757
vn -0.0000 0.5196 -0.8544
vn -0.0000 0.4192 -0.9079
vn -0.0000 0.3774 -0.9261
vn -0.0000 0.2917 -0.9565
vn -0.0000 0.2478 -0.9688
vn -0.0000 0.1362 -0.9907
vn -0.0000 0.0682 -0.9977
vn -0.0000 0.1361 -0.9907
vn -0.0000 -0.0712 0.9975
vn -0.0000 -0.0437 0.9990
vn -0.0000 -0.1314 0.9913
vn -0.0000 -0.1792 0.9838
vn -0.0000 -0.1969 0.9804
vn -0.0000 -0.2326 0.9726
vn -0.0000 -0.1970 0.9804
vn -0.0000 -0.2322 0.9727
vn -0.0000 -0.1842 0.9829
vn -0.0000 -0.1511 0.9885
vn -0.0000 -0.1375 0.9905
vn -0.0000 -0.1052 0.9945
vn -0.0000 -0.0948 0.9955
vn -0.0000 -0.0849 0.9964
vn -0.0000 -0.0949 0.9955
vn -0.0000 -0.1052 0.9944
vn -0.0000 -0.0000 1.0000
vn -0.0000 0.0617 0.9981
vn -0.0000 0.0437 0.9990
vn -0.0000 0.0810 0.9967
vn -0.0000 0.1216 0.9926
vn -0.0000 0.1412 0.9900
vn -0.0000 0.1792 0.9838
vn -0.0000 0.1411 0.9900
vn -0.0000 0.1969 0.9804
vn -0.0000 0.2277 0.9737
vn -0.0000 0.1970 0.9804
vn -0.0000 0.2366 0.9716
vn -0.0000 0.2364 0.9717
vn -0.0000 0.2268 0.9739
vn -0.0000 0.1927 0.9813
vn -0.0000 0.1760 0.9844
vn -0.0000 0.1511 0.9885
vn -0.0000 0.1375 0.9905
vn -0.0000 0.1052 0.9945
vn -0.0000 0.0948 0.9955
vn -0.0000 0.0849 0.9964
vn -0.0000 0.0949 0.9955
vn -0.0000 0.1052 0.9944
vn -0.0000 -0.1135 -0.9935
vn -0.0000 -0.0682 -0.9977
vn -0.0000 -0.1587 -0.9873
vn -0.0000 -0.2698 -0.9629
vn -0.0000 -0.3984 -0.9172
vn -0.0000 -0.1136 -0.9935
vn -0.0000 -0.5196 -0.8544
vn -0.0000 -0.6132 -0.7899
vn -0.0000 -0.6486 -0.7611
vn -0.0000 -0.7308 -0.6825
vn -0.0000 -0.8036 -0.5952
vn -0.0000 -0.7308 -0.6826
vn -0.0000 -0.8299 -0.5579
vn -0.0000 -0.8772 -0.4802
vn -0.0000 -0.8981 -0.4397
vn -0.0000 -0.8036 -0.5951
vn -0.0000 -0.9344 -0.3563
vn -0.0000 -0.9496 -0.3133
vn -0.0000 -0.9791 -0.2034
vn -0.0000 -0.9497 -0.3133
vn -0.0000 -0.9791 -0.2035
vn -0.0000 -0.9977 -0.0682
vn -0.0000 -0.9990 0.0455
vn -0.0000 -0.9977 -0.0683
vn -0.0000 -0.9959 0.0910
vn -0.0000 -0.9835 0.1811
vn -0.0000 -0.9742 0.2257
vn -0.0000 -0.9423 0.3349
vn -0.0000 -0.8879 0.4601
vn -0.0000 -0.8299 0.5579
vn -0.0000 -0.8036 0.5951
vn -0.0000 -0.7308 0.6826
vn -0.0000 -0.8036 0.5952
vn -0.0000 -0.7308 0.6825
vn -0.0000 -0.6311 0.7757
vn -0.0000 -0.5389 0.8424
vn -0.0000 -0.5000 0.8660
vn -0.0000 -0.4192 0.9079
vn -0.0000 -0.3774 0.9261
vn -0.0000 -0.2698 0.9629
vn -0.0000 -0.1361 0.9907
vn -0.0000 -0.0682 0.9977
vn -0.0000 -0.1362 0.9907
vn -0.0000 0.0617 -0.9981
vn -0.0000 0.0437 -0.9990
vn -0.0000 0.0810 -0.9967
vn -0.0000 0.1216 -0.9926
vn -0.0000 0.1412 -0.9900
vn -0.0000 0.1792 -0.9838
vn -0.0000 0.1969 -0.9804
vn -0.0000 0.1411 -0.9900
vn -0.0000 0.2277 -0.9737
vn -0.0000 0.2366 -0.9716
vn -0.0000 0.1970 -0.9804
vn -0.0000 0.2364 -0.9717
vn -0.0000 0.2268 -0.9739
vn -0.0000 0.1927 -0.9813
vn -0.0000 0.1760 -0.9844
vn -0.0000 0.1511 -0.9885
vn -0.0000 0.1375 -0.9905
vn -0.0000 0.1052 -0.9945
vn -0.0000 0.0948 -0.9955
vn -0.0000 0.0849 -0.9964
vn -0.0000 0.0949 -0.9955
vn -0.0000 -0.0000 -1.0000
vn 1.0000 -0.0000 -0.0000
vn -1.0000 -0.0000 -0.0000
vn -0.0000 0.4285 -0.9035
vn -0.0000 0.5001 -0.8659
vn -0.0000 0.6323 -0.7747
vn -0.0000 0.6928 -0.7211
vn -0.0000 0.5001 0.8659
vn -0.0000 0.4285 0.9035
vn -0.0000 0.2784 0.9605
vn -0.0000 0.1999 0.9798
vn -0.0000 0.4286 -0.9035
vn -0.0000 0.7993 -0.6009
vn -0.0000 0.8453 -0.5343
vn -0.0000 0.9199 -0.3921
vn -0.0000 0.9486 -0.3165
vn -0.0000 0.9927 -0.1205
vn -0.0000 0.9927 -0.1206
vn -0.0000 0.9486 0.3165
vn -0.0000 0.9199 0.3921
vn -0.0000 0.6631 0.7485
vn -0.0000 0.4286 0.9035
s 0
usemtl material6.002
f 4//1 16//2 3//2
f 4//1 17//3 16//2
f 5//4 18//5 17//3
f 5//4 17//3 4//1
f 6//6 19//7 18//5
f 6//6 18//5 5//8
f 7//9 20//10 19//7
f 7//9 19//7 6//6
f 8//11 21//11 20//10
f 8//11 22//12 21//11
f 8//11 20//10 7//13
f 9//14 23//15 22//12
f 9//14 22//12 8//11
f 10//15 23//15 9//14
f 11//16 24//17 23//18
f 11//16 23//18 10//18
f 12//19 25//20 24//17
f 12//19 24//17 11//16
f 13//21 26//21 25//22
f 13//21 27//23 26//21
f 13//21 25//22 12//19
f 14//23 27//23 13//21
f 15//24 28//25 27//26
f 15//24 27//26 14//26
f 2//27 1//27 28//25
f 2//27 28//25 15//24
f 32//1 44//2 31//2
f 32//1 45//3 44//2
f 33//4 46//5 45//3
f 33//4 45//3 32//1
f 34//6 47//7 46//5
f 34//6 46//5 33//8
f 35//9 48//10 47//7
f 35//9 47//7 34//6
f 36//11 49//11 48//10
f 36//11 50//12 49//11
f 36//11 48//10 35//9
f 37//14 51//15 50//12
f 37//14 50//12 36//11
f 38//15 51//15 37//14
f 39//16 52//17 51//18
f 39//16 51//18 38//18
f 40//19 53//22 52//17
f 40//19 52//17 39//16
f 41//21 54//21 53//22
f 41//21 55//23 54//21
f 41//21 53//22 40//19
f 42//23 55//23 41//21
f 43//24 56//25 55//26
f 43//24 55//26 42//26
f 30//27 29//27 56//25
f 30//27 56//25 43//24
f 60//1 72//2 59//2
f 60//1 73//3 72//2
f 61//4 74//5 73//3
f 61//4 73//3 60//1
f 62//6 75//7 74//5
f 62//6 74//5 61//8
f 63//9 76//10 75//7
f 63//9 75//7 62//6
f 64//28 77//29 76//10
f 64//28 76//10 63//9
f 65//30 78//30 77//29
f 65//31 79//15 78//31
f 65//30 77//29 64//28
f 66//15 79//15 65//31
f 67//32 80//32 79//18
f 67//32 81//33 80//32
f 67//32 79//18 66//18
f 68//33 81//33 67//32
f 69//21 82//21 81//34
f 69//21 83//23 82//21
f 69//21 81//34 68//34
f 70//23 83//23 69//21
f 71//35 84//35 83//26
f 71//35 57//27 84//35
f 71//35 83//26 70//26
f 58//27 57//27 71//35
f 88//36 100//2 87//2
f 88//36 101//36 100//2
f 88//36 102//37 101//36
f 89//37 102//37 88//36
f 90//38 103//38 102//39
f 90//38 104//40 103//38
f 90//38 102//39 89//39
f 91//40 104//40 90//38
f 92//28 105//29 104//41
f 92//28 104//41 91//41
f 93//12 106//14 105//29
f 93//12 105//29 92//28
f 94//15 107//15 106//14
f 94//18 108//32 107//18
f 94//15 106//14 93//12
f 95//32 108//32 94//18
f 96//19 109//22 108//32
f 96//19 108//32 95//32
f 97//42 110//43 109//22
f 97//42 109//22 96//19
f 98//44 111//45 110//43
f 98//44 110//43 97//42
f 99//24 112//25 111//45
f 99//24 111//45 98//44
f 86//27 85//27 112//25
f 86//27 112//25 99//24
f 116//1 128//2 115//2
f 116//1 129//3 128//2
f 117//4 130//5 129//3
f 117//4 129//3 116//1
f 118//6 131//7 130//5
f 118//6 130//5 117//8
f 119//9 132//10 131//7
f 119//9 131//7 118//6
f 120//11 133//11 132//10
f 120//11 134//12 133//11
f 120//11 132//10 119//9
f 121//14 135//15 134//12
f 121//14 134//12 120//11
f 122//15 135//15 121//14
f 123//16 136//17 135//18
f 123//16 135//18 122//18
f 124//19 137//22 136//17
f 124//19 136//17 123//16
f 125//21 138//21 137//22
f 125//21 139//23 138//21
f 125//21 137//22 124//19
f 126//23 139//23 125//21
f 127//24 140//25 139//26
f 127//24 139//26 126//26
f 114//27 113//27 140//25
f 114//27 140//25 127//24
f 144//1 156//2 143//2
f 144//1 157//3 156//2
f 145//4 158//5 157//3
f 145//4 157//3 144//1
f 146//6 159//7 158//5
f 146//6 158//5 145//8
f 147//9 160//10 159//7
f 147//9 159//7 146//6
f 148//11 161//11 160//10
f 148//11 162//12 161//11
f 148//11 160//10 147//9
f 149//14 163//15 162//12
f 149//14 162//12 148//11
f 150//15 163//15 149//14
f 151//16 164//17 163//18
f 151//16 163//18 150//18
f 152//19 165//22 164//17
f 152//19 164//17 151//16
f 153//21 166//21 165//22
f 153//21 167//23 166//21
f 153//21 165//22 152//19
f 154//23 167//23 153//21
f 155//24 168//25 167//26
f 155//24 167//26 154//26
f 142//27 141//27 168//25
f 142//27 168//25 155//24
f 172//1 184//2 171//2
f 172//1 185//3 184//2
f 173//4 186//5 185//3
f 173//4 185//3 172//1
f 174//6 187//7 186//5
f 174//6 186//5 173//8
f 175//9 188//10 187//7
f 175//9 187//7 174//6
f 176//11 189//11 188//10
f 176//11 190//12 189//11
f 176//11 188//10 175//9
f 177//14 191//15 190//12
f 177//14 190//12 176//11
f 178//15 191//15 177//14
f 179//16 192//17 191//18
f 179//16 191//18 178//18
f 180//19 193//22 192//17
f 180//19 192//17 179//16
f 181//21 194//21 193//22
f 181//21 195//23 194//21
f 181//21 193//22 180//19
f 182//23 195//23 181//21
f 183//24 196//25 195//26
f 183//24 195//26 182//26
f 170//27 169//27 196//25
f 170//27 196//25 183//24
f 200//1 212//2 199//2
f 200//1 213//3 212//2
f 201//4 214//5 213//3
f 201//4 213//3 200//1
f 202//6 215//7 214//5
f 202//6 214//5 201//4
f 203//9 216//10 215//7
f 203//9 215//7 202//6
f 204//11 217//11 216//10
f 204//11 218//12 217//11
f 204//11 216//10 203//9
f 205//14 219//15 218//12
f 205//14 218//12 204//11
f 206//15 219//15 205//14
f 207//16 220//17 219//15
f 207//16 219//15 206//15
f 208//19 221//22 220//17
f 208//19 220//17 207//16
f 209//21 222//21 221//22
f 209//21 223//26 222//21
f 209//21 221//22 208//19
f 210//26 223//26 209//21
f 211//24 224//25 223//26
f 211//24 223//26 210//26
f 198//27 197//27 224//25
f 198//27 224//25 211//24
f 226//46 239//47 225//47
f 226//46 240//48 239//47
f 227//49 241//49 240//48
f 227//50 242//51 241//50
f 227//49 240//48 226//46
f 228//51 242//51 227//50
f 229//52 243//52 242//51
f 229//52 244//53 243//52
f 229//52 242//51 228//51
f 230//53 244//53 229//52
f 231//54 245//55 244//53
f 231//54 244//53 230//53
f 232//56 246//57 245//55
f 232//56 245//55 231//54
f 233//58 247//58 246//57
f 233//58 248//59 247//58
f 233//58 246//57 232//56
f 234//59 248//59 233//58
f 235//60 249//61 248//59
f 235//60 248//59 234//59
f 236//62 250//62 249//61
f 236//63 251//64 250//63
f 236//62 249//61 235//60
f 237//64 251//64 236//63
f 238//65 252//65 251//64
f 238//65 251//64 237//64
f 254//46 267//47 253//47
f 254//46 268//48 267//47
f 255//50 269//50 268//48
f 255//49 270//51 269//49
f 255//50 268//48 254//46
f 256//51 270//51 255//49
f 257//52 271//52 270//51
f 257//66 272//53 271//66
f 257//52 270//51 256//51
f 258//53 272//53 257//66
f 259//54 273//55 272//53
f 259//54 272//53 258//53
f 260//56 274//57 273//55
f 260//56 273//55 259//54
f 261//58 275//58 274//57
f 261//58 276//67 275//58
f 261//58 274//57 260//56
f 262//67 276//67 261//58
f 263//60 277//61 276//59
f 263//60 276//59 262//59
f 264//63 278//63 277//61
f 264//62 279//64 278//62
f 264//63 277//61 263//60
f 265//64 279//64 264//62
f 266//65 280//65 279//64
f 266//65 279//64 265//64
f 282//46 295//47 281//47
f 282//46 296//48 295//47
f 283//50 297//50 296//48
f 283//49 298//51 297//49
f 283//50 296//48 282//46
f 284//51 298//51 283//49
f 285//52 299//52 298//51
f 285//66 300//53 299//66
f 285//52 298//51 284//51
f 286//53 300//53 285//66
f 287//54 301//55 300//53
f 287//54 300//53 286//53
f 288//56 302//57 301//55
f 288//56 301//55 287//54
f 289//58 303//58 302//57
f 289//58 304//67 303//58
f 289//58 302//57 288//56
f 290//67 304//67 289//58
f 291//60 305//61 304//59
f 291//60 304//59 290//59
f 292//63 306//63 305//61
f 292//62 307//64 306//62
f 292//63 305//61 291//60
f 293//64 307//64 292//62
f 294//65 308//65 307//64
f 294//65 307//64 293//64
f 310//46 323//47 309//47
f 310//46 324//48 323//47
f 311//50 325//50 324//48
f 311//49 326//51 325//49
f 311//50 324//48 310//46
f 312//51 326//51 311//49
f 313//52 327//52 326//51
f 313//66 328//53 327//66
f 313//52 326//51 312//51
f 314//53 328//53 313//66
f 315//54 329//55 328//53
f 315//54 328//53 314//53
f 316//56 330//57 329//55
f 316//56 329//55 315//54
f 317//58 331//58 330//57
f 317//58 332//67 331//58
f 317//58 330//57 316//56
f 318//67 332//67 317//58
f 319//60 333//61 332//59
f 319//60 332//59 318//59
f 320//63 334//63 333//61
f 320//62 335//64 334//62
f 320//63 333//61 319//60
f 321//64 335//64 320//62
f 322//65 336//65 335//64
f 322//65 335//64 321//64
f 348//68 337//69 347//69
f 338//68 337//69 348//68
f 339//70 348//68 349//70
f 339//70 338//68 348//68
f 350//71 339//70 349//70
f 340//72 339//70 350//71
f 351//73 340//74 350//71
f 341//73 340//74 351//73
f 342//75 351//73 352//75
f 342//75 341//73 351//73
f 353//76 342//75 352//75
f 343//76 342//75 353//76
f 344//77 353//76 354//78
f 344//77 343//76 353//76
f 345//79 354//78 355//80
f 345//79 344//77 354//78
f 346//81 355//82 356//81
f 346//81 345//79 355//82
f 379//83 380//84 381//84
f 379//83 381//84 404//85
f 378//86 404//85 403//87
f 378//86 379//88 404//85
f 377//89 403//87 402//90
f 377//89 378//86 403//87
f 376//91 402//90 401//92
f 376//91 377//89 402//90
f 375//93 400//93 399//94
f 375//93 401//92 400//93
f 375//93 376//91 401//92
f 374//94 375//93 399//94
f 373//95 398//95 397//96
f 373//95 399//97 398//95
f 373//95 374//97 399//97
f 372//96 373//95 397//96
f 371//98 397//96 396//99
f 371//98 372//96 397//96
f 370//100 396//101 395//102
f 370//100 371//98 396//101
f 369//103 394//103 393//104
f 369//105 395//102 394//105
f 369//105 370//100 395//102
f 368//104 369//103 393//104
f 367//106 368//107 393//107
f 367//106 393//107 392//108
f 366//109 367//106 392//108
f 366//109 392//108 391//110
f 365//111 366//112 391//110
f 365//111 391//110 390//113
f 364//114 365//111 390//113
f 364//114 390//113 389//115
f 363//116 364//114 389//117
f 363//116 389//117 388//118
f 362//119 363//116 388//118
f 362//119 387//119 386//120
f 362//119 388//118 387//119
f 361//120 362//119 386//120
f 360//121 386//120 385//122
f 360//121 361//120 386//120
f 359//123 385//122 384//124
f 359//123 360//121 385//122
f 358//125 383//125 382//126
f 358//127 384//124 383//127
f 358//127 359//123 384//124
f 357//126 358//125 382//126
f 407//128 405//129 406//129
f 417//128 407//128 406//129
f 418//130 408//130 407//128
f 418//130 407//128 417//128
f 409//131 408//130 418//130
f 419//132 409//131 418//130
f 410//133 409//131 419//134
f 420//133 410//133 419//134
f 421//135 411//135 410//133
f 421//135 410//133 420//133
f 412//136 411//135 421//135
f 422//136 412//136 421//135
f 423//137 413//138 412//136
f 423//137 412//136 422//136
f 424//139 414//140 413//138
f 424//139 413//138 423//137
f 416//141 415//141 414//142
f 416//141 414//142 424//143
f 425//144 428//144 427//144
f 425//144 426//144 428//144
f 430//145 429//146 439//146
f 430//145 439//146 440//147
f 431//148 440//147 441//149
f 431//148 430//145 440//147
f 432//150 441//151 442//152
f 432//150 431//148 441//151
f 433//153 442//154 443//155
f 433//153 432//150 442//154
f 434//156 443//155 444//157
f 434//156 433//153 443//155
f 435//158 444//157 445//159
f 435//158 434//156 444//157
f 436//160 445//159 446//161
f 436//160 435//158 445//159
f 437//162 446//161 447//163
f 437//162 436//160 446//161
f 438//164 447//165 448//164
f 438//164 437//166 447//165
f 450//167 449//168 473//168
f 450//167 473//168 474//169
f 451//170 474//169 475//170
f 451//170 475//170 476//171
f 451//170 450//172 474//169
f 452//171 451//170 476//171
f 453//173 476//171 477//173
f 453//173 477//173 478//174
f 453//173 452//171 476//171
f 454//175 478//174 479//176
f 454//175 453//173 478//174
f 455//176 454//175 479//176
f 456//177 479//178 480//179
f 456//177 455//178 479//178
f 457//180 480//179 481//181
f 457//180 456//182 480//179
f 458//183 481//181 482//184
f 458//183 457//180 481//181
f 459//185 482//186 483//185
f 459//187 483//187 484//188
f 459//185 458//183 482//186
f 460//188 459//187 484//188
f 461//189 484//190 485//191
f 461//189 460//190 484//190
f 462//192 461//189 485//191
f 462//192 485//191 486//193
f 463//194 462//192 486//193
f 463//194 486//193 487//194
f 463//194 487//194 488//195
f 464//195 463//194 488//195
f 465//196 464//195 488//195
f 465//196 488//195 489//197
f 466//198 465//196 489//199
f 466//198 489//199 490//198
f 466//200 490//200 491//201
f 467//201 466//200 491//201
f 468//202 467//201 491//201
f 468//202 491//201 492//203
f 469//204 468//202 492//203
f 469//204 492//203 493//205
f 470//206 469//204 493//205
f 470//206 493//205 494//206
f 470//206 494//206 495//207
f 471//207 470//206 495//207
f 472//208 471//209 495//209
f 472//208 495//209 496//208
f 509//210 497//211 498//211
f 509//210 499//212 497//211
f 510//213 500//214 499//212
f 510//213 499//212 509//210
f 511//215 501//216 500//217
f 511//215 500//217 510//213
f 512//218 502//219 501//220
f 512//218 501//220 511//215
f 513//221 503//222 502//219
f 513//221 502//219 512//218
f 514//223 504//224 503//222
f 514//223 503//222 513//221
f 515//225 505//226 504//224
f 515//225 504//224 514//223
f 516//227 506//228 505//226
f 516//227 505//226 515//225
f 508//229 507//229 506//230
f 508//229 506//230 516//227
f 519//231 518//231 517//231
f 519//231 520//231 518//231
f 673//232 534//232 535//232
f 673//232 535//232 536//232
f 674//232 536//232 537//232
f 674//232 537//232 538//232
f 674//232 673//232 536//232
f 672//232 533//232 534//232
f 672//232 534//232 673//232
f 675//232 538//232 539//232
f 675//232 539//232 540//232
f 675//232 674//232 538//232
f 671//232 531//232 532//232
f 671//232 532//232 533//232
f 671//232 533//232 672//232
f 676//232 540//232 541//232
f 676//232 675//232 540//232
f 670//232 521//232 531//232
f 670//232 531//232 671//232
f 677//232 541//232 542//232
f 677//232 542//232 543//232
f 677//232 676//232 541//232
f 669//232 522//232 521//232
f 669//232 521//232 670//232
f 678//232 543//232 544//232
f 678//232 544//232 545//232
f 678//232 677//232 543//232
f 668//232 522//232 669//232
f 679//232 545//232 546//232
f 679//232 678//232 545//232
f 547//232 679//232 546//232
f 667//232 523//232 522//232
f 667//232 522//232 668//232
f 680//232 679//232 547//232
f 666//232 524//232 523//232
f 666//232 523//232 667//232
f 548//232 680//232 547//232
f 549//232 681//232 680//232
f 549//232 680//232 548//232
f 550//232 682//232 681//232
f 550//232 681//232 549//232
f 551//232 682//232 550//232
f 552//232 657//232 682//232
f 552//232 682//232 551//232
f 553//232 658//232 657//232
f 553//232 657//232 552//232
f 648//232 524//232 666//232
f 648//232 666//232 665//232
f 648//232 647//232 524//232
f 646//232 525//232 524//232
f 646//232 524//232 647//232
f 649//232 665//232 664//232
f 649//232 648//232 665//232
f 645//232 525//232 646//232
f 650//232 649//232 664//232
f 644//232 525//232 645//232
f 651//232 650//232 664//232
f 651//232 664//232 663//232
f 643//232 526//232 525//232
f 643//232 525//232 644//232
f 652//232 651//232 663//232
f 652//232 663//232 662//232
f 642//232 526//232 643//232
f 653//232 652//232 662//232
f 653//232 662//232 661//232
f 641//232 526//232 642//232
f 640//232 526//232 641//232
f 639//232 526//232 640//232
f 554//232 659//232 658//232
f 554//232 660//232 659//232
f 554//232 658//232 553//232
f 527//232 526//232 639//232
f 638//232 527//232 639//232
f 555//232 660//232 554//232
f 555//232 661//232 660//232
f 556//232 661//232 555//232
f 556//232 653//232 661//232
f 556//232 654//232 653//232
f 556//232 655//232 654//232
f 557//232 632//232 631//232
f 557//232 655//232 556//232
f 557//232 656//232 655//232
f 557//232 631//232 656//232
f 558//232 633//232 632//232
f 558//232 634//232 633//232
f 558//232 635//232 634//232
f 558//232 636//232 635//232
f 558//232 632//232 557//232
f 621//232 529//232 528//232
f 622//232 621//232 528//232
f 620//232 529//232 621//232
f 623//232 528//232 527//232
f 623//232 622//232 528//232
f 619//232 530//232 529//232
f 619//232 529//232 620//232
f 624//232 638//232 637//232
f 624//232 527//232 638//232
f 624//232 623//232 527//232
f 618//232 530//232 619//232
f 625//232 624//232 637//232
f 617//232 530//232 618//232
f 616//232 530//232 617//232
f 615//232 530//232 616//232
f 559//232 626//232 625//232
f 559//232 637//232 636//232
f 559//232 636//232 558//232
f 559//232 625//232 637//232
f 614//232 530//232 615//232
f 560//232 627//232 626//232
f 560//232 628//232 627//232
f 560//232 626//232 559//232
f 561//232 629//232 628//232
f 561//232 630//232 629//232
f 561//232 628//232 560//232
f 562//232 605//232 630//232
f 562//232 630//232 561//232
f 562//232 606//232 605//232
f 562//232 607//232 606//232
f 562//232 608//232 607//232
f 562//232 609//232 608//232
f 726//232 530//232 614//232
f 726//232 725//232 530//232
f 726//232 614//232 613//232
f 724//232 530//232 725//232
f 727//232 726//232 613//232
f 723//232 530//232 724//232
f 728//232 727//232 613//232
f 728//232 613//232 612//232
f 722//232 530//232 723//232
f 729//232 728//232 612//232
f 729//232 612//232 611//232
f 721//232 530//232 722//232
f 730//232 729//232 611//232
f 730//232 611//232 610//232
f 731//232 609//232 562//232
f 731//232 730//232 610//232
f 731//232 610//232 609//232
f 732//232 731//232 562//232
f 733//232 732//232 562//232
f 734//232 733//232 562//232
f 709//232 734//232 562//232
f 710//232 709//232 562//232
f 752//232 751//232 719//232
f 752//232 719//232 718//232
f 750//232 719//232 751//232
f 750//232 720//232 719//232
f 753//232 752//232 718//232
f 753//232 717//232 716//232
f 753//232 718//232 717//232
f 749//232 530//232 721//232
f 749//232 720//232 750//232
f 749//232 721//232 720//232
f 754//232 753//232 716//232
f 748//232 530//232 749//232
f 755//232 754//232 716//232
f 755//232 716//232 715//232
f 756//232 714//232 713//232
f 756//232 715//232 714//232
f 756//232 755//232 715//232
f 757//232 713//232 712//232
f 757//232 756//232 713//232
f 758//232 757//232 712//232
f 759//232 711//232 710//232
f 759//232 712//232 711//232
f 759//232 758//232 712//232
f 760//232 710//232 562//232
f 760//232 759//232 710//232
f 735//232 760//232 562//232
f 778//232 777//232 745//232
f 778//232 745//232 744//232
f 776//232 745//232 777//232
f 776//232 746//232 745//232
f 779//232 744//232 743//232
f 779//232 778//232 744//232
f 780//232 743//232 742//232
f 780//232 779//232 743//232
f 781//232 741//232 740//232
f 781//232 742//232 741//232
f 781//232 780//232 742//232
f 604//232 747//232 746//232
f 604//232 748//232 747//232
f 604//232 746//232 776//232
f 604//232 775//232 774//232
f 604//232 776//232 775//232
f 604//232 530//232 748//232
f 773//232 604//232 774//232
f 782//232 781//232 740//232
f 772//232 604//232 773//232
f 783//232 739//232 738//232
f 783//232 740//232 739//232
f 783//232 782//232 740//232
f 771//232 604//232 772//232
f 784//232 783//232 738//232
f 770//232 604//232 771//232
f 785//232 738//232 737//232
f 785//232 784//232 738//232
f 769//232 604//232 770//232
f 768//232 604//232 769//232
f 768//232 603//232 604//232
f 563//232 736//232 735//232
f 563//232 737//232 736//232
f 563//232 735//232 562//232
f 563//232 762//232 761//232
f 563//232 763//232 762//232
f 563//232 764//232 763//232
f 563//232 765//232 764//232
f 563//232 766//232 765//232
f 563//232 767//232 766//232
f 563//232 785//232 737//232
f 563//232 786//232 785//232
f 563//232 761//232 786//232
f 572//232 767//232 563//232
f 804//232 803//232 601//232
f 804//232 601//232 602//232
f 802//232 601//232 803//232
f 805//232 804//232 602//232
f 801//232 601//232 802//232
f 801//232 600//232 601//232
f 806//232 603//232 768//232
f 806//232 805//232 602//232
f 806//232 602//232 603//232
f 800//232 600//232 801//232
f 807//232 767//232 572//232
f 807//232 806//232 768//232
f 807//232 768//232 767//232
f 799//232 600//232 800//232
f 798//232 599//232 600//232
f 798//232 600//232 799//232
f 571//232 808//232 807//232
f 571//232 809//232 808//232
f 571//232 807//232 572//232
f 797//232 599//232 798//232
f 796//232 599//232 797//232
f 795//232 599//232 796//232
f 795//232 598//232 599//232
f 570//232 809//232 571//232
f 570//232 810//232 809//232
f 570//232 811//232 810//232
f 570//232 812//232 811//232
f 569//232 812//232 570//232
f 569//232 788//232 787//232
f 569//232 789//232 788//232
f 569//232 787//232 812//232
f 568//232 789//232 569//232
f 568//232 790//232 789//232
f 568//232 791//232 790//232
f 568//232 792//232 791//232
f 699//232 596//232 597//232
f 700//232 597//232 598//232
f 700//232 699//232 597//232
f 698//232 596//232 699//232
f 701//232 598//232 795//232
f 701//232 700//232 598//232
f 697//232 573//232 596//232
f 697//232 596//232 698//232
f 702//232 795//232 794//232
f 702//232 701//232 795//232
f 696//232 574//232 573//232
f 696//232 573//232 697//232
f 703//232 793//232 792//232
f 703//232 794//232 793//232
f 703//232 702//232 794//232
f 695//232 575//232 574//232
f 695//232 576//232 575//232
f 695//232 574//232 696//232
f 704//232 703//232 792//232
f 694//232 576//232 695//232
f 694//232 577//232 576//232
f 693//232 578//232 577//232
f 693//232 577//232 694//232
f 567//232 704//232 792//232
f 567//232 792//232 568//232
f 567//232 705//232 704//232
f 579//232 578//232 693//232
f 579//232 693//232 692//232
f 580//232 579//232 692//232
f 566//232 705//232 567//232
f 566//232 706//232 705//232
f 581//232 580//232 692//232
f 581//232 692//232 691//232
f 582//232 581//232 691//232
f 565//232 706//232 566//232
f 565//232 707//232 706//232
f 565//232 708//232 707//232
f 583//232 582//232 691//232
f 583//232 691//232 690//232
f 584//232 583//232 690//232
f 564//232 708//232 565//232
f 564//232 683//232 708//232
f 585//232 584//232 690//232
f 585//232 690//232 689//232
f 595//232 683//232 564//232
f 595//232 684//232 683//232
f 586//232 585//232 689//232
f 586//232 689//232 688//232
f 594//232 684//232 595//232
f 587//232 586//232 688//232
f 593//232 684//232 594//232
f 593//232 685//232 684//232
f 588//232 587//232 688//232
f 588//232 688//232 687//232
f 592//232 685//232 593//232
f 592//232 686//232 685//232
f 589//232 588//232 687//232
f 591//232 686//232 592//232
f 590//232 686//232 591//232
f 590//232 687//232 686//232
f 590//232 589//232 687//232
f 952//233 818//233 817//233
f 952//233 819//233 818//233
f 953//233 820//233 819//233
f 953//233 821//233 820//233
f 953//233 819//233 952//233
f 951//233 817//233 816//233
f 951//233 952//233 817//233
f 954//233 821//233 953//233
f 954//233 822//233 821//233
f 954//233 823//233 822//233
f 950//233 815//233 814//233
f 950//233 816//233 815//233
f 950//233 951//233 816//233
f 955//233 824//233 823//233
f 955//233 823//233 954//233
f 949//233 814//233 813//233
f 949//233 950//233 814//233
f 956//233 825//233 824//233
f 956//233 826//233 825//233
f 956//233 824//233 955//233
f 974//233 949//233 813//233
f 974//233 813//233 889//233
f 957//233 827//233 826//233
f 957//233 828//233 827//233
f 957//233 826//233 956//233
f 973//233 974//233 889//233
f 958//233 829//233 828//233
f 958//233 828//233 957//233
f 830//233 829//233 958//233
f 972//233 973//233 889//233
f 972//233 889//233 890//233
f 959//233 830//233 958//233
f 971//233 972//233 890//233
f 971//233 890//233 891//233
f 831//233 830//233 959//233
f 832//233 959//233 960//233
f 832//233 831//233 959//233
f 833//233 960//233 961//233
f 833//233 832//233 960//233
f 834//233 833//233 961//233
f 835//233 961//233 962//233
f 835//233 834//233 961//233
f 836//233 962//233 963//233
f 836//233 835//233 962//233
f 927//233 970//233 971//233
f 927//233 971//233 891//233
f 927//233 891//233 926//233
f 925//233 891//233 892//233
f 925//233 926//233 891//233
f 928//233 969//233 970//233
f 928//233 970//233 927//233
f 924//233 925//233 892//233
f 929//233 969//233 928//233
f 923//233 924//233 892//233
f 930//233 969//233 929//233
f 930//233 968//233 969//233
f 948//233 923//233 892//233
f 948//233 892//233 893//233
f 931//233 968//233 930//233
f 931//233 967//233 968//233
f 947//233 948//233 893//233
f 932//233 967//233 931//233
f 932//233 966//233 967//233
f 946//233 947//233 893//233
f 945//233 946//233 893//233
f 944//233 945//233 893//233
f 837//233 963//233 964//233
f 837//233 964//233 965//233
f 837//233 836//233 963//233
f 894//233 944//233 893//233
f 943//233 944//233 894//233
f 838//233 837//233 965//233
f 838//233 965//233 966//233
f 839//233 838//233 966//233
f 839//233 932//233 933//233
f 839//233 933//233 934//233
f 839//233 966//233 932//233
f 840//233 934//233 935//233
f 840//233 935//233 936//233
f 840//233 936//233 937//233
f 840//233 839//233 934//233
f 841//233 937//233 938//233
f 841//233 938//233 939//233
f 841//233 939//233 940//233
f 841//233 940//233 941//233
f 841//233 840//233 937//233
f 900//233 895//233 896//233
f 901//233 895//233 900//233
f 899//233 900//233 896//233
f 902//233 895//233 901//233
f 902//233 894//233 895//233
f 898//233 899//233 896//233
f 898//233 896//233 888//233
f 903//233 942//233 943//233
f 903//233 943//233 894//233
f 903//233 894//233 902//233
f 897//233 898//233 888//233
f 904//233 942//233 903//233
f 922//233 897//233 888//233
f 921//233 922//233 888//233
f 920//233 921//233 888//233
f 842//233 941//233 942//233
f 842//233 841//233 941//233
f 842//233 942//233 904//233
f 842//233 904//233 905//233
f 919//233 920//233 888//233
f 843//233 905//233 906//233
f 843//233 906//233 907//233
f 843//233 842//233 905//233
f 844//233 843//233 907//233
f 844//233 907//233 908//233
f 844//233 908//233 909//233
f 845//233 913//233 914//233
f 845//233 844//233 909//233
f 845//233 909//233 910//233
f 845//233 910//233 911//233
f 845//233 911//233 912//233
f 845//233 912//233 913//233
f 1005//233 919//233 888//233
f 1005//233 918//233 919//233
f 1005//233 888//233 1004//233
f 1003//233 1004//233 888//233
f 1006//233 918//233 1005//233
f 1002//233 1003//233 888//233
f 1007//233 917//233 918//233
f 1007//233 918//233 1006//233
f 1001//233 1002//233 888//233
f 1008//233 917//233 1007//233
f 1008//233 916//233 917//233
f 1026//233 1001//233 888//233
f 1009//233 915//233 916//233
f 1009//233 916//233 1008//233
f 1010//233 914//233 915//233
f 1010//233 845//233 914//233
f 1010//233 915//233 1009//233
f 1011//233 845//233 1010//233
f 1012//233 845//233 1011//233
f 1013//233 845//233 1012//233
f 1014//233 845//233 1013//233
f 1015//233 845//233 1014//233
f 1031//233 1023//233 1024//233
f 1031//233 1024//233 1030//233
f 1029//233 1024//233 1025//233
f 1029//233 1030//233 1024//233
f 1032//233 1021//233 1022//233
f 1032//233 1022//233 1023//233
f 1032//233 1023//233 1031//233
f 1028//233 1025//233 1026//233
f 1028//233 1026//233 888//233
f 1028//233 1029//233 1025//233
f 1033//233 1021//233 1032//233
f 1027//233 1028//233 888//233
f 1034//233 1020//233 1021//233
f 1034//233 1021//233 1033//233
f 1035//233 1018//233 1019//233
f 1035//233 1019//233 1020//233
f 1035//233 1020//233 1034//233
f 1036//233 1017//233 1018//233
f 1036//233 1018//233 1035//233
f 1037//233 1017//233 1036//233
f 1038//233 1015//233 1016//233
f 1038//233 1016//233 1017//233
f 1038//233 1017//233 1037//233
f 1039//233 1015//233 1038//233
f 1039//233 845//233 1015//233
f 1040//233 845//233 1039//233
f 1057//233 1050//233 1056//233
f 1057//233 1049//233 1050//233
f 1055//233 1056//233 1050//233
f 1055//233 1050//233 1051//233
f 1058//233 1048//233 1049//233
f 1058//233 1049//233 1057//233
f 1059//233 1048//233 1058//233
f 1059//233 1047//233 1048//233
f 1060//233 1045//233 1046//233
f 1060//233 1046//233 1047//233
f 1060//233 1047//233 1059//233
f 887//233 1055//233 1051//233
f 887//233 1051//233 1052//233
f 887//233 1052//233 1027//233
f 887//233 1053//233 1054//233
f 887//233 1054//233 1055//233
f 887//233 1027//233 888//233
f 1078//233 1053//233 887//233
f 1061//233 1045//233 1060//233
f 1077//233 1078//233 887//233
f 1062//233 1043//233 1044//233
f 1062//233 1044//233 1045//233
f 1062//233 1045//233 1061//233
f 1076//233 1077//233 887//233
f 1063//233 1043//233 1062//233
f 1075//233 1076//233 887//233
f 1064//233 1042//233 1043//233
f 1064//233 1043//233 1063//233
f 1074//233 1075//233 887//233
f 1073//233 1074//233 887//233
f 1073//233 887//233 886//233
f 846//233 1042//233 1064//233
f 846//233 1040//233 1041//233
f 846//233 1041//233 1042//233
f 846//233 1064//233 1065//233
f 846//233 1065//233 1066//233
f 846//233 1066//233 1067//233
f 846//233 1067//233 1068//233
f 846//233 1068//233 1069//233
f 846//233 1069//233 1070//233
f 846//233 1070//233 1071//233
f 846//233 1071//233 1072//233
f 846//233 845//233 1040//233
f 855//233 846//233 1072//233
f 1083//233 884//233 1082//233
f 1083//233 885//233 884//233
f 1081//233 1082//233 884//233
f 1084//233 885//233 1083//233
f 1080//233 1081//233 884//233
f 1080//233 884//233 883//233
f 1085//233 886//233 885//233
f 1085//233 1073//233 886//233
f 1085//233 885//233 1084//233
f 1079//233 1080//233 883//233
f 1086//233 855//233 1072//233
f 1086//233 1073//233 1085//233
f 1086//233 1072//233 1073//233
f 1104//233 1079//233 883//233
f 1103//233 1104//233 883//233
f 1103//233 883//233 882//233
f 854//233 855//233 1086//233
f 854//233 1086//233 1087//233
f 854//233 1087//233 1088//233
f 1102//233 1103//233 882//233
f 1101//233 1102//233 882//233
f 1100//233 1101//233 882//233
f 1100//233 882//233 881//233
f 853//233 854//233 1088//233
f 853//233 1088//233 1089//233
f 853//233 1089//233 1090//233
f 853//233 1090//233 1091//233
f 852//233 853//233 1091//233
f 852//233 1091//233 1092//233
f 852//233 1092//233 1093//233
f 852//233 1093//233 1094//233
f 851//233 852//233 1094//233
f 851//233 1094//233 1095//233
f 851//233 1095//233 1096//233
f 851//233 1096//233 1097//233
f 978//233 880//233 879//233
f 979//233 881//233 880//233
f 979//233 880//233 978//233
f 977//233 978//233 879//233
f 980//233 1100//233 881//233
f 980//233 881//233 979//233
f 976//233 977//233 879//233
f 976//233 879//233 856//233
f 981//233 1100//233 980//233
f 981//233 1099//233 1100//233
f 975//233 976//233 856//233
f 975//233 856//233 857//233
f 982//233 1097//233 1098//233
f 982//233 1098//233 1099//233
f 982//233 1099//233 981//233
f 1000//233 857//233 858//233
f 1000//233 858//233 859//233
f 1000//233 975//233 857//233
f 983//233 1097//233 982//233
f 999//233 859//233 860//233
f 999//233 1000//233 859//233
f 998//233 860//233 861//233
f 998//233 999//233 860//233
f 850//233 983//233 984//233
f 850//233 1097//233 983//233
f 850//233 851//233 1097//233
f 862//233 998//233 861//233
f 862//233 997//233 998//233
f 863//233 997//233 862//233
f 849//233 984//233 985//233
f 849//233 850//233 984//233
f 864//233 997//233 863//233
f 864//233 996//233 997//233
f 865//233 996//233 864//233
f 848//233 849//233 985//233
f 848//233 985//233 986//233
f 848//233 986//233 987//233
f 866//233 996//233 865//233
f 866//233 995//233 996//233
f 867//233 995//233 866//233
f 847//233 987//233 988//233
f 847//233 848//233 987//233
f 868//233 995//233 867//233
f 868//233 994//233 995//233
f 878//233 847//233 988//233
f 878//233 988//233 989//233
f 869//233 994//233 868//233
f 869//233 993//233 994//233
f 877//233 878//233 989//233
f 870//233 993//233 869//233
f 876//233 877//233 989//233
f 876//233 989//233 990//233
f 871//233 993//233 870//233
f 871//233 992//233 993//233
f 875//233 876//233 990//233
f 875//233 990//233 991//233
f 872//233 992//233 871//233
f 874//233 875//233 991//233
f 873//233 874//233 991//233
f 873//233 992//233 872//233
f 873//233 991//233 992//233
f 1106//46 1119//47 1105//47
f 1106//46 1120//48 1119//47
f 1107//234 1121//235 1120//48
f 1107//234 1120//48 1106//46
f 1108//236 1122//237 1121//235
f 1108//236 1121//235 1107//234
f 1109//66 1123//66 1122//237
f 1109//52 1124//53 1123//52
f 1109//66 1122//237 1108//236
f 1110//53 1124//53 1109//52
f 1111//54 1125//55 1124//53
f 1111//54 1124//53 1110//53
f 1112//56 1126//57 1125//55
f 1112//56 1125//55 1111//54
f 1113//58 1127//58 1126//57
f 1113//58 1128//59 1127//58
f 1113//58 1126//57 1112//56
f 1114//59 1128//59 1113//58
f 1115//60 1129//61 1128//67
f 1115//60 1128//67 1114//67
f 1116//238 1130//239 1129//61
f 1116//238 1129//61 1115//60
f 1117//240 1131//241 1130//239
f 1117//240 1130//239 1116//238
f 1118//65 1132//65 1131//241
f 1118//65 1131//241 1117//240
f 1134//46 1147//47 1133//47
f 1134//46 1148//48 1147//47
f 1135//234 1149//235 1148//48
f 1135//234 1148//48 1134//46
f 1136//236 1150//237 1149//235
f 1136//236 1149//235 1135//242
f 1137//243 1151//244 1150//237
f 1137//243 1150//237 1136//236
f 1138//245 1152//246 1151//244
f 1138//245 1151//244 1137//243
f 1139//247 1153//247 1152//246
f 1139//248 1154//56 1153//248
f 1139//247 1152//246 1138//245
f 1140//57 1155//249 1154//56
f 1140//57 1154//56 1139//248
f 1141//250 1156//59 1155//249
f 1141//250 1155//249 1140//57
f 1142//59 1156//59 1141//250
f 1143//251 1157//251 1156//67
f 1143//251 1158//238 1157//251
f 1143//251 1156//67 1142//67
f 1144//239 1159//64 1158//238
f 1144//252 1158//238 1143//251
f 1145//64 1159//64 1144//239
f 1146//65 1160//65 1159//64
f 1146//65 1159//64 1145//64
f 1162//46 1175//47 1161//47
f 1162//46 1176//48 1175//47
f 1163//49 1177//49 1176//48
f 1163//50 1178//51 1177//50
f 1163//49 1176//48 1162//46
f 1164//51 1178//51 1163//50
f 1165//66 1179//66 1178//51
f 1165//52 1180//53 1179//52
f 1165//66 1178//51 1164//51
f 1166//53 1180//53 1165//52
f 1167//54 1181//55 1180//53
f 1167//54 1180//53 1166//53
f 1168//56 1182//57 1181//55
f 1168//56 1181//55 1167//54
f 1169//58 1183//58 1182//57
f 1169//58 1184//59 1183//58
f 1169//58 1182//57 1168//56
f 1170//59 1184//59 1169//58
f 1171//60 1185//61 1184//67
f 1171//60 1184//67 1170//67
f 1172//62 1186//62 1185//61
f 1172//63 1187//64 1186//63
f 1172//62 1185//61 1171//60
f 1173//64 1187//64 1172//63
f 1174//65 1188//65 1187//64
f 1174//65 1187//64 1173//64
f 1190//46 1203//47 1189//47
f 1190//46 1204//48 1203//47
f 1191//49 1205//49 1204//48
f 1191//50 1206//51 1205//50
f 1191//49 1204//48 1190//46
f 1192//51 1206//51 1191//50
f 1193//66 1207//66 1206//51
f 1193//52 1208//53 1207//52
f 1193//66 1206//51 1192//51
f 1194//53 1208//53 1193//52
f 1195//54 1209//55 1208//53
f 1195//54 1208//53 1194//53
f 1196//56 1210//57 1209//55
f 1196//56 1209//55 1195//54
f 1197//58 1211//58 1210//57
f 1197//58 1212//59 1211//58
f 1197//58 1210//57 1196//56
f 1198//59 1212//59 1197//58
f 1199//60 1213//61 1212//67
f 1199//60 1212//67 1198//67
f 1200//62 1214//62 1213//61
f 1200//63 1215//64 1214//63
f 1200//62 1213//61 1199//60
f 1201//64 1215//64 1200//63
f 1202//65 1216//65 1215//64
f 1202//65 1215//64 1201//64
