# Blender 4.0.2
# www.blender.org
mtllib RA_base_plate_right.mtl
o RA_base_plate_left
v -0.000813 0.015965 -0.017846
v -0.010813 0.015965 -0.017846
v -0.010813 0.020965 -0.017846
v -0.010813 0.020893 -0.018444
v -0.010813 0.020679 -0.019008
v -0.010813 0.020337 -0.019504
v -0.010813 0.019885 -0.019904
v -0.010813 0.019352 -0.020184
v -0.010813 0.018767 -0.020328
v -0.010813 0.018164 -0.020328
v -0.010813 0.017579 -0.020184
v -0.010813 0.017045 -0.019904
v -0.010813 0.016594 -0.019504
v -0.010813 0.016252 -0.019008
v -0.010813 0.016038 -0.018444
v -0.000813 0.020965 -0.017846
v -0.000813 0.020893 -0.018444
v -0.000813 0.020679 -0.019008
v -0.000813 0.020337 -0.019504
v -0.000813 0.019885 -0.019904
v -0.000813 0.019352 -0.020184
v -0.000813 0.018767 -0.020328
v -0.000813 0.018164 -0.020328
v -0.000813 0.017579 -0.020184
v -0.000813 0.017045 -0.019904
v -0.000813 0.016594 -0.019504
v -0.000813 0.016252 -0.019008
v -0.000813 0.016038 -0.018444
v -0.000813 -0.020814 -0.017846
v -0.010813 -0.020814 -0.017846
v -0.010813 -0.015814 -0.017846
v -0.010813 -0.015887 -0.018444
v -0.010813 -0.016101 -0.019008
v -0.010813 -0.016443 -0.019504
v -0.010813 -0.016894 -0.019904
v -0.010813 -0.017428 -0.020184
v -0.010813 -0.018013 -0.020328
v -0.010813 -0.018616 -0.020328
v -0.010813 -0.019201 -0.020184
v -0.010813 -0.019734 -0.019904
v -0.010813 -0.020185 -0.019504
v -0.010813 -0.020528 -0.019008
v -0.010813 -0.020742 -0.018444
v -0.000813 -0.015814 -0.017846
v -0.000813 -0.015887 -0.018444
v -0.000813 -0.016101 -0.019008
v -0.000813 -0.016443 -0.019504
v -0.000813 -0.016894 -0.019904
v -0.000813 -0.017428 -0.020184
v -0.000813 -0.018013 -0.020328
v -0.000813 -0.018616 -0.020328
v -0.000813 -0.019201 -0.020184
v -0.000813 -0.019734 -0.019904
v -0.000813 -0.020185 -0.019504
v -0.000813 -0.020528 -0.019008
v -0.000813 -0.020742 -0.018444
v -0.000813 -0.020814 0.018933
v -0.010813 -0.020814 0.018933
v -0.010813 -0.015814 0.018933
v -0.010813 -0.015887 0.018335
v -0.010813 -0.016101 0.017772
v -0.010813 -0.016443 0.017276
v -0.010813 -0.016894 0.016876
v -0.010813 -0.017428 0.016596
v -0.010813 -0.018013 0.016452
v -0.010813 -0.018616 0.016452
v -0.010813 -0.019201 0.016596
v -0.010813 -0.019734 0.016876
v -0.010813 -0.020185 0.017276
v -0.010813 -0.020528 0.017772
v -0.010813 -0.020742 0.018335
v -0.000813 -0.015814 0.018933
v -0.000813 -0.015887 0.018335
v -0.000813 -0.016101 0.017772
v -0.000813 -0.016443 0.017276
v -0.000813 -0.016894 0.016876
v -0.000813 -0.017428 0.016596
v -0.000813 -0.018013 0.016452
v -0.000813 -0.018616 0.016452
v -0.000813 -0.019201 0.016596
v -0.000813 -0.019734 0.016876
v -0.000813 -0.020185 0.017276
v -0.000813 -0.020528 0.017772
v -0.000813 -0.020742 0.018335
v -0.000813 0.015965 0.018933
v -0.010813 0.015965 0.018933
v -0.010813 0.020965 0.018933
v -0.010813 0.020893 0.018335
v -0.010813 0.020679 0.017772
v -0.010813 0.020337 0.017276
v -0.010813 0.019885 0.016876
v -0.010813 0.019352 0.016596
v -0.010813 0.018767 0.016452
v -0.010813 0.018164 0.016452
v -0.010813 0.017579 0.016596
v -0.010813 0.017045 0.016876
v -0.010813 0.016594 0.017276
v -0.010813 0.016252 0.017772
v -0.010813 0.016038 0.018335
v -0.000813 0.020965 0.018933
v -0.000813 0.020893 0.018335
v -0.000813 0.020679 0.017772
v -0.000813 0.020337 0.017276
v -0.000813 0.019885 0.016876
v -0.000813 0.019352 0.016596
v -0.000813 0.018767 0.016452
v -0.000813 0.018164 0.016452
v -0.000813 0.017579 0.016596
v -0.000813 0.017045 0.016876
v -0.000813 0.016594 0.017276
v -0.000813 0.016252 0.017772
v -0.000813 0.016038 0.018335
v -0.000813 -0.017424 0.000544
v -0.010813 -0.017424 0.000544
v -0.010813 0.017576 0.000544
v -0.010813 0.017380 -0.002065
v -0.010813 0.016798 -0.004615
v -0.010813 0.015843 -0.007049
v -0.010813 0.014535 -0.009315
v -0.010813 0.012904 -0.011359
v -0.010813 0.010987 -0.013138
v -0.010813 0.008826 -0.014612
v -0.010813 0.006469 -0.015747
v -0.010813 0.003970 -0.016518
v -0.010813 0.001383 -0.016907
v -0.010813 -0.001232 -0.016907
v -0.010813 -0.003819 -0.016518
v -0.010813 -0.006318 -0.015747
v -0.010813 -0.008674 -0.014612
v -0.010813 -0.010836 -0.013138
v -0.010813 -0.012753 -0.011359
v -0.010813 -0.014384 -0.009315
v -0.010813 -0.015691 -0.007049
v -0.010813 -0.016647 -0.004615
v -0.010813 -0.017229 -0.002065
v -0.000813 0.017576 0.000544
v -0.000813 0.017380 -0.002065
v -0.000813 0.016798 -0.004615
v -0.000813 0.015843 -0.007049
v -0.000813 0.014535 -0.009315
v -0.000813 0.012904 -0.011359
v -0.000813 0.010987 -0.013138
v -0.000813 0.008826 -0.014612
v -0.000813 0.006469 -0.015747
v -0.000813 0.003970 -0.016518
v -0.000813 0.001383 -0.016907
v -0.000813 -0.001232 -0.016907
v -0.000813 -0.003819 -0.016518
v -0.000813 -0.006318 -0.015747
v -0.000813 -0.008674 -0.014612
v -0.000813 -0.010836 -0.013138
v -0.000813 -0.012753 -0.011359
v -0.000813 -0.014384 -0.009315
v -0.000813 -0.015691 -0.007049
v -0.000813 -0.016647 -0.004615
v -0.000813 -0.017229 -0.002065
v -0.000813 -0.037924 0.103044
v -0.010813 -0.037924 0.103044
v -0.010813 -0.037837 0.102326
v -0.010813 -0.037581 0.101649
v -0.010813 -0.037170 0.101054
v -0.010813 -0.036629 0.100575
v -0.010813 -0.035988 0.100239
v -0.010813 -0.035286 0.100065
v -0.010813 -0.034563 0.100065
v -0.010813 -0.033861 0.100239
v -0.010813 -0.033220 0.100575
v -0.010813 -0.032679 0.101054
v -0.010813 -0.032268 0.101649
v -0.010813 -0.032012 0.102326
v -0.010813 -0.031924 0.103044
v -0.000813 -0.031924 0.103044
v -0.000813 -0.037837 0.102326
v -0.000813 -0.037581 0.101649
v -0.000813 -0.037170 0.101054
v -0.000813 -0.036629 0.100575
v -0.000813 -0.035988 0.100239
v -0.000813 -0.035286 0.100065
v -0.000813 -0.034563 0.100065
v -0.000813 -0.033861 0.100239
v -0.000813 -0.033220 0.100575
v -0.000813 -0.032679 0.101054
v -0.000813 -0.032268 0.101649
v -0.000813 -0.032012 0.102326
v -0.000813 -0.037924 0.043044
v -0.010813 -0.037924 0.043044
v -0.010813 -0.037837 0.042326
v -0.010813 -0.037581 0.041649
v -0.010813 -0.037170 0.041054
v -0.010813 -0.036629 0.040575
v -0.010813 -0.035988 0.040239
v -0.010813 -0.035286 0.040065
v -0.010813 -0.034563 0.040065
v -0.010813 -0.033861 0.040239
v -0.010813 -0.033220 0.040575
v -0.010813 -0.032679 0.041054
v -0.010813 -0.032268 0.041649
v -0.010813 -0.032012 0.042326
v -0.010813 -0.031924 0.043044
v -0.000813 -0.031924 0.043044
v -0.000813 -0.037837 0.042326
v -0.000813 -0.037581 0.041649
v -0.000813 -0.037170 0.041054
v -0.000813 -0.036629 0.040575
v -0.000813 -0.035988 0.040239
v -0.000813 -0.035286 0.040065
v -0.000813 -0.034563 0.040065
v -0.000813 -0.033861 0.040239
v -0.000813 -0.033220 0.040575
v -0.000813 -0.032679 0.041054
v -0.000813 -0.032268 0.041649
v -0.000813 -0.032012 0.042326
v -0.000813 0.032076 0.103044
v -0.010813 0.032076 0.103044
v -0.010813 0.038076 0.103044
v -0.010813 0.037988 0.102326
v -0.010813 0.037732 0.101649
v -0.010813 0.037321 0.101054
v -0.010813 0.036780 0.100575
v -0.010813 0.036139 0.100239
v -0.010813 0.035437 0.100065
v -0.010813 0.034714 0.100065
v -0.010813 0.034012 0.100239
v -0.010813 0.033371 0.100575
v -0.010813 0.032830 0.101054
v -0.010813 0.032419 0.101649
v -0.010813 0.032163 0.102326
v -0.000813 0.038076 0.103044
v -0.000813 0.037988 0.102326
v -0.000813 0.037732 0.101649
v -0.000813 0.037321 0.101054
v -0.000813 0.036780 0.100575
v -0.000813 0.036139 0.100239
v -0.000813 0.035437 0.100065
v -0.000813 0.034714 0.100065
v -0.000813 0.034012 0.100239
v -0.000813 0.033371 0.100575
v -0.000813 0.032830 0.101054
v -0.000813 0.032419 0.101649
v -0.000813 0.032163 0.102326
v -0.000813 0.032076 0.043044
v -0.010813 0.032076 0.043044
v -0.010813 0.038076 0.043044
v -0.010813 0.037988 0.042326
v -0.010813 0.037732 0.041649
v -0.010813 0.037321 0.041054
v -0.010813 0.036780 0.040575
v -0.010813 0.036139 0.040239
v -0.010813 0.035437 0.040065
v -0.010813 0.034714 0.040065
v -0.010813 0.034012 0.040239
v -0.010813 0.033371 0.040575
v -0.010813 0.032830 0.041054
v -0.010813 0.032419 0.041649
v -0.010813 0.032163 0.042326
v -0.000813 0.038076 0.043044
v -0.000813 0.037988 0.042326
v -0.000813 0.037732 0.041649
v -0.000813 0.037321 0.041054
v -0.000813 0.036780 0.040575
v -0.000813 0.036139 0.040239
v -0.000813 0.035437 0.040065
v -0.000813 0.034714 0.040065
v -0.000813 0.034012 0.040239
v -0.000813 0.033371 0.040575
v -0.000813 0.032830 0.041054
v -0.000813 0.032419 0.041649
v -0.000813 0.032163 0.042326
v -0.000813 -0.017424 0.085044
v -0.010813 -0.017424 0.085044
v -0.010813 0.017576 0.085044
v -0.010813 0.017380 0.082435
v -0.010813 0.016798 0.079885
v -0.010813 0.015843 0.077451
v -0.010813 0.014535 0.075186
v -0.010813 0.012904 0.073141
v -0.010813 0.010987 0.071362
v -0.010813 0.008826 0.069888
v -0.010813 0.006469 0.068753
v -0.010813 0.003970 0.067982
v -0.010813 0.001383 0.067593
v -0.010813 -0.001232 0.067593
v -0.010813 -0.003819 0.067982
v -0.010813 -0.006318 0.068753
v -0.010813 -0.008674 0.069888
v -0.010813 -0.010836 0.071362
v -0.010813 -0.012753 0.073141
v -0.010813 -0.014384 0.075186
v -0.010813 -0.015691 0.077451
v -0.010813 -0.016647 0.079885
v -0.010813 -0.017229 0.082435
v -0.000813 0.017576 0.085044
v -0.000813 0.017380 0.082435
v -0.000813 0.016798 0.079885
v -0.000813 0.015843 0.077451
v -0.000813 0.014535 0.075186
v -0.000813 0.012904 0.073141
v -0.000813 0.010987 0.071362
v -0.000813 0.008826 0.069888
v -0.000813 0.006469 0.068753
v -0.000813 0.003970 0.067982
v -0.000813 0.001383 0.067593
v -0.000813 -0.001232 0.067593
v -0.000813 -0.003819 0.067982
v -0.000813 -0.006318 0.068753
v -0.000813 -0.008674 0.069888
v -0.000813 -0.010836 0.071362
v -0.000813 -0.012753 0.073141
v -0.000813 -0.014384 0.075186
v -0.000813 -0.015691 0.077451
v -0.000813 -0.016647 0.079885
v -0.000813 -0.017229 0.082435
v -0.010813 -0.042424 0.048614
v -0.010813 -0.042424 0.102294
v -0.010813 -0.042232 0.104245
v -0.010813 -0.041663 0.106120
v -0.010813 -0.040739 0.107849
v -0.010813 -0.039496 0.109365
v -0.010813 -0.037980 0.110608
v -0.010813 -0.036251 0.111532
v -0.010813 -0.034375 0.112101
v -0.010813 -0.032424 0.112294
v -0.010813 0.032576 0.112294
v -0.010813 0.034526 0.112101
v -0.010813 0.036402 0.111532
v -0.010813 0.038131 0.110608
v -0.010813 0.039647 0.109365
v -0.010813 0.040890 0.107849
v -0.010813 0.041814 0.106120
v -0.010813 0.042383 0.104245
v -0.010813 0.042576 0.102294
v -0.010813 0.042576 0.032294
v -0.010813 0.082576 -0.007706
v -0.010813 0.082576 -0.032206
v -0.010813 -0.077424 -0.032206
v -0.010813 -0.077424 0.032294
v -0.010813 0.015965 -0.017846
v -0.010813 0.016038 -0.017248
v -0.010813 0.016252 -0.016684
v -0.010813 0.016594 -0.016188
v -0.010813 0.017045 -0.015789
v -0.010813 0.017579 -0.015509
v -0.010813 0.018164 -0.015364
v -0.010813 0.018767 -0.015364
v -0.010813 0.019352 -0.015509
v -0.010813 0.019885 -0.015789
v -0.010813 0.020337 -0.016188
v -0.010813 0.020679 -0.016684
v -0.010813 0.020893 -0.017248
v -0.010813 0.020965 -0.017846
v -0.010813 0.020893 -0.018444
v -0.010813 0.020679 -0.019008
v -0.010813 0.020337 -0.019504
v -0.010813 0.019885 -0.019904
v -0.010813 0.019352 -0.020184
v -0.010813 0.018767 -0.020328
v -0.010813 0.018164 -0.020328
v -0.010813 0.017579 -0.020184
v -0.010813 0.017045 -0.019904
v -0.010813 0.016594 -0.019504
v -0.010813 0.016252 -0.019008
v -0.010813 0.016038 -0.018444
v -0.010813 -0.020814 -0.017846
v -0.010813 -0.020742 -0.017248
v -0.010813 -0.020528 -0.016684
v -0.010813 -0.020185 -0.016188
v -0.010813 -0.019734 -0.015789
v -0.010813 -0.019201 -0.015509
v -0.010813 -0.018616 -0.015364
v -0.010813 -0.018013 -0.015364
v -0.010813 -0.017428 -0.015509
v -0.010813 -0.016894 -0.015789
v -0.010813 -0.016443 -0.016188
v -0.010813 -0.016101 -0.016684
v -0.010813 -0.015887 -0.017248
v -0.010813 -0.015814 -0.017846
v -0.010813 -0.015887 -0.018444
v -0.010813 -0.016101 -0.019008
v -0.010813 -0.016443 -0.019504
v -0.010813 -0.016894 -0.019904
v -0.010813 -0.017428 -0.020184
v -0.010813 -0.018013 -0.020328
v -0.010813 -0.018616 -0.020328
v -0.010813 -0.019201 -0.020184
v -0.010813 -0.019734 -0.019904
v -0.010813 -0.020185 -0.019504
v -0.010813 -0.020528 -0.019008
v -0.010813 -0.020742 -0.018444
v -0.010813 -0.020814 0.018933
v -0.010813 -0.020742 0.019532
v -0.010813 -0.020528 0.020095
v -0.010813 -0.020185 0.020591
v -0.010813 -0.019734 0.020991
v -0.010813 -0.019201 0.021271
v -0.010813 -0.018616 0.021415
v -0.010813 -0.018013 0.021415
v -0.010813 -0.017428 0.021271
v -0.010813 -0.016894 0.020991
v -0.010813 -0.016443 0.020591
v -0.010813 -0.016101 0.020095
v -0.010813 -0.015887 0.019532
v -0.010813 -0.015814 0.018933
v -0.010813 -0.015887 0.018335
v -0.010813 -0.016101 0.017772
v -0.010813 -0.016443 0.017276
v -0.010813 -0.016894 0.016876
v -0.010813 -0.017428 0.016596
v -0.010813 -0.018013 0.016452
v -0.010813 -0.018616 0.016452
v -0.010813 -0.019201 0.016596
v -0.010813 -0.019734 0.016876
v -0.010813 -0.020185 0.017276
v -0.010813 -0.020528 0.017772
v -0.010813 -0.020742 0.018335
v -0.010813 0.015965 0.018933
v -0.010813 0.016038 0.019532
v -0.010813 0.016252 0.020095
v -0.010813 0.016594 0.020591
v -0.010813 0.017045 0.020991
v -0.010813 0.017579 0.021271
v -0.010813 0.018164 0.021415
v -0.010813 0.018767 0.021415
v -0.010813 0.019352 0.021271
v -0.010813 0.019885 0.020991
v -0.010813 0.020337 0.020591
v -0.010813 0.020679 0.020095
v -0.010813 0.020893 0.019532
v -0.010813 0.020965 0.018933
v -0.010813 0.020893 0.018335
v -0.010813 0.020679 0.017772
v -0.010813 0.020337 0.017276
v -0.010813 0.019885 0.016876
v -0.010813 0.019352 0.016596
v -0.010813 0.018767 0.016452
v -0.010813 0.018164 0.016452
v -0.010813 0.017579 0.016596
v -0.010813 0.017045 0.016876
v -0.010813 0.016594 0.017276
v -0.010813 0.016252 0.017772
v -0.010813 0.016038 0.018335
v -0.010813 -0.017424 0.000544
v -0.010813 -0.017229 0.003152
v -0.010813 -0.016647 0.005702
v -0.010813 -0.015691 0.008137
v -0.010813 -0.014384 0.010402
v -0.010813 -0.012753 0.012447
v -0.010813 -0.010836 0.014226
v -0.010813 -0.008674 0.015699
v -0.010813 -0.006318 0.016834
v -0.010813 -0.003819 0.017605
v -0.010813 -0.001232 0.017995
v -0.010813 0.001383 0.017995
v -0.010813 0.003970 0.017605
v -0.010813 0.006469 0.016834
v -0.010813 0.008826 0.015699
v -0.010813 0.010987 0.014226
v -0.010813 0.012904 0.012447
v -0.010813 0.014535 0.010402
v -0.010813 0.015843 0.008137
v -0.010813 0.016798 0.005702
v -0.010813 0.017380 0.003152
v -0.010813 0.017576 0.000544
v -0.010813 0.017380 -0.002065
v -0.010813 0.016798 -0.004615
v -0.010813 0.015843 -0.007049
v -0.010813 0.014535 -0.009315
v -0.010813 0.012904 -0.011359
v -0.010813 0.010987 -0.013138
v -0.010813 0.008826 -0.014612
v -0.010813 0.006469 -0.015747
v -0.010813 0.003970 -0.016518
v -0.010813 0.001383 -0.016907
v -0.010813 -0.001232 -0.016907
v -0.010813 -0.003819 -0.016518
v -0.010813 -0.006318 -0.015747
v -0.010813 -0.008674 -0.014612
v -0.010813 -0.010836 -0.013138
v -0.010813 -0.012753 -0.011359
v -0.010813 -0.014384 -0.009315
v -0.010813 -0.015691 -0.007049
v -0.010813 -0.016647 -0.004615
v -0.010813 -0.017229 -0.002065
v -0.010813 -0.037924 0.103044
v -0.010813 -0.037837 0.102326
v -0.010813 -0.037581 0.101649
v -0.010813 -0.037170 0.101054
v -0.010813 -0.036629 0.100575
v -0.010813 -0.035988 0.100239
v -0.010813 -0.035286 0.100065
v -0.010813 -0.034563 0.100065
v -0.010813 -0.033861 0.100239
v -0.010813 -0.033220 0.100575
v -0.010813 -0.032679 0.101054
v -0.010813 -0.032268 0.101649
v -0.010813 -0.032012 0.102326
v -0.010813 -0.031924 0.103044
v -0.010813 -0.032012 0.103762
v -0.010813 -0.032268 0.104438
v -0.010813 -0.032679 0.105033
v -0.010813 -0.033220 0.105513
v -0.010813 -0.033861 0.105849
v -0.010813 -0.034563 0.106022
v -0.010813 -0.035286 0.106022
v -0.010813 -0.035988 0.105849
v -0.010813 -0.036629 0.105513
v -0.010813 -0.037170 0.105033
v -0.010813 -0.037581 0.104438
v -0.010813 -0.037837 0.103762
v -0.010813 -0.037924 0.043044
v -0.010813 -0.037837 0.042326
v -0.010813 -0.037581 0.041649
v -0.010813 -0.037170 0.041054
v -0.010813 -0.036629 0.040575
v -0.010813 -0.035988 0.040239
v -0.010813 -0.035286 0.040065
v -0.010813 -0.034563 0.040065
v -0.010813 -0.033861 0.040239
v -0.010813 -0.033220 0.040575
v -0.010813 -0.032679 0.041054
v -0.010813 -0.032268 0.041649
v -0.010813 -0.032012 0.042326
v -0.010813 -0.031924 0.043044
v -0.010813 -0.032012 0.043762
v -0.010813 -0.032268 0.044438
v -0.010813 -0.032679 0.045033
v -0.010813 -0.033220 0.045513
v -0.010813 -0.033861 0.045849
v -0.010813 -0.034563 0.046022
v -0.010813 -0.035286 0.046022
v -0.010813 -0.035988 0.045849
v -0.010813 -0.036629 0.045513
v -0.010813 -0.037170 0.045033
v -0.010813 -0.037581 0.044438
v -0.010813 -0.037837 0.043762
v -0.010813 0.032076 0.103044
v -0.010813 0.032163 0.103762
v -0.010813 0.032419 0.104438
v -0.010813 0.032830 0.105033
v -0.010813 0.033371 0.105513
v -0.010813 0.034012 0.105849
v -0.010813 0.034714 0.106022
v -0.010813 0.035437 0.106022
v -0.010813 0.036139 0.105849
v -0.010813 0.036780 0.105513
v -0.010813 0.037321 0.105033
v -0.010813 0.037732 0.104438
v -0.010813 0.037988 0.103762
v -0.010813 0.038076 0.103044
v -0.010813 0.037988 0.102326
v -0.010813 0.037732 0.101649
v -0.010813 0.037321 0.101054
v -0.010813 0.036780 0.100575
v -0.010813 0.036139 0.100239
v -0.010813 0.035437 0.100065
v -0.010813 0.034714 0.100065
v -0.010813 0.034012 0.100239
v -0.010813 0.033371 0.100575
v -0.010813 0.032830 0.101054
v -0.010813 0.032419 0.101649
v -0.010813 0.032163 0.102326
v -0.010813 0.032076 0.043044
v -0.010813 0.032163 0.043762
v -0.010813 0.032419 0.044438
v -0.010813 0.032830 0.045033
v -0.010813 0.033371 0.045513
v -0.010813 0.034012 0.045849
v -0.010813 0.034714 0.046022
v -0.010813 0.035437 0.046022
v -0.010813 0.036139 0.045849
v -0.010813 0.036780 0.045513
v -0.010813 0.037321 0.045033
v -0.010813 0.037732 0.044438
v -0.010813 0.037988 0.043762
v -0.010813 0.038076 0.043044
v -0.010813 0.037988 0.042326
v -0.010813 0.037732 0.041649
v -0.010813 0.037321 0.041054
v -0.010813 0.036780 0.040575
v -0.010813 0.036139 0.040239
v -0.010813 0.035437 0.040065
v -0.010813 0.034714 0.040065
v -0.010813 0.034012 0.040239
v -0.010813 0.033371 0.040575
v -0.010813 0.032830 0.041054
v -0.010813 0.032419 0.041649
v -0.010813 0.032163 0.042326
v -0.010813 -0.017424 0.085044
v -0.010813 -0.017229 0.087652
v -0.010813 -0.016647 0.090202
v -0.010813 -0.015691 0.092637
v -0.010813 -0.014384 0.094902
v -0.010813 -0.012753 0.096947
v -0.010813 -0.010836 0.098726
v -0.010813 -0.008674 0.100199
v -0.010813 -0.006318 0.101334
v -0.010813 -0.003819 0.102105
v -0.010813 -0.001232 0.102495
v -0.010813 0.001383 0.102495
v -0.010813 0.003970 0.102105
v -0.010813 0.006469 0.101334
v -0.010813 0.008826 0.100199
v -0.010813 0.010987 0.098726
v -0.010813 0.012904 0.096947
v -0.010813 0.014535 0.094902
v -0.010813 0.015843 0.092637
v -0.010813 0.016798 0.090202
v -0.010813 0.017380 0.087652
v -0.010813 0.017576 0.085044
v -0.010813 0.017380 0.082435
v -0.010813 0.016798 0.079885
v -0.010813 0.015843 0.077451
v -0.010813 0.014535 0.075186
v -0.010813 0.012904 0.073141
v -0.010813 0.010987 0.071362
v -0.010813 0.008826 0.069888
v -0.010813 0.006469 0.068753
v -0.010813 0.003970 0.067982
v -0.010813 0.001383 0.067593
v -0.010813 -0.001232 0.067593
v -0.010813 -0.003819 0.067982
v -0.010813 -0.006318 0.068753
v -0.010813 -0.008674 0.069888
v -0.010813 -0.010836 0.071362
v -0.010813 -0.012753 0.073141
v -0.010813 -0.014384 0.075186
v -0.010813 -0.015691 0.077451
v -0.010813 -0.016647 0.079885
v -0.010813 -0.017229 0.082435
v -0.000813 0.042576 0.102294
v -0.000813 0.042383 0.104245
v -0.000813 0.041814 0.106120
v -0.000813 0.040890 0.107849
v -0.000813 0.039647 0.109365
v -0.000813 0.038131 0.110608
v -0.000813 0.036402 0.111532
v -0.000813 0.034526 0.112101
v -0.000813 0.032576 0.112294
v -0.000813 0.042576 0.032294
v -0.000813 0.082576 -0.007706
v -0.000813 0.082576 -0.032206
v -0.000813 -0.077424 -0.032206
v -0.000813 -0.077424 0.032294
v -0.000813 -0.042424 0.048614
v -0.000813 -0.042424 0.102294
v -0.000813 -0.032424 0.112294
v -0.000813 -0.034375 0.112101
v -0.000813 -0.036251 0.111532
v -0.000813 -0.037980 0.110608
v -0.000813 -0.039496 0.109365
v -0.000813 -0.040739 0.107849
v -0.000813 -0.041663 0.106120
v -0.000813 -0.042232 0.104245
v -0.000813 0.020965 -0.017846
v -0.000813 0.020893 -0.018444
v -0.000813 0.020679 -0.019008
v -0.000813 0.020337 -0.019504
v -0.000813 0.019885 -0.019904
v -0.000813 0.019352 -0.020184
v -0.000813 0.018767 -0.020328
v -0.000813 0.018164 -0.020328
v -0.000813 0.017579 -0.020184
v -0.000813 0.017045 -0.019904
v -0.000813 0.016594 -0.019504
v -0.000813 0.016252 -0.019008
v -0.000813 0.016038 -0.018444
v -0.000813 0.015965 -0.017846
v -0.000813 0.016038 -0.017248
v -0.000813 0.016252 -0.016684
v -0.000813 0.016594 -0.016188
v -0.000813 0.017045 -0.015789
v -0.000813 0.017579 -0.015509
v -0.000813 0.018164 -0.015364
v -0.000813 0.018767 -0.015364
v -0.000813 0.019352 -0.015509
v -0.000813 0.019885 -0.015789
v -0.000813 0.020337 -0.016188
v -0.000813 0.020679 -0.016684
v -0.000813 0.020893 -0.017248
v -0.000813 -0.015814 -0.017846
v -0.000813 -0.015887 -0.018444
v -0.000813 -0.016101 -0.019008
v -0.000813 -0.016443 -0.019504
v -0.000813 -0.016894 -0.019904
v -0.000813 -0.017428 -0.020184
v -0.000813 -0.018013 -0.020328
v -0.000813 -0.018616 -0.020328
v -0.000813 -0.019201 -0.020184
v -0.000813 -0.019734 -0.019904
v -0.000813 -0.020185 -0.019504
v -0.000813 -0.020528 -0.019008
v -0.000813 -0.020742 -0.018444
v -0.000813 -0.020814 -0.017846
v -0.000813 -0.020742 -0.017248
v -0.000813 -0.020528 -0.016684
v -0.000813 -0.020185 -0.016188
v -0.000813 -0.019734 -0.015789
v -0.000813 -0.019201 -0.015509
v -0.000813 -0.018616 -0.015364
v -0.000813 -0.018013 -0.015364
v -0.000813 -0.017428 -0.015509
v -0.000813 -0.016894 -0.015789
v -0.000813 -0.016443 -0.016188
v -0.000813 -0.016101 -0.016684
v -0.000813 -0.015887 -0.017248
v -0.000813 -0.015814 0.018933
v -0.000813 -0.015887 0.018335
v -0.000813 -0.016101 0.017772
v -0.000813 -0.016443 0.017276
v -0.000813 -0.016894 0.016876
v -0.000813 -0.017428 0.016596
v -0.000813 -0.018013 0.016452
v -0.000813 -0.018616 0.016452
v -0.000813 -0.019201 0.016596
v -0.000813 -0.019734 0.016876
v -0.000813 -0.020185 0.017276
v -0.000813 -0.020528 0.017772
v -0.000813 -0.020742 0.018335
v -0.000813 -0.020814 0.018933
v -0.000813 -0.020742 0.019532
v -0.000813 -0.020528 0.020095
v -0.000813 -0.020185 0.020591
v -0.000813 -0.019734 0.020991
v -0.000813 -0.019201 0.021271
v -0.000813 -0.018616 0.021415
v -0.000813 -0.018013 0.021415
v -0.000813 -0.017428 0.021271
v -0.000813 -0.016894 0.020991
v -0.000813 -0.016443 0.020591
v -0.000813 -0.016101 0.020095
v -0.000813 -0.015887 0.019532
v -0.000813 0.020965 0.018933
v -0.000813 0.020893 0.018335
v -0.000813 0.020679 0.017772
v -0.000813 0.020337 0.017276
v -0.000813 0.019885 0.016876
v -0.000813 0.019352 0.016596
v -0.000813 0.018767 0.016452
v -0.000813 0.018164 0.016452
v -0.000813 0.017579 0.016596
v -0.000813 0.017045 0.016876
v -0.000813 0.016594 0.017276
v -0.000813 0.016252 0.017772
v -0.000813 0.016038 0.018335
v -0.000813 0.015965 0.018933
v -0.000813 0.016038 0.019532
v -0.000813 0.016252 0.020095
v -0.000813 0.016594 0.020591
v -0.000813 0.017045 0.020991
v -0.000813 0.017579 0.021271
v -0.000813 0.018164 0.021415
v -0.000813 0.018767 0.021415
v -0.000813 0.019352 0.021271
v -0.000813 0.019885 0.020991
v -0.000813 0.020337 0.020591
v -0.000813 0.020679 0.020095
v -0.000813 0.020893 0.019532
v -0.000813 0.017576 0.000544
v -0.000813 0.017380 -0.002065
v -0.000813 0.016798 -0.004615
v -0.000813 0.015843 -0.007049
v -0.000813 0.014535 -0.009315
v -0.000813 0.012904 -0.011359
v -0.000813 0.010987 -0.013138
v -0.000813 0.008826 -0.014612
v -0.000813 0.006469 -0.015747
v -0.000813 0.003970 -0.016518
v -0.000813 0.001383 -0.016907
v -0.000813 -0.001232 -0.016907
v -0.000813 -0.003819 -0.016518
v -0.000813 -0.006318 -0.015747
v -0.000813 -0.008674 -0.014612
v -0.000813 -0.010836 -0.013138
v -0.000813 -0.012753 -0.011359
v -0.000813 -0.014384 -0.009315
v -0.000813 -0.015691 -0.007049
v -0.000813 -0.016647 -0.004615
v -0.000813 -0.017229 -0.002065
v -0.000813 -0.017424 0.000544
v -0.000813 -0.017229 0.003152
v -0.000813 -0.016647 0.005702
v -0.000813 -0.015691 0.008137
v -0.000813 -0.014384 0.010402
v -0.000813 -0.012753 0.012447
v -0.000813 -0.010836 0.014226
v -0.000813 -0.008674 0.015699
v -0.000813 -0.006318 0.016834
v -0.000813 -0.003819 0.017605
v -0.000813 -0.001232 0.017995
v -0.000813 0.001383 0.017995
v -0.000813 0.003970 0.017605
v -0.000813 0.006469 0.016834
v -0.000813 0.008826 0.015699
v -0.000813 0.010987 0.014226
v -0.000813 0.012904 0.012447
v -0.000813 0.014535 0.010402
v -0.000813 0.015843 0.008137
v -0.000813 0.016798 0.005702
v -0.000813 0.017380 0.003152
v -0.000813 -0.031924 0.103044
v -0.000813 -0.032012 0.103762
v -0.000813 -0.032268 0.104438
v -0.000813 -0.032679 0.105033
v -0.000813 -0.033220 0.105513
v -0.000813 -0.033861 0.105849
v -0.000813 -0.034563 0.106022
v -0.000813 -0.035286 0.106022
v -0.000813 -0.035988 0.105849
v -0.000813 -0.036629 0.105513
v -0.000813 -0.037170 0.105033
v -0.000813 -0.037581 0.104438
v -0.000813 -0.037837 0.103762
v -0.000813 -0.037924 0.103044
v -0.000813 -0.037837 0.102326
v -0.000813 -0.037581 0.101649
v -0.000813 -0.037170 0.101054
v -0.000813 -0.036629 0.100575
v -0.000813 -0.035988 0.100239
v -0.000813 -0.035286 0.100065
v -0.000813 -0.034563 0.100065
v -0.000813 -0.033861 0.100239
v -0.000813 -0.033220 0.100575
v -0.000813 -0.032679 0.101054
v -0.000813 -0.032268 0.101649
v -0.000813 -0.032012 0.102326
v -0.000813 -0.031924 0.043044
v -0.000813 -0.032012 0.043762
v -0.000813 -0.032268 0.044438
v -0.000813 -0.032679 0.045033
v -0.000813 -0.033220 0.045513
v -0.000813 -0.033861 0.045849
v -0.000813 -0.034563 0.046022
v -0.000813 -0.035286 0.046022
v -0.000813 -0.035988 0.045849
v -0.000813 -0.036629 0.045513
v -0.000813 -0.037170 0.045033
v -0.000813 -0.037581 0.044438
v -0.000813 -0.037837 0.043762
v -0.000813 -0.037924 0.043044
v -0.000813 -0.037837 0.042326
v -0.000813 -0.037581 0.041649
v -0.000813 -0.037170 0.041054
v -0.000813 -0.036629 0.040575
v -0.000813 -0.035988 0.040239
v -0.000813 -0.035286 0.040065
v -0.000813 -0.034563 0.040065
v -0.000813 -0.033861 0.040239
v -0.000813 -0.033220 0.040575
v -0.000813 -0.032679 0.041054
v -0.000813 -0.032268 0.041649
v -0.000813 -0.032012 0.042326
v -0.000813 0.038076 0.103044
v -0.000813 0.037988 0.102326
v -0.000813 0.037732 0.101649
v -0.000813 0.037321 0.101054
v -0.000813 0.036780 0.100575
v -0.000813 0.036139 0.100239
v -0.000813 0.035437 0.100065
v -0.000813 0.034714 0.100065
v -0.000813 0.034012 0.100239
v -0.000813 0.033371 0.100575
v -0.000813 0.032830 0.101054
v -0.000813 0.032419 0.101649
v -0.000813 0.032163 0.102326
v -0.000813 0.032076 0.103044
v -0.000813 0.032163 0.103762
v -0.000813 0.032419 0.104438
v -0.000813 0.032830 0.105033
v -0.000813 0.033371 0.105513
v -0.000813 0.034012 0.105849
v -0.000813 0.034714 0.106022
v -0.000813 0.035437 0.106022
v -0.000813 0.036139 0.105849
v -0.000813 0.036780 0.105513
v -0.000813 0.037321 0.105033
v -0.000813 0.037732 0.104438
v -0.000813 0.037988 0.103762
v -0.000813 0.038076 0.043044
v -0.000813 0.037988 0.042326
v -0.000813 0.037732 0.041649
v -0.000813 0.037321 0.041054
v -0.000813 0.036780 0.040575
v -0.000813 0.036139 0.040239
v -0.000813 0.035437 0.040065
v -0.000813 0.034714 0.040065
v -0.000813 0.034012 0.040239
v -0.000813 0.033371 0.040575
v -0.000813 0.032830 0.041054
v -0.000813 0.032419 0.041649
v -0.000813 0.032163 0.042326
v -0.000813 0.032076 0.043044
v -0.000813 0.032163 0.043762
v -0.000813 0.032419 0.044438
v -0.000813 0.032830 0.045033
v -0.000813 0.033371 0.045513
v -0.000813 0.034012 0.045849
v -0.000813 0.034714 0.046022
v -0.000813 0.035437 0.046022
v -0.000813 0.036139 0.045849
v -0.000813 0.036780 0.045513
v -0.000813 0.037321 0.045033
v -0.000813 0.037732 0.044438
v -0.000813 0.037988 0.043762
v -0.000813 0.017576 0.085044
v -0.000813 0.017380 0.082435
v -0.000813 0.016798 0.079885
v -0.000813 0.015843 0.077451
v -0.000813 0.014535 0.075186
v -0.000813 0.012904 0.073141
v -0.000813 0.010987 0.071362
v -0.000813 0.008826 0.069888
v -0.000813 0.006469 0.068753
v -0.000813 0.003970 0.067982
v -0.000813 0.001383 0.067593
v -0.000813 -0.001232 0.067593
v -0.000813 -0.003819 0.067982
v -0.000813 -0.006318 0.068753
v -0.000813 -0.008674 0.069888
v -0.000813 -0.010836 0.071362
v -0.000813 -0.012753 0.073141
v -0.000813 -0.014384 0.075186
v -0.000813 -0.015691 0.077451
v -0.000813 -0.016647 0.079885
v -0.000813 -0.017229 0.082435
v -0.000813 -0.017424 0.085044
v -0.000813 -0.017229 0.087652
v -0.000813 -0.016647 0.090202
v -0.000813 -0.015691 0.092637
v -0.000813 -0.014384 0.094902
v -0.000813 -0.012753 0.096947
v -0.000813 -0.010836 0.098726
v -0.000813 -0.008674 0.100199
v -0.000813 -0.006318 0.101334
v -0.000813 -0.003819 0.102105
v -0.000813 -0.001232 0.102495
v -0.000813 0.001383 0.102495
v -0.000813 0.003970 0.102105
v -0.000813 0.006469 0.101334
v -0.000813 0.008826 0.100199
v -0.000813 0.010987 0.098726
v -0.000813 0.012904 0.096947
v -0.000813 0.014535 0.094902
v -0.000813 0.015843 0.092637
v -0.000813 0.016798 0.090202
v -0.000813 0.017380 0.087652
v -0.010813 0.042576 0.032294
v -0.010813 0.042576 0.102294
v -0.000813 0.042576 0.102294
v -0.000813 0.042576 0.032294
v -0.010813 0.032576 0.112294
v -0.010813 -0.032424 0.112294
v -0.000813 -0.032424 0.112294
v -0.000813 0.032576 0.112294
v -0.010813 -0.042424 0.048614
v -0.000813 -0.042424 0.048614
v -0.010813 -0.042424 0.102294
v -0.000813 -0.042424 0.102294
v -0.000813 -0.077424 0.032294
v -0.000813 -0.077424 -0.032206
v -0.010813 -0.077424 0.032294
v -0.010813 -0.077424 -0.032206
v -0.010813 0.082576 -0.007706
v -0.000813 0.082576 -0.007706
v -0.000813 0.042576 0.032294
v -0.010813 0.042576 0.032294
v -0.010813 -0.042424 0.048614
v -0.000813 -0.042424 0.048614
v -0.000813 -0.077424 0.032294
v -0.010813 -0.077424 0.032294
v -0.010813 -0.042424 0.102294
v -0.010813 -0.042232 0.104245
v -0.010813 -0.041663 0.106120
v -0.010813 -0.040739 0.107849
v -0.010813 -0.039496 0.109365
v -0.010813 -0.037980 0.110608
v -0.010813 -0.036251 0.111532
v -0.010813 -0.034375 0.112101
v -0.010813 -0.032424 0.112294
v -0.000813 -0.042424 0.102294
v -0.000813 -0.032424 0.112294
v -0.000813 -0.034375 0.112101
v -0.000813 -0.036251 0.111532
v -0.000813 -0.037980 0.110608
v -0.000813 -0.039496 0.109365
v -0.000813 -0.040739 0.107849
v -0.000813 -0.041663 0.106120
v -0.000813 -0.042232 0.104245
v -0.010813 0.032576 0.112294
v -0.010813 0.034526 0.112101
v -0.010813 0.036402 0.111532
v -0.010813 0.038131 0.110608
v -0.010813 0.039647 0.109365
v -0.010813 0.040890 0.107849
v -0.010813 0.041814 0.106120
v -0.010813 0.042383 0.104245
v -0.010813 0.042576 0.102294
v -0.000813 0.032576 0.112294
v -0.000813 0.042576 0.102294
v -0.000813 0.042383 0.104245
v -0.000813 0.041814 0.106120
v -0.000813 0.040890 0.107849
v -0.000813 0.039647 0.109365
v -0.000813 0.038131 0.110608
v -0.000813 0.036402 0.111532
v -0.000813 0.034526 0.112101
v -0.010813 -0.017424 0.085044
v -0.010813 -0.017229 0.087652
v -0.010813 -0.016647 0.090202
v -0.010813 -0.015691 0.092637
v -0.010813 -0.014384 0.094902
v -0.010813 -0.012753 0.096947
v -0.010813 -0.010836 0.098726
v -0.010813 -0.008674 0.100199
v -0.010813 -0.006318 0.101334
v -0.010813 -0.003819 0.102105
v -0.010813 -0.001232 0.102495
v -0.010813 0.001383 0.102495
v -0.010813 0.003970 0.102105
v -0.010813 0.006469 0.101334
v -0.010813 0.008826 0.100199
v -0.010813 0.010987 0.098726
v -0.010813 0.012904 0.096947
v -0.010813 0.014535 0.094902
v -0.010813 0.015843 0.092637
v -0.010813 0.016798 0.090202
v -0.010813 0.017380 0.087652
v -0.010813 0.017576 0.085044
v -0.000813 -0.017424 0.085044
v -0.000813 -0.017229 0.087652
v -0.000813 -0.016647 0.090202
v -0.000813 -0.015691 0.092637
v -0.000813 -0.014384 0.094902
v -0.000813 -0.012753 0.096947
v -0.000813 -0.010836 0.098726
v -0.000813 -0.008674 0.100199
v -0.000813 -0.006318 0.101334
v -0.000813 -0.003819 0.102105
v -0.000813 -0.001232 0.102495
v -0.000813 0.001383 0.102495
v -0.000813 0.003970 0.102105
v -0.000813 0.006469 0.101334
v -0.000813 0.008826 0.100199
v -0.000813 0.010987 0.098726
v -0.000813 0.012904 0.096947
v -0.000813 0.014535 0.094902
v -0.000813 0.015843 0.092637
v -0.000813 0.016798 0.090202
v -0.000813 0.017380 0.087652
v -0.000813 0.017576 0.085044
v -0.010813 0.082576 -0.032206
v -0.010813 0.082576 -0.007706
v -0.000813 0.082576 -0.032206
v -0.000813 0.082576 -0.007706
v -0.010813 0.032076 0.043044
v -0.010813 0.032163 0.043762
v -0.010813 0.032419 0.044438
v -0.010813 0.032830 0.045033
v -0.010813 0.033371 0.045513
v -0.010813 0.034012 0.045849
v -0.010813 0.034714 0.046022
v -0.010813 0.035437 0.046022
v -0.010813 0.036139 0.045849
v -0.010813 0.036780 0.045513
v -0.010813 0.037321 0.045033
v -0.010813 0.037732 0.044438
v -0.010813 0.037988 0.043762
v -0.010813 0.038076 0.043044
v -0.000813 0.032076 0.043044
v -0.000813 0.032163 0.043762
v -0.000813 0.032419 0.044438
v -0.000813 0.032830 0.045033
v -0.000813 0.033371 0.045513
v -0.000813 0.034012 0.045849
v -0.000813 0.034714 0.046022
v -0.000813 0.035437 0.046022
v -0.000813 0.036139 0.045849
v -0.000813 0.036780 0.045513
v -0.000813 0.037321 0.045033
v -0.000813 0.037732 0.044438
v -0.000813 0.037988 0.043762
v -0.000813 0.038076 0.043044
v -0.010813 0.032076 0.103044
v -0.010813 0.032163 0.103762
v -0.010813 0.032419 0.104438
v -0.010813 0.032830 0.105033
v -0.010813 0.033371 0.105513
v -0.010813 0.034012 0.105849
v -0.010813 0.034714 0.106022
v -0.010813 0.035437 0.106022
v -0.010813 0.036139 0.105849
v -0.010813 0.036780 0.105513
v -0.010813 0.037321 0.105033
v -0.010813 0.037732 0.104438
v -0.010813 0.037988 0.103762
v -0.010813 0.038076 0.103044
v -0.000813 0.032076 0.103044
v -0.000813 0.032163 0.103762
v -0.000813 0.032419 0.104438
v -0.000813 0.032830 0.105033
v -0.000813 0.033371 0.105513
v -0.000813 0.034012 0.105849
v -0.000813 0.034714 0.106022
v -0.000813 0.035437 0.106022
v -0.000813 0.036139 0.105849
v -0.000813 0.036780 0.105513
v -0.000813 0.037321 0.105033
v -0.000813 0.037732 0.104438
v -0.000813 0.037988 0.103762
v -0.000813 0.038076 0.103044
v -0.010813 -0.031924 0.043044
v -0.010813 -0.032012 0.043762
v -0.010813 -0.032268 0.044438
v -0.010813 -0.032679 0.045033
v -0.010813 -0.033220 0.045513
v -0.010813 -0.033861 0.045849
v -0.010813 -0.034563 0.046022
v -0.010813 -0.035286 0.046022
v -0.010813 -0.035988 0.045849
v -0.010813 -0.036629 0.045513
v -0.010813 -0.037170 0.045033
v -0.010813 -0.037581 0.044438
v -0.010813 -0.037837 0.043762
v -0.010813 -0.037924 0.043044
v -0.000813 -0.037924 0.043044
v -0.000813 -0.031924 0.043044
v -0.000813 -0.032012 0.043762
v -0.000813 -0.032268 0.044438
v -0.000813 -0.032679 0.045033
v -0.000813 -0.033220 0.045513
v -0.000813 -0.033861 0.045849
v -0.000813 -0.034563 0.046022
v -0.000813 -0.035286 0.046022
v -0.000813 -0.035988 0.045849
v -0.000813 -0.036629 0.045513
v -0.000813 -0.037170 0.045033
v -0.000813 -0.037581 0.044438
v -0.000813 -0.037837 0.043762
v -0.010813 -0.031924 0.103044
v -0.010813 -0.032012 0.103762
v -0.010813 -0.032268 0.104438
v -0.010813 -0.032679 0.105033
v -0.010813 -0.033220 0.105513
v -0.010813 -0.033861 0.105849
v -0.010813 -0.034563 0.106022
v -0.010813 -0.035286 0.106022
v -0.010813 -0.035988 0.105849
v -0.010813 -0.036629 0.105513
v -0.010813 -0.037170 0.105033
v -0.010813 -0.037581 0.104438
v -0.010813 -0.037837 0.103762
v -0.010813 -0.037924 0.103044
v -0.000813 -0.037924 0.103044
v -0.000813 -0.031924 0.103044
v -0.000813 -0.032012 0.103762
v -0.000813 -0.032268 0.104438
v -0.000813 -0.032679 0.105033
v -0.000813 -0.033220 0.105513
v -0.000813 -0.033861 0.105849
v -0.000813 -0.034563 0.106022
v -0.000813 -0.035286 0.106022
v -0.000813 -0.035988 0.105849
v -0.000813 -0.036629 0.105513
v -0.000813 -0.037170 0.105033
v -0.000813 -0.037581 0.104438
v -0.000813 -0.037837 0.103762
v -0.010813 -0.017424 0.000544
v -0.010813 -0.017229 0.003152
v -0.010813 -0.016647 0.005702
v -0.010813 -0.015691 0.008137
v -0.010813 -0.014384 0.010402
v -0.010813 -0.012753 0.012447
v -0.010813 -0.010836 0.014226
v -0.010813 -0.008674 0.015699
v -0.010813 -0.006318 0.016834
v -0.010813 -0.003819 0.017605
v -0.010813 -0.001232 0.017995
v -0.010813 0.001383 0.017995
v -0.010813 0.003970 0.017605
v -0.010813 0.006469 0.016834
v -0.010813 0.008826 0.015699
v -0.010813 0.010987 0.014226
v -0.010813 0.012904 0.012447
v -0.010813 0.014535 0.010402
v -0.010813 0.015843 0.008137
v -0.010813 0.016798 0.005702
v -0.010813 0.017380 0.003152
v -0.010813 0.017576 0.000544
v -0.000813 -0.017424 0.000544
v -0.000813 -0.017229 0.003152
v -0.000813 -0.016647 0.005702
v -0.000813 -0.015691 0.008137
v -0.000813 -0.014384 0.010402
v -0.000813 -0.012753 0.012447
v -0.000813 -0.010836 0.014226
v -0.000813 -0.008674 0.015699
v -0.000813 -0.006318 0.016834
v -0.000813 -0.003819 0.017605
v -0.000813 -0.001232 0.017995
v -0.000813 0.001383 0.017995
v -0.000813 0.003970 0.017605
v -0.000813 0.006469 0.016834
v -0.000813 0.008826 0.015699
v -0.000813 0.010987 0.014226
v -0.000813 0.012904 0.012447
v -0.000813 0.014535 0.010402
v -0.000813 0.015843 0.008137
v -0.000813 0.016798 0.005702
v -0.000813 0.017380 0.003152
v -0.000813 0.017576 0.000544
v -0.010813 0.015965 0.018933
v -0.010813 0.016038 0.019532
v -0.010813 0.016252 0.020095
v -0.010813 0.016594 0.020591
v -0.010813 0.017045 0.020991
v -0.010813 0.017579 0.021271
v -0.010813 0.018164 0.021415
v -0.010813 0.018767 0.021415
v -0.010813 0.019352 0.021271
v -0.010813 0.019885 0.020991
v -0.010813 0.020337 0.020591
v -0.010813 0.020679 0.020095
v -0.010813 0.020893 0.019532
v -0.010813 0.020965 0.018933
v -0.000813 0.015965 0.018933
v -0.000813 0.016038 0.019532
v -0.000813 0.016252 0.020095
v -0.000813 0.016594 0.020591
v -0.000813 0.017045 0.020991
v -0.000813 0.017579 0.021271
v -0.000813 0.018164 0.021415
v -0.000813 0.018767 0.021415
v -0.000813 0.019352 0.021271
v -0.000813 0.019885 0.020991
v -0.000813 0.020337 0.020591
v -0.000813 0.020679 0.020095
v -0.000813 0.020893 0.019532
v -0.000813 0.020965 0.018933
v -0.010813 -0.020814 0.018933
v -0.010813 -0.020742 0.019532
v -0.010813 -0.020528 0.020095
v -0.010813 -0.020185 0.020591
v -0.010813 -0.019734 0.020991
v -0.010813 -0.019201 0.021271
v -0.010813 -0.018616 0.021415
v -0.010813 -0.018013 0.021415
v -0.010813 -0.017428 0.021271
v -0.010813 -0.016894 0.020991
v -0.010813 -0.016443 0.020591
v -0.010813 -0.016101 0.020095
v -0.010813 -0.015887 0.019532
v -0.010813 -0.015814 0.018933
v -0.000813 -0.020814 0.018933
v -0.000813 -0.020742 0.019532
v -0.000813 -0.020528 0.020095
v -0.000813 -0.020185 0.020591
v -0.000813 -0.019734 0.020991
v -0.000813 -0.019201 0.021271
v -0.000813 -0.018616 0.021415
v -0.000813 -0.018013 0.021415
v -0.000813 -0.017428 0.021271
v -0.000813 -0.016894 0.020991
v -0.000813 -0.016443 0.020591
v -0.000813 -0.016101 0.020095
v -0.000813 -0.015887 0.019532
v -0.000813 -0.015814 0.018933
v -0.010813 -0.020814 -0.017846
v -0.010813 -0.020742 -0.017248
v -0.010813 -0.020528 -0.016684
v -0.010813 -0.020185 -0.016188
v -0.010813 -0.019734 -0.015789
v -0.010813 -0.019201 -0.015509
v -0.010813 -0.018616 -0.015364
v -0.010813 -0.018013 -0.015364
v -0.010813 -0.017428 -0.015509
v -0.010813 -0.016894 -0.015789
v -0.010813 -0.016443 -0.016188
v -0.010813 -0.016101 -0.016684
v -0.010813 -0.015887 -0.017248
v -0.010813 -0.015814 -0.017846
v -0.000813 -0.020814 -0.017846
v -0.000813 -0.020742 -0.017248
v -0.000813 -0.020528 -0.016684
v -0.000813 -0.020185 -0.016188
v -0.000813 -0.019734 -0.015789
v -0.000813 -0.019201 -0.015509
v -0.000813 -0.018616 -0.015364
v -0.000813 -0.018013 -0.015364
v -0.000813 -0.017428 -0.015509
v -0.000813 -0.016894 -0.015789
v -0.000813 -0.016443 -0.016188
v -0.000813 -0.016101 -0.016684
v -0.000813 -0.015887 -0.017248
v -0.000813 -0.015814 -0.017846
v -0.010813 0.015965 -0.017846
v -0.010813 0.016038 -0.017248
v -0.010813 0.016252 -0.016684
v -0.010813 0.016594 -0.016188
v -0.010813 0.017045 -0.015789
v -0.010813 0.017579 -0.015509
v -0.010813 0.018164 -0.015364
v -0.010813 0.018767 -0.015364
v -0.010813 0.019352 -0.015509
v -0.010813 0.019885 -0.015789
v -0.010813 0.020337 -0.016188
v -0.010813 0.020679 -0.016684
v -0.010813 0.020893 -0.017248
v -0.010813 0.020965 -0.017846
v -0.000813 0.015965 -0.017846
v -0.000813 0.016038 -0.017248
v -0.000813 0.016252 -0.016684
v -0.000813 0.016594 -0.016188
v -0.000813 0.017045 -0.015789
v -0.000813 0.017579 -0.015509
v -0.000813 0.018164 -0.015364
v -0.000813 0.018767 -0.015364
v -0.000813 0.019352 -0.015509
v -0.000813 0.019885 -0.015789
v -0.000813 0.020337 -0.016188
v -0.000813 0.020679 -0.016684
v -0.000813 0.020893 -0.017248
v -0.000813 0.020965 -0.017846
v -0.000813 0.082576 -0.032206
v -0.000813 -0.077424 -0.032206
v -0.010813 0.082576 -0.032206
v -0.010813 -0.077424 -0.032206
vn -0.0000 -0.9927 0.1205
vn -0.0000 -0.9709 0.2393
vn -0.0000 -0.8854 0.4647
vn -0.0000 -0.7485 0.6631
vn -0.0000 -0.8855 0.4647
vn -0.0000 -0.6009 0.7993
vn -0.0000 -0.5343 0.8453
vn -0.0000 -0.3546 0.9350
vn -0.0000 -0.1205 0.9927
vn -0.0000 0.0803 0.9968
vn -0.0000 0.1606 0.9870
vn -0.0000 -0.1206 0.9927
vn -0.0000 0.3165 0.9486
vn -0.0000 0.3921 0.9199
vn -0.0000 0.5343 0.8453
vn -0.0000 0.6009 0.7993
vn -0.0000 0.7211 0.6928
vn -0.0000 0.7747 0.6323
vn -0.0000 0.8854 0.4647
vn -0.0000 0.9709 0.2393
vn -0.0000 0.8855 0.4647
vn -0.0000 0.9927 0.1205
vn -0.0000 -0.9927 0.1206
vn -0.0000 -0.6009 0.7994
vn -0.0000 0.6009 0.7994
vn -0.0000 0.7211 0.6929
vn -0.0000 -0.9972 0.0747
vn -0.0000 -0.9888 0.1490
vn -0.0000 -0.9626 0.2708
vn -0.0000 -0.9479 0.3185
vn -0.0000 -0.9888 0.1491
vn -0.0000 -0.9115 0.4112
vn -0.0000 -0.8899 0.4562
vn -0.0000 -0.8401 0.5425
vn -0.0000 -0.8119 0.5838
vn -0.0000 -0.8898 0.4563
vn -0.0000 -0.9115 0.4113
vn -0.0000 -0.7498 0.6616
vn -0.0000 -0.7158 0.6983
vn -0.0000 -0.8400 0.5425
vn -0.0000 -0.6428 0.7660
vn -0.0000 -0.6038 0.7971
vn -0.0000 -0.7498 0.6617
vn -0.0000 -0.5000 0.8660
vn -0.0000 -0.6038 0.7972
vn -0.0000 -0.3654 0.9309
vn -0.0000 -0.2468 0.9691
vn -0.0000 -0.1981 0.9802
vn -0.0000 -0.3653 0.9309
vn -0.0000 -0.0996 0.9950
vn -0.0000 -0.0498 0.9988
vn -0.0000 0.0747 0.9972
vn -0.0000 0.2225 0.9749
vn -0.0000 0.3653 0.9309
vn -0.0000 0.3654 0.9309
vn -0.0000 0.5000 0.8660
vn -0.0000 0.6038 0.7972
vn -0.0000 0.6428 0.7660
vn -0.0000 0.7158 0.6983
vn -0.0000 0.6038 0.7971
vn -0.0000 0.7498 0.6617
vn -0.0000 0.8262 0.5633
vn -0.0000 0.7498 0.6616
vn -0.0000 0.9010 0.4339
vn -0.0000 0.9556 0.2948
vn -0.0000 0.9556 0.2947
vn -0.0000 0.9888 0.1491
vn -0.0000 0.9972 0.0747
vn -0.0000 0.9888 0.1490
vn -0.0000 -0.9798 0.1999
vn -0.0000 -0.9605 0.2784
vn -0.0000 -0.9035 0.4285
vn -0.0000 -0.8659 0.5001
vn -0.0000 -0.9798 0.1998
vn -0.0000 -0.5681 0.8230
vn -0.0000 -0.8659 0.5002
vn -0.0000 -0.3921 0.9199
vn -0.0000 -0.3165 0.9486
vn -0.0000 0.1206 0.9927
vn -0.0000 0.1205 0.9927
vn -0.0000 0.9605 0.2784
vn -0.0000 0.9798 0.1999
vn -0.0000 0.9798 0.1998
vn -1.0000 -0.0000 -0.0000
vn 1.0000 -0.0000 -0.0000
vn -0.0000 1.0000 -0.0000
vn -0.0000 -0.0000 1.0000
vn -0.0000 -1.0000 -0.0000
vn -0.0000 0.7071 0.7071
vn -0.0000 -0.4226 0.9063
vn -0.0000 -0.9952 0.0980
vn -0.0000 -0.9867 0.1628
vn -0.0000 -0.9739 0.2272
vn -0.0000 -0.9359 0.3522
vn -0.0000 -0.9739 0.2271
vn -0.0000 -0.9108 0.4128
vn -0.0000 -0.9359 0.3521
vn -0.0000 -0.8493 0.5280
vn -0.0000 -0.8128 0.5826
vn -0.0000 -0.7299 0.6835
vn -0.0001 -0.8128 0.5826
vn -0.0000 -0.6835 0.7299
vn -0.0000 -0.5826 0.8128
vn -0.0000 -0.5280 0.8493
vn -0.0000 -0.4128 0.9108
vn -0.0000 -0.3521 0.9359
vn -0.0000 -0.1951 0.9808
vn -0.0000 -0.3522 0.9359
vn -0.0000 -0.0980 0.9952
vn -0.0000 0.9952 0.0980
vn -0.0000 0.9867 0.1628
vn -0.0000 0.9739 0.2272
vn -0.0000 0.9359 0.3521
vn -0.0000 0.9108 0.4128
vn -0.0000 0.8493 0.5280
vn -0.0000 0.8128 0.5826
vn -0.0000 0.7299 0.6835
vn -0.0000 0.6835 0.7299
vn -0.0000 0.5556 0.8315
vn -0.0000 0.3827 0.9239
vn -0.0000 0.2272 0.9739
vn -0.0000 0.1628 0.9867
vn -0.0000 0.0980 0.9952
vn -0.0000 0.9922 -0.1243
vn -0.0000 0.9972 -0.0747
vn -0.0000 0.9848 -0.1737
vn -0.0000 0.9626 -0.2708
vn -0.0000 0.9479 -0.3185
vn -0.0000 0.9010 -0.4339
vn -0.0000 0.8262 -0.5633
vn -0.0000 0.7331 -0.6802
vn -0.0000 0.7330 -0.6802
vn -0.0000 0.6235 -0.7818
vn -0.0000 0.5000 -0.8660
vn -0.0000 0.3654 -0.9309
vn -0.0000 0.2468 -0.9691
vn -0.0000 0.1981 -0.9802
vn -0.0000 0.3653 -0.9309
vn -0.0000 0.0747 -0.9972
vn -0.0000 -0.0747 -0.9972
vn -0.0000 -0.2225 -0.9749
vn -0.0000 -0.3653 -0.9309
vn -0.0000 -0.4782 -0.8782
vn -0.0000 -0.3654 -0.9309
vn -0.0000 -0.5215 -0.8533
vn -0.0000 -0.6038 -0.7972
vn -0.0000 -0.6428 -0.7660
vn -0.0000 -0.7158 -0.6983
vn -0.0000 -0.6038 -0.7971
vn -0.0000 -0.7498 -0.6617
vn -0.0000 -0.8119 -0.5838
vn -0.0000 -0.7498 -0.6616
vn -0.0000 -0.8400 -0.5425
vn -0.0000 -0.8898 -0.4563
vn -0.0000 -0.8401 -0.5425
vn -0.0000 -0.9115 -0.4113
vn -0.0000 -0.9479 -0.3185
vn -0.0000 -0.9115 -0.4112
vn -0.0000 -0.8899 -0.4562
vn -0.0000 -0.9626 -0.2708
vn -0.0000 -0.9848 -0.1737
vn -0.0000 -0.9922 -0.1243
vn -0.0000 -0.9972 -0.0747
vn -0.0000 0.9798 -0.1999
vn -0.0000 0.9927 -0.1205
vn -0.0000 0.9605 -0.2784
vn -0.0000 0.8855 -0.4647
vn -0.0000 0.8854 -0.4647
vn -0.0000 0.7485 -0.6631
vn -0.0000 0.6009 -0.7993
vn -0.0000 0.5343 -0.8453
vn -0.0000 0.3546 -0.9350
vn -0.0000 0.1205 -0.9927
vn -0.0000 0.1206 -0.9927
vn -0.0000 -0.0803 -0.9968
vn -0.0000 -0.1606 -0.9870
vn -0.0000 -0.3165 -0.9486
vn -0.0000 -0.3921 -0.9199
vn -0.0000 -0.5343 -0.8453
vn -0.0000 -0.6009 -0.7993
vn -0.0000 -0.7485 -0.6631
vn -0.0000 -0.8659 -0.5001
vn -0.0000 -0.9035 -0.4285
vn -0.0000 -0.9709 -0.2393
vn -0.0000 -0.9927 -0.1205
vn -0.0000 -0.9035 -0.4286
vn -0.0000 0.9709 -0.2393
vn -0.0000 0.5681 -0.8230
vn -0.0000 0.3921 -0.9199
vn -0.0000 0.3165 -0.9486
vn -0.0000 0.1606 -0.9870
vn -0.0000 0.0803 -0.9968
vn -0.0000 -0.5681 -0.8230
vn -0.0000 -0.7211 -0.6928
vn -0.0000 -0.7747 -0.6323
vn -0.0000 -0.8855 -0.4647
vn -0.0000 -0.7211 -0.6929
vn -0.0000 -0.8854 -0.4647
vn -0.0000 -0.4782 -0.8783
vn -0.0000 0.9798 -0.1998
vn -0.0000 0.6009 -0.7994
vn -0.0000 -0.6009 -0.7994
vn -0.0000 -0.9927 -0.1206
vn -0.0000 -0.0000 -1.0000
s 0
usemtl material18.001
f 3//1 17//2 16//1
f 4//2 17//2 3//1
f 5//3 18//3 17//2
f 5//3 19//4 18//3
f 5//3 17//2 4//2
f 6//4 19//4 5//5
f 7//6 20//7 19//4
f 7//6 19//4 6//4
f 8//8 21//8 20//7
f 8//8 22//9 21//8
f 8//8 20//7 7//6
f 9//9 22//9 8//8
f 10//10 23//11 22//12
f 10//10 22//12 9//12
f 11//13 24//14 23//11
f 11//13 23//11 10//10
f 12//15 25//16 24//14
f 12//15 24//14 11//13
f 13//17 26//18 25//16
f 13//17 25//16 12//15
f 14//19 27//19 26//18
f 14//19 28//20 27//19
f 14//21 26//18 13//17
f 15//20 28//20 14//19
f 2//22 1//22 28//20
f 2//22 28//20 15//20
f 31//23 45//2 44//23
f 32//2 45//2 31//1
f 33//5 46//5 45//2
f 33//3 47//4 46//3
f 33//3 45//2 32//2
f 34//4 47//4 33//3
f 35//6 48//7 47//4
f 35//24 47//4 34//4
f 36//8 49//8 48//7
f 36//8 50//12 49//8
f 36//8 48//7 35//24
f 37//9 50//9 36//8
f 38//10 51//11 50//12
f 38//10 50//12 37//12
f 39//13 52//14 51//11
f 39//13 51//11 38//10
f 40//15 53//25 52//14
f 40//15 52//14 39//13
f 41//26 54//18 53//16
f 41//17 53//25 40//15
f 42//21 55//21 54//18
f 42//19 56//20 55//19
f 42//21 54//18 41//17
f 43//20 56//20 42//21
f 30//22 29//22 56//20
f 30//22 56//20 43//20
f 59//23 73//2 72//23
f 60//2 73//2 59//1
f 61//5 74//5 73//2
f 61//3 75//4 74//3
f 61//3 73//2 60//2
f 62//4 75//4 61//3
f 63//6 76//7 75//4
f 63//24 75//4 62//4
f 64//8 77//8 76//7
f 64//8 78//12 77//8
f 64//8 76//7 63//24
f 65//9 78//9 64//8
f 66//10 79//11 78//12
f 66//10 78//12 65//12
f 67//13 80//14 79//11
f 67//13 79//11 66//10
f 68//15 81//25 80//14
f 68//15 80//14 67//13
f 69//26 82//18 81//16
f 69//17 81//25 68//15
f 70//21 83//21 82//18
f 70//19 84//20 83//19
f 70//21 82//18 69//17
f 71//20 84//20 70//21
f 58//22 57//22 84//20
f 58//22 84//20 71//20
f 87//1 101//2 100//1
f 88//2 101//2 87//1
f 89//3 102//3 101//2
f 89//3 103//4 102//3
f 89//3 101//2 88//2
f 90//4 103//4 89//5
f 91//6 104//7 103//4
f 91//6 103//4 90//4
f 92//8 105//8 104//7
f 92//8 106//9 105//8
f 92//8 104//7 91//6
f 93//9 106//9 92//8
f 94//10 107//11 106//12
f 94//10 106//12 93//12
f 95//13 108//14 107//11
f 95//13 107//11 94//10
f 96//15 109//16 108//14
f 96//15 108//14 95//13
f 97//17 110//18 109//16
f 97//17 109//16 96//15
f 98//19 111//19 110//18
f 98//19 112//20 111//19
f 98//21 110//18 97//17
f 99//20 112//20 98//19
f 86//22 85//22 112//20
f 86//22 112//20 99//20
f 115//27 137//28 136//27
f 116//28 137//28 115//27
f 117//29 138//30 137//31
f 117//29 137//31 116//31
f 118//32 139//33 138//30
f 118//32 138//30 117//29
f 119//34 140//35 139//36
f 119//34 139//36 118//37
f 120//38 141//39 140//35
f 120//38 140//35 119//40
f 121//41 142//42 141//39
f 121//41 141//39 120//43
f 122//44 143//44 142//45
f 122//44 144//46 143//44
f 122//44 142//45 121//41
f 123//46 144//46 122//44
f 124//47 145//48 144//49
f 124//47 144//49 123//49
f 125//50 146//51 145//48
f 125//50 145//48 124//47
f 126//52 147//52 146//51
f 126//52 148//53 147//52
f 126//52 146//51 125//50
f 127//53 148//53 126//52
f 128//54 149//54 148//53
f 128//55 150//56 149//55
f 128//54 148//53 127//53
f 129//56 150//56 128//55
f 130//57 150//56 129//56
f 130//57 151//58 150//56
f 131//59 151//58 130//60
f 131//59 152//61 151//58
f 132//62 152//63 131//59
f 132//62 153//62 152//63
f 132//62 154//64 153//62
f 133//64 154//64 132//62
f 134//65 154//64 133//64
f 134//65 155//65 154//64
f 134//66 156//67 155//66
f 135//67 156//67 134//66
f 114//68 156//69 135//69
f 114//68 113//68 156//69
f 170//70 172//1 171//1
f 170//70 184//71 172//1
f 169//72 183//73 184//71
f 169//72 184//71 170//74
f 168//4 181//75 182//4
f 168//4 182//4 183//76
f 168//4 183//76 169//72
f 167//75 181//75 168//4
f 166//77 180//78 181//75
f 166//77 181//75 167//75
f 165//12 178//79 179//12
f 165//9 179//9 180//78
f 165//9 180//78 166//77
f 164//79 178//79 165//12
f 163//13 177//14 178//80
f 163//13 178//80 164//80
f 162//15 176//16 177//14
f 162//15 177//14 163//13
f 161//17 175//18 176//16
f 161//17 176//16 162//15
f 160//19 173//81 174//19
f 160//21 174//21 175//18
f 160//21 175//18 161//26
f 159//82 157//22 173//81
f 159//83 173//81 160//21
f 158//22 157//22 159//82
f 198//70 200//1 199//1
f 198//70 212//71 200//1
f 197//72 211//73 212//71
f 197//72 212//71 198//74
f 196//4 209//75 210//4
f 196//4 210//4 211//76
f 196//4 211//76 197//72
f 195//75 209//75 196//4
f 194//77 208//78 209//75
f 194//77 209//75 195//75
f 193//12 206//79 207//12
f 193//9 207//9 208//78
f 193//12 208//78 194//77
f 192//79 206//79 193//12
f 191//13 205//14 206//79
f 191//13 206//80 192//80
f 190//15 204//16 205//14
f 190//15 205//14 191//13
f 189//17 203//18 204//16
f 189//17 204//16 190//15
f 188//19 201//81 202//19
f 188//21 202//21 203//18
f 188//21 203//18 189//26
f 187//82 185//22 201//81
f 187//83 201//81 188//21
f 186//22 185//22 187//82
f 215//1 229//2 228//1
f 216//2 229//2 215//1
f 217//3 230//3 229//2
f 217//5 231//4 230//5
f 217//3 229//2 216//2
f 218//4 231//4 217//5
f 219//6 232//7 231//4
f 219//6 231//4 218//4
f 220//8 233//8 232//7
f 220//8 234//9 233//8
f 220//8 232//7 219//6
f 221//9 234//9 220//8
f 222//10 235//11 234//12
f 222//10 234//12 221//12
f 223//13 236//14 235//11
f 223//13 235//11 222//10
f 224//15 237//16 236//14
f 224//15 236//14 223//13
f 225//17 238//18 237//16
f 225//17 237//16 224//15
f 226//21 239//21 238//18
f 226//21 240//20 239//19
f 226//21 238//18 225//17
f 227//20 240//20 226//19
f 214//22 213//22 240//20
f 214//22 240//20 227//20
f 243//1 257//2 256//1
f 244//2 257//2 243//1
f 245//3 258//3 257//2
f 245//5 259//4 258//5
f 245//3 257//2 244//2
f 246//4 259//4 245//5
f 247//6 260//7 259//4
f 247//6 259//4 246//4
f 248//8 261//8 260//7
f 248//8 262//12 261//8
f 248//8 260//7 247//6
f 249//12 262//12 248//8
f 250//10 263//11 262//12
f 250//10 262//12 249//12
f 251//13 264//14 263//11
f 251//13 263//11 250//10
f 252//15 265//16 264//14
f 252//15 264//14 251//13
f 253//17 266//18 265//16
f 253//17 265//16 252//15
f 254//19 267//21 266//18
f 254//21 268//20 267//19
f 254//21 266//18 253//17
f 255//20 268//20 254//19
f 242//22 241//22 268//20
f 242//22 268//20 255//20
f 271//27 293//28 292//27
f 272//28 293//28 271//27
f 273//29 294//30 293//31
f 273//29 293//31 272//31
f 274//32 295//33 294//30
f 274//32 294//30 273//29
f 275//34 296//35 295//36
f 275//34 295//36 274//37
f 276//38 297//39 296//35
f 276//38 296//35 275//40
f 277//41 298//42 297//39
f 277//41 297//39 276//43
f 278//44 299//44 298//45
f 278//44 300//46 299//44
f 278//44 298//45 277//41
f 279//46 300//46 278//44
f 280//47 301//48 300//49
f 280//47 300//49 279//49
f 281//50 302//51 301//48
f 281//50 301//48 280//47
f 282//52 303//52 302//51
f 282//52 304//53 303//52
f 282//52 302//51 281//50
f 283//53 304//53 282//52
f 284//54 305//54 304//53
f 284//55 306//56 305//55
f 284//54 304//53 283//53
f 285//56 306//56 284//55
f 286//57 306//56 285//56
f 286//57 307//58 306//56
f 287//59 307//58 286//60
f 287//59 308//61 307//58
f 288//62 308//63 287//59
f 288//62 309//62 308//63
f 288//62 310//64 309//62
f 289//64 310//64 288//62
f 290//65 310//64 289//64
f 290//65 311//65 310//64
f 290//66 312//67 311//66
f 291//67 312//67 290//66
f 270//68 312//69 291//69
f 270//68 269//68 312//69
f 354//84 353//84 334//84
f 352//84 334//84 353//84
f 355//84 354//84 334//84
f 351//84 334//84 352//84
f 356//84 355//84 334//84
f 350//84 333//84 334//84
f 350//84 334//84 351//84
f 357//84 356//84 334//84
f 349//84 333//84 350//84
f 348//84 333//84 349//84
f 467//84 341//84 340//84
f 467//84 342//84 341//84
f 468//84 339//84 338//84
f 468//84 340//84 339//84
f 468//84 467//84 340//84
f 466//84 343//84 342//84
f 466//84 344//84 343//84
f 466//84 342//84 467//84
f 469//84 338//84 337//84
f 469//84 337//84 362//84
f 469//84 468//84 338//84
f 465//84 345//84 344//84
f 465//84 346//84 345//84
f 465//84 344//84 466//84
f 470//84 469//84 362//84
f 470//84 361//84 360//84
f 470//84 362//84 361//84
f 464//84 347//84 346//84
f 464//84 346//84 465//84
f 471//84 470//84 360//84
f 471//84 360//84 359//84
f 463//84 348//84 347//84
f 463//84 347//84 464//84
f 472//84 359//84 358//84
f 472//84 471//84 359//84
f 462//84 333//84 348//84
f 462//84 348//84 463//84
f 332//84 462//84 461//84
f 332//84 333//84 462//84
f 431//84 461//84 460//84
f 379//84 475//84 474//84
f 432//84 431//84 460//84
f 432//84 460//84 459//84
f 380//84 379//84 474//84
f 380//84 474//84 473//84
f 430//84 461//84 431//84
f 430//84 332//84 461//84
f 378//84 475//84 379//84
f 433//84 432//84 459//84
f 381//84 380//84 473//84
f 381//84 472//84 358//84
f 381//84 473//84 472//84
f 429//84 332//84 430//84
f 377//84 475//84 378//84
f 377//84 476//84 475//84
f 434//84 433//84 459//84
f 434//84 459//84 458//84
f 382//84 358//84 357//84
f 382//84 381//84 358//84
f 428//84 332//84 429//84
f 376//84 476//84 377//84
f 435//84 434//84 458//84
f 427//84 332//84 428//84
f 375//84 476//84 376//84
f 375//84 477//84 476//84
f 436//84 435//84 458//84
f 426//84 332//84 427//84
f 374//84 477//84 375//84
f 457//84 436//84 458//84
f 437//84 436//84 457//84
f 425//84 332//84 426//84
f 373//84 477//84 374//84
f 438//84 437//84 457//84
f 478//84 373//84 372//84
f 478//84 477//84 373//84
f 371//84 478//84 372//84
f 456//84 439//84 438//84
f 456//84 440//84 439//84
f 456//84 438//84 457//84
f 578//84 577//84 332//84
f 576//84 332//84 577//84
f 579//84 578//84 332//84
f 575//84 332//84 576//84
f 580//84 579//84 332//84
f 574//84 332//84 575//84
f 479//84 370//84 369//84
f 479//84 371//84 370//84
f 479//84 478//84 371//84
f 581//84 580//84 332//84
f 573//84 332//84 574//84
f 582//84 581//84 332//84
f 582//84 332//84 425//84
f 455//84 416//84 415//84
f 455//84 440//84 456//84
f 455//84 415//84 440//84
f 583//84 424//84 423//84
f 583//84 425//84 424//84
f 583//84 582//84 425//84
f 584//84 423//84 422//84
f 584//84 583//84 423//84
f 480//84 368//84 367//84
f 480//84 369//84 368//84
f 480//84 479//84 369//84
f 585//84 422//84 421//84
f 585//84 584//84 422//84
f 586//84 421//84 420//84
f 586//84 585//84 421//84
f 454//84 417//84 416//84
f 454//84 418//84 417//84
f 454//84 416//84 455//84
f 561//84 586//84 420//84
f 481//84 480//84 367//84
f 481//84 367//84 366//84
f 453//84 419//84 418//84
f 453//84 418//84 454//84
f 482//84 366//84 365//84
f 482//84 481//84 366//84
f 452//84 419//84 453//84
f 441//84 482//84 365//84
f 405//84 447//84 446//84
f 406//84 405//84 446//84
f 404//84 447//84 405//84
f 407//84 446//84 445//84
f 407//84 406//84 446//84
f 403//84 447//84 404//84
f 403//84 448//84 447//84
f 408//84 407//84 445//84
f 402//84 448//84 403//84
f 409//84 408//84 445//84
f 409//84 445//84 444//84
f 401//84 448//84 402//84
f 401//84 449//84 448//84
f 410//84 409//84 444//84
f 400//84 449//84 401//84
f 411//84 410//84 444//84
f 411//84 444//84 443//84
f 399//84 449//84 400//84
f 399//84 450//84 449//84
f 412//84 443//84 442//84
f 412//84 411//84 443//84
f 398//84 450//84 399//84
f 398//84 451//84 450//84
f 413//84 442//84 441//84
f 413//84 412//84 442//84
f 335//84 357//84 334//84
f 335//84 382//84 357//84
f 335//84 364//84 363//84
f 335//84 365//84 364//84
f 335//84 383//84 382//84
f 335//84 384//84 383//84
f 335//84 385//84 384//84
f 335//84 386//84 385//84
f 335//84 387//84 386//84
f 335//84 388//84 387//84
f 335//84 363//84 388//84
f 335//84 441//84 365//84
f 331//84 332//84 573//84
f 331//84 570//84 569//84
f 331//84 571//84 570//84
f 331//84 572//84 571//84
f 331//84 573//84 572//84
f 613//84 566//84 565//84
f 614//84 613//84 565//84
f 614//84 565//84 564//84
f 612//84 567//84 566//84
f 612//84 566//84 613//84
f 615//84 564//84 563//84
f 615//84 614//84 564//84
f 611//84 568//84 567//84
f 611//84 567//84 612//84
f 616//84 563//84 562//84
f 616//84 615//84 563//84
f 610//84 569//84 568//84
f 610//84 568//84 611//84
f 552//84 551//84 331//84
f 550//84 331//84 551//84
f 617//84 562//84 561//84
f 617//84 561//84 420//84
f 617//84 616//84 562//84
f 553//84 331//84 569//84
f 553//84 569//84 610//84
f 553//84 552//84 331//84
f 549//84 331//84 550//84
f 554//84 553//84 610//84
f 548//84 330//84 331//84
f 548//84 331//84 549//84
f 609//84 554//84 610//84
f 555//84 554//84 609//84
f 547//84 329//84 330//84
f 547//84 330//84 548//84
f 618//84 420//84 419//84
f 618//84 617//84 420//84
f 618//84 419//84 452//84
f 546//84 329//84 547//84
f 328//84 329//84 546//84
f 608//84 555//84 609//84
f 608//84 556//84 555//84
f 545//84 328//84 546//84
f 544//84 328//84 545//84
f 619//84 452//84 451//84
f 619//84 618//84 452//84
f 619//84 398//84 397//84
f 619//84 451//84 398//84
f 327//84 328//84 544//84
f 327//84 544//84 543//84
f 607//84 556//84 608//84
f 607//84 557//84 556//84
f 620//84 619//84 397//84
f 326//84 543//84 542//84
f 326//84 327//84 543//84
f 606//84 557//84 607//84
f 606//84 558//84 557//84
f 519//84 395//84 394//84
f 518//84 519//84 394//84
f 518//84 393//84 392//84
f 518//84 394//84 393//84
f 520//84 395//84 519//84
f 520//84 396//84 395//84
f 517//84 518//84 392//84
f 517//84 392//84 391//84
f 521//84 396//84 520//84
f 521//84 397//84 396//84
f 516//84 517//84 391//84
f 516//84 391//84 390//84
f 522//84 620//84 397//84
f 522//84 397//84 521//84
f 325//84 542//84 541//84
f 325//84 326//84 542//84
f 515//84 516//84 390//84
f 515//84 390//84 389//84
f 523//84 621//84 620//84
f 523//84 620//84 522//84
f 514//84 389//84 414//84
f 514//84 515//84 389//84
f 524//84 621//84 523//84
f 605//84 558//84 606//84
f 605//84 559//84 558//84
f 513//84 514//84 414//84
f 324//84 541//84 540//84
f 324//84 325//84 541//84
f 622//84 524//84 525//84
f 622//84 621//84 524//84
f 323//84 537//84 536//84
f 323//84 538//84 537//84
f 323//84 539//84 538//84
f 323//84 540//84 539//84
f 323//84 324//84 540//84
f 604//84 560//84 559//84
f 604//84 535//84 560//84
f 604//84 559//84 605//84
f 623//84 525//84 526//84
f 623//84 622//84 525//84
f 603//84 536//84 535//84
f 603//84 535//84 604//84
f 624//84 526//84 527//84
f 624//84 623//84 526//84
f 602//84 536//84 603//84
f 602//84 323//84 536//84
f 625//84 624//84 527//84
f 625//84 527//84 528//84
f 313//84 528//84 529//84
f 313//84 529//84 530//84
f 313//84 530//84 531//84
f 313//84 531//84 532//84
f 313//84 532//84 533//84
f 313//84 533//84 534//84
f 313//84 534//84 509//84
f 313//84 625//84 528//84
f 313//84 509//84 510//84
f 313//84 510//84 511//84
f 601//84 323//84 602//84
f 626//84 625//84 313//84
f 600//84 323//84 601//84
f 627//84 626//84 313//84
f 599//84 323//84 600//84
f 598//84 323//84 599//84
f 597//84 323//84 598//84
f 336//84 414//84 413//84
f 336//84 313//84 511//84
f 336//84 413//84 441//84
f 336//84 441//84 335//84
f 336//84 513//84 414//84
f 336//84 511//84 512//84
f 336//84 512//84 513//84
f 493//84 590//84 589//84
f 492//84 493//84 589//84
f 492//84 589//84 588//84
f 494//84 590//84 493//84
f 494//84 591//84 590//84
f 491//84 588//84 587//84
f 491//84 492//84 588//84
f 495//84 591//84 494//84
f 490//84 587//84 628//84
f 490//84 491//84 587//84
f 496//84 592//84 591//84
f 496//84 591//84 495//84
f 489//84 628//84 627//84
f 489//84 490//84 628//84
f 497//84 592//84 496//84
f 497//84 593//84 592//84
f 488//84 627//84 313//84
f 488//84 489//84 627//84
f 314//84 483//84 484//84
f 314//84 484//84 485//84
f 314//84 485//84 486//84
f 314//84 486//84 487//84
f 314//84 487//84 488//84
f 314//84 488//84 313//84
f 322//84 593//84 497//84
f 322//84 323//84 597//84
f 322//84 594//84 593//84
f 322//84 595//84 594//84
f 322//84 596//84 595//84
f 322//84 597//84 596//84
f 322//84 497//84 498//84
f 322//84 498//84 499//84
f 322//84 499//84 500//84
f 322//84 500//84 501//84
f 315//84 483//84 314//84
f 315//84 508//84 483//84
f 321//84 501//84 502//84
f 321//84 322//84 501//84
f 316//84 508//84 315//84
f 316//84 507//84 508//84
f 320//84 321//84 502//84
f 320//84 502//84 503//84
f 319//84 320//84 503//84
f 319//84 503//84 504//84
f 317//84 507//84 316//84
f 317//84 505//84 506//84
f 317//84 506//84 507//84
f 318//84 505//84 317//84
f 318//84 319//84 504//84
f 318//84 504//84 505//84
f 657//85 640//85 656//85
f 655//85 656//85 640//85
f 658//85 640//85 657//85
f 654//85 655//85 640//85
f 659//85 640//85 658//85
f 653//85 640//85 639//85
f 653//85 654//85 640//85
f 660//85 640//85 659//85
f 678//85 653//85 639//85
f 677//85 678//85 639//85
f 762//85 669//85 670//85
f 762//85 670//85 671//85
f 763//85 667//85 668//85
f 763//85 668//85 669//85
f 763//85 669//85 762//85
f 761//85 671//85 672//85
f 761//85 672//85 673//85
f 761//85 762//85 671//85
f 764//85 665//85 666//85
f 764//85 666//85 667//85
f 764//85 667//85 763//85
f 760//85 673//85 674//85
f 760//85 674//85 675//85
f 760//85 761//85 673//85
f 765//85 663//85 664//85
f 765//85 664//85 665//85
f 765//85 665//85 764//85
f 759//85 675//85 676//85
f 759//85 760//85 675//85
f 766//85 662//85 663//85
f 766//85 663//85 765//85
f 758//85 676//85 677//85
f 758//85 759//85 676//85
f 767//85 661//85 662//85
f 767//85 662//85 766//85
f 757//85 677//85 639//85
f 757//85 758//85 677//85
f 638//85 798//85 757//85
f 638//85 757//85 639//85
f 734//85 797//85 798//85
f 682//85 769//85 770//85
f 735//85 797//85 734//85
f 735//85 796//85 797//85
f 683//85 768//85 769//85
f 683//85 769//85 682//85
f 733//85 798//85 638//85
f 733//85 734//85 798//85
f 681//85 682//85 770//85
f 736//85 796//85 735//85
f 684//85 768//85 683//85
f 684//85 661//85 767//85
f 684//85 767//85 768//85
f 732//85 733//85 638//85
f 680//85 681//85 770//85
f 680//85 770//85 771//85
f 737//85 796//85 736//85
f 737//85 795//85 796//85
f 685//85 660//85 661//85
f 685//85 661//85 684//85
f 731//85 732//85 638//85
f 679//85 680//85 771//85
f 738//85 795//85 737//85
f 756//85 731//85 638//85
f 704//85 771//85 772//85
f 704//85 679//85 771//85
f 739//85 795//85 738//85
f 755//85 756//85 638//85
f 703//85 704//85 772//85
f 794//85 795//85 739//85
f 740//85 794//85 739//85
f 754//85 755//85 638//85
f 702//85 703//85 772//85
f 741//85 794//85 740//85
f 773//85 702//85 772//85
f 773//85 701//85 702//85
f 700//85 701//85 773//85
f 793//85 741//85 742//85
f 793//85 742//85 743//85
f 793//85 794//85 741//85
f 881//85 638//85 880//85
f 879//85 880//85 638//85
f 882//85 638//85 881//85
f 878//85 879//85 638//85
f 883//85 638//85 882//85
f 877//85 878//85 638//85
f 774//85 698//85 699//85
f 774//85 699//85 700//85
f 774//85 700//85 773//85
f 884//85 638//85 883//85
f 902//85 877//85 638//85
f 885//85 638//85 884//85
f 885//85 754//85 638//85
f 792//85 743//85 744//85
f 792//85 744//85 745//85
f 792//85 793//85 743//85
f 886//85 754//85 885//85
f 886//85 752//85 753//85
f 886//85 753//85 754//85
f 887//85 751//85 752//85
f 887//85 752//85 886//85
f 775//85 696//85 697//85
f 775//85 697//85 698//85
f 775//85 698//85 774//85
f 888//85 750//85 751//85
f 888//85 751//85 887//85
f 889//85 749//85 750//85
f 889//85 750//85 888//85
f 791//85 792//85 745//85
f 791//85 745//85 746//85
f 791//85 746//85 747//85
f 890//85 749//85 889//85
f 776//85 696//85 775//85
f 776//85 695//85 696//85
f 790//85 791//85 747//85
f 790//85 747//85 748//85
f 777//85 694//85 695//85
f 777//85 695//85 776//85
f 789//85 790//85 748//85
f 778//85 694//85 777//85
f 708//85 783//85 784//85
f 709//85 783//85 708//85
f 707//85 708//85 784//85
f 710//85 783//85 709//85
f 710//85 782//85 783//85
f 706//85 707//85 784//85
f 706//85 784//85 785//85
f 711//85 782//85 710//85
f 705//85 706//85 785//85
f 712//85 782//85 711//85
f 712//85 781//85 782//85
f 730//85 705//85 785//85
f 730//85 785//85 786//85
f 713//85 781//85 712//85
f 729//85 730//85 786//85
f 714//85 781//85 713//85
f 714//85 780//85 781//85
f 728//85 786//85 787//85
f 728//85 729//85 786//85
f 715//85 780//85 714//85
f 715//85 779//85 780//85
f 727//85 728//85 787//85
f 727//85 787//85 788//85
f 716//85 779//85 715//85
f 716//85 778//85 779//85
f 641//85 640//85 660//85
f 641//85 660//85 685//85
f 641//85 685//85 686//85
f 641//85 686//85 687//85
f 641//85 687//85 688//85
f 641//85 688//85 689//85
f 641//85 689//85 690//85
f 641//85 690//85 691//85
f 641//85 691//85 692//85
f 641//85 692//85 693//85
f 641//85 693//85 694//85
f 641//85 694//85 778//85
f 629//85 902//85 638//85
f 629//85 898//85 899//85
f 629//85 899//85 900//85
f 629//85 900//85 901//85
f 629//85 901//85 902//85
f 908//85 894//85 895//85
f 909//85 894//85 908//85
f 909//85 893//85 894//85
f 907//85 908//85 895//85
f 907//85 895//85 896//85
f 910//85 893//85 909//85
f 910//85 892//85 893//85
f 906//85 896//85 897//85
f 906//85 907//85 896//85
f 911//85 891//85 892//85
f 911//85 892//85 910//85
f 905//85 897//85 898//85
f 905//85 906//85 897//85
f 855//85 629//85 854//85
f 853//85 854//85 629//85
f 912//85 890//85 891//85
f 912//85 891//85 911//85
f 912//85 749//85 890//85
f 856//85 898//85 629//85
f 856//85 905//85 898//85
f 856//85 629//85 855//85
f 852//85 853//85 629//85
f 857//85 905//85 856//85
f 851//85 629//85 630//85
f 851//85 852//85 629//85
f 904//85 905//85 857//85
f 858//85 904//85 857//85
f 876//85 851//85 630//85
f 876//85 630//85 631//85
f 913//85 748//85 749//85
f 913//85 749//85 912//85
f 913//85 789//85 748//85
f 875//85 876//85 631//85
f 632//85 875//85 631//85
f 903//85 904//85 858//85
f 903//85 858//85 859//85
f 874//85 875//85 632//85
f 873//85 874//85 632//85
f 914//85 788//85 789//85
f 914//85 789//85 913//85
f 914//85 727//85 788//85
f 914//85 726//85 727//85
f 633//85 873//85 632//85
f 633//85 872//85 873//85
f 944//85 859//85 860//85
f 944//85 903//85 859//85
f 915//85 726//85 914//85
f 634//85 872//85 633//85
f 634//85 871//85 872//85
f 943//85 860//85 861//85
f 943//85 944//85 860//85
f 848//85 723//85 724//85
f 847//85 723//85 848//85
f 847//85 721//85 722//85
f 847//85 722//85 723//85
f 849//85 848//85 724//85
f 849//85 724//85 725//85
f 846//85 721//85 847//85
f 846//85 720//85 721//85
f 850//85 849//85 725//85
f 850//85 725//85 726//85
f 845//85 720//85 846//85
f 845//85 719//85 720//85
f 825//85 726//85 915//85
f 825//85 850//85 726//85
f 635//85 870//85 871//85
f 635//85 871//85 634//85
f 844//85 719//85 845//85
f 844//85 718//85 719//85
f 826//85 825//85 915//85
f 826//85 915//85 916//85
f 843//85 718//85 844//85
f 843//85 717//85 718//85
f 827//85 826//85 916//85
f 942//85 861//85 862//85
f 942//85 943//85 861//85
f 842//85 717//85 843//85
f 636//85 869//85 870//85
f 636//85 870//85 635//85
f 917//85 827//85 916//85
f 917//85 828//85 827//85
f 637//85 865//85 866//85
f 637//85 866//85 867//85
f 637//85 867//85 868//85
f 637//85 868//85 869//85
f 637//85 869//85 636//85
f 941//85 862//85 863//85
f 941//85 863//85 864//85
f 941//85 942//85 862//85
f 918//85 828//85 917//85
f 918//85 829//85 828//85
f 940//85 864//85 865//85
f 940//85 941//85 864//85
f 919//85 829//85 918//85
f 919//85 830//85 829//85
f 939//85 940//85 865//85
f 939//85 865//85 637//85
f 920//85 831//85 830//85
f 920//85 830//85 919//85
f 643//85 832//85 831//85
f 643//85 833//85 832//85
f 643//85 834//85 833//85
f 643//85 835//85 834//85
f 643//85 836//85 835//85
f 643//85 837//85 836//85
f 643//85 838//85 837//85
f 643//85 839//85 838//85
f 643//85 840//85 839//85
f 643//85 831//85 920//85
f 938//85 939//85 637//85
f 921//85 643//85 920//85
f 937//85 938//85 637//85
f 922//85 643//85 921//85
f 936//85 937//85 637//85
f 935//85 936//85 637//85
f 934//85 935//85 637//85
f 642//85 841//85 840//85
f 642//85 842//85 841//85
f 642//85 717//85 842//85
f 642//85 840//85 643//85
f 642//85 778//85 716//85
f 642//85 641//85 778//85
f 642//85 716//85 717//85
f 822//85 926//85 927//85
f 821//85 926//85 822//85
f 821//85 925//85 926//85
f 823//85 822//85 927//85
f 823//85 927//85 928//85
f 820//85 925//85 821//85
f 820//85 924//85 925//85
f 824//85 823//85 928//85
f 819//85 924//85 820//85
f 819//85 923//85 924//85
f 799//85 824//85 928//85
f 799//85 928//85 929//85
f 818//85 923//85 819//85
f 818//85 922//85 923//85
f 800//85 799//85 929//85
f 800//85 929//85 930//85
f 817//85 643//85 922//85
f 817//85 922//85 818//85
f 645//85 931//85 932//85
f 645//85 932//85 933//85
f 645//85 933//85 934//85
f 645//85 934//85 637//85
f 645//85 801//85 800//85
f 645//85 802//85 801//85
f 645//85 803//85 802//85
f 645//85 804//85 803//85
f 645//85 800//85 930//85
f 645//85 930//85 931//85
f 644//85 813//85 812//85
f 644//85 643//85 817//85
f 644//85 814//85 813//85
f 644//85 815//85 814//85
f 644//85 816//85 815//85
f 644//85 817//85 816//85
f 652//85 644//85 812//85
f 652//85 812//85 811//85
f 646//85 804//85 645//85
f 646//85 805//85 804//85
f 651//85 652//85 811//85
f 651//85 811//85 810//85
f 647//85 805//85 646//85
f 647//85 806//85 805//85
f 650//85 651//85 810//85
f 650//85 809//85 808//85
f 650//85 810//85 809//85
f 648//85 806//85 647//85
f 648//85 807//85 806//85
f 649//85 650//85 808//85
f 649//85 807//85 648//85
f 649//85 808//85 807//85
f 946//86 947//86 948//86
f 946//86 948//86 945//86
f 950//87 951//87 952//87
f 950//87 952//87 949//87
f 955//88 953//88 954//88
f 955//88 954//88 956//88
f 959//88 958//88 957//88
f 959//88 960//88 958//88
f 964//89 962//89 961//89
f 963//89 962//89 964//89
f 967//90 966//90 965//90
f 967//90 965//90 968//90
f 969//91 978//91 986//92
f 970//93 986//92 985//94
f 970//95 969//91 986//92
f 971//96 985//97 984//98
f 971//96 970//93 985//97
f 972//99 984//98 983//100
f 972//101 971//96 984//98
f 973//102 983//100 982//103
f 973//102 972//99 983//100
f 974//104 982//103 981//105
f 974//104 973//102 982//103
f 975//106 981//105 980//107
f 975//108 974//104 981//105
f 976//107 975//106 980//107
f 977//109 980//107 979//109
f 977//109 976//107 980//107
f 997//110 995//110 994//111
f 998//112 994//111 993//113
f 998//112 997//110 994//111
f 999//114 993//113 992//115
f 999//114 998//112 993//113
f 1000//116 992//115 991//117
f 1000//116 999//114 992//115
f 1001//118 991//117 990//119
f 1001//118 1000//116 991//117
f 1002//119 1001//118 990//119
f 1003//120 989//120 988//121
f 1003//120 990//119 989//120
f 1003//120 1002//119 990//119
f 1004//122 988//121 987//123
f 1004//122 1003//120 988//121
f 996//123 1004//122 987//123
f 1006//124 1027//125 1005//125
f 1006//124 1028//126 1027//125
f 1007//127 1029//128 1028//126
f 1007//127 1028//126 1006//124
f 1008//129 1030//129 1029//128
f 1008//129 1031//130 1030//129
f 1008//129 1029//128 1007//127
f 1009//130 1031//130 1008//129
f 1010//131 1032//131 1031//130
f 1010//132 1033//133 1032//132
f 1010//131 1031//130 1009//130
f 1011//133 1033//133 1010//132
f 1012//134 1034//134 1033//133
f 1012//134 1035//135 1034//134
f 1012//134 1033//133 1011//133
f 1013//135 1035//135 1012//134
f 1014//136 1036//137 1035//138
f 1014//136 1035//138 1013//138
f 1015//139 1037//139 1036//137
f 1015//139 1038//140 1037//139
f 1015//139 1036//137 1014//136
f 1016//140 1038//140 1015//139
f 1017//141 1039//141 1038//140
f 1017//141 1040//142 1039//141
f 1017//141 1038//140 1016//140
f 1018//142 1040//142 1017//141
f 1019//143 1040//144 1018//144
f 1019//143 1041//145 1040//144
f 1020//146 1041//145 1019//143
f 1020//146 1042//147 1041//145
f 1021//148 1042//147 1020//149
f 1021//148 1043//150 1042//147
f 1022//151 1043//152 1021//148
f 1022//151 1044//153 1043//152
f 1023//154 1044//155 1022//151
f 1023//154 1045//156 1044//155
f 1024//157 1045//158 1023//159
f 1024//157 1046//160 1045//158
f 1025//161 1046//160 1024//157
f 1025//161 1047//162 1046//160
f 1026//163 1047//162 1025//161
f 1026//163 1048//163 1047//162
f 1050//86 1051//86 1049//86
f 1050//86 1052//86 1051//86
f 1054//164 1067//165 1053//165
f 1054//164 1068//166 1067//165
f 1055//167 1069//168 1068//166
f 1055//167 1070//169 1069//167
f 1055//168 1068//166 1054//164
f 1056//169 1070//169 1055//167
f 1057//170 1071//171 1070//169
f 1057//170 1070//169 1056//169
f 1058//172 1072//172 1071//171
f 1058//172 1073//173 1072//172
f 1058//172 1071//171 1057//170
f 1059//174 1073//174 1058//172
f 1060//175 1074//176 1073//174
f 1060//175 1073//174 1059//174
f 1061//177 1075//178 1074//176
f 1061//177 1074//176 1060//175
f 1062//179 1076//180 1075//178
f 1062//179 1075//178 1061//177
f 1063//181 1077//181 1076//180
f 1063//181 1078//182 1077//181
f 1063//181 1076//180 1062//179
f 1064//183 1079//184 1078//182
f 1064//183 1078//182 1063//181
f 1065//184 1079//184 1064//183
f 1066//185 1080//185 1079//184
f 1066//185 1079//184 1065//184
f 1082//164 1095//165 1081//165
f 1082//164 1096//166 1095//165
f 1083//167 1097//168 1096//166
f 1083//167 1098//169 1097//167
f 1083//168 1096//166 1082//164
f 1084//169 1098//169 1083//167
f 1085//170 1099//171 1098//169
f 1085//170 1098//169 1084//169
f 1086//172 1100//172 1099//171
f 1086//172 1101//173 1100//172
f 1086//172 1099//171 1085//170
f 1087//173 1101//173 1086//172
f 1088//175 1102//176 1101//174
f 1088//175 1101//174 1087//174
f 1089//177 1103//178 1102//176
f 1089//177 1102//176 1088//175
f 1090//179 1104//180 1103//178
f 1090//179 1103//178 1089//177
f 1091//181 1105//181 1104//180
f 1091//181 1106//182 1105//181
f 1091//181 1104//180 1090//179
f 1092//183 1107//184 1106//182
f 1092//186 1106//182 1091//181
f 1093//184 1107//184 1092//183
f 1094//185 1108//185 1107//184
f 1094//185 1107//184 1093//184
f 1121//187 1123//165 1122//165
f 1121//187 1135//167 1136//187
f 1121//187 1136//187 1123//165
f 1120//168 1135//168 1121//187
f 1119//169 1133//188 1134//169
f 1119//169 1134//169 1135//167
f 1119//169 1135//167 1120//167
f 1118//188 1133//188 1119//169
f 1117//189 1132//190 1133//188
f 1117//189 1133//188 1118//188
f 1116//191 1131//192 1132//190
f 1116//191 1132//190 1117//189
f 1115//175 1130//176 1131//192
f 1115//175 1131//192 1116//191
f 1114//177 1129//178 1130//176
f 1114//177 1130//176 1115//175
f 1113//193 1127//194 1128//193
f 1113//193 1128//193 1129//178
f 1113//193 1129//178 1114//177
f 1112//195 1126//196 1127//197
f 1112//195 1127//194 1113//193
f 1111//196 1126//196 1112//195
f 1110//184 1124//185 1125//184
f 1110//184 1125//184 1126//196
f 1110//184 1126//198 1111//198
f 1109//185 1124//185 1110//184
f 1149//187 1151//165 1150//165
f 1149//187 1163//167 1164//187
f 1149//187 1164//187 1151//165
f 1148//168 1163//168 1149//187
f 1147//169 1161//188 1162//169
f 1147//169 1162//169 1163//167
f 1147//169 1163//167 1148//167
f 1146//188 1161//188 1147//169
f 1145//189 1160//190 1161//188
f 1145//189 1161//188 1146//188
f 1144//191 1159//192 1160//190
f 1144//191 1160//190 1145//189
f 1143//175 1158//176 1159//192
f 1143//175 1159//192 1144//191
f 1142//177 1157//178 1158//176
f 1142//177 1158//176 1143//175
f 1141//193 1155//194 1156//193
f 1141//193 1156//193 1157//178
f 1141//193 1157//178 1142//177
f 1140//195 1154//196 1155//197
f 1140//195 1155//194 1141//193
f 1139//196 1154//196 1140//195
f 1138//184 1152//185 1153//184
f 1138//184 1153//184 1154//196
f 1138//184 1154//198 1139//198
f 1137//185 1152//185 1138//184
f 1166//124 1187//125 1165//125
f 1166//124 1188//126 1187//125
f 1167//127 1189//128 1188//126
f 1167//127 1188//126 1166//124
f 1168//129 1190//129 1189//128
f 1168//129 1191//130 1190//129
f 1168//129 1189//128 1167//127
f 1169//130 1191//130 1168//129
f 1170//131 1192//131 1191//130
f 1170//132 1193//133 1192//132
f 1170//131 1191//130 1169//130
f 1171//133 1193//133 1170//132
f 1172//134 1194//134 1193//133
f 1172//134 1195//135 1194//134
f 1172//134 1193//133 1171//133
f 1173//135 1195//135 1172//134
f 1174//136 1196//137 1195//138
f 1174//136 1195//138 1173//138
f 1175//139 1197//139 1196//137
f 1175//139 1198//140 1197//139
f 1175//139 1196//137 1174//136
f 1176//140 1198//140 1175//139
f 1177//141 1199//141 1198//140
f 1177//141 1200//142 1199//141
f 1177//141 1198//140 1176//140
f 1178//142 1200//142 1177//141
f 1179//143 1200//144 1178//144
f 1179//199 1201//145 1200//144
f 1180//146 1201//145 1179//143
f 1180//146 1202//147 1201//145
f 1181//148 1202//147 1180//149
f 1181//148 1203//150 1202//147
f 1182//151 1203//152 1181//148
f 1182//151 1204//153 1203//152
f 1183//154 1204//155 1182//151
f 1183//154 1205//156 1204//155
f 1184//157 1205//158 1183//159
f 1184//157 1206//160 1205//158
f 1185//161 1206//160 1184//157
f 1185//161 1207//162 1206//160
f 1186//163 1207//162 1185//161
f 1186//163 1208//163 1207//162
f 1210//164 1223//165 1209//165
f 1210//164 1224//166 1223//165
f 1211//168 1225//168 1224//166
f 1211//168 1226//169 1225//168
f 1211//168 1224//166 1210//164
f 1212//169 1226//169 1211//167
f 1213//170 1227//171 1226//169
f 1213//170 1226//169 1212//169
f 1214//172 1228//172 1227//171
f 1214//172 1229//173 1228//172
f 1214//172 1227//171 1213//170
f 1215//173 1229//173 1214//172
f 1216//175 1230//176 1229//174
f 1216//175 1229//174 1215//174
f 1217//177 1231//178 1230//176
f 1217//177 1230//176 1216//175
f 1218//179 1232//180 1231//178
f 1218//179 1231//178 1217//177
f 1219//181 1233//181 1232//180
f 1219//181 1234//182 1233//181
f 1219//181 1232//180 1218//179
f 1220//183 1235//184 1234//182
f 1220//183 1234//182 1219//181
f 1221//184 1235//184 1220//183
f 1222//185 1236//185 1235//184
f 1222//185 1235//184 1221//184
f 1238//164 1251//165 1237//165
f 1238//200 1252//166 1251//165
f 1239//168 1253//168 1252//166
f 1239//167 1254//169 1253//167
f 1239//167 1252//166 1238//200
f 1240//169 1254//169 1239//167
f 1241//201 1255//171 1254//169
f 1241//170 1254//169 1240//169
f 1242//172 1256//172 1255//171
f 1242//172 1257//174 1256//172
f 1242//172 1255//171 1241//201
f 1243//173 1257//173 1242//172
f 1244//175 1258//176 1257//174
f 1244//175 1257//174 1243//174
f 1245//177 1259//178 1258//176
f 1245//177 1258//176 1244//175
f 1246//179 1260//202 1259//178
f 1246//179 1259//178 1245//177
f 1247//181 1261//181 1260//202
f 1247//181 1262//182 1261//181
f 1247//181 1260//180 1246//179
f 1248//186 1263//184 1262//182
f 1248//183 1262//182 1247//181
f 1249//184 1263//184 1248//183
f 1250//203 1264//203 1263//184
f 1250//185 1263//184 1249//184
f 1266//164 1279//165 1265//165
f 1266//200 1280//166 1279//165
f 1267//167 1281//167 1280//166
f 1267//167 1282//169 1281//167
f 1267//167 1280//166 1266//200
f 1268//169 1282//169 1267//167
f 1269//201 1283//171 1282//169
f 1269//170 1282//169 1268//169
f 1270//172 1284//172 1283//171
f 1270//172 1285//174 1284//172
f 1270//172 1283//171 1269//201
f 1271//173 1285//173 1270//172
f 1272//175 1286//176 1285//174
f 1272//175 1285//174 1271//174
f 1273//177 1287//178 1286//176
f 1273//177 1286//176 1272//175
f 1274//179 1288//202 1287//178
f 1274//179 1287//178 1273//177
f 1275//181 1289//181 1288//202
f 1275//181 1290//182 1289//181
f 1275//181 1288//180 1274//179
f 1276//186 1291//184 1290//182
f 1276//183 1290//182 1275//181
f 1277//184 1291//184 1276//183
f 1278//203 1292//203 1291//184
f 1278//185 1291//184 1277//184
f 1294//164 1307//165 1293//165
f 1294//164 1308//166 1307//165
f 1295//168 1309//168 1308//166
f 1295//168 1310//169 1309//168
f 1295//168 1308//166 1294//164
f 1296//169 1310//169 1295//167
f 1297//170 1311//171 1310//169
f 1297//170 1310//169 1296//169
f 1298//172 1312//172 1311//171
f 1298//172 1313//173 1312//172
f 1298//172 1311//171 1297//170
f 1299//173 1313//173 1298//172
f 1300//175 1314//176 1313//174
f 1300//175 1313//174 1299//174
f 1301//177 1315//178 1314//176
f 1301//177 1314//176 1300//175
f 1302//179 1316//180 1315//178
f 1302//179 1315//178 1301//177
f 1303//181 1317//181 1316//180
f 1303//181 1318//182 1317//181
f 1303//181 1316//180 1302//179
f 1304//183 1319//184 1318//182
f 1304//183 1318//182 1303//181
f 1305//184 1319//184 1304//183
f 1306//185 1320//185 1319//184
f 1306//185 1319//184 1305//184
f 1323//204 1321//204 1322//204
f 1323//204 1322//204 1324//204
