# Blender 4.0.2
# www.blender.org
mtllib RA_base.mtl
o RA_base
v -0.150000 -0.000000 0.161500
v -0.149514 -0.012070 0.161500
v -0.148058 -0.024062 0.161500
v -0.145641 -0.035897 0.161500
v -0.142280 -0.047500 0.161500
v -0.137997 -0.058795 0.161500
v -0.132818 -0.069708 0.161500
v -0.126778 -0.080170 0.161500
v -0.119916 -0.090111 0.161500
v -0.112277 -0.099468 0.161500
v -0.103909 -0.108180 0.161500
v -0.094867 -0.116191 0.161500
v -0.085210 -0.123448 0.161500
v -0.075000 -0.129904 0.161500
v -0.064304 -0.135518 0.161500
v -0.053191 -0.140252 0.161500
v -0.041733 -0.144078 0.161500
v -0.030004 -0.146969 0.161500
v -0.018080 -0.148906 0.161500
v -0.006040 -0.149878 0.161500
v 0.006040 -0.149878 0.161500
v 0.018081 -0.148906 0.161500
v 0.030004 -0.146969 0.161500
v 0.041733 -0.144078 0.161500
v 0.053191 -0.140252 0.161500
v 0.064304 -0.135518 0.161500
v 0.075000 -0.129904 0.161500
v 0.085210 -0.123448 0.161500
v 0.094867 -0.116191 0.161500
v 0.103909 -0.108180 0.161500
v 0.112277 -0.099468 0.161500
v 0.119916 -0.090111 0.161500
v 0.126779 -0.080170 0.161500
v 0.132818 -0.069708 0.161500
v 0.137997 -0.058795 0.161500
v 0.142280 -0.047500 0.161500
v 0.145641 -0.035897 0.161500
v 0.148058 -0.024062 0.161500
v 0.149514 -0.012070 0.161500
v 0.150000 0.000000 0.161500
v -0.150000 -0.000000 0.000000
v -0.149514 -0.012070 0.000000
v -0.148058 -0.024062 0.000000
v -0.145641 -0.035897 0.000000
v -0.142280 -0.047500 0.000000
v -0.137997 -0.058795 0.000000
v -0.132818 -0.069708 0.000000
v -0.126779 -0.080170 0.000000
v -0.119916 -0.090111 0.000000
v -0.112277 -0.099468 0.000000
v -0.103909 -0.108180 0.000000
v -0.094867 -0.116191 0.000000
v -0.085210 -0.123448 0.000000
v -0.075000 -0.129904 0.000000
v -0.064304 -0.135518 0.000000
v -0.053191 -0.140252 0.000000
v -0.041733 -0.144078 0.000000
v -0.030004 -0.146969 0.000000
v -0.018081 -0.148906 0.000000
v -0.006040 -0.149878 0.000000
v 0.006040 -0.149878 -0.000000
v 0.018081 -0.148906 -0.000000
v 0.030004 -0.146969 -0.000000
v 0.041733 -0.144078 -0.000000
v 0.053191 -0.140252 -0.000000
v 0.064304 -0.135518 -0.000000
v 0.075000 -0.129904 -0.000000
v 0.085210 -0.123448 -0.000000
v 0.094867 -0.116191 -0.000000
v 0.103909 -0.108180 -0.000000
v 0.112277 -0.099468 -0.000000
v 0.119916 -0.090111 -0.000000
v 0.126779 -0.080170 -0.000000
v 0.132818 -0.069708 -0.000000
v 0.137997 -0.058795 -0.000000
v 0.142280 -0.047500 -0.000000
v 0.145641 -0.035897 -0.000000
v 0.148058 -0.024062 -0.000000
v 0.149514 -0.012070 -0.000000
v 0.150000 0.000000 -0.000000
v -0.150000 -0.000000 0.161500
v -0.150000 -0.000000 0.000000
v 0.150000 0.000000 0.161500
v 0.149514 0.012070 0.161500
v 0.148058 0.024062 0.161500
v 0.145641 0.035897 0.161500
v 0.142280 0.047500 0.161500
v 0.137997 0.058795 0.161500
v 0.132818 0.069708 0.161500
v 0.126779 0.080170 0.161500
v 0.119916 0.090111 0.161500
v 0.112277 0.099468 0.161500
v 0.103909 0.108180 0.161500
v 0.094867 0.116191 0.161500
v 0.085210 0.123448 0.161500
v 0.075000 0.129904 0.161500
v 0.064304 0.135518 0.161500
v 0.053191 0.140252 0.161500
v 0.041733 0.144078 0.161500
v 0.030004 0.146969 0.161500
v 0.018081 0.148906 0.161500
v 0.006040 0.149878 0.161500
v -0.006040 0.149878 0.161500
v -0.018080 0.148906 0.161500
v -0.030004 0.146969 0.161500
v -0.041733 0.144078 0.161500
v -0.053191 0.140252 0.161500
v -0.064304 0.135518 0.161500
v -0.075000 0.129904 0.161500
v -0.085210 0.123448 0.161500
v -0.094867 0.116191 0.161500
v -0.103909 0.108180 0.161500
v -0.112277 0.099468 0.161500
v -0.119916 0.090111 0.161500
v -0.126778 0.080170 0.161500
v -0.132818 0.069708 0.161500
v -0.137997 0.058795 0.161500
v -0.142280 0.047500 0.161500
v -0.145641 0.035897 0.161500
v -0.148058 0.024062 0.161500
v -0.149514 0.012070 0.161500
v 0.150000 0.000000 -0.000000
v 0.149514 0.012070 -0.000000
v 0.148058 0.024062 -0.000000
v 0.145641 0.035897 -0.000000
v 0.142280 0.047500 -0.000000
v 0.137997 0.058795 -0.000000
v 0.132818 0.069708 -0.000000
v 0.126779 0.080170 -0.000000
v 0.119916 0.090111 -0.000000
v 0.112277 0.099468 -0.000000
v 0.103909 0.108180 -0.000000
v 0.094867 0.116191 -0.000000
v 0.085210 0.123448 -0.000000
v 0.075000 0.129904 -0.000000
v 0.064304 0.135518 -0.000000
v 0.053191 0.140252 -0.000000
v 0.041733 0.144078 -0.000000
v 0.030004 0.146969 -0.000000
v 0.018081 0.148906 -0.000000
v 0.006040 0.149878 -0.000000
v -0.006040 0.149878 0.000000
v -0.018081 0.148906 0.000000
v -0.030004 0.146969 0.000000
v -0.041733 0.144078 0.000000
v -0.053191 0.140252 0.000000
v -0.064304 0.135518 0.000000
v -0.075000 0.129904 0.000000
v -0.085210 0.123448 0.000000
v -0.094867 0.116191 0.000000
v -0.103909 0.108180 0.000000
v -0.112277 0.099468 0.000000
v -0.119916 0.090111 0.000000
v -0.126779 0.080170 0.000000
v -0.132818 0.069708 0.000000
v -0.137997 0.058795 0.000000
v -0.142280 0.047500 0.000000
v -0.145641 0.035897 0.000000
v -0.148058 0.024062 0.000000
v -0.149514 0.012070 0.000000
v 0.150000 0.000000 0.161500
v 0.149514 0.012070 0.161500
v 0.148058 0.024062 0.161500
v 0.145641 0.035897 0.161500
v 0.142280 0.047500 0.161500
v 0.137997 0.058795 0.161500
v 0.132818 0.069708 0.161500
v 0.126779 0.080170 0.161500
v 0.119916 0.090111 0.161500
v 0.112277 0.099468 0.161500
v 0.103909 0.108180 0.161500
v 0.094867 0.116191 0.161500
v 0.085210 0.123448 0.161500
v 0.075000 0.129904 0.161500
v 0.064304 0.135518 0.161500
v 0.053191 0.140252 0.161500
v 0.041733 0.144078 0.161500
v 0.030004 0.146969 0.161500
v 0.018081 0.148906 0.161500
v 0.006040 0.149878 0.161500
v -0.006040 0.149878 0.161500
v -0.018080 0.148906 0.161500
v -0.030004 0.146969 0.161500
v -0.041733 0.144078 0.161500
v -0.053191 0.140252 0.161500
v -0.064304 0.135518 0.161500
v -0.075000 0.129904 0.161500
v -0.085210 0.123448 0.161500
v -0.094867 0.116191 0.161500
v -0.103909 0.108180 0.161500
v -0.112277 0.099468 0.161500
v -0.119916 0.090111 0.161500
v -0.126778 0.080170 0.161500
v -0.132818 0.069708 0.161500
v -0.137997 0.058795 0.161500
v -0.142280 0.047500 0.161500
v -0.145641 0.035897 0.161500
v -0.148058 0.024062 0.161500
v -0.149514 0.012070 0.161500
v -0.150000 -0.000000 0.161500
v -0.149514 -0.012070 0.161500
v -0.148058 -0.024062 0.161500
v -0.145641 -0.035897 0.161500
v -0.142280 -0.047500 0.161500
v -0.137997 -0.058795 0.161500
v -0.132818 -0.069708 0.161500
v -0.126778 -0.080170 0.161500
v -0.119916 -0.090111 0.161500
v -0.112277 -0.099468 0.161500
v -0.103909 -0.108180 0.161500
v -0.094867 -0.116191 0.161500
v -0.085210 -0.123448 0.161500
v -0.075000 -0.129904 0.161500
v -0.064304 -0.135518 0.161500
v -0.053191 -0.140252 0.161500
v -0.041733 -0.144078 0.161500
v -0.030004 -0.146969 0.161500
v -0.018080 -0.148906 0.161500
v -0.006040 -0.149878 0.161500
v 0.006040 -0.149878 0.161500
v 0.018081 -0.148906 0.161500
v 0.030004 -0.146969 0.161500
v 0.041733 -0.144078 0.161500
v 0.053191 -0.140252 0.161500
v 0.064304 -0.135518 0.161500
v 0.075000 -0.129904 0.161500
v 0.085210 -0.123448 0.161500
v 0.094867 -0.116191 0.161500
v 0.103909 -0.108180 0.161500
v 0.112277 -0.099468 0.161500
v 0.119916 -0.090111 0.161500
v 0.126779 -0.080170 0.161500
v 0.132818 -0.069708 0.161500
v 0.137997 -0.058795 0.161500
v 0.142280 -0.047500 0.161500
v 0.145641 -0.035897 0.161500
v 0.148058 -0.024062 0.161500
v 0.149514 -0.012070 0.161500
v -0.150000 -0.000000 0.000000
v -0.149514 -0.012070 0.000000
v -0.148058 -0.024062 0.000000
v -0.145641 -0.035897 0.000000
v -0.142280 -0.047500 0.000000
v -0.137997 -0.058795 0.000000
v -0.132818 -0.069708 0.000000
v -0.126779 -0.080170 0.000000
v -0.119916 -0.090111 0.000000
v -0.112277 -0.099468 0.000000
v -0.103909 -0.108180 0.000000
v -0.094867 -0.116191 0.000000
v -0.085210 -0.123448 0.000000
v -0.075000 -0.129904 0.000000
v -0.064304 -0.135518 0.000000
v -0.053191 -0.140252 0.000000
v -0.041733 -0.144078 0.000000
v -0.030004 -0.146969 0.000000
v -0.018081 -0.148906 0.000000
v -0.006040 -0.149878 0.000000
v 0.006040 -0.149878 -0.000000
v 0.018081 -0.148906 -0.000000
v 0.030004 -0.146969 -0.000000
v 0.041733 -0.144078 -0.000000
v 0.053191 -0.140252 -0.000000
v 0.064304 -0.135518 -0.000000
v 0.075000 -0.129904 -0.000000
v 0.085210 -0.123448 -0.000000
v 0.094867 -0.116191 -0.000000
v 0.103909 -0.108180 -0.000000
v 0.112277 -0.099468 -0.000000
v 0.119916 -0.090111 -0.000000
v 0.126779 -0.080170 -0.000000
v 0.132818 -0.069708 -0.000000
v 0.137997 -0.058795 -0.000000
v 0.142280 -0.047500 -0.000000
v 0.145641 -0.035897 -0.000000
v 0.148058 -0.024062 -0.000000
v 0.149514 -0.012070 -0.000000
v 0.150000 0.000000 -0.000000
v 0.149514 0.012070 -0.000000
v 0.148058 0.024062 -0.000000
v 0.145641 0.035897 -0.000000
v 0.142280 0.047500 -0.000000
v 0.137997 0.058795 -0.000000
v 0.132818 0.069708 -0.000000
v 0.126779 0.080170 -0.000000
v 0.119916 0.090111 -0.000000
v 0.112277 0.099468 -0.000000
v 0.103909 0.108180 -0.000000
v 0.094867 0.116191 -0.000000
v 0.085210 0.123448 -0.000000
v 0.075000 0.129904 -0.000000
v 0.064304 0.135518 -0.000000
v 0.053191 0.140252 -0.000000
v 0.041733 0.144078 -0.000000
v 0.030004 0.146969 -0.000000
v 0.018081 0.148906 -0.000000
v 0.006040 0.149878 -0.000000
v -0.006040 0.149878 0.000000
v -0.018081 0.148906 0.000000
v -0.030004 0.146969 0.000000
v -0.041733 0.144078 0.000000
v -0.053191 0.140252 0.000000
v -0.064304 0.135518 0.000000
v -0.075000 0.129904 0.000000
v -0.085210 0.123448 0.000000
v -0.094867 0.116191 0.000000
v -0.103909 0.108180 0.000000
v -0.112277 0.099468 0.000000
v -0.119916 0.090111 0.000000
v -0.126779 0.080170 0.000000
v -0.132818 0.069708 0.000000
v -0.137997 0.058795 0.000000
v -0.142280 0.047500 0.000000
v -0.145641 0.035897 0.000000
v -0.148058 0.024062 0.000000
v -0.149514 0.012070 0.000000
vn 0.9992 -0.0403 -0.0000
vn 0.9977 -0.0671 -0.0000
vn 0.9956 -0.0938 -0.0000
vn 0.9871 -0.1604 -0.0000
vn 0.9741 -0.2263 -0.0000
vn 0.9870 -0.1604 -0.0000
vn 0.9676 -0.2523 -0.0000
vn 0.9485 -0.3167 -0.0000
vn 0.9200 -0.3920 -0.0000
vn 0.8916 -0.4528 -0.0000
vn 0.8791 -0.4766 -0.0000
vn 0.8452 -0.5345 -0.0000
vn 0.7994 -0.6007 -0.0000
vn 0.7573 -0.6530 -0.0000
vn 0.7395 -0.6731 -0.0000
vn 0.7023 -0.7118 -0.0000
vn 0.6830 -0.7304 -0.0000
vn 0.6428 -0.7660 -0.0000
vn 0.6220 -0.7830 -0.0000
vn 0.5681 -0.8230 -0.0000
vn 0.5000 -0.8660 -0.0000
vn 0.6428 -0.7661 -0.0000
vn 0.4408 -0.8976 -0.0000
vn 0.4165 -0.9091 -0.0000
vn 0.3671 -0.9302 -0.0000
vn 0.3420 -0.9397 -0.0000
vn 0.2911 -0.9567 -0.0000
vn 0.2653 -0.9642 -0.0000
vn 0.2132 -0.9770 -0.0000
vn 0.1869 -0.9824 -0.0000
vn 0.1205 -0.9927 -0.0000
vn 0.0403 -0.9992 -0.0000
vn 0.1868 -0.9824 -0.0000
vn -0.0268 -0.9996 -0.0000
vn -0.0537 -0.9986 -0.0000
vn -0.1205 -0.9927 -0.0000
vn -0.2000 -0.9798 -0.0000
vn -0.0269 -0.9996 -0.0000
vn -0.2653 -0.9642 -0.0000
vn -0.2911 -0.9567 -0.0000
vn -0.3546 -0.9350 -0.0000
vn -0.4287 -0.9035 -0.0000
vn -0.4883 -0.8727 -0.0000
vn -0.4287 -0.9034 -0.0000
vn -0.5116 -0.8592 -0.0000
vn -0.5681 -0.8230 -0.0000
vn -0.6324 -0.7746 -0.0000
vn -0.6927 -0.7212 -0.0000
vn -0.7395 -0.6731 -0.0000
vn -0.6325 -0.7746 -0.0000
vn -0.7573 -0.6530 -0.0000
vn -0.7994 -0.6007 -0.0000
vn -0.8379 -0.5458 -0.0000
vn -0.8523 -0.5231 -0.0000
vn -0.8855 -0.4647 -0.0000
vn -0.9200 -0.3920 -0.0000
vn -0.9485 -0.3167 -0.0000
vn -0.9709 -0.2393 -0.0000
vn -0.9871 -0.1604 -0.0000
vn -0.9956 -0.0938 -0.0000
vn -0.9870 -0.1604 -0.0000
vn -0.9977 -0.0671 -0.0000
vn -0.9992 -0.0403 -0.0000
vn -0.9968 0.0805 -0.0000
vn -0.9992 0.0403 -0.0000
vn -0.9871 0.1604 -0.0000
vn -0.9709 0.2393 -0.0000
vn -0.9485 0.3167 -0.0000
vn -0.9870 0.1604 -0.0000
vn -0.9200 0.3920 -0.0000
vn -0.8855 0.4647 -0.0000
vn -0.8523 0.5231 -0.0000
vn -0.8379 0.5458 -0.0000
vn -0.7994 0.6007 -0.0000
vn -0.7485 0.6631 -0.0000
vn -0.7023 0.7118 -0.0000
vn -0.6830 0.7304 -0.0000
vn -0.6428 0.7660 -0.0000
vn -0.6220 0.7830 -0.0000
vn -0.5791 0.8153 -0.0000
vn -0.5570 0.8305 -0.0000
vn -0.6428 0.7661 -0.0000
vn -0.5116 0.8592 -0.0000
vn -0.4883 0.8727 -0.0000
vn -0.4287 0.9035 -0.0000
vn -0.3546 0.9350 -0.0000
vn -0.4287 0.9034 -0.0000
vn -0.2911 0.9567 -0.0000
vn -0.2653 0.9642 -0.0000
vn -0.2132 0.9770 -0.0000
vn -0.1869 0.9824 -0.0000
vn -0.1339 0.9910 -0.0000
vn -0.1868 0.9824 -0.0000
vn -0.1072 0.9942 -0.0000
vn -0.0537 0.9986 -0.0000
vn -0.0269 0.9996 -0.0000
vn -0.1338 0.9910 -0.0000
vn 0.0268 0.9996 -0.0000
vn -0.0268 0.9996 -0.0000
vn 0.0537 0.9986 -0.0000
vn 0.1072 0.9942 -0.0000
vn 0.1338 0.9910 -0.0000
vn 0.0269 0.9996 -0.0000
vn 0.1868 0.9824 -0.0000
vn 0.1339 0.9910 -0.0000
vn 0.2132 0.9770 -0.0000
vn 0.2653 0.9642 -0.0000
vn 0.2911 0.9567 -0.0000
vn 0.1869 0.9824 -0.0000
vn 0.3420 0.9397 -0.0000
vn 0.3671 0.9302 -0.0000
vn 0.4165 0.9091 -0.0000
vn 0.4408 0.8976 -0.0000
vn 0.4883 0.8727 -0.0000
vn 0.5116 0.8592 -0.0000
vn 0.5570 0.8305 -0.0000
vn 0.5791 0.8153 -0.0000
vn 0.6220 0.7830 -0.0000
vn 0.6428 0.7661 -0.0000
vn 0.6927 0.7212 -0.0000
vn 0.7485 0.6631 -0.0000
vn 0.6428 0.7660 -0.0000
vn 0.7913 0.6114 -0.0000
vn 0.8074 0.5900 -0.0000
vn 0.8452 0.5345 -0.0000
vn 0.8855 0.4647 -0.0000
vn 0.9146 0.4043 -0.0000
vn 0.9252 0.3796 -0.0000
vn 0.9442 0.3294 -0.0000
vn 0.9527 0.3039 -0.0000
vn 0.9676 0.2523 -0.0000
vn 0.9741 0.2263 -0.0000
vn 0.9871 0.1604 -0.0000
vn 0.9968 0.0805 -0.0000
vn 0.9870 0.1604 -0.0000
vn 0.9992 0.0403 -0.0000
vn -0.0000 -0.0000 1.0000
vn -0.0000 -0.0000 -1.0000
s 0
usemtl material18
f 80//1 40//1 39//2
f 79//3 39//2 38//4
f 79//3 80//1 39//2
f 78//4 79//3 38//4
f 77//5 38//6 37//7
f 77//5 78//6 38//6
f 76//8 36//8 35//9
f 76//8 37//7 36//8
f 76//8 77//5 37//7
f 75//9 76//8 35//9
f 74//10 75//9 35//9
f 74//10 35//9 34//11
f 73//12 74//10 34//11
f 73//12 33//12 32//13
f 73//12 34//11 33//12
f 72//13 73//12 32//13
f 71//14 72//13 32//13
f 71//14 32//13 31//15
f 70//16 71//14 31//15
f 70//16 31//15 30//17
f 69//18 30//17 29//19
f 69//18 70//16 30//17
f 68//20 28//20 27//21
f 68//20 29//19 28//20
f 68//20 69//22 29//19
f 67//21 68//20 27//21
f 66//23 27//21 26//24
f 66//23 67//21 27//21
f 65//25 26//24 25//26
f 65//25 66//23 26//24
f 64//27 25//26 24//28
f 64//27 65//25 25//26
f 63//29 24//28 23//30
f 63//29 64//27 24//28
f 62//31 22//31 21//32
f 62//31 23//33 22//31
f 62//31 63//29 23//33
f 61//32 62//31 21//32
f 60//34 21//32 20//35
f 60//34 61//32 21//32
f 59//36 19//36 18//37
f 59//36 20//35 19//36
f 59//36 60//38 20//35
f 58//37 59//36 18//37
f 57//39 18//37 17//40
f 57//39 58//37 18//37
f 56//41 16//41 15//42
f 56//41 17//40 16//41
f 56//41 57//39 17//40
f 55//42 56//41 15//42
f 54//43 15//44 14//45
f 54//43 55//44 15//44
f 53//46 13//46 12//47
f 53//46 14//45 13//46
f 53//46 54//43 14//45
f 52//47 53//46 12//47
f 51//48 11//48 10//49
f 51//48 12//50 11//48
f 51//48 52//50 12//50
f 50//51 10//49 9//52
f 50//51 51//48 10//49
f 49//52 50//51 9//52
f 48//53 49//52 9//52
f 48//53 9//52 8//54
f 47//55 7//55 6//56
f 47//55 8//54 7//55
f 47//55 48//53 8//54
f 46//56 47//55 6//56
f 45//57 5//57 4//58
f 45//57 6//56 5//57
f 45//57 46//56 6//56
f 44//58 45//57 4//58
f 43//59 3//59 2//60
f 43//61 4//58 3//61
f 43//61 44//58 4//58
f 42//62 2//60 1//63
f 42//62 43//59 2//60
f 41//63 42//62 1//63
f 160//64 82//65 81//65
f 160//64 121//64 120//66
f 160//64 81//65 121//64
f 159//66 160//64 120//66
f 158//67 119//67 118//68
f 158//67 120//69 119//67
f 158//67 159//69 120//69
f 157//68 158//67 118//68
f 156//70 157//68 118//68
f 156//70 117//70 116//71
f 156//70 118//68 117//70
f 155//71 156//70 116//71
f 154//72 155//71 116//71
f 154//72 116//71 115//73
f 153//74 154//72 115//73
f 153//74 114//74 113//75
f 153//74 115//73 114//74
f 152//75 153//74 113//75
f 151//76 152//75 113//75
f 151//76 113//75 112//77
f 150//78 151//76 112//77
f 150//78 112//77 111//79
f 149//80 111//79 110//81
f 149//80 150//82 111//79
f 148//83 110//81 109//84
f 148//83 149//80 110//81
f 147//85 108//85 107//86
f 147//87 109//84 108//87
f 147//87 148//83 109//84
f 146//86 147//85 107//86
f 145//88 107//86 106//89
f 145//88 146//86 107//86
f 144//90 106//89 105//91
f 144//90 145//88 106//89
f 143//92 105//93 104//94
f 143//92 144//90 105//93
f 142//95 104//94 103//96
f 142//95 143//97 104//94
f 141//98 103//99 102//100
f 141//98 142//95 103//99
f 140//101 102//100 101//102
f 140//101 141//103 102//100
f 139//104 101//105 100//106
f 139//104 140//101 101//105
f 138//107 100//106 99//108
f 138//107 139//109 100//106
f 137//110 99//108 98//111
f 137//110 138//107 99//108
f 136//112 98//111 97//113
f 136//112 137//110 98//111
f 135//114 97//113 96//115
f 135//114 136//112 97//113
f 134//116 96//115 95//117
f 134//116 135//114 96//115
f 133//118 95//117 94//119
f 133//118 134//116 95//117
f 132//120 93//120 92//121
f 132//120 94//122 93//120
f 132//120 133//118 94//122
f 131//121 132//120 92//121
f 130//123 131//121 92//121
f 130//123 92//121 91//124
f 129//125 90//125 89//126
f 129//125 91//124 90//125
f 129//125 130//123 91//124
f 128//126 129//125 89//126
f 127//127 89//126 88//128
f 127//127 128//126 89//126
f 126//129 88//128 87//130
f 126//129 127//127 88//128
f 125//131 87//130 86//132
f 125//131 126//129 87//130
f 124//133 85//133 84//134
f 124//135 86//132 85//135
f 124//135 125//131 86//132
f 123//134 124//133 84//134
f 122//136 84//134 83//136
f 122//136 123//134 84//134
f 174//137 172//137 173//137
f 175//137 169//137 170//137
f 175//137 170//137 171//137
f 175//137 171//137 172//137
f 175//137 172//137 174//137
f 165//137 166//137 167//137
f 165//137 167//137 168//137
f 163//137 164//137 165//137
f 163//137 165//137 168//137
f 179//137 175//137 176//137
f 179//137 176//137 177//137
f 179//137 177//137 178//137
f 161//137 162//137 163//137
f 238//137 168//137 169//137
f 238//137 161//137 163//137
f 238//137 163//137 168//137
f 183//137 179//137 180//137
f 183//137 180//137 181//137
f 183//137 181//137 182//137
f 185//137 175//137 179//137
f 185//137 179//137 183//137
f 185//137 183//137 184//137
f 234//137 235//137 236//137
f 186//137 175//137 185//137
f 188//137 186//137 187//137
f 231//137 232//137 233//137
f 231//137 233//137 234//137
f 189//137 186//137 188//137
f 190//137 175//137 186//137
f 190//137 186//137 189//137
f 190//137 169//137 175//137
f 192//137 190//137 191//137
f 227//137 228//137 229//137
f 227//137 229//137 230//137
f 193//137 169//137 190//137
f 193//137 190//137 192//137
f 224//137 225//137 226//137
f 224//137 226//137 227//137
f 223//137 224//137 227//137
f 197//137 194//137 195//137
f 197//137 195//137 196//137
f 220//137 221//137 222//137
f 220//137 222//137 223//137
f 220//137 223//137 227//137
f 200//137 197//137 198//137
f 200//137 198//137 199//137
f 200//137 194//137 197//137
f 202//137 238//137 169//137
f 202//137 193//137 194//137
f 202//137 234//137 236//137
f 202//137 200//137 201//137
f 202//137 169//137 193//137
f 202//137 236//137 237//137
f 202//137 237//137 238//137
f 202//137 194//137 200//137
f 217//137 218//137 219//137
f 216//137 219//137 220//137
f 216//137 217//137 219//137
f 204//137 202//137 203//137
f 215//137 227//137 230//137
f 215//137 230//137 231//137
f 215//137 220//137 227//137
f 215//137 216//137 220//137
f 206//137 202//137 204//137
f 206//137 204//137 205//137
f 213//137 214//137 215//137
f 208//137 206//137 207//137
f 211//137 213//137 215//137
f 211//137 212//137 213//137
f 210//137 202//137 206//137
f 210//137 211//137 215//137
f 210//137 215//137 231//137
f 210//137 206//137 208//137
f 210//137 208//137 209//137
f 210//137 231//137 234//137
f 210//137 234//137 202//137
f 291//138 290//138 289//138
f 292//138 287//138 286//138
f 292//138 288//138 287//138
f 292//138 289//138 288//138
f 292//138 291//138 289//138
f 282//138 284//138 283//138
f 282//138 285//138 284//138
f 280//138 285//138 282//138
f 280//138 282//138 281//138
f 296//138 293//138 292//138
f 296//138 294//138 293//138
f 296//138 295//138 294//138
f 278//138 280//138 279//138
f 277//138 280//138 278//138
f 277//138 286//138 285//138
f 277//138 285//138 280//138
f 300//138 297//138 296//138
f 300//138 298//138 297//138
f 300//138 299//138 298//138
f 302//138 296//138 292//138
f 302//138 300//138 296//138
f 302//138 301//138 300//138
f 273//138 275//138 274//138
f 303//138 302//138 292//138
f 305//138 304//138 303//138
f 270//138 272//138 271//138
f 270//138 273//138 272//138
f 306//138 305//138 303//138
f 307//138 306//138 303//138
f 307//138 303//138 292//138
f 307//138 292//138 286//138
f 309//138 308//138 307//138
f 266//138 268//138 267//138
f 266//138 269//138 268//138
f 310//138 307//138 286//138
f 310//138 309//138 307//138
f 263//138 265//138 264//138
f 263//138 266//138 265//138
f 262//138 266//138 263//138
f 314//138 312//138 311//138
f 314//138 313//138 312//138
f 259//138 261//138 260//138
f 259//138 262//138 261//138
f 259//138 266//138 262//138
f 239//138 316//138 315//138
f 241//138 240//138 239//138
f 241//138 286//138 277//138
f 241//138 310//138 286//138
f 241//138 276//138 275//138
f 241//138 275//138 273//138
f 241//138 277//138 276//138
f 241//138 311//138 310//138
f 241//138 314//138 311//138
f 241//138 315//138 314//138
f 241//138 239//138 315//138
f 256//138 258//138 257//138
f 255//138 259//138 258//138
f 255//138 258//138 256//138
f 243//138 242//138 241//138
f 254//138 270//138 269//138
f 254//138 269//138 266//138
f 254//138 266//138 259//138
f 254//138 259//138 255//138
f 245//138 244//138 243//138
f 245//138 243//138 241//138
f 252//138 254//138 253//138
f 247//138 246//138 245//138
f 250//138 254//138 252//138
f 250//138 252//138 251//138
f 249//138 248//138 247//138
f 249//138 273//138 270//138
f 249//138 245//138 241//138
f 249//138 254//138 250//138
f 249//138 247//138 245//138
f 249//138 270//138 254//138
f 249//138 241//138 273//138
