# Blender 4.0.2
# www.blender.org
mtllib RA_base_rotation.mtl
o RA_base_rotation
v 0.000000 0.025000 0.020000
v 0.000000 0.025000 0.000000
v 0.000000 -0.025000 0.000000
v -0.003726 -0.024721 0.000000
v -0.007369 -0.023889 0.000000
v -0.010847 -0.022524 0.000000
v -0.014083 -0.020656 0.000000
v -0.017004 -0.018326 0.000000
v -0.019546 -0.015587 0.000000
v -0.021651 -0.012500 0.000000
v -0.023272 -0.009134 0.000000
v -0.024373 -0.005563 0.000000
v -0.024930 -0.001868 0.000000
v -0.024930 0.001868 0.000000
v -0.024373 0.005563 0.000000
v -0.023272 0.009134 0.000000
v -0.021651 0.012500 0.000000
v -0.019546 0.015587 0.000000
v -0.017004 0.018326 0.000000
v -0.014083 0.020656 0.000000
v -0.010847 0.022524 0.000000
v -0.007369 0.023889 0.000000
v -0.003726 0.024721 0.000000
v 0.000000 -0.025000 0.020000
v -0.003726 -0.024721 0.020000
v -0.007369 -0.023889 0.020000
v -0.010847 -0.022524 0.020000
v -0.014083 -0.020656 0.020000
v -0.017004 -0.018326 0.020000
v -0.019546 -0.015587 0.020000
v -0.021651 -0.012500 0.020000
v -0.023272 -0.009134 0.020000
v -0.024373 -0.005563 0.020000
v -0.024930 -0.001868 0.020000
v -0.024930 0.001868 0.020000
v -0.024373 0.005563 0.020000
v -0.023272 0.009134 0.020000
v -0.021651 0.012500 0.020000
v -0.019546 0.015587 0.020000
v -0.017004 0.018326 0.020000
v -0.014083 0.020656 0.020000
v -0.010847 0.022524 0.020000
v -0.007369 0.023889 0.020000
v -0.003726 0.024721 0.020000
v 0.000000 0.060000 0.000000
v 0.000000 0.060000 -0.011750
v 0.000000 -0.060000 -0.011750
v -0.005703 -0.059728 -0.011750
v -0.011355 -0.058916 -0.011750
v -0.016904 -0.057570 -0.011750
v -0.022300 -0.055702 -0.011750
v -0.027494 -0.053330 -0.011750
v -0.032438 -0.050475 -0.011750
v -0.037090 -0.047163 -0.011750
v -0.041405 -0.043424 -0.011750
v -0.045345 -0.039292 -0.011750
v -0.048875 -0.034803 -0.011750
v -0.051962 -0.030000 -0.011750
v -0.054578 -0.024925 -0.011750
v -0.056700 -0.019624 -0.011750
v -0.058309 -0.014146 -0.011750
v -0.059389 -0.008539 -0.011750
v -0.059932 -0.002855 -0.011750
v -0.059932 0.002855 -0.011750
v -0.059389 0.008539 -0.011750
v -0.058309 0.014146 -0.011750
v -0.056700 0.019624 -0.011750
v -0.054578 0.024925 -0.011750
v -0.051962 0.030000 -0.011750
v -0.048875 0.034803 -0.011750
v -0.045345 0.039292 -0.011750
v -0.041405 0.043424 -0.011750
v -0.037090 0.047163 -0.011750
v -0.032438 0.050475 -0.011750
v -0.027494 0.053330 -0.011750
v -0.022300 0.055702 -0.011750
v -0.016904 0.057570 -0.011750
v -0.011355 0.058916 -0.011750
v -0.005703 0.059728 -0.011750
v 0.000000 -0.060000 0.000000
v -0.005703 -0.059728 0.000000
v -0.011355 -0.058916 0.000000
v -0.016904 -0.057570 0.000000
v -0.022300 -0.055702 0.000000
v -0.027494 -0.053330 0.000000
v -0.032438 -0.050475 0.000000
v -0.037090 -0.047163 0.000000
v -0.041405 -0.043424 0.000000
v -0.045345 -0.039292 0.000000
v -0.048875 -0.034803 0.000000
v -0.051962 -0.030000 0.000000
v -0.054578 -0.024925 0.000000
v -0.056700 -0.019624 0.000000
v -0.058309 -0.014146 0.000000
v -0.059389 -0.008539 0.000000
v -0.059932 -0.002855 0.000000
v -0.059932 0.002855 0.000000
v -0.059389 0.008539 0.000000
v -0.058309 0.014146 0.000000
v -0.056700 0.019624 0.000000
v -0.054578 0.024925 0.000000
v -0.051962 0.030000 0.000000
v -0.048875 0.034803 0.000000
v -0.045345 0.039292 0.000000
v -0.041405 0.043424 0.000000
v -0.037090 0.047163 0.000000
v -0.032438 0.050475 0.000000
v -0.027494 0.053330 0.000000
v -0.022300 0.055702 0.000000
v -0.016904 0.057570 0.000000
v -0.011355 0.058916 0.000000
v -0.005703 0.059728 0.000000
v 0.000000 0.075000 -0.011750
v 0.006537 0.074715 -0.011750
v 0.013024 0.073861 -0.011750
v 0.019411 0.072444 -0.011750
v 0.025652 0.070477 -0.011750
v 0.031696 0.067973 -0.011750
v 0.037500 0.064952 -0.011750
v 0.043018 0.061436 -0.011750
v 0.048209 0.057453 -0.011750
v 0.053033 0.053033 -0.011750
v 0.057453 0.048209 -0.011750
v 0.061436 0.043018 -0.011750
v 0.064952 0.037500 -0.011750
v 0.067973 0.031696 -0.011750
v 0.070477 0.025652 -0.011750
v 0.072444 0.019411 -0.011750
v 0.073861 0.013024 -0.011750
v 0.074715 0.006537 -0.011750
v 0.075000 0.000000 -0.011750
v 0.074715 -0.006537 -0.011750
v 0.073861 -0.013024 -0.011750
v 0.072444 -0.019411 -0.011750
v 0.070477 -0.025652 -0.011750
v 0.067973 -0.031696 -0.011750
v 0.064952 -0.037500 -0.011750
v 0.061436 -0.043018 -0.011750
v 0.057453 -0.048209 -0.011750
v 0.053033 -0.053033 -0.011750
v 0.048209 -0.057453 -0.011750
v 0.043018 -0.061436 -0.011750
v 0.037500 -0.064952 -0.011750
v 0.031696 -0.067973 -0.011750
v 0.025652 -0.070477 -0.011750
v 0.019411 -0.072444 -0.011750
v 0.013024 -0.073861 -0.011750
v 0.006537 -0.074715 -0.011750
v 0.000000 -0.075000 -0.011750
v 0.000000 0.075000 0.000000
v 0.006537 0.074715 0.000000
v 0.013024 0.073861 0.000000
v 0.019411 0.072444 0.000000
v 0.025652 0.070477 0.000000
v 0.031696 0.067973 0.000000
v 0.037500 0.064952 0.000000
v 0.043018 0.061436 0.000000
v 0.048209 0.057453 0.000000
v 0.053033 0.053033 0.000000
v 0.057453 0.048209 0.000000
v 0.061436 0.043018 0.000000
v 0.064952 0.037500 0.000000
v 0.067973 0.031696 0.000000
v 0.070477 0.025652 0.000000
v 0.072444 0.019411 0.000000
v 0.073861 0.013024 0.000000
v 0.074715 0.006537 0.000000
v 0.075000 0.000000 0.000000
v 0.074715 -0.006537 0.000000
v 0.073861 -0.013024 0.000000
v 0.072444 -0.019411 0.000000
v 0.070477 -0.025652 0.000000
v 0.067973 -0.031696 0.000000
v 0.064952 -0.037500 0.000000
v 0.061436 -0.043018 0.000000
v 0.057453 -0.048209 0.000000
v 0.053033 -0.053033 0.000000
v 0.048209 -0.057453 0.000000
v 0.043018 -0.061436 0.000000
v 0.037500 -0.064952 0.000000
v 0.031696 -0.067973 0.000000
v 0.025652 -0.070477 0.000000
v 0.019411 -0.072444 0.000000
v 0.013024 -0.073861 0.000000
v 0.006537 -0.074715 0.000000
v 0.000000 -0.075000 0.000000
v 0.000000 -0.100000 0.020000
v 0.007473 -0.099720 0.020000
v 0.014904 -0.098883 0.020000
v 0.022252 -0.097493 0.020000
v 0.029476 -0.095557 0.020000
v 0.036534 -0.093087 0.020000
v 0.043388 -0.090097 0.020000
v 0.050000 -0.086603 0.020000
v 0.056332 -0.082624 0.020000
v 0.062349 -0.078183 0.020000
v 0.068017 -0.073305 0.020000
v 0.073305 -0.068017 0.020000
v 0.078183 -0.062349 0.020000
v 0.082624 -0.056332 0.020000
v 0.086603 -0.050000 0.020000
v 0.090097 -0.043388 0.020000
v 0.093087 -0.036534 0.020000
v 0.095557 -0.029476 0.020000
v 0.097493 -0.022252 0.020000
v 0.098883 -0.014904 0.020000
v 0.099720 -0.007473 0.020000
v 0.100000 0.000000 0.020000
v 0.099720 0.007473 0.020000
v 0.098883 0.014904 0.020000
v 0.097493 0.022252 0.020000
v 0.095557 0.029476 0.020000
v 0.093087 0.036534 0.020000
v 0.090097 0.043388 0.020000
v 0.086603 0.050000 0.020000
v 0.082624 0.056332 0.020000
v 0.078183 0.062349 0.020000
v 0.073305 0.068017 0.020000
v 0.068017 0.073305 0.020000
v 0.062349 0.078183 0.020000
v 0.056332 0.082624 0.020000
v 0.050000 0.086603 0.020000
v 0.043388 0.090097 0.020000
v 0.036534 0.093087 0.020000
v 0.029476 0.095557 0.020000
v 0.022252 0.097493 0.020000
v 0.014904 0.098883 0.020000
v 0.007473 0.099720 0.020000
v 0.000000 0.100000 0.020000
v 0.000000 -0.100000 0.000000
v 0.007473 -0.099720 0.000000
v 0.014904 -0.098883 0.000000
v 0.022252 -0.097493 0.000000
v 0.029476 -0.095557 0.000000
v 0.036534 -0.093087 0.000000
v 0.043388 -0.090097 0.000000
v 0.050000 -0.086603 0.000000
v 0.056332 -0.082624 0.000000
v 0.062349 -0.078183 0.000000
v 0.068017 -0.073305 0.000000
v 0.073305 -0.068017 0.000000
v 0.078183 -0.062349 0.000000
v 0.082624 -0.056332 0.000000
v 0.086603 -0.050000 0.000000
v 0.090097 -0.043388 0.000000
v 0.093087 -0.036534 0.000000
v 0.095557 -0.029476 0.000000
v 0.097493 -0.022252 0.000000
v 0.098883 -0.014904 0.000000
v 0.099720 -0.007473 0.000000
v 0.100000 0.000000 0.000000
v 0.099720 0.007473 0.000000
v 0.098883 0.014904 0.000000
v 0.097493 0.022252 0.000000
v 0.095557 0.029476 0.000000
v 0.093087 0.036534 0.000000
v 0.090097 0.043388 0.000000
v 0.086603 0.050000 0.000000
v 0.082624 0.056332 0.000000
v 0.078183 0.062349 0.000000
v 0.073305 0.068017 0.000000
v 0.068017 0.073305 0.000000
v 0.062349 0.078183 0.000000
v 0.056332 0.082624 0.000000
v 0.050000 0.086603 0.000000
v 0.043388 0.090097 0.000000
v 0.036534 0.093087 0.000000
v 0.029476 0.095557 0.000000
v 0.022252 0.097493 0.000000
v 0.014904 0.098883 0.000000
v 0.007473 0.099720 0.000000
v 0.000000 0.100000 0.000000
v 0.000000 -0.100000 0.020000
v 0.000000 -0.100000 0.000000
v 0.000000 0.100000 0.020000
v -0.007473 0.099720 0.020000
v -0.014904 0.098883 0.020000
v -0.022252 0.097493 0.020000
v -0.029476 0.095557 0.020000
v -0.036534 0.093087 0.020000
v -0.043388 0.090097 0.020000
v -0.050000 0.086603 0.020000
v -0.056332 0.082624 0.020000
v -0.062349 0.078183 0.020000
v -0.068017 0.073305 0.020000
v -0.073305 0.068017 0.020000
v -0.078183 0.062349 0.020000
v -0.082624 0.056332 0.020000
v -0.086603 0.050000 0.020000
v -0.090097 0.043388 0.020000
v -0.093087 0.036534 0.020000
v -0.095557 0.029476 0.020000
v -0.097493 0.022252 0.020000
v -0.098883 0.014904 0.020000
v -0.099720 0.007473 0.020000
v -0.100000 -0.000000 0.020000
v -0.099720 -0.007473 0.020000
v -0.098883 -0.014904 0.020000
v -0.097493 -0.022252 0.020000
v -0.095557 -0.029476 0.020000
v -0.093087 -0.036534 0.020000
v -0.090097 -0.043388 0.020000
v -0.086603 -0.050000 0.020000
v -0.082624 -0.056332 0.020000
v -0.078183 -0.062349 0.020000
v -0.073305 -0.068017 0.020000
v -0.068017 -0.073305 0.020000
v -0.062349 -0.078183 0.020000
v -0.056332 -0.082624 0.020000
v -0.050000 -0.086603 0.020000
v -0.043388 -0.090097 0.020000
v -0.036534 -0.093087 0.020000
v -0.029476 -0.095557 0.020000
v -0.022252 -0.097493 0.020000
v -0.014904 -0.098883 0.020000
v -0.007473 -0.099720 0.020000
v 0.000000 0.100000 0.000000
v -0.007473 0.099720 0.000000
v -0.014904 0.098883 0.000000
v -0.022252 0.097493 0.000000
v -0.029476 0.095557 0.000000
v -0.036534 0.093087 0.000000
v -0.043388 0.090097 0.000000
v -0.050000 0.086603 0.000000
v -0.056332 0.082624 0.000000
v -0.062349 0.078183 0.000000
v -0.068017 0.073305 0.000000
v -0.073305 0.068017 0.000000
v -0.078183 0.062349 0.000000
v -0.082624 0.056332 0.000000
v -0.086603 0.050000 0.000000
v -0.090097 0.043388 0.000000
v -0.093087 0.036534 0.000000
v -0.095557 0.029476 0.000000
v -0.097493 0.022252 0.000000
v -0.098883 0.014904 0.000000
v -0.099720 0.007473 0.000000
v -0.100000 -0.000000 0.000000
v -0.099720 -0.007473 0.000000
v -0.098883 -0.014904 0.000000
v -0.097493 -0.022252 0.000000
v -0.095557 -0.029476 0.000000
v -0.093087 -0.036534 0.000000
v -0.090097 -0.043388 0.000000
v -0.086603 -0.050000 0.000000
v -0.082624 -0.056332 0.000000
v -0.078183 -0.062349 0.000000
v -0.073305 -0.068017 0.000000
v -0.068017 -0.073305 0.000000
v -0.062349 -0.078183 0.000000
v -0.056332 -0.082624 0.000000
v -0.050000 -0.086603 0.000000
v -0.043388 -0.090097 0.000000
v -0.036534 -0.093087 0.000000
v -0.029476 -0.095557 0.000000
v -0.022252 -0.097493 0.000000
v -0.014904 -0.098883 0.000000
v -0.007473 -0.099720 0.000000
v 0.000000 0.100000 0.020000
v -0.007473 0.099720 0.020000
v -0.014904 0.098883 0.020000
v -0.022252 0.097493 0.020000
v -0.029476 0.095557 0.020000
v -0.036534 0.093087 0.020000
v -0.043388 0.090097 0.020000
v -0.050000 0.086603 0.020000
v -0.056332 0.082624 0.020000
v -0.062349 0.078183 0.020000
v -0.068017 0.073305 0.020000
v -0.073305 0.068017 0.020000
v -0.078183 0.062349 0.020000
v -0.082624 0.056332 0.020000
v -0.086603 0.050000 0.020000
v -0.090097 0.043388 0.020000
v -0.093087 0.036534 0.020000
v -0.095557 0.029476 0.020000
v -0.097493 0.022252 0.020000
v -0.098883 0.014904 0.020000
v -0.099720 0.007473 0.020000
v -0.100000 -0.000000 0.020000
v -0.099720 -0.007473 0.020000
v -0.098883 -0.014904 0.020000
v -0.097493 -0.022252 0.020000
v -0.095557 -0.029476 0.020000
v -0.093087 -0.036534 0.020000
v -0.090097 -0.043388 0.020000
v -0.086603 -0.050000 0.020000
v -0.082624 -0.056332 0.020000
v -0.078183 -0.062349 0.020000
v -0.073305 -0.068017 0.020000
v -0.068017 -0.073305 0.020000
v -0.062349 -0.078183 0.020000
v -0.056332 -0.082624 0.020000
v -0.050000 -0.086603 0.020000
v -0.043388 -0.090097 0.020000
v -0.036534 -0.093087 0.020000
v -0.029476 -0.095557 0.020000
v -0.022252 -0.097493 0.020000
v -0.014904 -0.098883 0.020000
v -0.007473 -0.099720 0.020000
v 0.000000 -0.100000 0.020000
v 0.007473 -0.099720 0.020000
v 0.014904 -0.098883 0.020000
v 0.022252 -0.097493 0.020000
v 0.029476 -0.095557 0.020000
v 0.036534 -0.093087 0.020000
v 0.043388 -0.090097 0.020000
v 0.050000 -0.086603 0.020000
v 0.056332 -0.082624 0.020000
v 0.062349 -0.078183 0.020000
v 0.068017 -0.073305 0.020000
v 0.073305 -0.068017 0.020000
v 0.078183 -0.062349 0.020000
v 0.082624 -0.056332 0.020000
v 0.086603 -0.050000 0.020000
v 0.090097 -0.043388 0.020000
v 0.093087 -0.036534 0.020000
v 0.095557 -0.029476 0.020000
v 0.097493 -0.022252 0.020000
v 0.098883 -0.014904 0.020000
v 0.099720 -0.007473 0.020000
v 0.100000 0.000000 0.020000
v 0.099720 0.007473 0.020000
v 0.098883 0.014904 0.020000
v 0.097493 0.022252 0.020000
v 0.095557 0.029476 0.020000
v 0.093087 0.036534 0.020000
v 0.090097 0.043388 0.020000
v 0.086603 0.050000 0.020000
v 0.082624 0.056332 0.020000
v 0.078183 0.062349 0.020000
v 0.073305 0.068017 0.020000
v 0.068017 0.073305 0.020000
v 0.062349 0.078183 0.020000
v 0.056332 0.082624 0.020000
v 0.050000 0.086603 0.020000
v 0.043388 0.090097 0.020000
v 0.036534 0.093087 0.020000
v 0.029476 0.095557 0.020000
v 0.022252 0.097493 0.020000
v 0.014904 0.098883 0.020000
v 0.007473 0.099720 0.020000
v 0.000000 0.025000 0.020000
v 0.003726 0.024721 0.020000
v 0.007369 0.023889 0.020000
v 0.010847 0.022524 0.020000
v 0.014083 0.020656 0.020000
v 0.017004 0.018326 0.020000
v 0.019546 0.015587 0.020000
v 0.021651 0.012500 0.020000
v 0.023272 0.009134 0.020000
v 0.024373 0.005563 0.020000
v 0.024930 0.001868 0.020000
v 0.024930 -0.001868 0.020000
v 0.024373 -0.005563 0.020000
v 0.023272 -0.009134 0.020000
v 0.021651 -0.012500 0.020000
v 0.019546 -0.015587 0.020000
v 0.017004 -0.018326 0.020000
v 0.014083 -0.020656 0.020000
v 0.010847 -0.022524 0.020000
v 0.007369 -0.023889 0.020000
v 0.003726 -0.024721 0.020000
v 0.000000 -0.025000 0.020000
v -0.003726 -0.024721 0.020000
v -0.007369 -0.023889 0.020000
v -0.010847 -0.022524 0.020000
v -0.014083 -0.020656 0.020000
v -0.017004 -0.018326 0.020000
v -0.019546 -0.015587 0.020000
v -0.021651 -0.012500 0.020000
v -0.023272 -0.009134 0.020000
v -0.024373 -0.005563 0.020000
v -0.024930 -0.001868 0.020000
v -0.024930 0.001868 0.020000
v -0.024373 0.005563 0.020000
v -0.023272 0.009134 0.020000
v -0.021651 0.012500 0.020000
v -0.019546 0.015587 0.020000
v -0.017004 0.018326 0.020000
v -0.014083 0.020656 0.020000
v -0.010847 0.022524 0.020000
v -0.007369 0.023889 0.020000
v -0.003726 0.024721 0.020000
v 0.000000 -0.100000 0.000000
v 0.007473 -0.099720 0.000000
v 0.014904 -0.098883 0.000000
v 0.022252 -0.097493 0.000000
v 0.029476 -0.095557 0.000000
v 0.036534 -0.093087 0.000000
v 0.043388 -0.090097 0.000000
v 0.050000 -0.086603 0.000000
v 0.056332 -0.082624 0.000000
v 0.062349 -0.078183 0.000000
v 0.068017 -0.073305 0.000000
v 0.073305 -0.068017 0.000000
v 0.078183 -0.062349 0.000000
v 0.082624 -0.056332 0.000000
v 0.086603 -0.050000 0.000000
v 0.090097 -0.043388 0.000000
v 0.093087 -0.036534 0.000000
v 0.095557 -0.029476 0.000000
v 0.097493 -0.022252 0.000000
v 0.098883 -0.014904 0.000000
v 0.099720 -0.007473 0.000000
v 0.100000 0.000000 0.000000
v 0.099720 0.007473 0.000000
v 0.098883 0.014904 0.000000
v 0.097493 0.022252 0.000000
v 0.095557 0.029476 0.000000
v 0.093087 0.036534 0.000000
v 0.090097 0.043388 0.000000
v 0.086603 0.050000 0.000000
v 0.082624 0.056332 0.000000
v 0.078183 0.062349 0.000000
v 0.073305 0.068017 0.000000
v 0.068017 0.073305 0.000000
v 0.062349 0.078183 0.000000
v 0.056332 0.082624 0.000000
v 0.050000 0.086603 0.000000
v 0.043388 0.090097 0.000000
v 0.036534 0.093087 0.000000
v 0.029476 0.095557 0.000000
v 0.022252 0.097493 0.000000
v 0.014904 0.098883 0.000000
v 0.007473 0.099720 0.000000
v 0.000000 0.100000 0.000000
v -0.007473 0.099720 0.000000
v -0.014904 0.098883 0.000000
v -0.022252 0.097493 0.000000
v -0.029476 0.095557 0.000000
v -0.036534 0.093087 0.000000
v -0.043388 0.090097 0.000000
v -0.050000 0.086603 0.000000
v -0.056332 0.082624 0.000000
v -0.062349 0.078183 0.000000
v -0.068017 0.073305 0.000000
v -0.073305 0.068017 0.000000
v -0.078183 0.062349 0.000000
v -0.082624 0.056332 0.000000
v -0.086603 0.050000 0.000000
v -0.090097 0.043388 0.000000
v -0.093087 0.036534 0.000000
v -0.095557 0.029476 0.000000
v -0.097493 0.022252 0.000000
v -0.098883 0.014904 0.000000
v -0.099720 0.007473 0.000000
v -0.100000 -0.000000 0.000000
v -0.099720 -0.007473 0.000000
v -0.098883 -0.014904 0.000000
v -0.097493 -0.022252 0.000000
v -0.095557 -0.029476 0.000000
v -0.093087 -0.036534 0.000000
v -0.090097 -0.043388 0.000000
v -0.086603 -0.050000 0.000000
v -0.082624 -0.056332 0.000000
v -0.078183 -0.062349 0.000000
v -0.073305 -0.068017 0.000000
v -0.068017 -0.073305 0.000000
v -0.062349 -0.078183 0.000000
v -0.056332 -0.082624 0.000000
v -0.050000 -0.086603 0.000000
v -0.043388 -0.090097 0.000000
v -0.036534 -0.093087 0.000000
v -0.029476 -0.095557 0.000000
v -0.022252 -0.097493 0.000000
v -0.014904 -0.098883 0.000000
v -0.007473 -0.099720 0.000000
v 0.000000 0.075000 0.000000
v 0.006537 0.074715 0.000000
v 0.013024 0.073861 0.000000
v 0.019411 0.072444 0.000000
v 0.025652 0.070477 0.000000
v 0.031696 0.067973 0.000000
v 0.037500 0.064952 0.000000
v 0.043018 0.061436 0.000000
v 0.048209 0.057453 0.000000
v 0.053033 0.053033 0.000000
v 0.057453 0.048209 0.000000
v 0.061436 0.043018 0.000000
v 0.064952 0.037500 0.000000
v 0.067973 0.031696 0.000000
v 0.070477 0.025652 0.000000
v 0.072444 0.019411 0.000000
v 0.073861 0.013024 0.000000
v 0.074715 0.006537 0.000000
v 0.075000 0.000000 0.000000
v 0.074715 -0.006537 0.000000
v 0.073861 -0.013024 0.000000
v 0.072444 -0.019411 0.000000
v 0.070477 -0.025652 0.000000
v 0.067973 -0.031696 0.000000
v 0.064952 -0.037500 0.000000
v 0.061436 -0.043018 0.000000
v 0.057453 -0.048209 0.000000
v 0.053033 -0.053033 0.000000
v 0.048209 -0.057453 0.000000
v 0.043018 -0.061436 0.000000
v 0.037500 -0.064952 0.000000
v 0.031696 -0.067973 0.000000
v 0.025652 -0.070477 0.000000
v 0.019411 -0.072444 0.000000
v 0.013024 -0.073861 0.000000
v 0.006537 -0.074715 0.000000
v 0.000000 -0.075000 0.000000
v -0.006537 -0.074715 0.000000
v -0.013024 -0.073861 0.000000
v -0.019411 -0.072444 0.000000
v -0.025652 -0.070477 0.000000
v -0.031696 -0.067973 0.000000
v -0.037500 -0.064952 0.000000
v -0.043018 -0.061436 0.000000
v -0.048209 -0.057453 0.000000
v -0.053033 -0.053033 0.000000
v -0.057453 -0.048209 0.000000
v -0.061436 -0.043018 0.000000
v -0.064952 -0.037500 0.000000
v -0.067973 -0.031696 0.000000
v -0.070477 -0.025652 0.000000
v -0.072444 -0.019411 0.000000
v -0.073861 -0.013024 0.000000
v -0.074715 -0.006537 0.000000
v -0.075000 -0.000000 0.000000
v -0.074715 0.006537 0.000000
v -0.073861 0.013024 0.000000
v -0.072444 0.019411 0.000000
v -0.070477 0.025652 0.000000
v -0.067973 0.031696 0.000000
v -0.064952 0.037500 0.000000
v -0.061436 0.043018 0.000000
v -0.057453 0.048209 0.000000
v -0.053033 0.053033 0.000000
v -0.048209 0.057453 0.000000
v -0.043018 0.061436 0.000000
v -0.037500 0.064952 0.000000
v -0.031696 0.067973 0.000000
v -0.025652 0.070477 0.000000
v -0.019411 0.072444 0.000000
v -0.013024 0.073861 0.000000
v -0.006537 0.074715 0.000000
v 0.000000 0.075000 -0.011750
v 0.000000 0.075000 0.000000
v 0.000000 -0.075000 -0.011750
v -0.006537 -0.074715 -0.011750
v -0.013024 -0.073861 -0.011750
v -0.019411 -0.072444 -0.011750
v -0.025652 -0.070477 -0.011750
v -0.031696 -0.067973 -0.011750
v -0.037500 -0.064952 -0.011750
v -0.043018 -0.061436 -0.011750
v -0.048209 -0.057453 -0.011750
v -0.053033 -0.053033 -0.011750
v -0.057453 -0.048209 -0.011750
v -0.061436 -0.043018 -0.011750
v -0.064952 -0.037500 -0.011750
v -0.067973 -0.031696 -0.011750
v -0.070477 -0.025652 -0.011750
v -0.072444 -0.019411 -0.011750
v -0.073861 -0.013024 -0.011750
v -0.074715 -0.006537 -0.011750
v -0.075000 -0.000000 -0.011750
v -0.074715 0.006537 -0.011750
v -0.073861 0.013024 -0.011750
v -0.072444 0.019411 -0.011750
v -0.070477 0.025652 -0.011750
v -0.067973 0.031696 -0.011750
v -0.064952 0.037500 -0.011750
v -0.061436 0.043018 -0.011750
v -0.057453 0.048209 -0.011750
v -0.053033 0.053033 -0.011750
v -0.048209 0.057453 -0.011750
v -0.043018 0.061436 -0.011750
v -0.037500 0.064952 -0.011750
v -0.031696 0.067973 -0.011750
v -0.025652 0.070477 -0.011750
v -0.019411 0.072444 -0.011750
v -0.013024 0.073861 -0.011750
v -0.006537 0.074715 -0.011750
v 0.000000 -0.075000 0.000000
v -0.006537 -0.074715 0.000000
v -0.013024 -0.073861 0.000000
v -0.019411 -0.072444 0.000000
v -0.025652 -0.070477 0.000000
v -0.031696 -0.067973 0.000000
v -0.037500 -0.064952 0.000000
v -0.043018 -0.061436 0.000000
v -0.048209 -0.057453 0.000000
v -0.053033 -0.053033 0.000000
v -0.057453 -0.048209 0.000000
v -0.061436 -0.043018 0.000000
v -0.064952 -0.037500 0.000000
v -0.067973 -0.031696 0.000000
v -0.070477 -0.025652 0.000000
v -0.072444 -0.019411 0.000000
v -0.073861 -0.013024 0.000000
v -0.074715 -0.006537 0.000000
v -0.075000 -0.000000 0.000000
v -0.074715 0.006537 0.000000
v -0.073861 0.013024 0.000000
v -0.072444 0.019411 0.000000
v -0.070477 0.025652 0.000000
v -0.067973 0.031696 0.000000
v -0.064952 0.037500 0.000000
v -0.061436 0.043018 0.000000
v -0.057453 0.048209 0.000000
v -0.053033 0.053033 0.000000
v -0.048209 0.057453 0.000000
v -0.043018 0.061436 0.000000
v -0.037500 0.064952 0.000000
v -0.031696 0.067973 0.000000
v -0.025652 0.070477 0.000000
v -0.019411 0.072444 0.000000
v -0.013024 0.073861 0.000000
v -0.006537 0.074715 0.000000
v 0.000000 -0.075000 -0.011750
v -0.006537 -0.074715 -0.011750
v -0.013024 -0.073861 -0.011750
v -0.019411 -0.072444 -0.011750
v -0.025652 -0.070477 -0.011750
v -0.031696 -0.067973 -0.011750
v -0.037500 -0.064952 -0.011750
v -0.043018 -0.061436 -0.011750
v -0.048209 -0.057453 -0.011750
v -0.053033 -0.053033 -0.011750
v -0.057453 -0.048209 -0.011750
v -0.061436 -0.043018 -0.011750
v -0.064952 -0.037500 -0.011750
v -0.067973 -0.031696 -0.011750
v -0.070477 -0.025652 -0.011750
v -0.072444 -0.019411 -0.011750
v -0.073861 -0.013024 -0.011750
v -0.074715 -0.006537 -0.011750
v -0.075000 -0.000000 -0.011750
v -0.074715 0.006537 -0.011750
v -0.073861 0.013024 -0.011750
v -0.072444 0.019411 -0.011750
v -0.070477 0.025652 -0.011750
v -0.067973 0.031696 -0.011750
v -0.064952 0.037500 -0.011750
v -0.061436 0.043018 -0.011750
v -0.057453 0.048209 -0.011750
v -0.053033 0.053033 -0.011750
v -0.048209 0.057453 -0.011750
v -0.043018 0.061436 -0.011750
v -0.037500 0.064952 -0.011750
v -0.031696 0.067973 -0.011750
v -0.025652 0.070477 -0.011750
v -0.019411 0.072444 -0.011750
v -0.013024 0.073861 -0.011750
v -0.006537 0.074715 -0.011750
v 0.000000 0.075000 -0.011750
v 0.006537 0.074715 -0.011750
v 0.013024 0.073861 -0.011750
v 0.019411 0.072444 -0.011750
v 0.025652 0.070477 -0.011750
v 0.031696 0.067973 -0.011750
v 0.037500 0.064952 -0.011750
v 0.043018 0.061436 -0.011750
v 0.048209 0.057453 -0.011750
v 0.053033 0.053033 -0.011750
v 0.057453 0.048209 -0.011750
v 0.061436 0.043018 -0.011750
v 0.064952 0.037500 -0.011750
v 0.067973 0.031696 -0.011750
v 0.070477 0.025652 -0.011750
v 0.072444 0.019411 -0.011750
v 0.073861 0.013024 -0.011750
v 0.074715 0.006537 -0.011750
v 0.075000 0.000000 -0.011750
v 0.074715 -0.006537 -0.011750
v 0.073861 -0.013024 -0.011750
v 0.072444 -0.019411 -0.011750
v 0.070477 -0.025652 -0.011750
v 0.067973 -0.031696 -0.011750
v 0.064952 -0.037500 -0.011750
v 0.061436 -0.043018 -0.011750
v 0.057453 -0.048209 -0.011750
v 0.053033 -0.053033 -0.011750
v 0.048209 -0.057453 -0.011750
v 0.043018 -0.061436 -0.011750
v 0.037500 -0.064952 -0.011750
v 0.031696 -0.067973 -0.011750
v 0.025652 -0.070477 -0.011750
v 0.019411 -0.072444 -0.011750
v 0.013024 -0.073861 -0.011750
v 0.006537 -0.074715 -0.011750
v 0.000000 0.060000 -0.011750
v 0.005703 0.059728 -0.011750
v 0.011355 0.058916 -0.011750
v 0.016904 0.057570 -0.011750
v 0.022300 0.055702 -0.011750
v 0.027494 0.053330 -0.011750
v 0.032438 0.050475 -0.011750
v 0.037090 0.047163 -0.011750
v 0.041405 0.043424 -0.011750
v 0.045345 0.039292 -0.011750
v 0.048875 0.034803 -0.011750
v 0.051962 0.030000 -0.011750
v 0.054578 0.024925 -0.011750
v 0.056700 0.019624 -0.011750
v 0.058309 0.014146 -0.011750
v 0.059389 0.008539 -0.011750
v 0.059932 0.002855 -0.011750
v 0.059932 -0.002855 -0.011750
v 0.059389 -0.008539 -0.011750
v 0.058309 -0.014146 -0.011750
v 0.056700 -0.019624 -0.011750
v 0.054578 -0.024925 -0.011750
v 0.051962 -0.030000 -0.011750
v 0.048875 -0.034803 -0.011750
v 0.045345 -0.039292 -0.011750
v 0.041405 -0.043424 -0.011750
v 0.037090 -0.047163 -0.011750
v 0.032438 -0.050475 -0.011750
v 0.027494 -0.053330 -0.011750
v 0.022300 -0.055702 -0.011750
v 0.016904 -0.057570 -0.011750
v 0.011355 -0.058916 -0.011750
v 0.005703 -0.059728 -0.011750
v 0.000000 -0.060000 -0.011750
v -0.005703 -0.059728 -0.011750
v -0.011355 -0.058916 -0.011750
v -0.016904 -0.057570 -0.011750
v -0.022300 -0.055702 -0.011750
v -0.027494 -0.053330 -0.011750
v -0.032438 -0.050475 -0.011750
v -0.037090 -0.047163 -0.011750
v -0.041405 -0.043424 -0.011750
v -0.045345 -0.039292 -0.011750
v -0.048875 -0.034803 -0.011750
v -0.051962 -0.030000 -0.011750
v -0.054578 -0.024925 -0.011750
v -0.056700 -0.019624 -0.011750
v -0.058309 -0.014146 -0.011750
v -0.059389 -0.008539 -0.011750
v -0.059932 -0.002855 -0.011750
v -0.059932 0.002855 -0.011750
v -0.059389 0.008539 -0.011750
v -0.058309 0.014146 -0.011750
v -0.056700 0.019624 -0.011750
v -0.054578 0.024925 -0.011750
v -0.051962 0.030000 -0.011750
v -0.048875 0.034803 -0.011750
v -0.045345 0.039292 -0.011750
v -0.041405 0.043424 -0.011750
v -0.037090 0.047163 -0.011750
v -0.032438 0.050475 -0.011750
v -0.027494 0.053330 -0.011750
v -0.022300 0.055702 -0.011750
v -0.016904 0.057570 -0.011750
v -0.011355 0.058916 -0.011750
v -0.005703 0.059728 -0.011750
v 0.000000 0.060000 -0.011750
v 0.005703 0.059728 -0.011750
v 0.011355 0.058916 -0.011750
v 0.016904 0.057570 -0.011750
v 0.022300 0.055702 -0.011750
v 0.027494 0.053330 -0.011750
v 0.032438 0.050475 -0.011750
v 0.037090 0.047163 -0.011750
v 0.041405 0.043424 -0.011750
v 0.045345 0.039292 -0.011750
v 0.048875 0.034803 -0.011750
v 0.051962 0.030000 -0.011750
v 0.054578 0.024925 -0.011750
v 0.056700 0.019624 -0.011750
v 0.058309 0.014146 -0.011750
v 0.059389 0.008539 -0.011750
v 0.059932 0.002855 -0.011750
v 0.059932 -0.002855 -0.011750
v 0.059389 -0.008539 -0.011750
v 0.058309 -0.014146 -0.011750
v 0.056700 -0.019624 -0.011750
v 0.054578 -0.024925 -0.011750
v 0.051962 -0.030000 -0.011750
v 0.048875 -0.034803 -0.011750
v 0.045345 -0.039292 -0.011750
v 0.041405 -0.043424 -0.011750
v 0.037090 -0.047163 -0.011750
v 0.032438 -0.050475 -0.011750
v 0.027494 -0.053330 -0.011750
v 0.022300 -0.055702 -0.011750
v 0.016904 -0.057570 -0.011750
v 0.011355 -0.058916 -0.011750
v 0.005703 -0.059728 -0.011750
v 0.000000 -0.060000 -0.011750
v 0.000000 0.060000 0.000000
v 0.005703 0.059728 0.000000
v 0.011355 0.058916 0.000000
v 0.016904 0.057570 0.000000
v 0.022300 0.055702 0.000000
v 0.027494 0.053330 0.000000
v 0.032438 0.050475 0.000000
v 0.037090 0.047163 0.000000
v 0.041405 0.043424 0.000000
v 0.045345 0.039292 0.000000
v 0.048875 0.034803 0.000000
v 0.051962 0.030000 0.000000
v 0.054578 0.024925 0.000000
v 0.056700 0.019624 0.000000
v 0.058309 0.014146 0.000000
v 0.059389 0.008539 0.000000
v 0.059932 0.002855 0.000000
v 0.059932 -0.002855 0.000000
v 0.059389 -0.008539 0.000000
v 0.058309 -0.014146 0.000000
v 0.056700 -0.019624 0.000000
v 0.054578 -0.024925 0.000000
v 0.051962 -0.030000 0.000000
v 0.048875 -0.034803 0.000000
v 0.045345 -0.039292 0.000000
v 0.041405 -0.043424 0.000000
v 0.037090 -0.047163 0.000000
v 0.032438 -0.050475 0.000000
v 0.027494 -0.053330 0.000000
v 0.022300 -0.055702 0.000000
v 0.016904 -0.057570 0.000000
v 0.011355 -0.058916 0.000000
v 0.005703 -0.059728 0.000000
v 0.000000 -0.060000 0.000000
v 0.000000 0.060000 0.000000
v 0.005703 0.059728 0.000000
v 0.011355 0.058916 0.000000
v 0.016904 0.057570 0.000000
v 0.022300 0.055702 0.000000
v 0.027494 0.053330 0.000000
v 0.032438 0.050475 0.000000
v 0.037090 0.047163 0.000000
v 0.041405 0.043424 0.000000
v 0.045345 0.039292 0.000000
v 0.048875 0.034803 0.000000
v 0.051962 0.030000 0.000000
v 0.054578 0.024925 0.000000
v 0.056700 0.019624 0.000000
v 0.058309 0.014146 0.000000
v 0.059389 0.008539 0.000000
v 0.059932 0.002855 0.000000
v 0.059932 -0.002855 0.000000
v 0.059389 -0.008539 0.000000
v 0.058309 -0.014146 0.000000
v 0.056700 -0.019624 0.000000
v 0.054578 -0.024925 0.000000
v 0.051962 -0.030000 0.000000
v 0.048875 -0.034803 0.000000
v 0.045345 -0.039292 0.000000
v 0.041405 -0.043424 0.000000
v 0.037090 -0.047163 0.000000
v 0.032438 -0.050475 0.000000
v 0.027494 -0.053330 0.000000
v 0.022300 -0.055702 0.000000
v 0.016904 -0.057570 0.000000
v 0.011355 -0.058916 0.000000
v 0.005703 -0.059728 0.000000
v 0.000000 -0.060000 0.000000
v -0.005703 -0.059728 0.000000
v -0.011355 -0.058916 0.000000
v -0.016904 -0.057570 0.000000
v -0.022300 -0.055702 0.000000
v -0.027494 -0.053330 0.000000
v -0.032438 -0.050475 0.000000
v -0.037090 -0.047163 0.000000
v -0.041405 -0.043424 0.000000
v -0.045345 -0.039292 0.000000
v -0.048875 -0.034803 0.000000
v -0.051962 -0.030000 0.000000
v -0.054578 -0.024925 0.000000
v -0.056700 -0.019624 0.000000
v -0.058309 -0.014146 0.000000
v -0.059389 -0.008539 0.000000
v -0.059932 -0.002855 0.000000
v -0.059932 0.002855 0.000000
v -0.059389 0.008539 0.000000
v -0.058309 0.014146 0.000000
v -0.056700 0.019624 0.000000
v -0.054578 0.024925 0.000000
v -0.051962 0.030000 0.000000
v -0.048875 0.034803 0.000000
v -0.045345 0.039292 0.000000
v -0.041405 0.043424 0.000000
v -0.037090 0.047163 0.000000
v -0.032438 0.050475 0.000000
v -0.027494 0.053330 0.000000
v -0.022300 0.055702 0.000000
v -0.016904 0.057570 0.000000
v -0.011355 0.058916 0.000000
v -0.005703 0.059728 0.000000
v 0.000000 0.025000 0.000000
v 0.003726 0.024721 0.000000
v 0.007369 0.023889 0.000000
v 0.010847 0.022524 0.000000
v 0.014083 0.020656 0.000000
v 0.017004 0.018326 0.000000
v 0.019546 0.015587 0.000000
v 0.021651 0.012500 0.000000
v 0.023272 0.009134 0.000000
v 0.024373 0.005563 0.000000
v 0.024930 0.001868 0.000000
v 0.024930 -0.001868 0.000000
v 0.024373 -0.005563 0.000000
v 0.023272 -0.009134 0.000000
v 0.021651 -0.012500 0.000000
v 0.019546 -0.015587 0.000000
v 0.017004 -0.018326 0.000000
v 0.014083 -0.020656 0.000000
v 0.010847 -0.022524 0.000000
v 0.007369 -0.023889 0.000000
v 0.003726 -0.024721 0.000000
v 0.000000 -0.025000 0.000000
v -0.003726 -0.024721 0.000000
v -0.007369 -0.023889 0.000000
v -0.010847 -0.022524 0.000000
v -0.014083 -0.020656 0.000000
v -0.017004 -0.018326 0.000000
v -0.019546 -0.015587 0.000000
v -0.021651 -0.012500 0.000000
v -0.023272 -0.009134 0.000000
v -0.024373 -0.005563 0.000000
v -0.024930 -0.001868 0.000000
v -0.024930 0.001868 0.000000
v -0.024373 0.005563 0.000000
v -0.023272 0.009134 0.000000
v -0.021651 0.012500 0.000000
v -0.019546 0.015587 0.000000
v -0.017004 0.018326 0.000000
v -0.014083 0.020656 0.000000
v -0.010847 0.022524 0.000000
v -0.007369 0.023889 0.000000
v -0.003726 0.024721 0.000000
v 0.000000 0.025000 0.000000
v 0.003726 0.024721 0.000000
v 0.007369 0.023889 0.000000
v 0.010847 0.022524 0.000000
v 0.014083 0.020656 0.000000
v 0.017004 0.018326 0.000000
v 0.019546 0.015587 0.000000
v 0.021651 0.012500 0.000000
v 0.023272 0.009134 0.000000
v 0.024373 0.005563 0.000000
v 0.024930 0.001868 0.000000
v 0.024930 -0.001868 0.000000
v 0.024373 -0.005563 0.000000
v 0.023272 -0.009134 0.000000
v 0.021651 -0.012500 0.000000
v 0.019546 -0.015587 0.000000
v 0.017004 -0.018326 0.000000
v 0.014083 -0.020656 0.000000
v 0.010847 -0.022524 0.000000
v 0.007369 -0.023889 0.000000
v 0.003726 -0.024721 0.000000
v 0.000000 -0.025000 0.000000
v 0.000000 0.025000 0.020000
v 0.003726 0.024721 0.020000
v 0.007369 0.023889 0.020000
v 0.010847 0.022524 0.020000
v 0.014083 0.020656 0.020000
v 0.017004 0.018326 0.020000
v 0.019546 0.015587 0.020000
v 0.021651 0.012500 0.020000
v 0.023272 0.009134 0.020000
v 0.024373 0.005563 0.020000
v 0.024930 0.001868 0.020000
v 0.024930 -0.001868 0.020000
v 0.024373 -0.005563 0.020000
v 0.023272 -0.009134 0.020000
v 0.021651 -0.012500 0.020000
v 0.019546 -0.015587 0.020000
v 0.017004 -0.018326 0.020000
v 0.014083 -0.020656 0.020000
v 0.010847 -0.022524 0.020000
v 0.007369 -0.023889 0.020000
v 0.003726 -0.024721 0.020000
v 0.000000 -0.025000 0.020000
vn 0.1490 0.9888 -0.0000
vn 0.0747 0.9972 -0.0000
vn 0.1491 0.9888 -0.0000
vn 0.2947 0.9556 -0.0000
vn 0.4339 0.9010 -0.0000
vn 0.2948 0.9556 -0.0000
vn 0.5633 0.8262 -0.0000
vn 0.6616 0.7498 -0.0000
vn 0.6983 0.7158 -0.0000
vn 0.7818 0.6235 -0.0000
vn 0.8660 0.5000 -0.0000
vn 0.6617 0.7498 -0.0000
vn 0.9309 0.3654 -0.0000
vn 0.9309 0.3653 -0.0000
vn 0.9749 0.2225 -0.0000
vn 0.9972 0.0747 -0.0000
vn 0.9988 -0.0498 -0.0000
vn 0.9950 -0.0996 -0.0000
vn 0.9749 -0.2225 -0.0000
vn 0.9309 -0.3653 -0.0000
vn 0.9309 -0.3654 -0.0000
vn 0.8660 -0.5000 -0.0000
vn 0.7818 -0.6235 -0.0000
vn 0.6983 -0.7158 -0.0000
vn 0.6617 -0.7498 -0.0000
vn 0.6616 -0.7498 -0.0000
vn 0.5633 -0.8262 -0.0000
vn 0.4563 -0.8898 -0.0000
vn 0.4113 -0.9115 -0.0000
vn 0.3185 -0.9479 -0.0000
vn 0.4112 -0.9115 -0.0000
vn 0.4562 -0.8899 -0.0000
vn 0.2708 -0.9626 -0.0000
vn 0.1491 -0.9888 -0.0000
vn 0.1490 -0.9888 -0.0000
vn 0.0747 -0.9972 -0.0000
vn 0.0793 0.9969 -0.0000
vn 0.0476 0.9989 -0.0000
vn 0.1108 0.9938 -0.0000
vn 0.1737 0.9848 -0.0000
vn 0.2048 0.9788 -0.0000
vn 0.0792 0.9969 -0.0000
vn 0.2665 0.9638 -0.0000
vn 0.2969 0.9549 -0.0000
vn 0.1736 0.9848 -0.0000
vn 0.3717 0.9284 -0.0000
vn 0.4582 0.8888 -0.0000
vn 0.5272 0.8497 -0.0000
vn 0.5539 0.8326 -0.0000
vn 0.6056 0.7958 -0.0000
vn 0.6306 0.7761 -0.0000
vn 0.6785 0.7346 -0.0000
vn 0.7015 0.7127 -0.0000
vn 0.7558 0.6549 -0.0000
vn 0.7557 0.6549 -0.0000
vn 0.8146 0.5801 -0.0000
vn 0.9096 0.4154 -0.0000
vn 0.9397 0.3420 -0.0000
vn 0.9501 0.3120 -0.0000
vn 0.9679 0.2511 -0.0000
vn 0.9754 0.2203 -0.0000
vn 0.9898 0.1423 -0.0000
vn 0.9679 0.2512 -0.0000
vn 0.9989 0.0476 -0.0000
vn 0.9989 -0.0476 -0.0000
vn 0.9898 -0.1423 -0.0000
vn 0.9754 -0.2203 -0.0000
vn 0.9679 -0.2512 -0.0000
vn 0.9501 -0.3120 -0.0000
vn 0.9679 -0.2511 -0.0000
vn 0.9397 -0.3420 -0.0000
vn 0.9161 -0.4009 -0.0000
vn 0.9029 -0.4298 -0.0000
vn 0.8738 -0.4862 -0.0000
vn 0.8580 -0.5137 -0.0000
vn 0.8146 -0.5801 -0.0000
vn 0.7557 -0.6549 -0.0000
vn 0.8739 -0.4862 -0.0000
vn 0.7015 -0.7127 -0.0000
vn 0.6785 -0.7346 -0.0000
vn 0.7558 -0.6549 -0.0000
vn 0.6306 -0.7761 -0.0000
vn 0.6056 -0.7958 -0.0000
vn 0.5539 -0.8326 -0.0000
vn 0.5272 -0.8497 -0.0000
vn 0.4582 -0.8888 -0.0000
vn 0.3717 -0.9284 -0.0000
vn 0.2969 -0.9549 -0.0000
vn 0.2665 -0.9638 -0.0000
vn 0.1892 -0.9819 -0.0000
vn 0.1893 -0.9819 -0.0000
vn 0.0951 -0.9955 -0.0000
vn 0.0476 -0.9989 -0.0000
vn 0.0872 -0.9962 -0.0000
vn 0.1736 -0.9848 -0.0000
vn 0.0871 -0.9962 -0.0000
vn 0.0436 -0.9990 -0.0000
vn 0.2448 -0.9696 -0.0000
vn 0.1737 -0.9848 -0.0000
vn 0.2729 -0.9621 -0.0000
vn 0.3283 -0.9446 -0.0000
vn 0.2728 -0.9621 -0.0000
vn 0.3557 -0.9346 -0.0000
vn 0.2447 -0.9696 -0.0000
vn 0.4094 -0.9124 -0.0000
vn 0.3556 -0.9346 -0.0000
vn 0.4358 -0.9001 -0.0000
vn 0.4874 -0.8732 -0.0000
vn 0.4357 -0.9001 -0.0000
vn 0.5126 -0.8587 -0.0000
vn 0.5616 -0.8274 -0.0000
vn 0.4873 -0.8732 -0.0000
vn 0.5125 -0.8587 -0.0000
vn 0.5854 -0.8107 -0.0000
vn 0.6428 -0.7661 -0.0000
vn 0.6428 -0.7660 -0.0000
vn 0.6968 -0.7173 -0.0000
vn 0.7173 -0.6967 -0.0000
vn 0.7173 -0.6968 -0.0000
vn 0.6967 -0.7173 -0.0000
vn 0.7660 -0.6428 -0.0000
vn 0.8191 -0.5736 -0.0000
vn 0.7661 -0.6428 -0.0000
vn 0.8192 -0.5736 -0.0000
vn 0.8587 -0.5125 -0.0000
vn 0.8732 -0.4874 -0.0000
vn 0.8587 -0.5126 -0.0000
vn 0.9001 -0.4357 -0.0000
vn 0.8732 -0.4873 -0.0000
vn 0.9124 -0.4094 -0.0000
vn 0.9001 -0.4358 -0.0000
vn 0.9659 -0.2588 -0.0000
vn 0.9848 -0.1737 -0.0000
vn 0.9962 -0.0871 -0.0000
vn 1.0000 -0.0000 -0.0000
vn 0.9962 -0.0872 -0.0000
vn 0.9848 -0.1736 -0.0000
vn 0.9974 0.0727 -0.0000
vn 0.9948 0.1017 -0.0000
vn 0.9848 0.1737 -0.0000
vn 0.9659 0.2588 -0.0000
vn 0.9848 0.1736 -0.0000
vn 0.9948 0.1016 -0.0000
vn 0.9974 0.0726 -0.0000
vn 0.9124 0.4094 -0.0000
vn 0.9001 0.4357 -0.0000
vn 0.9001 0.4358 -0.0000
vn 0.8191 0.5736 -0.0000
vn 0.7661 0.6428 -0.0000
vn 0.8192 0.5736 -0.0000
vn 0.7071 0.7071 -0.0000
vn 0.6428 0.7660 -0.0000
vn 0.7660 0.6428 -0.0000
vn 0.5736 0.8192 -0.0000
vn 0.5125 0.8587 -0.0000
vn 0.5736 0.8191 -0.0000
vn 0.6428 0.7661 -0.0000
vn 0.4874 0.8732 -0.0000
vn 0.5126 0.8587 -0.0000
vn 0.4226 0.9063 -0.0000
vn 0.4873 0.8732 -0.0000
vn 0.3556 0.9346 -0.0000
vn 0.3283 0.9446 -0.0000
vn 0.2588 0.9659 -0.0000
vn 0.3557 0.9346 -0.0000
vn 0.1016 0.9948 -0.0000
vn 0.0726 0.9974 -0.0000
vn 0.0436 0.9990 -0.0000
vn 0.0727 0.9974 -0.0000
vn 0.1017 0.9948 -0.0000
vn 0.0623 0.9981 -0.0000
vn 0.0374 0.9993 -0.0000
vn 0.0871 0.9962 -0.0000
vn 0.1367 0.9906 -0.0000
vn 0.0872 0.9962 -0.0000
vn 0.1613 0.9869 -0.0000
vn 0.2103 0.9776 -0.0000
vn 0.1614 0.9869 -0.0000
vn 0.2346 0.9721 -0.0000
vn 0.2828 0.9592 -0.0000
vn 0.2104 0.9776 -0.0000
vn 0.2347 0.9721 -0.0000
vn 0.3066 0.9518 -0.0000
vn 0.3537 0.9354 -0.0000
vn 0.3067 0.9518 -0.0000
vn 0.3769 0.9263 -0.0000
vn 0.3769 0.9262 -0.0000
vn 0.4451 0.8955 -0.0000
vn 0.5000 0.8660 -0.0000
vn 0.6235 0.7818 -0.0000
vn 0.6802 0.7331 -0.0000
vn 0.7330 0.6802 -0.0000
vn 0.6802 0.7330 -0.0000
vn 0.7331 0.6802 -0.0000
vn 0.8332 0.5530 -0.0000
vn 0.8597 0.5108 -0.0000
vn 0.8722 0.4892 -0.0000
vn 0.8955 0.4451 -0.0000
vn 0.9063 0.4226 -0.0000
vn 0.8597 0.5107 -0.0000
vn 0.9262 0.3769 -0.0000
vn 0.9354 0.3537 -0.0000
vn 0.9518 0.3067 -0.0000
vn 0.9592 0.2828 -0.0000
vn 0.9263 0.3769 -0.0000
vn 0.9888 0.1490 -0.0000
vn 0.9518 0.3066 -0.0000
vn 0.9981 -0.0623 -0.0000
vn 0.9906 -0.1367 -0.0000
vn 0.9869 -0.1613 -0.0000
vn 0.9592 -0.2828 -0.0000
vn 0.9869 -0.1614 -0.0000
vn 0.9518 -0.3067 -0.0000
vn 0.9518 -0.3066 -0.0000
vn 0.9010 -0.4339 -0.0000
vn 0.8332 -0.5530 -0.0000
vn 0.7331 -0.6802 -0.0000
vn 0.6893 -0.7245 -0.0000
vn 0.7330 -0.6802 -0.0000
vn 0.6710 -0.7415 -0.0000
vn 0.6332 -0.7740 -0.0000
vn 0.6137 -0.7895 -0.0000
vn 0.5736 -0.8191 -0.0000
vn 0.5530 -0.8332 -0.0000
vn 0.5108 -0.8597 -0.0000
vn 0.4892 -0.8722 -0.0000
vn 0.5736 -0.8192 -0.0000
vn 0.4451 -0.8955 -0.0000
vn 0.4226 -0.9063 -0.0000
vn 0.5107 -0.8597 -0.0000
vn 0.3769 -0.9262 -0.0000
vn 0.3537 -0.9354 -0.0000
vn 0.3067 -0.9518 -0.0000
vn 0.2828 -0.9592 -0.0000
vn 0.3769 -0.9263 -0.0000
vn 0.2347 -0.9721 -0.0000
vn 0.2104 -0.9776 -0.0000
vn 0.3066 -0.9518 -0.0000
vn 0.1614 -0.9869 -0.0000
vn 0.2103 -0.9776 -0.0000
vn 0.1367 -0.9906 -0.0000
vn 0.2346 -0.9721 -0.0000
vn 0.0623 -0.9981 -0.0000
vn 0.1613 -0.9869 -0.0000
vn 0.0374 -0.9993 -0.0000
vn -0.0747 -0.9972 -0.0000
vn -0.0374 -0.9993 -0.0000
vn -0.1490 -0.9888 -0.0000
vn -0.2225 -0.9749 -0.0000
vn -0.1491 -0.9888 -0.0000
vn -0.2828 -0.9592 -0.0000
vn -0.3066 -0.9518 -0.0000
vn -0.3067 -0.9518 -0.0000
vn -0.3653 -0.9309 -0.0000
vn -0.4339 -0.9010 -0.0000
vn -0.5000 -0.8660 -0.0000
vn -0.5530 -0.8332 -0.0000
vn -0.5736 -0.8192 -0.0000
vn -0.6137 -0.7895 -0.0000
vn -0.5736 -0.8191 -0.0000
vn -0.6332 -0.7740 -0.0000
vn -0.6710 -0.7415 -0.0000
vn -0.6893 -0.7245 -0.0000
vn -0.7245 -0.6893 -0.0000
vn -0.7415 -0.6710 -0.0000
vn -0.7740 -0.6332 -0.0000
vn -0.7895 -0.6137 -0.0000
vn -0.8191 -0.5736 -0.0000
vn -0.8332 -0.5530 -0.0000
vn -0.8660 -0.5000 -0.0000
vn -0.9010 -0.4339 -0.0000
vn -0.8192 -0.5736 -0.0000
vn -0.9309 -0.3653 -0.0000
vn -0.9518 -0.3067 -0.0000
vn -0.9592 -0.2828 -0.0000
vn -0.9518 -0.3066 -0.0000
vn -0.9749 -0.2225 -0.0000
vn -0.9869 -0.1614 -0.0000
vn -0.9906 -0.1367 -0.0000
vn -0.9962 -0.0872 -0.0000
vn -0.9981 -0.0623 -0.0000
vn -0.9869 -0.1613 -0.0000
vn -1.0000 -0.0000 -0.0000
vn -0.9972 0.0747 -0.0000
vn -0.9962 -0.0871 -0.0000
vn -0.9888 0.1490 -0.0000
vn -0.9749 0.2225 -0.0000
vn -0.9592 0.2828 -0.0000
vn -0.9518 0.3066 -0.0000
vn -0.9354 0.3537 -0.0000
vn -0.9518 0.3067 -0.0000
vn -0.9263 0.3769 -0.0000
vn -0.9063 0.4226 -0.0000
vn -0.9262 0.3769 -0.0000
vn -0.8955 0.4451 -0.0000
vn -0.8660 0.5000 -0.0000
vn -0.8262 0.5633 -0.0000
vn -0.7895 0.6137 -0.0000
vn -0.7740 0.6332 -0.0000
vn -0.7330 0.6802 -0.0000
vn -0.6893 0.7245 -0.0000
vn -0.7331 0.6802 -0.0000
vn -0.6710 0.7415 -0.0000
vn -0.6235 0.7818 -0.0000
vn -0.5736 0.8191 -0.0000
vn -0.5530 0.8332 -0.0000
vn -0.5108 0.8597 -0.0000
vn -0.4892 0.8722 -0.0000
vn -0.5736 0.8192 -0.0000
vn -0.4451 0.8955 -0.0000
vn -0.4226 0.9063 -0.0000
vn -0.5107 0.8597 -0.0000
vn -0.3769 0.9262 -0.0000
vn -0.3537 0.9354 -0.0000
vn -0.3067 0.9518 -0.0000
vn -0.2828 0.9592 -0.0000
vn -0.3769 0.9263 -0.0000
vn -0.2225 0.9749 -0.0000
vn -0.1490 0.9888 -0.0000
vn -0.3066 0.9518 -0.0000
vn -0.1491 0.9888 -0.0000
vn -0.0872 0.9962 -0.0000
vn -0.0623 0.9981 -0.0000
vn -0.0374 0.9993 -0.0000
vn -0.0871 0.9962 -0.0000
vn -0.0000 -0.0000 1.0000
vn -0.0000 -0.0000 -1.0000
vn -0.0727 0.9974 -0.0000
vn -0.0436 0.9990 -0.0000
vn -0.1017 0.9948 -0.0000
vn -0.1593 0.9872 -0.0000
vn -0.1016 0.9948 -0.0000
vn -0.1880 0.9822 -0.0000
vn -0.0726 0.9974 -0.0000
vn -0.2448 0.9696 -0.0000
vn -0.1879 0.9822 -0.0000
vn -0.2729 0.9621 -0.0000
vn -0.3283 0.9446 -0.0000
vn -0.2728 0.9621 -0.0000
vn -0.3557 0.9346 -0.0000
vn -0.2447 0.9696 -0.0000
vn -0.4094 0.9124 -0.0000
vn -0.3556 0.9346 -0.0000
vn -0.4358 0.9001 -0.0000
vn -0.5000 0.8660 -0.0000
vn -0.4357 0.9001 -0.0000
vn -0.6316 0.7753 -0.0000
vn -0.6539 0.7566 -0.0000
vn -0.6968 0.7173 -0.0000
vn -0.7173 0.6967 -0.0000
vn -0.7566 0.6539 -0.0000
vn -0.6967 0.7173 -0.0000
vn -0.7173 0.6968 -0.0000
vn -0.7753 0.6316 -0.0000
vn -0.8107 0.5854 -0.0000
vn -0.8274 0.5616 -0.0000
vn -0.8587 0.5125 -0.0000
vn -0.8732 0.4873 -0.0000
vn -0.8587 0.5126 -0.0000
vn -0.8732 0.4874 -0.0000
vn -0.9397 0.3420 -0.0000
vn -0.9621 0.2728 -0.0000
vn -0.9696 0.2447 -0.0000
vn -0.9822 0.1879 -0.0000
vn -0.9696 0.2448 -0.0000
vn -0.9872 0.1593 -0.0000
vn -0.9621 0.2729 -0.0000
vn -0.9948 0.1016 -0.0000
vn -0.9974 0.0726 -0.0000
vn -0.9822 0.1880 -0.0000
vn -0.9974 0.0727 -0.0000
vn -0.9948 0.1017 -0.0000
vn -0.9848 -0.1737 -0.0000
vn -0.9696 -0.2448 -0.0000
vn -0.9848 -0.1736 -0.0000
vn -0.9621 -0.2728 -0.0000
vn -0.9696 -0.2447 -0.0000
vn -0.9397 -0.3420 -0.0000
vn -0.9621 -0.2729 -0.0000
vn -0.9063 -0.4226 -0.0000
vn -0.8732 -0.4874 -0.0000
vn -0.8587 -0.5125 -0.0000
vn -0.8732 -0.4873 -0.0000
vn -0.8587 -0.5126 -0.0000
vn -0.7660 -0.6428 -0.0000
vn -0.7173 -0.6968 -0.0000
vn -0.7661 -0.6428 -0.0000
vn -0.6968 -0.7173 -0.0000
vn -0.7173 -0.6967 -0.0000
vn -0.6428 -0.7660 -0.0000
vn -0.6967 -0.7173 -0.0000
vn -0.6428 -0.7661 -0.0000
vn -0.4357 -0.9001 -0.0000
vn -0.4094 -0.9124 -0.0000
vn -0.3556 -0.9346 -0.0000
vn -0.3283 -0.9446 -0.0000
vn -0.4358 -0.9001 -0.0000
vn -0.2728 -0.9621 -0.0000
vn -0.2447 -0.9696 -0.0000
vn -0.3557 -0.9346 -0.0000
vn -0.1879 -0.9822 -0.0000
vn -0.2448 -0.9696 -0.0000
vn -0.1593 -0.9872 -0.0000
vn -0.2729 -0.9621 -0.0000
vn -0.1016 -0.9948 -0.0000
vn -0.0726 -0.9974 -0.0000
vn -0.1880 -0.9822 -0.0000
vn -0.0436 -0.9990 -0.0000
vn -0.0727 -0.9974 -0.0000
vn -0.1017 -0.9948 -0.0000
vn -0.0793 -0.9969 -0.0000
vn -0.0476 -0.9989 -0.0000
vn -0.1108 -0.9938 -0.0000
vn -0.1737 -0.9848 -0.0000
vn -0.2048 -0.9788 -0.0000
vn -0.0792 -0.9969 -0.0000
vn -0.2665 -0.9638 -0.0000
vn -0.2969 -0.9549 -0.0000
vn -0.1736 -0.9848 -0.0000
vn -0.3569 -0.9341 -0.0000
vn -0.3863 -0.9224 -0.0000
vn -0.4441 -0.8960 -0.0000
vn -0.4723 -0.8815 -0.0000
vn -0.5272 -0.8497 -0.0000
vn -0.5539 -0.8326 -0.0000
vn -0.6056 -0.7958 -0.0000
vn -0.6306 -0.7761 -0.0000
vn -0.6785 -0.7346 -0.0000
vn -0.7015 -0.7127 -0.0000
vn -0.7558 -0.6549 -0.0000
vn -0.7557 -0.6549 -0.0000
vn -0.8053 -0.5929 -0.0000
vn -0.8237 -0.5671 -0.0000
vn -0.9029 -0.4298 -0.0000
vn -0.9161 -0.4009 -0.0000
vn -0.9450 -0.3271 -0.0000
vn -0.9718 -0.2358 -0.0000
vn -0.9874 -0.1580 -0.0000
vn -0.9920 -0.1266 -0.0000
vn -0.9980 -0.0634 -0.0000
vn -0.9995 -0.0317 -0.0000
vn -0.9995 0.0317 -0.0000
vn -0.9980 0.0634 -0.0000
vn -0.9920 0.1266 -0.0000
vn -0.9874 0.1580 -0.0000
vn -0.9718 0.2358 -0.0000
vn -0.9450 0.3271 -0.0000
vn -0.9096 0.4154 -0.0000
vn -0.8237 0.5671 -0.0000
vn -0.8053 0.5929 -0.0000
vn -0.7557 0.6549 -0.0000
vn -0.7558 0.6549 -0.0000
vn -0.6901 0.7237 -0.0000
vn -0.6306 0.7761 -0.0000
vn -0.6056 0.7958 -0.0000
vn -0.5406 0.8413 -0.0000
vn -0.4723 0.8815 -0.0000
vn -0.4441 0.8960 -0.0000
vn -0.3717 0.9284 -0.0000
vn -0.2969 0.9549 -0.0000
vn -0.2665 0.9638 -0.0000
vn -0.1892 0.9819 -0.0000
vn -0.1893 0.9819 -0.0000
vn -0.0951 0.9955 -0.0000
vn -0.0476 0.9989 -0.0000
vn -0.1243 -0.9922 -0.0000
vn -0.2708 -0.9626 -0.0000
vn -0.3185 -0.9479 -0.0000
vn -0.4112 -0.9115 -0.0000
vn -0.4562 -0.8899 -0.0000
vn -0.5633 -0.8262 -0.0000
vn -0.4563 -0.8898 -0.0000
vn -0.6802 -0.7331 -0.0000
vn -0.4113 -0.9115 -0.0000
vn -0.7971 -0.6038 -0.0000
vn -0.6802 -0.7330 -0.0000
vn -0.8533 -0.5215 -0.0000
vn -0.8782 -0.4782 -0.0000
vn -0.7972 -0.6038 -0.0000
vn -0.9215 -0.3885 -0.0000
vn -0.9691 -0.2468 -0.0000
vn -0.9802 -0.1981 -0.0000
vn -0.9950 -0.0996 -0.0000
vn -0.9988 -0.0498 -0.0000
vn -0.9988 0.0498 -0.0000
vn -0.9950 0.0996 -0.0000
vn -0.9802 0.1981 -0.0000
vn -0.9691 0.2468 -0.0000
vn -0.9215 0.3885 -0.0000
vn -0.8782 0.4782 -0.0000
vn -0.8533 0.5215 -0.0000
vn -0.7972 0.6038 -0.0000
vn -0.7660 0.6428 -0.0000
vn -0.6802 0.7330 -0.0000
vn -0.7971 0.6038 -0.0000
vn -0.6802 0.7331 -0.0000
vn -0.5633 0.8262 -0.0000
vn -0.4339 0.9010 -0.0000
vn -0.2948 0.9556 -0.0000
vn -0.1737 0.9848 -0.0000
vn -0.2947 0.9556 -0.0000
vn -0.1243 0.9922 -0.0000
vn -0.0747 0.9972 -0.0000
s 0
usemtl material6
f 4//1 24//2 3//2
f 4//1 25//1 24//2
f 4//3 26//4 25//3
f 5//4 26//4 4//3
f 6//5 27//5 26//6
f 6//5 28//7 27//5
f 6//5 26//6 5//6
f 7//7 28//7 6//5
f 8//8 29//9 28//7
f 8//8 28//7 7//7
f 9//10 30//10 29//9
f 9//10 31//11 30//10
f 9//10 29//9 8//12
f 10//11 31//11 9//10
f 11//13 32//13 31//11
f 11//14 33//15 32//14
f 11//13 31//11 10//11
f 12//15 33//15 11//14
f 13//16 34//16 33//15
f 13//16 35//17 34//16
f 13//16 33//15 12//15
f 14//18 36//19 35//17
f 14//18 35//17 13//16
f 15//19 36//19 14//18
f 16//20 37//20 36//19
f 16//21 38//22 37//21
f 16//20 36//19 15//19
f 17//22 38//22 16//21
f 18//23 38//22 17//22
f 18//23 39//23 38//22
f 18//23 40//24 39//23
f 19//25 40//24 18//23
f 19//26 41//27 40//24
f 20//27 41//27 19//26
f 21//28 41//27 20//27
f 21//28 42//29 41//27
f 22//30 42//31 21//32
f 22//30 43//33 42//31
f 23//34 43//33 22//30
f 23//34 44//34 43//33
f 23//35 1//36 44//35
f 2//36 1//36 23//35
f 48//37 80//38 47//38
f 48//37 81//39 80//38
f 49//40 82//41 81//39
f 49//40 81//39 48//42
f 50//43 83//44 82//41
f 50//43 82//41 49//45
f 51//46 84//46 83//44
f 51//46 85//47 84//46
f 51//46 83//44 50//43
f 52//47 85//47 51//46
f 53//48 86//49 85//47
f 53//48 85//47 52//47
f 54//50 87//51 86//49
f 54//50 86//49 53//48
f 55//52 87//51 54//50
f 55//52 88//53 87//51
f 56//54 88//53 55//52
f 56//54 89//54 88//53
f 56//55 90//56 89//55
f 57//56 90//56 56//55
f 58//11 90//56 57//56
f 58//11 91//11 90//56
f 58//11 92//57 91//11
f 59//57 92//57 58//11
f 60//58 92//57 59//57
f 60//58 93//59 92//57
f 61//60 93//59 60//58
f 61//60 94//61 93//59
f 62//62 94//61 61//63
f 62//62 95//62 94//61
f 62//62 96//64 95//62
f 63//64 96//64 62//62
f 64//65 96//64 63//64
f 64//65 97//65 96//64
f 64//65 98//66 97//65
f 65//66 98//66 64//65
f 66//67 98//66 65//66
f 66//67 99//68 98//66
f 67//69 99//70 66//67
f 67//69 100//71 99//70
f 68//72 101//73 100//71
f 68//72 100//71 67//69
f 69//74 102//75 101//73
f 69//74 101//73 68//72
f 70//76 103//76 102//75
f 70//76 104//77 103//76
f 70//76 102//75 69//78
f 71//77 104//77 70//76
f 72//79 105//80 104//81
f 72//79 104//81 71//81
f 73//82 106//83 105//80
f 73//82 105//80 72//79
f 74//84 107//85 106//83
f 74//84 106//83 73//82
f 75//86 108//86 107//85
f 75//86 109//87 108//86
f 75//86 107//85 74//84
f 76//87 109//87 75//86
f 77//88 110//89 109//87
f 77//88 109//87 76//87
f 78//90 111//90 110//89
f 78//91 112//92 111//91
f 78//90 110//89 77//88
f 79//92 112//92 78//91
f 46//93 112//92 79//92
f 46//93 45//93 112//92
f 185//94 148//94 147//95
f 185//96 149//97 148//96
f 185//96 186//97 149//97
f 184//95 185//94 147//95
f 183//98 147//99 146//100
f 183//98 184//99 147//99
f 182//101 146//102 145//103
f 182//101 183//104 146//102
f 181//105 145//106 144//107
f 181//105 182//101 145//106
f 180//108 181//105 144//109
f 180//108 144//109 143//110
f 179//111 180//112 143//113
f 179//111 143//113 142//114
f 178//115 179//111 142//114
f 178//116 141//116 140//117
f 178//116 142//114 141//116
f 177//118 178//116 140//117
f 177//119 140//120 139//121
f 176//121 177//119 139//121
f 175//122 176//123 139//123
f 175//124 138//124 137//125
f 175//122 139//123 138//122
f 174//126 137//127 136//128
f 174//129 175//124 137//125
f 173//130 136//131 135//71
f 173//130 174//126 136//128
f 172//71 173//130 135//71
f 171//132 134//132 133//133
f 171//132 135//71 134//132
f 171//132 172//71 135//71
f 170//133 171//132 133//133
f 169//134 132//134 131//135
f 169//136 133//137 132//136
f 169//136 170//137 133//137
f 168//135 169//134 131//135
f 167//138 131//135 130//139
f 167//138 168//135 131//135
f 166//140 129//140 128//141
f 166//142 130//143 129//142
f 166//142 167//144 130//143
f 165//141 166//140 128//141
f 164//58 127//58 126//145
f 164//58 128//141 127//58
f 164//58 165//141 128//141
f 163//146 126//145 125//11
f 163//147 164//58 126//145
f 162//11 163//146 125//11
f 161//148 124//148 123//149
f 161//150 125//11 124//150
f 161//150 162//11 125//11
f 160//149 161//148 123//149
f 159//151 122//151 121//152
f 159//151 123//153 122//151
f 159//151 160//153 123//153
f 158//152 159//151 121//152
f 157//154 120//154 119//155
f 157//156 121//157 120//156
f 157//156 158//152 121//152
f 156//158 119//159 118//160
f 156//161 157//154 119//155
f 155//160 156//158 118//160
f 154//162 118//160 117//163
f 154//162 155//160 118//160
f 153//164 116//164 115//40
f 153//164 117//163 116//164
f 153//164 154//165 117//163
f 152//40 153//164 115//40
f 151//166 115//45 114//167
f 151//166 152//45 115//45
f 150//168 114//169 113//168
f 150//168 151//170 114//169
f 271//171 229//172 228//173
f 271//171 272//172 229//172
f 270//174 228//175 227//176
f 270//174 271//171 228//175
f 269//177 270//174 227//178
f 269//177 227//178 226//179
f 268//180 269//181 226//182
f 268//180 226//182 225//183
f 267//184 268//180 225//185
f 267//184 225//185 224//186
f 266//160 267//184 224//187
f 266//160 224//187 223//188
f 265//189 266//160 223//188
f 265//189 222//189 221//7
f 265//189 223//188 222//189
f 264//7 265//189 221//7
f 263//190 264//7 221//7
f 263//190 220//190 219//191
f 263//190 221//7 220//190
f 262//191 263//190 219//191
f 261//192 262//193 219//193
f 261//194 218//194 217//10
f 261//192 219//193 218//192
f 260//10 261//194 217//10
f 259//148 217//10 216//195
f 259//148 260//10 217//10
f 258//196 216//195 215//197
f 258//196 259//150 216//195
f 257//198 215//197 214//199
f 257//198 258//200 215//197
f 256//201 214//199 213//202
f 256//201 257//198 214//199
f 255//203 213//202 212//204
f 255//203 256//205 213//202
f 254//15 211//15 210//206
f 254//15 212//204 211//15
f 254//15 255//207 212//204
f 253//206 254//15 210//206
f 252//16 209//16 208//135
f 252//16 210//206 209//16
f 252//16 253//206 210//206
f 251//135 252//16 208//135
f 250//208 208//135 207//134
f 250//208 251//135 208//135
f 249//209 207//136 206//210
f 249//209 250//208 207//136
f 248//19 205//19 204//211
f 248//19 206//212 205//19
f 248//19 249//209 206//212
f 247//213 204//211 203//20
f 247//214 248//19 204//211
f 246//20 247//213 203//20
f 245//215 202//215 201//22
f 245//215 203//20 202//215
f 245//215 246//20 203//20
f 244//22 245//215 201//22
f 243//216 244//22 201//22
f 243//216 201//22 200//124
f 242//23 243//216 200//122
f 242//23 199//23 198//217
f 242//23 200//122 199//23
f 241//217 242//23 198//217
f 240//218 198//219 197//220
f 240//218 241//219 198//219
f 239//221 197//220 196//222
f 239//221 240//218 197//220
f 238//223 196//222 195//224
f 238//223 239//221 196//222
f 237//225 195//224 194//226
f 237//225 238//227 195//224
f 236//228 194//226 193//229
f 236//228 237//230 194//226
f 235//231 193//229 192//232
f 235//231 236//228 193//229
f 234//233 192//232 191//234
f 234//233 235//235 192//232
f 233//236 191//234 190//237
f 233//236 234//238 191//234
f 232//239 190//240 189//241
f 232//239 233//242 190//240
f 231//94 189//241 188//243
f 231//94 232//244 189//241
f 230//245 188//243 187//245
f 230//245 231//96 188//243
f 358//246 274//247 273//247
f 358//246 316//246 315//248
f 358//246 273//247 316//246
f 357//248 358//246 315//248
f 356//249 357//250 315//250
f 356//249 314//249 313//251
f 356//249 315//248 314//249
f 355//252 356//249 313//251
f 355//253 313//251 312//254
f 354//254 355//253 312//254
f 353//255 354//254 312//254
f 353//255 311//255 310//256
f 353//255 312//254 311//255
f 352//256 353//255 310//256
f 351//257 352//256 310//256
f 351//257 310//256 309//258
f 350//259 351//257 309//260
f 350//259 309//260 308//261
f 349//262 350//259 308//261
f 349//262 308//261 307//263
f 348//264 307//263 306//265
f 348//264 349//262 307//263
f 347//266 306//265 305//267
f 347//266 348//264 306//265
f 346//268 305//267 304//269
f 346//268 347//266 305//267
f 345//270 303//270 302//271
f 345//270 304//269 303//270
f 345//270 346//272 304//269
f 344//271 345//270 302//271
f 343//273 301//273 300//274
f 343//273 302//271 301//273
f 343//273 344//271 302//271
f 342//275 300//276 299//277
f 342//275 343//273 300//274
f 341//277 342//275 299//277
f 340//278 299//277 298//279
f 340//278 341//277 299//277
f 339//280 298//279 297//281
f 339//280 340//282 298//279
f 338//283 296//283 295//284
f 338//283 297//281 296//283
f 338//283 339//285 297//281
f 337//284 338//283 295//284
f 336//286 294//286 293//287
f 336//286 295//284 294//286
f 336//286 337//284 295//284
f 335//287 336//286 293//287
f 334//288 293//287 292//289
f 334//288 335//287 293//287
f 333//290 292//291 291//292
f 333//290 334//288 292//291
f 332//293 291//294 290//295
f 332//293 333//290 291//294
f 331//296 332//293 290//295
f 331//296 289//296 288//297
f 331//296 290//295 289//296
f 330//297 331//296 288//297
f 329//298 330//297 288//297
f 329//298 288//297 287//299
f 328//300 286//300 285//301
f 328//302 287//299 286//302
f 328//302 329//298 287//299
f 327//303 328//300 285//301
f 327//303 285//301 284//304
f 326//304 327//303 284//304
f 325//305 284//304 283//306
f 325//305 326//304 284//304
f 324//307 283//306 282//308
f 324//307 325//309 283//306
f 323//310 282//308 281//311
f 323//310 324//312 282//308
f 322//313 281//311 280//314
f 322//313 323//310 281//311
f 321//315 280//314 279//316
f 321//315 322//317 280//314
f 320//318 278//318 277//319
f 320//318 279//316 278//318
f 320//318 321//320 279//316
f 319//321 320//318 277//321
f 318//322 277//319 276//323
f 318//322 319//319 277//319
f 317//324 276//323 275//324
f 317//324 318//325 276//323
f 480//326 368//326 369//326
f 480//326 369//326 370//326
f 479//326 370//326 371//326
f 479//326 371//326 372//326
f 479//326 480//326 370//326
f 481//326 366//326 367//326
f 481//326 367//326 368//326
f 481//326 368//326 480//326
f 478//326 372//326 373//326
f 478//326 373//326 374//326
f 478//326 479//326 372//326
f 482//326 366//326 481//326
f 482//326 364//326 365//326
f 482//326 365//326 366//326
f 477//326 478//326 374//326
f 477//326 374//326 375//326
f 477//326 375//326 376//326
f 483//326 362//326 363//326
f 483//326 363//326 364//326
f 483//326 364//326 482//326
f 476//326 376//326 377//326
f 476//326 377//326 378//326
f 476//326 477//326 376//326
f 484//326 360//326 361//326
f 484//326 361//326 362//326
f 484//326 362//326 483//326
f 475//326 378//326 379//326
f 475//326 379//326 380//326
f 475//326 476//326 378//326
f 443//326 359//326 360//326
f 443//326 442//326 359//326
f 443//326 360//326 484//326
f 474//326 475//326 380//326
f 474//326 380//326 381//326
f 474//326 381//326 382//326
f 444//326 442//326 443//326
f 444//326 440//326 441//326
f 444//326 441//326 442//326
f 473//326 382//326 383//326
f 473//326 383//326 384//326
f 473//326 474//326 382//326
f 445//326 440//326 444//326
f 445//326 438//326 439//326
f 445//326 439//326 440//326
f 472//326 384//326 385//326
f 472//326 385//326 386//326
f 472//326 473//326 384//326
f 446//326 438//326 445//326
f 446//326 436//326 437//326
f 446//326 437//326 438//326
f 471//326 386//326 387//326
f 471//326 387//326 388//326
f 471//326 472//326 386//326
f 447//326 436//326 446//326
f 447//326 434//326 435//326
f 447//326 435//326 436//326
f 470//326 388//326 389//326
f 470//326 389//326 390//326
f 470//326 471//326 388//326
f 448//326 434//326 447//326
f 448//326 433//326 434//326
f 469//326 470//326 390//326
f 432//326 433//326 448//326
f 432//326 448//326 449//326
f 391//326 469//326 390//326
f 431//326 432//326 449//326
f 392//326 468//326 469//326
f 392//326 469//326 391//326
f 430//326 431//326 449//326
f 430//326 449//326 450//326
f 393//326 468//326 392//326
f 429//326 430//326 450//326
f 394//326 467//326 468//326
f 394//326 468//326 393//326
f 428//326 450//326 451//326
f 428//326 429//326 450//326
f 395//326 467//326 394//326
f 427//326 428//326 451//326
f 396//326 466//326 467//326
f 396//326 467//326 395//326
f 426//326 427//326 451//326
f 426//326 451//326 452//326
f 397//326 466//326 396//326
f 425//326 426//326 452//326
f 398//326 465//326 466//326
f 398//326 466//326 397//326
f 424//326 425//326 452//326
f 424//326 452//326 453//326
f 399//326 465//326 398//326
f 423//326 424//326 453//326
f 400//326 464//326 465//326
f 400//326 465//326 399//326
f 422//326 423//326 453//326
f 422//326 453//326 454//326
f 401//326 464//326 400//326
f 421//326 422//326 454//326
f 402//326 463//326 464//326
f 402//326 464//326 401//326
f 420//326 421//326 454//326
f 420//326 454//326 455//326
f 403//326 463//326 402//326
f 419//326 420//326 455//326
f 404//326 463//326 403//326
f 404//326 462//326 463//326
f 418//326 419//326 455//326
f 418//326 455//326 456//326
f 405//326 462//326 404//326
f 417//326 418//326 456//326
f 406//326 461//326 462//326
f 406//326 462//326 405//326
f 416//326 417//326 456//326
f 416//326 456//326 457//326
f 407//326 461//326 406//326
f 415//326 416//326 457//326
f 408//326 460//326 461//326
f 408//326 461//326 407//326
f 414//326 415//326 457//326
f 414//326 457//326 458//326
f 409//326 460//326 408//326
f 413//326 414//326 458//326
f 410//326 459//326 460//326
f 410//326 460//326 409//326
f 412//326 413//326 458//326
f 412//326 458//326 459//326
f 411//326 459//326 410//326
f 411//326 412//326 459//326
f 632//327 538//327 537//327
f 633//327 537//327 536//327
f 633//327 632//327 537//327
f 631//327 539//327 538//327
f 631//327 538//327 632//327
f 634//327 633//327 536//327
f 634//327 536//327 535//327
f 630//327 540//327 539//327
f 630//327 539//327 631//327
f 635//327 634//327 535//327
f 635//327 534//327 533//327
f 635//327 535//327 534//327
f 629//327 541//327 540//327
f 629//327 542//327 541//327
f 629//327 540//327 630//327
f 636//327 635//327 533//327
f 636//327 533//327 532//327
f 628//327 543//327 542//327
f 628//327 542//327 629//327
f 637//327 636//327 532//327
f 637//327 532//327 531//327
f 627//327 544//327 543//327
f 627//327 543//327 628//327
f 638//327 637//327 531//327
f 638//327 531//327 530//327
f 626//327 545//327 544//327
f 626//327 544//327 627//327
f 639//327 638//327 530//327
f 639//327 530//327 529//327
f 625//327 545//327 626//327
f 625//327 546//327 545//327
f 640//327 529//327 528//327
f 640//327 639//327 529//327
f 624//327 546//327 625//327
f 624//327 547//327 546//327
f 569//327 640//327 528//327
f 569//327 527//327 526//327
f 569//327 528//327 527//327
f 623//327 547//327 624//327
f 623//327 548//327 547//327
f 623//327 549//327 548//327
f 570//327 526//327 525//327
f 570//327 569//327 526//327
f 622//327 549//327 623//327
f 622//327 550//327 549//327
f 571//327 525//327 524//327
f 571//327 570//327 525//327
f 621//327 550//327 622//327
f 621//327 551//327 550//327
f 572//327 524//327 523//327
f 572//327 571//327 524//327
f 620//327 551//327 621//327
f 620//327 552//327 551//327
f 573//327 523//327 522//327
f 573//327 572//327 523//327
f 619//327 553//327 552//327
f 619//327 552//327 620//327
f 574//327 522//327 521//327
f 574//327 573//327 522//327
f 618//327 554//327 553//327
f 618//327 553//327 619//327
f 575//327 521//327 520//327
f 575//327 574//327 521//327
f 617//327 554//327 618//327
f 617//327 555//327 554//327
f 519//327 575//327 520//327
f 556//327 555//327 617//327
f 576//327 575//327 519//327
f 616//327 556//327 617//327
f 518//327 576//327 519//327
f 557//327 556//327 616//327
f 577//327 576//327 518//327
f 615//327 557//327 616//327
f 517//327 577//327 518//327
f 558//327 557//327 615//327
f 578//327 577//327 517//327
f 614//327 558//327 615//327
f 516//327 578//327 517//327
f 559//327 558//327 614//327
f 579//327 578//327 516//327
f 613//327 559//327 614//327
f 515//327 579//327 516//327
f 560//327 559//327 613//327
f 580//327 579//327 515//327
f 612//327 560//327 613//327
f 514//327 580//327 515//327
f 561//327 560//327 612//327
f 581//327 580//327 514//327
f 611//327 561//327 612//327
f 513//327 581//327 514//327
f 562//327 561//327 611//327
f 512//327 581//327 513//327
f 512//327 582//327 581//327
f 563//327 611//327 610//327
f 563//327 562//327 611//327
f 511//327 582//327 512//327
f 511//327 583//327 582//327
f 564//327 610//327 609//327
f 564//327 563//327 610//327
f 510//327 583//327 511//327
f 510//327 584//327 583//327
f 565//327 609//327 608//327
f 565//327 564//327 609//327
f 509//327 584//327 510//327
f 509//327 585//327 584//327
f 566//327 608//327 607//327
f 566//327 565//327 608//327
f 508//327 586//327 585//327
f 508//327 585//327 509//327
f 567//327 607//327 606//327
f 567//327 566//327 607//327
f 507//327 587//327 586//327
f 507//327 586//327 508//327
f 568//327 606//327 605//327
f 568//327 567//327 606//327
f 506//327 587//327 507//327
f 485//327 568//327 605//327
f 505//327 588//327 587//327
f 505//327 587//327 506//327
f 486//327 485//327 605//327
f 486//327 605//327 604//327
f 487//327 604//327 603//327
f 487//327 486//327 604//327
f 504//327 589//327 588//327
f 504//327 588//327 505//327
f 503//327 590//327 589//327
f 503//327 589//327 504//327
f 488//327 603//327 602//327
f 488//327 487//327 603//327
f 489//327 602//327 601//327
f 489//327 488//327 602//327
f 502//327 591//327 590//327
f 502//327 590//327 503//327
f 490//327 601//327 600//327
f 490//327 489//327 601//327
f 501//327 592//327 591//327
f 501//327 591//327 502//327
f 491//327 600//327 599//327
f 491//327 490//327 600//327
f 500//327 593//327 592//327
f 500//327 592//327 501//327
f 499//327 593//327 500//327
f 492//327 491//327 599//327
f 498//327 594//327 593//327
f 498//327 593//327 499//327
f 493//327 599//327 598//327
f 493//327 492//327 599//327
f 497//327 595//327 594//327
f 497//327 594//327 498//327
f 494//327 598//327 597//327
f 494//327 493//327 598//327
f 496//327 596//327 595//327
f 496//327 595//327 497//327
f 495//327 597//327 596//327
f 495//327 494//327 597//327
f 495//327 596//327 496//327
f 714//328 642//329 641//329
f 714//328 641//329 678//330
f 713//331 678//332 677//333
f 713//331 714//334 678//332
f 712//335 677//336 676//337
f 712//335 713//331 677//336
f 711//338 676//339 675//340
f 711//338 712//341 676//339
f 710//342 675//343 674//344
f 710//342 711//338 675//343
f 709//345 710//342 674//346
f 709//345 673//345 672//309
f 709//345 674//346 673//345
f 708//309 709//345 672//309
f 707//347 708//305 672//305
f 707//347 672//305 671//348
f 706//349 707//347 671//348
f 706//349 671//348 670//350
f 705//351 706//352 670//353
f 705//351 670//353 669//354
f 704//355 705//351 669//354
f 704//355 669//354 668//356
f 703//357 668//356 667//358
f 703//357 704//355 668//356
f 702//293 703//359 667//360
f 702//293 666//293 665//361
f 702//293 667//360 666//293
f 701//361 702//293 665//361
f 700//362 665//361 664//363
f 700//362 701//361 665//361
f 699//364 664//365 663//366
f 699//364 700//367 664//365
f 698//368 663//366 662//369
f 698//368 699//370 663//366
f 697//283 661//283 660//285
f 697//283 662//371 661//283
f 697//283 698//372 662//371
f 696//285 697//283 660//285
f 695//373 659//373 658//374
f 695//375 660//280 659//375
f 695//375 696//280 660//280
f 694//376 658//377 657//378
f 694//379 695//373 658//374
f 693//378 694//376 657//378
f 692//380 656//380 655//381
f 692//380 657//378 656//380
f 692//380 693//378 657//378
f 691//382 655//383 654//272
f 691//384 692//380 655//381
f 690//272 691//382 654//272
f 689//385 653//385 652//386
f 689//387 654//268 653//387
f 689//387 690//268 654//268
f 688//388 652//389 651//390
f 688//391 689//385 652//386
f 687//390 688//388 651//390
f 686//258 650//258 649//256
f 686//260 651//392 650//260
f 686//260 687//390 651//390
f 685//256 686//258 649//256
f 684//393 685//256 649//256
f 684//393 649//256 648//394
f 683//395 648//394 647//396
f 683//395 684//397 648//394
f 682//398 647//396 646//399
f 682//398 683//400 647//396
f 681//401 646//402 645//403
f 681//401 682//404 646//402
f 680//405 645//403 644//406
f 680//405 681//407 645//403
f 679//408 644//409 643//408
f 679//408 680//410 644//409
f 828//327 723//327 724//327
f 829//327 724//327 725//327
f 829//327 828//327 724//327
f 827//327 722//327 723//327
f 827//327 723//327 828//327
f 830//327 725//327 726//327
f 830//327 829//327 725//327
f 826//327 721//327 722//327
f 826//327 722//327 827//327
f 831//327 726//327 727//327
f 831//327 727//327 728//327
f 831//327 830//327 726//327
f 825//327 720//327 721//327
f 825//327 721//327 826//327
f 832//327 728//327 729//327
f 832//327 831//327 728//327
f 824//327 719//327 720//327
f 824//327 720//327 825//327
f 833//327 729//327 730//327
f 833//327 832//327 729//327
f 823//327 718//327 719//327
f 823//327 719//327 824//327
f 834//327 730//327 731//327
f 834//327 833//327 730//327
f 822//327 717//327 718//327
f 822//327 718//327 823//327
f 835//327 731//327 732//327
f 835//327 834//327 731//327
f 821//327 716//327 717//327
f 821//327 717//327 822//327
f 836//327 835//327 732//327
f 836//327 732//327 733//327
f 820//327 715//327 716//327
f 820//327 786//327 715//327
f 820//327 716//327 821//327
f 837//327 836//327 733//327
f 837//327 733//327 734//327
f 819//327 786//327 820//327
f 819//327 785//327 786//327
f 838//327 734//327 735//327
f 838//327 837//327 734//327
f 818//327 785//327 819//327
f 818//327 784//327 785//327
f 839//327 735//327 736//327
f 839//327 838//327 735//327
f 817//327 784//327 818//327
f 817//327 783//327 784//327
f 840//327 736//327 737//327
f 840//327 839//327 736//327
f 816//327 783//327 817//327
f 816//327 782//327 783//327
f 841//327 737//327 738//327
f 841//327 840//327 737//327
f 815//327 782//327 816//327
f 815//327 781//327 782//327
f 842//327 738//327 739//327
f 842//327 841//327 738//327
f 740//327 842//327 739//327
f 814//327 781//327 815//327
f 814//327 780//327 781//327
f 843//327 842//327 740//327
f 813//327 780//327 814//327
f 741//327 843//327 740//327
f 779//327 780//327 813//327
f 844//327 843//327 741//327
f 812//327 779//327 813//327
f 742//327 844//327 741//327
f 778//327 779//327 812//327
f 845//327 844//327 742//327
f 811//327 778//327 812//327
f 743//327 845//327 742//327
f 777//327 778//327 811//327
f 846//327 845//327 743//327
f 810//327 777//327 811//327
f 744//327 847//327 846//327
f 744//327 846//327 743//327
f 776//327 777//327 810//327
f 809//327 776//327 810//327
f 745//327 848//327 847//327
f 745//327 847//327 744//327
f 775//327 776//327 809//327
f 746//327 848//327 745//327
f 746//327 849//327 848//327
f 774//327 775//327 809//327
f 774//327 809//327 808//327
f 747//327 849//327 746//327
f 747//327 850//327 849//327
f 773//327 774//327 808//327
f 773//327 808//327 807//327
f 748//327 850//327 747//327
f 748//327 851//327 850//327
f 772//327 773//327 807//327
f 772//327 807//327 806//327
f 749//327 851//327 748//327
f 749//327 852//327 851//327
f 771//327 772//327 806//327
f 771//327 806//327 805//327
f 750//327 787//327 852//327
f 750//327 852//327 749//327
f 770//327 771//327 805//327
f 770//327 805//327 804//327
f 751//327 787//327 750//327
f 769//327 770//327 804//327
f 769//327 804//327 803//327
f 752//327 787//327 751//327
f 752//327 788//327 787//327
f 768//327 769//327 803//327
f 768//327 803//327 802//327
f 767//327 768//327 802//327
f 767//327 802//327 801//327
f 753//327 788//327 752//327
f 753//327 789//327 788//327
f 766//327 801//327 800//327
f 766//327 767//327 801//327
f 754//327 789//327 753//327
f 754//327 790//327 789//327
f 755//327 790//327 754//327
f 755//327 791//327 790//327
f 765//327 800//327 799//327
f 765//327 766//327 800//327
f 764//327 765//327 799//327
f 764//327 799//327 798//327
f 756//327 791//327 755//327
f 756//327 792//327 791//327
f 763//327 764//327 798//327
f 757//327 792//327 756//327
f 757//327 793//327 792//327
f 762//327 763//327 798//327
f 762//327 798//327 797//327
f 758//327 794//327 793//327
f 758//327 793//327 757//327
f 761//327 762//327 797//327
f 761//327 797//327 796//327
f 759//327 794//327 758//327
f 759//327 795//327 794//327
f 760//327 761//327 796//327
f 760//327 795//327 759//327
f 760//327 796//327 795//327
f 854//411 887//412 853//412
f 854//411 888//413 887//412
f 855//414 889//415 888//413
f 855//414 888//413 854//416
f 856//417 890//418 889//415
f 856//417 889//415 855//419
f 857//420 891//421 890//418
f 857//420 890//418 856//417
f 858//422 892//423 891//421
f 858//422 891//421 857//420
f 859//424 893//425 892//423
f 859//424 892//423 858//422
f 860//426 894//427 893//425
f 860//426 893//425 859//424
f 861//428 894//427 860//426
f 861//428 895//429 894//427
f 862//430 895//429 861//428
f 862//430 896//430 895//429
f 862//431 897//432 896//431
f 863//433 897//432 862//431
f 863//433 898//270 897//432
f 864//270 898//270 863//433
f 865//434 898//270 864//270
f 865//434 899//435 898//270
f 866//436 899//435 865//434
f 866//436 900//436 899//435
f 866//436 901//437 900//436
f 867//437 901//437 866//436
f 868//438 901//437 867//437
f 868//438 902//439 901//437
f 869//440 902//439 868//438
f 869//440 903//441 902//439
f 870//442 903//441 869//440
f 870//442 904//443 903//441
f 871//444 904//443 870//442
f 871//444 905//445 904//443
f 872//446 905//445 871//444
f 872//446 906//446 905//445
f 872//446 907//447 906//446
f 873//447 907//447 872//446
f 874//448 907//447 873//447
f 874//448 908//448 907//447
f 874//448 909//296 908//448
f 875//296 909//296 874//448
f 876//449 910//450 909//296
f 876//449 909//296 875//296
f 877//451 911//451 910//450
f 877//452 912//453 911//452
f 877//451 910//450 876//449
f 878//453 912//453 877//452
f 879//454 913//455 912//453
f 879//454 912//453 878//453
f 880//456 914//456 913//455
f 880//456 915//457 914//456
f 880//456 913//455 879//454
f 881//458 916//459 915//457
f 881//458 915//457 880//456
f 882//459 916//459 881//458
f 883//460 917//461 916//459
f 883//460 916//459 882//459
f 884//462 918//462 917//461
f 884//463 919//464 918//463
f 884//462 917//461 883//460
f 885//464 919//464 884//463
f 886//465 919//464 885//464
f 886//465 920//465 919//464
f 1013//327 961//327 962//327
f 1013//327 962//327 963//327
f 1014//327 1013//327 963//327
f 1014//327 963//327 964//327
f 1012//327 961//327 1013//327
f 1012//327 960//327 961//327
f 1015//327 964//327 965//327
f 1015//327 965//327 966//327
f 1015//327 1014//327 964//327
f 1011//327 958//327 959//327
f 1011//327 959//327 960//327
f 1011//327 960//327 1012//327
f 1016//327 966//327 967//327
f 1016//327 1015//327 966//327
f 1010//327 958//327 1011//327
f 1010//327 956//327 957//327
f 1010//327 957//327 958//327
f 1017//327 967//327 968//327
f 1017//327 968//327 969//327
f 1017//327 1016//327 967//327
f 1009//327 955//327 956//327
f 1009//327 956//327 1010//327
f 1018//327 1017//327 969//327
f 1018//327 969//327 970//327
f 1018//327 970//327 971//327
f 1008//327 953//327 954//327
f 1008//327 954//327 955//327
f 1008//327 955//327 1009//327
f 1019//327 971//327 972//327
f 1019//327 1018//327 971//327
f 1007//327 952//327 953//327
f 1007//327 953//327 1008//327
f 1020//327 972//327 973//327
f 1020//327 973//327 974//327
f 1020//327 1019//327 972//327
f 1006//327 950//327 951//327
f 1006//327 951//327 952//327
f 1006//327 952//327 1007//327
f 1021//327 974//327 975//327
f 1021//327 1020//327 974//327
f 1005//327 949//327 950//327
f 1005//327 950//327 1006//327
f 1022//327 975//327 976//327
f 1022//327 976//327 977//327
f 1022//327 1021//327 975//327
f 1004//327 947//327 948//327
f 1004//327 948//327 949//327
f 1004//327 949//327 1005//327
f 1023//327 977//327 978//327
f 1023//327 1022//327 977//327
f 1003//327 947//327 1004//327
f 1003//327 946//327 947//327
f 1024//327 1023//327 978//327
f 979//327 1024//327 978//327
f 945//327 946//327 1003//327
f 945//327 1003//327 1002//327
f 980//327 1025//327 1024//327
f 980//327 1024//327 979//327
f 944//327 945//327 1002//327
f 944//327 1002//327 1001//327
f 981//327 1025//327 980//327
f 943//327 944//327 1001//327
f 982//327 1026//327 1025//327
f 982//327 1025//327 981//327
f 942//327 943//327 1001//327
f 942//327 1001//327 1000//327
f 983//327 1027//327 1026//327
f 983//327 1026//327 982//327
f 941//327 942//327 1000//327
f 941//327 1000//327 999//327
f 984//327 1027//327 983//327
f 940//327 941//327 999//327
f 985//327 1028//327 1027//327
f 985//327 1027//327 984//327
f 939//327 999//327 998//327
f 939//327 940//327 999//327
f 986//327 987//327 1028//327
f 986//327 1028//327 985//327
f 938//327 939//327 998//327
f 921//327 987//327 986//327
f 937//327 998//327 997//327
f 937//327 938//327 998//327
f 922//327 988//327 987//327
f 922//327 987//327 921//327
f 936//327 997//327 996//327
f 936//327 937//327 997//327
f 923//327 989//327 988//327
f 923//327 988//327 922//327
f 935//327 936//327 996//327
f 924//327 989//327 923//327
f 934//327 935//327 996//327
f 934//327 996//327 995//327
f 925//327 989//327 924//327
f 925//327 990//327 989//327
f 933//327 934//327 995//327
f 933//327 995//327 994//327
f 926//327 990//327 925//327
f 932//327 933//327 994//327
f 927//327 990//327 926//327
f 927//327 991//327 990//327
f 931//327 932//327 994//327
f 931//327 994//327 993//327
f 928//327 991//327 927//327
f 928//327 992//327 991//327
f 930//327 931//327 993//327
f 930//327 993//327 992//327
f 929//327 992//327 928//327
f 929//327 930//327 992//327
f 1030//466 1051//246 1029//246
f 1030//466 1052//414 1051//246
f 1031//467 1053//468 1052//414
f 1031//467 1052//414 1030//466
f 1032//469 1054//470 1053//468
f 1032//469 1053//468 1031//467
f 1033//471 1055//471 1054//472
f 1033//471 1056//473 1055//471
f 1033//471 1054//472 1032//474
f 1034//473 1056//473 1033//471
f 1035//385 1057//475 1056//476
f 1035//385 1056//476 1034//476
f 1036//477 1058//478 1057//479
f 1036//477 1057//479 1035//385
f 1037//480 1059//378 1058//478
f 1037//480 1058//478 1036//477
f 1038//481 1060//482 1059//378
f 1038//481 1059//378 1037//480
f 1039//483 1061//484 1060//482
f 1039//483 1060//482 1038//481
f 1040//485 1062//486 1061//484
f 1040//485 1061//484 1039//483
f 1041//487 1063//488 1062//486
f 1041//487 1062//486 1040//485
f 1042//361 1064//489 1063//488
f 1042//361 1063//488 1041//487
f 1043//490 1064//489 1042//361
f 1043//490 1065//491 1064//489
f 1044//492 1065//491 1043//490
f 1044//492 1066//493 1065//491
f 1045//494 1066//493 1044//495
f 1045//494 1067//494 1066//493
f 1045//496 1068//497 1067//496
f 1046//497 1068//497 1045//496
f 1047//498 1068//497 1046//497
f 1047//498 1069//498 1068//497
f 1047//498 1070//499 1069//498
f 1048//499 1070//499 1047//498
f 1049//500 1070//501 1048//501
f 1049//500 1071//502 1070//501
f 1050//503 1071//502 1049//500
f 1050//503 1072//503 1071//502
