# Blender 4.0.2
# www.blender.org
mtllib RA_short_linkage.mtl
o RA_small_linkage
v 0.003000 0.120000 0.006000
v 0.000000 0.120000 0.006000
v 0.000000 0.118829 0.005885
v 0.000000 0.117704 0.005543
v 0.000000 0.116667 0.004989
v 0.000000 0.115757 0.004243
v 0.000000 0.115011 0.003333
v 0.000000 0.114457 0.002296
v 0.000000 0.114115 0.001171
v 0.000000 0.114000 0.000000
v 0.000000 0.114115 -0.001171
v 0.000000 0.114457 -0.002296
v 0.000000 0.115011 -0.003333
v 0.000000 0.115757 -0.004243
v 0.000000 0.116667 -0.004989
v 0.000000 0.117704 -0.005543
v 0.000000 0.118829 -0.005885
v 0.000000 0.120000 -0.006000
v 0.003000 0.120000 -0.006000
v 0.003000 0.118829 0.005885
v 0.003000 0.117704 0.005543
v 0.003000 0.116667 0.004989
v 0.003000 0.115757 0.004243
v 0.003000 0.115011 0.003333
v 0.003000 0.114457 0.002296
v 0.003000 0.114115 0.001171
v 0.003000 0.114000 0.000000
v 0.003000 0.114115 -0.001171
v 0.003000 0.114457 -0.002296
v 0.003000 0.115011 -0.003333
v 0.003000 0.115757 -0.004243
v 0.003000 0.116667 -0.004989
v 0.003000 0.117704 -0.005543
v 0.003000 0.118829 -0.005885
v 0.003000 -0.000000 0.006000
v 0.000000 -0.000000 0.006000
v 0.000000 -0.001171 0.005885
v 0.000000 -0.002296 0.005543
v 0.000000 -0.003333 0.004989
v 0.000000 -0.004243 0.004243
v 0.000000 -0.004989 0.003333
v 0.000000 -0.005543 0.002296
v 0.000000 -0.005885 0.001171
v 0.000000 -0.006000 -0.000000
v 0.000000 -0.005885 -0.001171
v 0.000000 -0.005543 -0.002296
v 0.000000 -0.004989 -0.003333
v 0.000000 -0.004243 -0.004243
v 0.000000 -0.003333 -0.004989
v 0.000000 -0.002296 -0.005543
v 0.000000 -0.001171 -0.005885
v 0.000000 0.000000 -0.006000
v 0.003000 0.000000 -0.006000
v 0.003000 -0.001171 0.005885
v 0.003000 -0.002296 0.005543
v 0.003000 -0.003333 0.004989
v 0.003000 -0.004243 0.004243
v 0.003000 -0.004989 0.003333
v 0.003000 -0.005543 0.002296
v 0.003000 -0.005885 0.001171
v 0.003000 -0.006000 -0.000000
v 0.003000 -0.005885 -0.001171
v 0.003000 -0.005543 -0.002296
v 0.003000 -0.004989 -0.003333
v 0.003000 -0.004243 -0.004243
v 0.003000 -0.003333 -0.004989
v 0.003000 -0.002296 -0.005543
v 0.003000 -0.001171 -0.005885
v 0.003000 -0.000000 0.015000
v 0.003000 -0.001880 0.014882
v 0.003000 -0.003730 0.014529
v 0.003000 -0.005522 0.013947
v 0.003000 -0.007226 0.013145
v 0.003000 -0.008817 0.012135
v 0.003000 -0.010268 0.010935
v 0.003000 -0.011558 0.009561
v 0.003000 -0.012665 0.008037
v 0.003000 -0.013572 0.006387
v 0.003000 -0.014266 0.004635
v 0.003000 -0.014734 0.002811
v 0.003000 -0.014970 0.000942
v 0.003000 -0.014970 -0.000942
v 0.003000 -0.014734 -0.002811
v 0.003000 -0.014266 -0.004635
v 0.003000 -0.013572 -0.006387
v 0.003000 -0.012665 -0.008037
v 0.003000 -0.011558 -0.009561
v 0.003000 -0.010268 -0.010935
v 0.003000 -0.008817 -0.012135
v 0.003000 -0.007226 -0.013145
v 0.003000 -0.005522 -0.013947
v 0.003000 -0.003730 -0.014529
v 0.003000 -0.001880 -0.014882
v 0.003000 0.000000 -0.015000
v 0.003000 0.120000 -0.015000
v 0.003000 0.121880 -0.014882
v 0.003000 0.123730 -0.014529
v 0.003000 0.125522 -0.013947
v 0.003000 0.127226 -0.013145
v 0.003000 0.128817 -0.012135
v 0.003000 0.130268 -0.010935
v 0.003000 0.131558 -0.009561
v 0.003000 0.132665 -0.008037
v 0.003000 0.133572 -0.006387
v 0.003000 0.134266 -0.004635
v 0.003000 0.134734 -0.002811
v 0.003000 0.134970 -0.000942
v 0.003000 0.134970 0.000942
v 0.003000 0.134734 0.002811
v 0.003000 0.134266 0.004635
v 0.003000 0.133572 0.006387
v 0.003000 0.132665 0.008037
v 0.003000 0.131558 0.009561
v 0.003000 0.130268 0.010935
v 0.003000 0.128817 0.012135
v 0.003000 0.127226 0.013145
v 0.003000 0.125522 0.013947
v 0.003000 0.123730 0.014529
v 0.003000 0.121880 0.014882
v 0.003000 0.120000 0.015000
v 0.003000 -0.000000 0.006000
v 0.003000 -0.001171 0.005885
v 0.003000 -0.002296 0.005543
v 0.003000 -0.003333 0.004989
v 0.003000 -0.004243 0.004243
v 0.003000 -0.004989 0.003333
v 0.003000 -0.005543 0.002296
v 0.003000 -0.005885 0.001171
v 0.003000 -0.006000 -0.000000
v 0.003000 -0.005885 -0.001171
v 0.003000 -0.005543 -0.002296
v 0.003000 -0.004989 -0.003333
v 0.003000 -0.004243 -0.004243
v 0.003000 -0.003333 -0.004989
v 0.003000 -0.002296 -0.005543
v 0.003000 -0.001171 -0.005885
v 0.003000 0.000000 -0.006000
v 0.003000 0.001171 -0.005885
v 0.003000 0.002296 -0.005543
v 0.003000 0.003333 -0.004989
v 0.003000 0.004243 -0.004243
v 0.003000 0.004989 -0.003333
v 0.003000 0.005543 -0.002296
v 0.003000 0.005885 -0.001171
v 0.003000 0.006000 0.000000
v 0.003000 0.005885 0.001171
v 0.003000 0.005543 0.002296
v 0.003000 0.004989 0.003333
v 0.003000 0.004243 0.004243
v 0.003000 0.003333 0.004989
v 0.003000 0.002296 0.005543
v 0.003000 0.001171 0.005885
v 0.003000 0.120000 0.006000
v 0.003000 0.118829 0.005885
v 0.003000 0.117704 0.005543
v 0.003000 0.116667 0.004989
v 0.003000 0.115757 0.004243
v 0.003000 0.115011 0.003333
v 0.003000 0.114457 0.002296
v 0.003000 0.114115 0.001171
v 0.003000 0.114000 0.000000
v 0.003000 0.114115 -0.001171
v 0.003000 0.114457 -0.002296
v 0.003000 0.115011 -0.003333
v 0.003000 0.115757 -0.004243
v 0.003000 0.116667 -0.004989
v 0.003000 0.117704 -0.005543
v 0.003000 0.118829 -0.005885
v 0.003000 0.120000 -0.006000
v 0.003000 0.121171 -0.005885
v 0.003000 0.122296 -0.005543
v 0.003000 0.123333 -0.004989
v 0.003000 0.124243 -0.004243
v 0.003000 0.124989 -0.003333
v 0.003000 0.125543 -0.002296
v 0.003000 0.125885 -0.001171
v 0.003000 0.126000 0.000000
v 0.003000 0.125885 0.001171
v 0.003000 0.125543 0.002296
v 0.003000 0.124989 0.003333
v 0.003000 0.124243 0.004243
v 0.003000 0.123333 0.004989
v 0.003000 0.122296 0.005543
v 0.003000 0.121171 0.005885
v 0.000000 0.000000 -0.015000
v 0.000000 0.120000 -0.015000
v 0.000000 0.121880 -0.014882
v 0.000000 0.123730 -0.014529
v 0.000000 0.125522 -0.013947
v 0.000000 0.127226 -0.013145
v 0.000000 0.128817 -0.012135
v 0.000000 0.130268 -0.010935
v 0.000000 0.131558 -0.009561
v 0.000000 0.132665 -0.008037
v 0.000000 0.133572 -0.006387
v 0.000000 0.134266 -0.004635
v 0.000000 0.134734 -0.002811
v 0.000000 0.134970 -0.000942
v 0.000000 0.134970 0.000942
v 0.000000 0.134734 0.002811
v 0.000000 0.134266 0.004635
v 0.000000 0.133572 0.006387
v 0.000000 0.132665 0.008037
v 0.000000 0.131558 0.009561
v 0.000000 0.130268 0.010935
v 0.000000 0.128817 0.012135
v 0.000000 0.127226 0.013145
v 0.000000 0.125522 0.013947
v 0.000000 0.123730 0.014529
v 0.000000 0.121880 0.014882
v 0.000000 0.120000 0.015000
v 0.000000 -0.000000 0.015000
v 0.000000 -0.001880 0.014882
v 0.000000 -0.003730 0.014529
v 0.000000 -0.005522 0.013947
v 0.000000 -0.007226 0.013145
v 0.000000 -0.008817 0.012135
v 0.000000 -0.010268 0.010935
v 0.000000 -0.011558 0.009561
v 0.000000 -0.012665 0.008037
v 0.000000 -0.013572 0.006387
v 0.000000 -0.014266 0.004635
v 0.000000 -0.014734 0.002811
v 0.000000 -0.014970 0.000942
v 0.000000 -0.014970 -0.000942
v 0.000000 -0.014734 -0.002811
v 0.000000 -0.014266 -0.004635
v 0.000000 -0.013572 -0.006387
v 0.000000 -0.012665 -0.008037
v 0.000000 -0.011558 -0.009561
v 0.000000 -0.010268 -0.010935
v 0.000000 -0.008817 -0.012135
v 0.000000 -0.007226 -0.013145
v 0.000000 -0.005522 -0.013947
v 0.000000 -0.003730 -0.014529
v 0.000000 -0.001880 -0.014882
v 0.000000 0.000000 -0.006000
v 0.000000 0.001171 -0.005885
v 0.000000 0.002296 -0.005543
v 0.000000 0.003333 -0.004989
v 0.000000 0.004243 -0.004243
v 0.000000 0.004989 -0.003333
v 0.000000 0.005543 -0.002296
v 0.000000 0.005885 -0.001171
v 0.000000 0.006000 0.000000
v 0.000000 0.005885 0.001171
v 0.000000 0.005543 0.002296
v 0.000000 0.004989 0.003333
v 0.000000 0.004243 0.004243
v 0.000000 0.003333 0.004989
v 0.000000 0.002296 0.005543
v 0.000000 0.001171 0.005885
v 0.000000 -0.000000 0.006000
v 0.000000 -0.001171 0.005885
v 0.000000 -0.002296 0.005543
v 0.000000 -0.003333 0.004989
v 0.000000 -0.004243 0.004243
v 0.000000 -0.004989 0.003333
v 0.000000 -0.005543 0.002296
v 0.000000 -0.005885 0.001171
v 0.000000 -0.006000 -0.000000
v 0.000000 -0.005885 -0.001171
v 0.000000 -0.005543 -0.002296
v 0.000000 -0.004989 -0.003333
v 0.000000 -0.004243 -0.004243
v 0.000000 -0.003333 -0.004989
v 0.000000 -0.002296 -0.005543
v 0.000000 -0.001171 -0.005885
v 0.000000 0.120000 -0.006000
v 0.000000 0.121171 -0.005885
v 0.000000 0.122296 -0.005543
v 0.000000 0.123333 -0.004989
v 0.000000 0.124243 -0.004243
v 0.000000 0.124989 -0.003333
v 0.000000 0.125543 -0.002296
v 0.000000 0.125885 -0.001171
v 0.000000 0.126000 0.000000
v 0.000000 0.125885 0.001171
v 0.000000 0.125543 0.002296
v 0.000000 0.124989 0.003333
v 0.000000 0.124243 0.004243
v 0.000000 0.123333 0.004989
v 0.000000 0.122296 0.005543
v 0.000000 0.121171 0.005885
v 0.000000 0.120000 0.006000
v 0.000000 0.118829 0.005885
v 0.000000 0.117704 0.005543
v 0.000000 0.116667 0.004989
v 0.000000 0.115757 0.004243
v 0.000000 0.115011 0.003333
v 0.000000 0.114457 0.002296
v 0.000000 0.114115 0.001171
v 0.000000 0.114000 0.000000
v 0.000000 0.114115 -0.001171
v 0.000000 0.114457 -0.002296
v 0.000000 0.115011 -0.003333
v 0.000000 0.115757 -0.004243
v 0.000000 0.116667 -0.004989
v 0.000000 0.117704 -0.005543
v 0.000000 0.118829 -0.005885
v 0.000000 -0.000000 0.015000
v 0.000000 -0.001880 0.014882
v 0.000000 -0.003730 0.014529
v 0.000000 -0.005522 0.013947
v 0.000000 -0.007226 0.013145
v 0.000000 -0.008817 0.012135
v 0.000000 -0.010268 0.010935
v 0.000000 -0.011558 0.009561
v 0.000000 -0.012665 0.008037
v 0.000000 -0.013572 0.006387
v 0.000000 -0.014266 0.004635
v 0.000000 -0.014734 0.002811
v 0.000000 -0.014970 0.000942
v 0.000000 -0.014970 -0.000942
v 0.000000 -0.014734 -0.002811
v 0.000000 -0.014266 -0.004635
v 0.000000 -0.013572 -0.006387
v 0.000000 -0.012665 -0.008037
v 0.000000 -0.011558 -0.009561
v 0.000000 -0.010268 -0.010935
v 0.000000 -0.008817 -0.012135
v 0.000000 -0.007226 -0.013145
v 0.000000 -0.005522 -0.013947
v 0.000000 -0.003730 -0.014529
v 0.000000 -0.001880 -0.014882
v 0.000000 0.000000 -0.015000
v 0.003000 0.000000 -0.015000
v 0.003000 -0.000000 0.015000
v 0.003000 -0.001880 0.014882
v 0.003000 -0.003730 0.014529
v 0.003000 -0.005522 0.013947
v 0.003000 -0.007226 0.013145
v 0.003000 -0.008817 0.012135
v 0.003000 -0.010268 0.010935
v 0.003000 -0.011558 0.009561
v 0.003000 -0.012665 0.008037
v 0.003000 -0.013572 0.006387
v 0.003000 -0.014266 0.004635
v 0.003000 -0.014734 0.002811
v 0.003000 -0.014970 0.000942
v 0.003000 -0.014970 -0.000942
v 0.003000 -0.014734 -0.002811
v 0.003000 -0.014266 -0.004635
v 0.003000 -0.013572 -0.006387
v 0.003000 -0.012665 -0.008037
v 0.003000 -0.011558 -0.009561
v 0.003000 -0.010268 -0.010935
v 0.003000 -0.008817 -0.012135
v 0.003000 -0.007226 -0.013145
v 0.003000 -0.005522 -0.013947
v 0.003000 -0.003730 -0.014529
v 0.003000 -0.001880 -0.014882
v 0.003000 0.000000 -0.015000
v 0.000000 0.000000 -0.015000
v 0.003000 0.120000 -0.015000
v 0.000000 0.120000 -0.015000
v 0.000000 0.120000 -0.015000
v 0.000000 0.121880 -0.014882
v 0.000000 0.123730 -0.014529
v 0.000000 0.125522 -0.013947
v 0.000000 0.127226 -0.013145
v 0.000000 0.128817 -0.012135
v 0.000000 0.130268 -0.010935
v 0.000000 0.131558 -0.009561
v 0.000000 0.132665 -0.008037
v 0.000000 0.133572 -0.006387
v 0.000000 0.134266 -0.004635
v 0.000000 0.134734 -0.002811
v 0.000000 0.134970 -0.000942
v 0.000000 0.134970 0.000942
v 0.000000 0.134734 0.002811
v 0.000000 0.134266 0.004635
v 0.000000 0.133572 0.006387
v 0.000000 0.132665 0.008037
v 0.000000 0.131558 0.009561
v 0.000000 0.130268 0.010935
v 0.000000 0.128817 0.012135
v 0.000000 0.127226 0.013145
v 0.000000 0.125522 0.013947
v 0.000000 0.123730 0.014529
v 0.000000 0.121880 0.014882
v 0.000000 0.120000 0.015000
v 0.003000 0.120000 0.015000
v 0.003000 0.120000 -0.015000
v 0.003000 0.121880 -0.014882
v 0.003000 0.123730 -0.014529
v 0.003000 0.125522 -0.013947
v 0.003000 0.127226 -0.013145
v 0.003000 0.128817 -0.012135
v 0.003000 0.130268 -0.010935
v 0.003000 0.131558 -0.009561
v 0.003000 0.132665 -0.008037
v 0.003000 0.133572 -0.006387
v 0.003000 0.134266 -0.004635
v 0.003000 0.134734 -0.002811
v 0.003000 0.134970 -0.000942
v 0.003000 0.134970 0.000942
v 0.003000 0.134734 0.002811
v 0.003000 0.134266 0.004635
v 0.003000 0.133572 0.006387
v 0.003000 0.132665 0.008037
v 0.003000 0.131558 0.009561
v 0.003000 0.130268 0.010935
v 0.003000 0.128817 0.012135
v 0.003000 0.127226 0.013145
v 0.003000 0.125522 0.013947
v 0.003000 0.123730 0.014529
v 0.003000 0.121880 0.014882
v 0.003000 0.120000 0.015000
v 0.000000 0.120000 0.015000
v 0.003000 -0.000000 0.015000
v 0.000000 -0.000000 0.015000
v 0.000000 0.000000 -0.006000
v 0.000000 0.001171 -0.005885
v 0.000000 0.002296 -0.005543
v 0.000000 0.003333 -0.004989
v 0.000000 0.004243 -0.004243
v 0.000000 0.004989 -0.003333
v 0.000000 0.005543 -0.002296
v 0.000000 0.005885 -0.001171
v 0.000000 0.006000 0.000000
v 0.000000 0.005885 0.001171
v 0.000000 0.005543 0.002296
v 0.000000 0.004989 0.003333
v 0.000000 0.004243 0.004243
v 0.000000 0.003333 0.004989
v 0.000000 0.002296 0.005543
v 0.000000 0.001171 0.005885
v 0.000000 -0.000000 0.006000
v 0.003000 -0.000000 0.006000
v 0.003000 0.000000 -0.006000
v 0.003000 0.001171 -0.005885
v 0.003000 0.002296 -0.005543
v 0.003000 0.003333 -0.004989
v 0.003000 0.004243 -0.004243
v 0.003000 0.004989 -0.003333
v 0.003000 0.005543 -0.002296
v 0.003000 0.005885 -0.001171
v 0.003000 0.006000 0.000000
v 0.003000 0.005885 0.001171
v 0.003000 0.005543 0.002296
v 0.003000 0.004989 0.003333
v 0.003000 0.004243 0.004243
v 0.003000 0.003333 0.004989
v 0.003000 0.002296 0.005543
v 0.003000 0.001171 0.005885
v 0.000000 0.120000 -0.006000
v 0.000000 0.121171 -0.005885
v 0.000000 0.122296 -0.005543
v 0.000000 0.123333 -0.004989
v 0.000000 0.124243 -0.004243
v 0.000000 0.124989 -0.003333
v 0.000000 0.125543 -0.002296
v 0.000000 0.125885 -0.001171
v 0.000000 0.126000 0.000000
v 0.000000 0.125885 0.001171
v 0.000000 0.125543 0.002296
v 0.000000 0.124989 0.003333
v 0.000000 0.124243 0.004243
v 0.000000 0.123333 0.004989
v 0.000000 0.122296 0.005543
v 0.000000 0.121171 0.005885
v 0.000000 0.120000 0.006000
v 0.003000 0.120000 0.006000
v 0.003000 0.120000 -0.006000
v 0.003000 0.121171 -0.005885
v 0.003000 0.122296 -0.005543
v 0.003000 0.123333 -0.004989
v 0.003000 0.124243 -0.004243
v 0.003000 0.124989 -0.003333
v 0.003000 0.125543 -0.002296
v 0.003000 0.125885 -0.001171
v 0.003000 0.126000 0.000000
v 0.003000 0.125885 0.001171
v 0.003000 0.125543 0.002296
v 0.003000 0.124989 0.003333
v 0.003000 0.124243 0.004243
v 0.003000 0.123333 0.004989
v 0.003000 0.122296 0.005543
v 0.003000 0.121171 0.005885
vn -0.0000 0.1628 0.9867
vn -0.0000 0.0980 0.9952
vn -0.0000 0.2272 0.9739
vn -0.0000 0.3521 0.9359
vn -0.0000 0.4128 0.9108
vn -0.0000 0.5556 0.8315
vn -0.0000 0.7071 0.7071
vn -0.0000 0.8128 0.5826
vn -0.0000 0.8493 0.5280
vn -0.0000 0.9239 0.3827
vn -0.0000 0.9808 0.1951
vn -0.0000 1.0000 -0.0000
vn -0.0000 0.9867 -0.1628
vn -0.0000 0.9739 -0.2272
vn -0.0000 0.9239 -0.3827
vn -0.0000 0.8493 -0.5280
vn -0.0000 0.8128 -0.5826
vn -0.0000 0.7071 -0.7071
vn -0.0000 0.5556 -0.8315
vn -0.0000 0.3827 -0.9239
vn -0.0000 0.1951 -0.9808
vn -0.0000 0.0980 -0.9952
vn 1.0000 -0.0000 -0.0000
vn -1.0000 -0.0000 -0.0000
vn -0.0000 -0.1045 -0.9945
vn -0.0000 -0.0628 -0.9980
vn -0.0000 -0.1461 -0.9893
vn -0.0000 -0.2487 -0.9686
vn -0.0000 -0.3681 -0.9298
vn -0.0000 -0.4633 -0.8862
vn -0.0000 -0.5000 -0.8660
vn -0.0000 -0.5878 -0.8090
vn -0.0000 -0.6691 -0.7432
vn -0.0000 -0.6997 -0.7144
vn -0.0000 -0.7570 -0.6534
vn -0.0000 -0.6997 -0.7145
vn -0.0000 -0.7837 -0.6211
vn -0.0000 -0.8443 -0.5358
vn -0.0000 -0.8957 -0.4447
vn -0.0000 -0.9136 -0.4067
vn -0.0000 -0.9444 -0.3289
vn -0.0000 -0.9573 -0.2890
vn -0.0000 -0.9823 -0.1874
vn -0.0000 -0.9980 -0.0628
vn -0.0000 -0.9991 0.0418
vn -0.0000 -0.9965 0.0837
vn -0.0000 -0.9860 0.1667
vn -0.0000 -0.9991 0.0419
vn -0.0000 -0.9781 0.2079
vn -0.0000 -0.9573 0.2890
vn -0.0000 -0.9444 0.3289
vn -0.0000 -0.9136 0.4067
vn -0.0000 -0.8957 0.4447
vn -0.0000 -0.8443 0.5358
vn -0.0000 -0.7837 0.6211
vn -0.0000 -0.7570 0.6534
vn -0.0000 -0.6845 0.7290
vn -0.0000 -0.5878 0.8090
vn -0.0000 -0.4817 0.8763
vn -0.0000 -0.6846 0.7290
vn -0.0000 -0.3681 0.9298
vn -0.0000 -0.2487 0.9686
vn -0.0000 -0.4818 0.8763
vn -0.0000 -0.1253 0.9921
vn -0.0000 -0.0628 0.9980
vn -0.0000 -0.0000 -1.0000
vn -0.0000 0.1045 0.9945
vn -0.0000 0.0628 0.9980
vn -0.0000 0.1461 0.9893
vn -0.0000 0.2283 0.9736
vn -0.0000 0.2689 0.9632
vn -0.0000 0.3681 0.9298
vn -0.0000 0.4818 0.8763
vn -0.0000 0.2690 0.9632
vn -0.0000 0.5878 0.8090
vn -0.0000 0.6846 0.7290
vn -0.0000 0.4817 0.8763
vn -0.0000 0.7705 0.6374
vn -0.0000 0.8443 0.5358
vn -0.0000 0.6845 0.7290
vn -0.0000 0.9048 0.4258
vn -0.0000 0.9511 0.3090
vn -0.0000 0.9781 0.2079
vn -0.0000 0.9860 0.1667
vn -0.0000 0.9980 0.0628
vn -0.0000 0.9980 -0.0628
vn -0.0000 0.9823 -0.1874
vn -0.0000 0.9573 -0.2890
vn -0.0000 0.9444 -0.3289
vn -0.0000 0.9048 -0.4258
vn -0.0000 0.8443 -0.5358
vn -0.0000 0.7705 -0.6374
vn -0.0000 0.6997 -0.7144
vn -0.0000 0.6691 -0.7432
vn -0.0000 0.6046 -0.7965
vn -0.0000 0.5707 -0.8212
vn -0.0000 0.6997 -0.7145
vn -0.0000 0.5000 -0.8660
vn -0.0000 0.4633 -0.8862
vn -0.0000 0.3681 -0.9298
vn -0.0000 0.2487 -0.9686
vn -0.0000 0.1253 -0.9921
vn -0.0000 0.0628 -0.9980
vn -0.0000 -0.0000 1.0000
vn -0.0000 -0.1628 -0.9867
vn -0.0000 -0.0980 -0.9952
vn -0.0000 -0.2272 -0.9739
vn -0.0000 -0.3521 -0.9359
vn -0.0000 -0.4128 -0.9108
vn -0.0000 -0.5556 -0.8315
vn -0.0000 -0.7071 -0.7071
vn -0.0000 -0.8315 -0.5556
vn -0.0000 -0.9239 -0.3827
vn -0.0000 -0.9808 -0.1951
vn -0.0000 -1.0000 -0.0000
vn -0.0000 -0.9808 0.1951
vn -0.0000 -0.9239 0.3827
vn -0.0000 -0.8493 0.5280
vn -0.0000 -0.8128 0.5826
vn -0.0000 -0.7299 0.6835
vn -0.0000 -0.6835 0.7299
vn -0.0000 -0.5826 0.8128
vn -0.0000 -0.5280 0.8493
vn -0.0000 -0.4128 0.9108
vn -0.0000 -0.3521 0.9359
vn -0.0000 -0.2272 0.9739
vn -0.0000 -0.1628 0.9867
vn -0.0000 -0.0980 0.9952
s 0
usemtl material6.003
f 17//1 19//2 18//2
f 17//1 34//3 19//2
f 16//4 33//5 34//3
f 16//4 34//3 17//1
f 15//6 31//7 32//6
f 15//6 32//6 33//5
f 15//6 33//5 16//4
f 14//7 31//7 15//6
f 13//8 30//9 31//7
f 13//8 31//7 14//7
f 12//10 28//11 29//10
f 12//10 29//10 30//9
f 12//10 30//9 13//8
f 11//11 28//11 12//10
f 10//12 26//13 27//12
f 10//12 27//12 28//11
f 10//12 28//11 11//11
f 9//14 25//15 26//13
f 9//14 26//13 10//12
f 8//15 25//15 9//14
f 7//16 24//17 25//15
f 7//16 25//15 8//15
f 6//18 22//19 23//18
f 6//18 23//18 24//17
f 6//18 24//17 7//16
f 5//19 22//19 6//18
f 4//20 20//21 21//20
f 4//20 21//20 22//19
f 4//20 22//19 5//19
f 3//21 20//21 4//20
f 2//22 20//21 3//21
f 2//22 1//22 20//21
f 51//1 53//2 52//2
f 51//1 68//3 53//2
f 50//4 67//5 68//3
f 50//4 68//3 51//1
f 49//6 65//7 66//6
f 49//6 66//6 67//5
f 49//6 67//5 50//4
f 48//7 65//7 49//6
f 47//8 64//9 65//7
f 47//8 65//7 48//7
f 46//10 62//11 63//10
f 46//10 63//10 64//9
f 46//10 64//9 47//8
f 45//11 62//11 46//10
f 44//12 60//13 61//12
f 44//12 61//12 62//11
f 44//12 62//11 45//11
f 43//14 59//15 60//13
f 43//14 60//13 44//12
f 42//15 59//15 43//14
f 41//16 58//17 59//15
f 41//16 59//15 42//15
f 40//18 56//19 57//18
f 40//18 57//18 58//17
f 40//18 58//17 41//16
f 39//19 56//19 40//18
f 38//20 54//21 55//20
f 38//20 55//20 56//19
f 38//20 56//19 39//19
f 37//21 54//21 38//20
f 36//22 54//21 37//21
f 36//22 35//22 54//21
f 125//23 74//23 75//23
f 125//23 75//23 76//23
f 124//23 73//23 74//23
f 124//23 74//23 125//23
f 126//23 76//23 77//23
f 126//23 77//23 78//23
f 126//23 125//23 76//23
f 123//23 71//23 72//23
f 123//23 72//23 73//23
f 123//23 73//23 124//23
f 127//23 78//23 79//23
f 127//23 126//23 78//23
f 122//23 70//23 71//23
f 122//23 71//23 123//23
f 128//23 79//23 80//23
f 128//23 80//23 81//23
f 128//23 127//23 79//23
f 121//23 69//23 70//23
f 121//23 70//23 122//23
f 129//23 81//23 82//23
f 129//23 128//23 81//23
f 152//23 69//23 121//23
f 130//23 82//23 83//23
f 130//23 83//23 84//23
f 130//23 129//23 82//23
f 151//23 69//23 152//23
f 131//23 84//23 85//23
f 131//23 130//23 84//23
f 150//23 69//23 151//23
f 132//23 85//23 86//23
f 132//23 86//23 87//23
f 132//23 131//23 85//23
f 149//23 69//23 150//23
f 133//23 132//23 87//23
f 88//23 133//23 87//23
f 148//23 69//23 149//23
f 89//23 134//23 133//23
f 89//23 133//23 88//23
f 90//23 134//23 89//23
f 90//23 135//23 134//23
f 91//23 135//23 90//23
f 92//23 135//23 91//23
f 92//23 136//23 135//23
f 93//23 136//23 92//23
f 93//23 137//23 136//23
f 94//23 138//23 137//23
f 94//23 139//23 138//23
f 94//23 140//23 139//23
f 94//23 141//23 140//23
f 94//23 142//23 141//23
f 94//23 137//23 93//23
f 158//23 157//23 120//23
f 158//23 120//23 69//23
f 158//23 69//23 148//23
f 156//23 120//23 157//23
f 155//23 120//23 156//23
f 159//23 158//23 148//23
f 159//23 148//23 147//23
f 160//23 159//23 147//23
f 160//23 147//23 146//23
f 154//23 120//23 155//23
f 161//23 160//23 146//23
f 161//23 146//23 145//23
f 153//23 120//23 154//23
f 153//23 119//23 120//23
f 184//23 118//23 119//23
f 184//23 119//23 153//23
f 162//23 161//23 145//23
f 162//23 144//23 143//23
f 162//23 145//23 144//23
f 183//23 116//23 117//23
f 183//23 117//23 118//23
f 183//23 118//23 184//23
f 163//23 162//23 143//23
f 163//23 143//23 142//23
f 182//23 116//23 183//23
f 182//23 115//23 116//23
f 164//23 163//23 142//23
f 181//23 114//23 115//23
f 181//23 115//23 182//23
f 113//23 181//23 180//23
f 113//23 114//23 181//23
f 112//23 113//23 180//23
f 111//23 180//23 179//23
f 111//23 112//23 180//23
f 110//23 179//23 178//23
f 110//23 111//23 179//23
f 109//23 110//23 178//23
f 108//23 178//23 177//23
f 108//23 109//23 178//23
f 95//23 164//23 142//23
f 95//23 142//23 94//23
f 95//23 165//23 164//23
f 95//23 166//23 165//23
f 95//23 167//23 166//23
f 95//23 168//23 167//23
f 95//23 169//23 168//23
f 107//23 177//23 176//23
f 107//23 108//23 177//23
f 96//23 170//23 169//23
f 96//23 169//23 95//23
f 106//23 107//23 176//23
f 97//23 171//23 170//23
f 97//23 170//23 96//23
f 105//23 106//23 176//23
f 105//23 176//23 175//23
f 98//23 171//23 97//23
f 104//23 175//23 174//23
f 104//23 105//23 175//23
f 99//23 172//23 171//23
f 99//23 171//23 98//23
f 103//23 104//23 174//23
f 100//23 173//23 172//23
f 100//23 172//23 99//23
f 102//23 174//23 173//23
f 102//23 103//23 174//23
f 101//23 102//23 173//23
f 101//23 173//23 100//23
f 257//24 218//24 217//24
f 257//24 219//24 218//24
f 256//24 217//24 216//24
f 256//24 257//24 217//24
f 258//24 220//24 219//24
f 258//24 221//24 220//24
f 258//24 219//24 257//24
f 255//24 215//24 214//24
f 255//24 216//24 215//24
f 255//24 256//24 216//24
f 259//24 222//24 221//24
f 259//24 221//24 258//24
f 254//24 214//24 213//24
f 254//24 255//24 214//24
f 260//24 223//24 222//24
f 260//24 224//24 223//24
f 260//24 222//24 259//24
f 253//24 213//24 212//24
f 253//24 254//24 213//24
f 261//24 225//24 224//24
f 261//24 224//24 260//24
f 252//24 253//24 212//24
f 262//24 226//24 225//24
f 262//24 227//24 226//24
f 262//24 225//24 261//24
f 251//24 252//24 212//24
f 263//24 228//24 227//24
f 263//24 227//24 262//24
f 250//24 251//24 212//24
f 264//24 229//24 228//24
f 264//24 230//24 229//24
f 264//24 228//24 263//24
f 249//24 250//24 212//24
f 265//24 230//24 264//24
f 231//24 230//24 265//24
f 248//24 249//24 212//24
f 232//24 265//24 266//24
f 232//24 231//24 265//24
f 233//24 232//24 266//24
f 233//24 266//24 267//24
f 234//24 233//24 267//24
f 235//24 234//24 267//24
f 235//24 267//24 268//24
f 236//24 235//24 268//24
f 236//24 268//24 237//24
f 185//24 236//24 237//24
f 185//24 237//24 238//24
f 185//24 238//24 239//24
f 185//24 239//24 240//24
f 185//24 240//24 241//24
f 185//24 241//24 242//24
f 290//24 211//24 289//24
f 290//24 212//24 211//24
f 290//24 248//24 212//24
f 288//24 289//24 211//24
f 287//24 288//24 211//24
f 291//24 248//24 290//24
f 291//24 247//24 248//24
f 292//24 247//24 291//24
f 292//24 246//24 247//24
f 286//24 287//24 211//24
f 293//24 246//24 292//24
f 293//24 245//24 246//24
f 285//24 211//24 210//24
f 285//24 286//24 211//24
f 284//24 285//24 210//24
f 284//24 210//24 209//24
f 294//24 245//24 293//24
f 294//24 243//24 244//24
f 294//24 244//24 245//24
f 283//24 208//24 207//24
f 283//24 209//24 208//24
f 283//24 284//24 209//24
f 295//24 243//24 294//24
f 295//24 242//24 243//24
f 282//24 207//24 206//24
f 282//24 283//24 207//24
f 296//24 242//24 295//24
f 281//24 206//24 205//24
f 281//24 282//24 206//24
f 204//24 281//24 205//24
f 204//24 280//24 281//24
f 203//24 280//24 204//24
f 202//24 280//24 203//24
f 202//24 279//24 280//24
f 201//24 279//24 202//24
f 201//24 278//24 279//24
f 200//24 278//24 201//24
f 199//24 277//24 278//24
f 199//24 278//24 200//24
f 186//24 296//24 297//24
f 186//24 297//24 298//24
f 186//24 298//24 299//24
f 186//24 299//24 300//24
f 186//24 300//24 269//24
f 186//24 185//24 242//24
f 186//24 242//24 296//24
f 198//24 277//24 199//24
f 198//24 276//24 277//24
f 187//24 269//24 270//24
f 187//24 186//24 269//24
f 197//24 276//24 198//24
f 188//24 187//24 270//24
f 188//24 270//24 271//24
f 196//24 276//24 197//24
f 196//24 275//24 276//24
f 189//24 188//24 271//24
f 195//24 275//24 196//24
f 195//24 274//24 275//24
f 190//24 189//24 271//24
f 190//24 271//24 272//24
f 194//24 274//24 195//24
f 191//24 190//24 272//24
f 191//24 272//24 273//24
f 193//24 274//24 194//24
f 193//24 273//24 274//24
f 192//24 191//24 273//24
f 192//24 273//24 193//24
f 325//25 326//26 327//26
f 325//25 327//26 352//27
f 324//28 351//28 350//29
f 324//28 352//27 351//28
f 324//28 325//25 352//27
f 323//29 324//28 350//29
f 322//30 350//29 349//31
f 322//30 323//29 350//29
f 321//32 348//32 347//33
f 321//32 349//31 348//32
f 321//32 322//30 349//31
f 320//34 347//33 346//35
f 320//36 321//32 347//33
f 319//37 346//35 345//38
f 319//37 320//34 346//35
f 318//38 319//37 345//38
f 317//39 345//38 344//40
f 317//39 318//38 345//38
f 316//41 344//40 343//42
f 316//41 317//39 344//40
f 315//43 342//43 341//44
f 315//43 343//42 342//43
f 315//43 316//41 343//42
f 314//44 315//43 341//44
f 313//45 314//44 341//44
f 313//45 341//44 340//46
f 312//47 313//48 340//46
f 312//47 340//46 339//49
f 311//50 312//47 339//49
f 311//50 339//49 338//51
f 310//52 311//50 338//51
f 310//52 338//51 337//53
f 309//54 310//52 337//53
f 309//54 336//54 335//55
f 309//54 337//53 336//54
f 308//56 309//54 335//55
f 308//56 335//55 334//57
f 307//57 308//56 334//57
f 306//58 333//58 332//59
f 306//58 334//60 333//58
f 306//58 307//60 334//60
f 305//59 306//58 332//59
f 304//61 331//61 330//62
f 304//61 332//63 331//61
f 304//61 305//63 332//63
f 303//62 304//61 330//62
f 302//64 329//64 328//65
f 302//64 330//62 329//64
f 302//64 303//62 330//62
f 301//65 302//64 328//65
f 353//66 356//66 355//66
f 353//66 354//66 356//66
f 381//67 382//68 383//68
f 381//67 383//68 408//69
f 380//70 408//69 407//71
f 380//70 381//67 408//69
f 379//72 406//72 405//73
f 379//72 407//74 406//72
f 379//72 380//70 407//74
f 378//73 379//72 405//73
f 377//75 404//75 403//76
f 377//75 405//77 404//75
f 377//75 378//77 405//77
f 376//76 377//75 403//76
f 375//78 402//78 401//79
f 375//78 403//80 402//78
f 375//78 376//80 403//80
f 374//79 375//78 401//79
f 373//81 400//81 399//82
f 373//81 401//79 400//81
f 373//81 374//79 401//79
f 372//82 373//81 399//82
f 371//83 399//82 398//84
f 371//83 372//82 399//82
f 370//85 371//83 398//84
f 370//85 397//85 396//86
f 370//85 398//84 397//85
f 369//86 370//85 396//86
f 368//87 369//86 396//86
f 368//87 395//87 394//88
f 368//87 396//86 395//87
f 367//89 368//87 394//88
f 367//89 394//88 393//90
f 366//90 367//89 393//90
f 365//91 366//90 393//90
f 365//91 392//91 391//92
f 365//91 393//90 392//91
f 364//92 365//91 391//92
f 363//93 364//92 391//92
f 363//93 391//92 390//94
f 362//95 390//94 389//96
f 362//95 363//97 390//94
f 361//98 389//96 388//99
f 361//98 362//95 389//96
f 360//100 387//100 386//101
f 360//100 388//99 387//100
f 360//100 361//98 388//99
f 359//101 360//100 386//101
f 358//102 385//102 384//103
f 358//102 386//101 385//102
f 358//102 359//101 386//101
f 357//103 358//102 384//103
f 409//104 412//104 411//104
f 409//104 410//104 412//104
f 428//105 430//106 429//106
f 428//105 446//107 430//106
f 427//108 445//109 446//107
f 427//108 446//107 428//105
f 426//110 443//111 444//110
f 426//110 444//110 445//109
f 426//110 445//109 427//108
f 425//111 443//111 426//110
f 424//112 441//113 442//112
f 424//112 442//112 443//111
f 424//112 443//111 425//111
f 423//113 441//113 424//112
f 422//114 439//115 440//114
f 422//114 440//114 441//113
f 422//114 441//113 423//113
f 421//115 439//115 422//114
f 420//116 437//117 438//116
f 420//116 438//116 439//115
f 420//116 439//115 421//115
f 419//117 437//117 420//116
f 418//118 436//119 437//117
f 418//118 437//117 419//117
f 417//120 435//121 436//119
f 417//120 436//119 418//118
f 416//122 434//123 435//121
f 416//122 435//121 417//120
f 415//124 433//125 434//123
f 415//124 434//123 416//122
f 414//126 432//127 433//125
f 414//126 433//125 415//124
f 413//128 432//127 414//126
f 413//128 431//128 432//127
f 462//105 464//106 463//106
f 462//105 480//107 464//106
f 461//108 479//109 480//107
f 461//108 480//107 462//105
f 460//110 477//111 478//110
f 460//110 478//110 479//109
f 460//110 479//109 461//108
f 459//111 477//111 460//110
f 458//112 475//113 476//112
f 458//112 476//112 477//111
f 458//112 477//111 459//111
f 457//113 475//113 458//112
f 456//114 473//115 474//114
f 456//114 474//114 475//113
f 456//114 475//113 457//113
f 455//115 473//115 456//114
f 454//116 471//117 472//116
f 454//116 472//116 473//115
f 454//116 473//115 455//115
f 453//117 471//117 454//116
f 452//118 470//119 471//117
f 452//118 471//117 453//117
f 451//120 469//121 470//119
f 451//120 470//119 452//118
f 450//122 468//123 469//121
f 450//122 469//121 451//120
f 449//124 467//125 468//123
f 449//124 468//123 450//122
f 448//126 466//127 467//125
f 448//126 467//125 449//124
f 447//128 466//127 448//126
f 447//128 465//128 466//127
