# Blender 4.0.2
# www.blender.org
mtllib RA_top_sandwich_right.mtl
o RA_top_sandwich_left
v 0.000000 -0.246500 0.000000
v 0.003000 -0.246500 0.000000
v 0.003000 -0.258500 0.000000
v 0.003000 -0.258326 -0.001436
v 0.003000 -0.257813 -0.002788
v 0.003000 -0.256991 -0.003979
v 0.003000 -0.255908 -0.004938
v 0.003000 -0.254628 -0.005610
v 0.003000 -0.253223 -0.005956
v 0.003000 -0.251777 -0.005956
v 0.003000 -0.250372 -0.005610
v 0.003000 -0.249092 -0.004938
v 0.003000 -0.248009 -0.003979
v 0.003000 -0.247187 -0.002788
v 0.003000 -0.246674 -0.001436
v 0.000000 -0.258500 0.000000
v 0.000000 -0.246674 -0.001436
v 0.000000 -0.247187 -0.002788
v 0.000000 -0.248009 -0.003979
v 0.000000 -0.249092 -0.004938
v 0.000000 -0.250372 -0.005610
v 0.000000 -0.251777 -0.005956
v 0.000000 -0.253223 -0.005956
v 0.000000 -0.254628 -0.005610
v 0.000000 -0.255908 -0.004938
v 0.000000 -0.256991 -0.003979
v 0.000000 -0.257813 -0.002788
v 0.000000 -0.258326 -0.001436
v 0.003000 -0.012500 0.000000
v 0.000000 -0.012500 0.000000
v 0.000000 0.017500 0.000000
v 0.000000 0.017064 -0.003590
v 0.000000 0.015782 -0.006971
v 0.000000 0.013728 -0.009947
v 0.000000 0.011021 -0.012345
v 0.000000 0.007819 -0.014025
v 0.000000 0.004308 -0.014891
v 0.000000 0.000692 -0.014891
v 0.000000 -0.002819 -0.014025
v 0.000000 -0.006021 -0.012345
v 0.000000 -0.008728 -0.009947
v 0.000000 -0.010782 -0.006971
v 0.000000 -0.012064 -0.003590
v 0.003000 0.017500 0.000000
v 0.003000 0.017064 -0.003590
v 0.003000 0.015782 -0.006971
v 0.003000 0.013728 -0.009947
v 0.003000 0.011021 -0.012345
v 0.003000 0.007819 -0.014025
v 0.003000 0.004308 -0.014891
v 0.003000 0.000692 -0.014891
v 0.003000 -0.002819 -0.014025
v 0.003000 -0.006021 -0.012345
v 0.003000 -0.008728 -0.009947
v 0.003000 -0.010782 -0.006971
v 0.003000 -0.012064 -0.003590
v 0.003000 -0.623500 0.000000
v 0.000000 -0.623500 0.000000
v 0.000000 -0.611500 0.000000
v 0.000000 -0.611674 -0.001436
v 0.000000 -0.612187 -0.002788
v 0.000000 -0.613009 -0.003979
v 0.000000 -0.614092 -0.004938
v 0.000000 -0.615372 -0.005610
v 0.000000 -0.616777 -0.005956
v 0.000000 -0.618223 -0.005956
v 0.000000 -0.619628 -0.005610
v 0.000000 -0.620908 -0.004938
v 0.000000 -0.621991 -0.003979
v 0.000000 -0.622813 -0.002788
v 0.000000 -0.623326 -0.001436
v 0.003000 -0.611500 0.000000
v 0.003000 -0.611674 -0.001436
v 0.003000 -0.612187 -0.002788
v 0.003000 -0.613009 -0.003979
v 0.003000 -0.614092 -0.004938
v 0.003000 -0.615372 -0.005610
v 0.003000 -0.616777 -0.005956
v 0.003000 -0.618223 -0.005956
v 0.003000 -0.619628 -0.005610
v 0.003000 -0.620908 -0.004938
v 0.003000 -0.621991 -0.003979
v 0.003000 -0.622813 -0.002788
v 0.003000 -0.623326 -0.001436
v 0.003000 -0.132500 0.000000
v 0.000000 -0.132500 0.000000
v 0.000000 -0.102500 0.000000
v 0.000000 -0.102936 -0.003590
v 0.000000 -0.104218 -0.006971
v 0.000000 -0.106272 -0.009947
v 0.000000 -0.108979 -0.012345
v 0.000000 -0.112181 -0.014025
v 0.000000 -0.115692 -0.014891
v 0.000000 -0.119308 -0.014891
v 0.000000 -0.122819 -0.014025
v 0.000000 -0.126021 -0.012345
v 0.000000 -0.128728 -0.009947
v 0.000000 -0.130782 -0.006971
v 0.000000 -0.132064 -0.003590
v 0.003000 -0.102500 0.000000
v 0.003000 -0.102936 -0.003590
v 0.003000 -0.104218 -0.006971
v 0.003000 -0.106272 -0.009947
v 0.003000 -0.108979 -0.012345
v 0.003000 -0.112181 -0.014025
v 0.003000 -0.115692 -0.014891
v 0.003000 -0.119308 -0.014891
v 0.003000 -0.122819 -0.014025
v 0.003000 -0.126021 -0.012345
v 0.003000 -0.128728 -0.009947
v 0.003000 -0.130782 -0.006971
v 0.003000 -0.132064 -0.003590
v 0.003000 -0.652500 0.000000
v 0.003000 -0.652069 -0.005475
v 0.003000 -0.650787 -0.010816
v 0.003000 -0.648685 -0.015890
v 0.003000 -0.645816 -0.020572
v 0.003000 -0.642249 -0.024749
v 0.003000 -0.638072 -0.028316
v 0.003000 -0.633390 -0.031185
v 0.003000 -0.628316 -0.033287
v 0.003000 -0.622975 -0.034569
v 0.003000 -0.617500 -0.035000
v 0.000000 -0.652500 0.000000
v 0.000000 -0.652069 -0.005475
v 0.000000 -0.650787 -0.010816
v 0.000000 -0.648685 -0.015890
v 0.000000 -0.645816 -0.020572
v 0.000000 -0.642249 -0.024749
v 0.000000 -0.638072 -0.028316
v 0.000000 -0.633390 -0.031185
v 0.000000 -0.628316 -0.033287
v 0.000000 -0.622975 -0.034569
v 0.000000 -0.617500 -0.035000
v -0.000000 0.002500 0.035000
v -0.000000 0.008261 0.034523
v -0.000000 0.013865 0.033104
v -0.000000 0.019158 0.030782
v -0.000000 0.023997 0.027620
v -0.000000 0.028250 0.023705
v -0.000000 0.031801 0.019143
v -0.000000 0.034552 0.014059
v -0.000000 0.036429 0.008592
v -0.000000 0.037380 0.002890
v 0.000000 0.037380 -0.002890
v 0.000000 0.036429 -0.008592
v 0.000000 0.034552 -0.014059
v 0.000000 0.031801 -0.019143
v 0.000000 0.028250 -0.023705
v 0.000000 0.023997 -0.027620
v 0.000000 0.019158 -0.030782
v 0.000000 0.013865 -0.033104
v 0.000000 0.008261 -0.034523
v 0.000000 0.002500 -0.035000
v 0.003000 0.002500 0.035000
v 0.003000 0.008261 0.034523
v 0.003000 0.013865 0.033104
v 0.003000 0.019158 0.030782
v 0.003000 0.023997 0.027620
v 0.003000 0.028250 0.023705
v 0.003000 0.031801 0.019143
v 0.003000 0.034552 0.014059
v 0.003000 0.036429 0.008592
v 0.003000 0.037380 0.002890
v 0.003000 0.037380 -0.002890
v 0.003000 0.036429 -0.008592
v 0.003000 0.034552 -0.014059
v 0.003000 0.031801 -0.019143
v 0.003000 0.028250 -0.023705
v 0.003000 0.023997 -0.027620
v 0.003000 0.019158 -0.030782
v 0.003000 0.013865 -0.033104
v 0.003000 0.008261 -0.034523
v 0.003000 0.002500 -0.035000
v 0.003000 0.002500 0.035000
v -0.000000 0.002500 0.035000
v 0.003000 -0.617500 0.035000
v -0.000000 -0.617500 0.035000
v 0.003000 -0.652500 0.000000
v 0.000000 -0.652500 0.000000
v 0.003000 -0.617500 0.035000
v 0.003000 -0.622975 0.034569
v 0.003000 -0.628316 0.033287
v 0.003000 -0.633390 0.031185
v 0.003000 -0.638072 0.028316
v 0.003000 -0.642249 0.024749
v 0.003000 -0.645816 0.020572
v 0.003000 -0.648685 0.015890
v 0.003000 -0.650787 0.010816
v 0.003000 -0.652069 0.005475
v -0.000000 -0.617500 0.035000
v -0.000000 -0.622975 0.034569
v -0.000000 -0.628316 0.033287
v -0.000000 -0.633390 0.031185
v -0.000000 -0.638072 0.028316
v -0.000000 -0.642249 0.024749
v -0.000000 -0.645816 0.020572
v -0.000000 -0.648685 0.015890
v -0.000000 -0.650787 0.010816
v -0.000000 -0.652069 0.005475
v 0.003000 -0.617500 -0.035000
v 0.000000 -0.617500 -0.035000
v 0.003000 0.002500 -0.035000
v 0.000000 0.002500 -0.035000
v 0.003000 -0.617500 -0.035000
v 0.003000 0.002500 -0.035000
v 0.003000 -0.652500 0.000000
v 0.003000 -0.652069 -0.005475
v 0.003000 -0.650787 -0.010816
v 0.003000 -0.648685 -0.015890
v 0.003000 -0.645816 -0.020572
v 0.003000 -0.642249 -0.024749
v 0.003000 -0.638072 -0.028316
v 0.003000 -0.633390 -0.031185
v 0.003000 -0.628316 -0.033287
v 0.003000 -0.622975 -0.034569
v 0.003000 -0.617500 0.035000
v 0.003000 -0.622975 0.034569
v 0.003000 -0.628316 0.033287
v 0.003000 -0.633390 0.031185
v 0.003000 -0.638072 0.028316
v 0.003000 -0.642249 0.024749
v 0.003000 -0.645816 0.020572
v 0.003000 -0.648685 0.015890
v 0.003000 -0.650787 0.010816
v 0.003000 -0.652069 0.005475
v 0.003000 0.002500 0.035000
v 0.003000 0.008261 0.034523
v 0.003000 0.013865 0.033104
v 0.003000 0.019158 0.030782
v 0.003000 0.023997 0.027620
v 0.003000 0.028250 0.023705
v 0.003000 0.031801 0.019143
v 0.003000 0.034552 0.014059
v 0.003000 0.036429 0.008592
v 0.003000 0.037380 0.002890
v 0.003000 0.037380 -0.002890
v 0.003000 0.036429 -0.008592
v 0.003000 0.034552 -0.014059
v 0.003000 0.031801 -0.019143
v 0.003000 0.028250 -0.023705
v 0.003000 0.023997 -0.027620
v 0.003000 0.019158 -0.030782
v 0.003000 0.013865 -0.033104
v 0.003000 0.008261 -0.034523
v 0.003000 -0.258500 0.000000
v 0.003000 -0.258326 -0.001436
v 0.003000 -0.257813 -0.002788
v 0.003000 -0.256991 -0.003979
v 0.003000 -0.255908 -0.004938
v 0.003000 -0.254628 -0.005610
v 0.003000 -0.253223 -0.005956
v 0.003000 -0.251777 -0.005956
v 0.003000 -0.250372 -0.005610
v 0.003000 -0.249092 -0.004938
v 0.003000 -0.248009 -0.003979
v 0.003000 -0.247187 -0.002788
v 0.003000 -0.246674 -0.001436
v 0.003000 -0.246500 0.000000
v 0.003000 -0.246674 0.001436
v 0.003000 -0.247187 0.002788
v 0.003000 -0.248009 0.003979
v 0.003000 -0.249092 0.004938
v 0.003000 -0.250372 0.005610
v 0.003000 -0.251777 0.005956
v 0.003000 -0.253223 0.005956
v 0.003000 -0.254628 0.005610
v 0.003000 -0.255908 0.004938
v 0.003000 -0.256991 0.003979
v 0.003000 -0.257813 0.002788
v 0.003000 -0.258326 0.001436
v 0.003000 0.017500 0.000000
v 0.003000 0.017064 -0.003590
v 0.003000 0.015782 -0.006971
v 0.003000 0.013728 -0.009947
v 0.003000 0.011021 -0.012345
v 0.003000 0.007819 -0.014025
v 0.003000 0.004308 -0.014891
v 0.003000 0.000692 -0.014891
v 0.003000 -0.002819 -0.014025
v 0.003000 -0.006021 -0.012345
v 0.003000 -0.008728 -0.009947
v 0.003000 -0.010782 -0.006971
v 0.003000 -0.012064 -0.003590
v 0.003000 -0.012500 0.000000
v 0.003000 -0.012064 0.003590
v 0.003000 -0.010782 0.006971
v 0.003000 -0.008728 0.009947
v 0.003000 -0.006021 0.012345
v 0.003000 -0.002819 0.014025
v 0.003000 0.000692 0.014891
v 0.003000 0.004308 0.014891
v 0.003000 0.007819 0.014025
v 0.003000 0.011021 0.012345
v 0.003000 0.013728 0.009947
v 0.003000 0.015782 0.006971
v 0.003000 0.017064 0.003590
v 0.003000 -0.611500 0.000000
v 0.003000 -0.611674 -0.001436
v 0.003000 -0.612187 -0.002788
v 0.003000 -0.613009 -0.003979
v 0.003000 -0.614092 -0.004938
v 0.003000 -0.615372 -0.005610
v 0.003000 -0.616777 -0.005956
v 0.003000 -0.618223 -0.005956
v 0.003000 -0.619628 -0.005610
v 0.003000 -0.620908 -0.004938
v 0.003000 -0.621991 -0.003979
v 0.003000 -0.622813 -0.002788
v 0.003000 -0.623326 -0.001436
v 0.003000 -0.623500 0.000000
v 0.003000 -0.623326 0.001436
v 0.003000 -0.622813 0.002788
v 0.003000 -0.621991 0.003979
v 0.003000 -0.620908 0.004938
v 0.003000 -0.619628 0.005610
v 0.003000 -0.618223 0.005956
v 0.003000 -0.616777 0.005956
v 0.003000 -0.615372 0.005610
v 0.003000 -0.614092 0.004938
v 0.003000 -0.613009 0.003979
v 0.003000 -0.612187 0.002788
v 0.003000 -0.611674 0.001436
v 0.003000 -0.102500 0.000000
v 0.003000 -0.102936 -0.003590
v 0.003000 -0.104218 -0.006971
v 0.003000 -0.106272 -0.009947
v 0.003000 -0.108979 -0.012345
v 0.003000 -0.112181 -0.014025
v 0.003000 -0.115692 -0.014891
v 0.003000 -0.119308 -0.014891
v 0.003000 -0.122819 -0.014025
v 0.003000 -0.126021 -0.012345
v 0.003000 -0.128728 -0.009947
v 0.003000 -0.130782 -0.006971
v 0.003000 -0.132064 -0.003590
v 0.003000 -0.132500 0.000000
v 0.003000 -0.132064 0.003590
v 0.003000 -0.130782 0.006971
v 0.003000 -0.128728 0.009947
v 0.003000 -0.126021 0.012345
v 0.003000 -0.122819 0.014025
v 0.003000 -0.119308 0.014891
v 0.003000 -0.115692 0.014891
v 0.003000 -0.112181 0.014025
v 0.003000 -0.108979 0.012345
v 0.003000 -0.106272 0.009947
v 0.003000 -0.104218 0.006971
v 0.003000 -0.102936 0.003590
v -0.000000 0.002500 0.035000
v -0.000000 0.008261 0.034523
v -0.000000 0.013865 0.033104
v -0.000000 0.019158 0.030782
v -0.000000 0.023997 0.027620
v -0.000000 0.028250 0.023705
v -0.000000 0.031801 0.019143
v -0.000000 0.034552 0.014059
v -0.000000 0.036429 0.008592
v -0.000000 0.037380 0.002890
v 0.000000 0.037380 -0.002890
v 0.000000 0.036429 -0.008592
v 0.000000 0.034552 -0.014059
v 0.000000 0.031801 -0.019143
v 0.000000 0.028250 -0.023705
v 0.000000 0.023997 -0.027620
v 0.000000 0.019158 -0.030782
v 0.000000 0.013865 -0.033104
v 0.000000 0.008261 -0.034523
v 0.000000 0.002500 -0.035000
v 0.000000 -0.617500 -0.035000
v 0.000000 -0.652500 0.000000
v 0.000000 -0.652069 -0.005475
v 0.000000 -0.650787 -0.010816
v 0.000000 -0.648685 -0.015890
v 0.000000 -0.645816 -0.020572
v 0.000000 -0.642249 -0.024749
v 0.000000 -0.638072 -0.028316
v 0.000000 -0.633390 -0.031185
v 0.000000 -0.628316 -0.033287
v 0.000000 -0.622975 -0.034569
v -0.000000 -0.617500 0.035000
v -0.000000 -0.622975 0.034569
v -0.000000 -0.628316 0.033287
v -0.000000 -0.633390 0.031185
v -0.000000 -0.638072 0.028316
v -0.000000 -0.642249 0.024749
v -0.000000 -0.645816 0.020572
v -0.000000 -0.648685 0.015890
v -0.000000 -0.650787 0.010816
v -0.000000 -0.652069 0.005475
v 0.000000 -0.246500 0.000000
v 0.000000 -0.246674 -0.001436
v 0.000000 -0.247187 -0.002788
v 0.000000 -0.248009 -0.003979
v 0.000000 -0.249092 -0.004938
v 0.000000 -0.250372 -0.005610
v 0.000000 -0.251777 -0.005956
v 0.000000 -0.253223 -0.005956
v 0.000000 -0.254628 -0.005610
v 0.000000 -0.255908 -0.004938
v 0.000000 -0.256991 -0.003979
v 0.000000 -0.257813 -0.002788
v 0.000000 -0.258326 -0.001436
v 0.000000 -0.258500 0.000000
v 0.000000 -0.258326 0.001436
v -0.000000 -0.257813 0.002788
v -0.000000 -0.256991 0.003979
v -0.000000 -0.255908 0.004938
v -0.000000 -0.254628 0.005610
v -0.000000 -0.253223 0.005956
v -0.000000 -0.251777 0.005956
v -0.000000 -0.250372 0.005610
v -0.000000 -0.249092 0.004938
v -0.000000 -0.248009 0.003979
v -0.000000 -0.247187 0.002788
v 0.000000 -0.246674 0.001436
v 0.000000 -0.012500 0.000000
v -0.000000 -0.012064 0.003590
v -0.000000 -0.010782 0.006971
v -0.000000 -0.008728 0.009947
v -0.000000 -0.006021 0.012345
v -0.000000 -0.002819 0.014025
v -0.000000 0.000692 0.014891
v -0.000000 0.004308 0.014891
v -0.000000 0.007819 0.014025
v -0.000000 0.011021 0.012345
v -0.000000 0.013728 0.009947
v -0.000000 0.015782 0.006971
v -0.000000 0.017064 0.003590
v 0.000000 0.017500 0.000000
v 0.000000 0.017064 -0.003590
v 0.000000 0.015782 -0.006971
v 0.000000 0.013728 -0.009947
v 0.000000 0.011021 -0.012345
v 0.000000 0.007819 -0.014025
v 0.000000 0.004308 -0.014891
v 0.000000 0.000692 -0.014891
v 0.000000 -0.002819 -0.014025
v 0.000000 -0.006021 -0.012345
v 0.000000 -0.008728 -0.009947
v 0.000000 -0.010782 -0.006971
v 0.000000 -0.012064 -0.003590
v 0.000000 -0.623500 0.000000
v 0.000000 -0.623326 0.001436
v -0.000000 -0.622813 0.002788
v -0.000000 -0.621991 0.003979
v -0.000000 -0.620908 0.004938
v -0.000000 -0.619628 0.005610
v -0.000000 -0.618223 0.005956
v -0.000000 -0.616777 0.005956
v -0.000000 -0.615372 0.005610
v -0.000000 -0.614092 0.004938
v -0.000000 -0.613009 0.003979
v -0.000000 -0.612187 0.002788
v 0.000000 -0.611674 0.001436
v 0.000000 -0.611500 0.000000
v 0.000000 -0.611674 -0.001436
v 0.000000 -0.612187 -0.002788
v 0.000000 -0.613009 -0.003979
v 0.000000 -0.614092 -0.004938
v 0.000000 -0.615372 -0.005610
v 0.000000 -0.616777 -0.005956
v 0.000000 -0.618223 -0.005956
v 0.000000 -0.619628 -0.005610
v 0.000000 -0.620908 -0.004938
v 0.000000 -0.621991 -0.003979
v 0.000000 -0.622813 -0.002788
v 0.000000 -0.623326 -0.001436
v 0.000000 -0.132500 0.000000
v -0.000000 -0.132064 0.003590
v -0.000000 -0.130782 0.006971
v -0.000000 -0.128728 0.009947
v -0.000000 -0.126021 0.012345
v -0.000000 -0.122819 0.014025
v -0.000000 -0.119308 0.014891
v -0.000000 -0.115692 0.014891
v -0.000000 -0.112181 0.014025
v -0.000000 -0.108979 0.012345
v -0.000000 -0.106272 0.009947
v -0.000000 -0.104218 0.006971
v -0.000000 -0.102936 0.003590
v 0.000000 -0.102500 0.000000
v 0.000000 -0.102936 -0.003590
v 0.000000 -0.104218 -0.006971
v 0.000000 -0.106272 -0.009947
v 0.000000 -0.108979 -0.012345
v 0.000000 -0.112181 -0.014025
v 0.000000 -0.115692 -0.014891
v 0.000000 -0.119308 -0.014891
v 0.000000 -0.122819 -0.014025
v 0.000000 -0.126021 -0.012345
v 0.000000 -0.128728 -0.009947
v 0.000000 -0.130782 -0.006971
v 0.000000 -0.132064 -0.003590
v 0.000000 -0.132500 0.000000
v -0.000000 -0.132064 0.003590
v -0.000000 -0.130782 0.006971
v -0.000000 -0.128728 0.009947
v -0.000000 -0.126021 0.012345
v -0.000000 -0.122819 0.014025
v -0.000000 -0.119308 0.014891
v -0.000000 -0.115692 0.014891
v -0.000000 -0.112181 0.014025
v -0.000000 -0.108979 0.012345
v -0.000000 -0.106272 0.009947
v -0.000000 -0.104218 0.006971
v -0.000000 -0.102936 0.003590
v 0.000000 -0.102500 0.000000
v 0.003000 -0.132500 0.000000
v 0.003000 -0.132064 0.003590
v 0.003000 -0.130782 0.006971
v 0.003000 -0.128728 0.009947
v 0.003000 -0.126021 0.012345
v 0.003000 -0.122819 0.014025
v 0.003000 -0.119308 0.014891
v 0.003000 -0.115692 0.014891
v 0.003000 -0.112181 0.014025
v 0.003000 -0.108979 0.012345
v 0.003000 -0.106272 0.009947
v 0.003000 -0.104218 0.006971
v 0.003000 -0.102936 0.003590
v 0.003000 -0.102500 0.000000
v 0.000000 -0.623500 0.000000
v 0.000000 -0.623326 0.001436
v -0.000000 -0.622813 0.002788
v -0.000000 -0.621991 0.003979
v -0.000000 -0.620908 0.004938
v -0.000000 -0.619628 0.005610
v -0.000000 -0.618223 0.005956
v -0.000000 -0.616777 0.005956
v -0.000000 -0.615372 0.005610
v -0.000000 -0.614092 0.004938
v -0.000000 -0.613009 0.003979
v -0.000000 -0.612187 0.002788
v 0.000000 -0.611674 0.001436
v 0.000000 -0.611500 0.000000
v 0.003000 -0.623500 0.000000
v 0.003000 -0.623326 0.001436
v 0.003000 -0.622813 0.002788
v 0.003000 -0.621991 0.003979
v 0.003000 -0.620908 0.004938
v 0.003000 -0.619628 0.005610
v 0.003000 -0.618223 0.005956
v 0.003000 -0.616777 0.005956
v 0.003000 -0.615372 0.005610
v 0.003000 -0.614092 0.004938
v 0.003000 -0.613009 0.003979
v 0.003000 -0.612187 0.002788
v 0.003000 -0.611674 0.001436
v 0.003000 -0.611500 0.000000
v 0.000000 -0.012500 0.000000
v -0.000000 -0.012064 0.003590
v -0.000000 -0.010782 0.006971
v -0.000000 -0.008728 0.009947
v -0.000000 -0.006021 0.012345
v -0.000000 -0.002819 0.014025
v -0.000000 0.000692 0.014891
v -0.000000 0.004308 0.014891
v -0.000000 0.007819 0.014025
v -0.000000 0.011021 0.012345
v -0.000000 0.013728 0.009947
v -0.000000 0.015782 0.006971
v -0.000000 0.017064 0.003590
v 0.000000 0.017500 0.000000
v 0.003000 -0.012500 0.000000
v 0.003000 -0.012064 0.003590
v 0.003000 -0.010782 0.006971
v 0.003000 -0.008728 0.009947
v 0.003000 -0.006021 0.012345
v 0.003000 -0.002819 0.014025
v 0.003000 0.000692 0.014891
v 0.003000 0.004308 0.014891
v 0.003000 0.007819 0.014025
v 0.003000 0.011021 0.012345
v 0.003000 0.013728 0.009947
v 0.003000 0.015782 0.006971
v 0.003000 0.017064 0.003590
v 0.003000 0.017500 0.000000
v 0.003000 -0.246500 0.000000
v 0.003000 -0.246674 0.001436
v 0.003000 -0.247187 0.002788
v 0.003000 -0.248009 0.003979
v 0.003000 -0.249092 0.004938
v 0.003000 -0.250372 0.005610
v 0.003000 -0.251777 0.005956
v 0.003000 -0.253223 0.005956
v 0.003000 -0.254628 0.005610
v 0.003000 -0.255908 0.004938
v 0.003000 -0.256991 0.003979
v 0.003000 -0.257813 0.002788
v 0.003000 -0.258326 0.001436
v 0.003000 -0.258500 0.000000
v 0.000000 -0.246500 0.000000
v 0.000000 -0.258500 0.000000
v 0.000000 -0.258326 0.001436
v -0.000000 -0.257813 0.002788
v -0.000000 -0.256991 0.003979
v -0.000000 -0.255908 0.004938
v -0.000000 -0.254628 0.005610
v -0.000000 -0.253223 0.005956
v -0.000000 -0.251777 0.005956
v -0.000000 -0.250372 0.005610
v -0.000000 -0.249092 0.004938
v -0.000000 -0.248009 0.003979
v -0.000000 -0.247187 0.002788
v 0.000000 -0.246674 0.001436
vn -0.0000 0.9798 0.1998
vn -0.0000 0.9927 0.1205
vn -0.0000 0.9798 0.1999
vn -0.0000 0.9605 0.2784
vn -0.0000 0.9927 0.1206
vn -0.0000 0.9035 0.4285
vn -0.0000 0.8659 0.5001
vn -0.0000 0.7747 0.6323
vn -0.0000 0.7211 0.6928
vn -0.0000 0.8659 0.5002
vn -0.0000 0.6009 0.7993
vn -0.0000 0.5343 0.8453
vn -0.0000 0.3921 0.9199
vn -0.0000 0.3165 0.9486
vn -0.0000 0.1606 0.9870
vn -0.0000 0.0803 0.9968
vn -0.0000 -0.0803 0.9968
vn -0.0000 -0.1606 0.9870
vn -0.0000 -0.3165 0.9486
vn -0.0000 -0.3921 0.9199
vn -0.0000 -0.5343 0.8453
vn -0.0000 -0.6009 0.7993
vn -0.0000 -0.7211 0.6928
vn -0.0000 -0.7747 0.6323
vn -0.0000 -0.8659 0.5002
vn -0.0000 -0.9035 0.4285
vn -0.0000 -0.8659 0.5001
vn -0.0000 -0.9605 0.2784
vn -0.0000 -0.9798 0.1998
vn -0.0000 -0.9927 0.1205
vn -0.0000 -0.9927 0.1206
vn -0.0000 -0.9798 0.1999
vn -0.0000 -0.8855 0.4647
vn -0.0000 -0.7485 0.6631
vn -0.0000 -0.3546 0.9350
vn -0.0000 -0.1205 0.9927
vn -0.0000 -0.1206 0.9927
vn -0.0000 0.3546 0.9350
vn -0.0000 0.5681 0.8230
vn -0.0000 0.7485 0.6631
vn -0.0000 0.8855 0.4647
vn -0.0000 -0.9035 0.4286
vn -0.0000 0.1206 0.9927
vn -0.0000 0.1205 0.9927
vn -0.0000 0.5680 0.8230
vn -0.0000 0.8854 0.4647
vn -0.0000 -0.7211 0.6929
vn -0.0000 0.9035 0.4286
vn -0.0000 0.9709 0.2393
vn -0.0000 -0.1305 -0.9915
vn -0.0000 -0.0785 -0.9969
vn -0.0000 -0.1823 -0.9833
vn -0.0000 -0.2840 -0.9588
vn -0.0000 -0.1823 -0.9832
vn -0.0000 -0.3338 -0.9426
vn -0.0000 -0.1305 -0.9914
vn -0.0000 -0.4305 -0.9026
vn -0.0000 -0.3339 -0.9426
vn -0.0000 -0.4772 -0.8788
vn -0.0000 -0.5878 -0.8090
vn -0.0000 -0.7071 -0.7071
vn -0.0000 -0.7933 -0.6088
vn -0.0000 -0.8241 -0.5664
vn -0.0000 -0.8788 -0.4772
vn -0.0000 -0.8242 -0.5664
vn -0.0000 -0.9026 -0.4305
vn -0.0000 -0.9426 -0.3339
vn -0.0000 -0.9588 -0.2840
vn -0.0000 -0.9832 -0.1823
vn -0.0000 -0.9914 -0.1305
vn -0.0000 -0.9426 -0.3338
vn -0.0000 -0.9969 -0.0785
vn -0.0000 -0.9915 -0.1305
vn -0.0000 -0.9833 -0.1823
vn -0.0000 0.1373 0.9905
vn -0.0000 0.0826 0.9966
vn -0.0000 0.1918 0.9814
vn -0.0000 0.2985 0.9544
vn -0.0000 0.3507 0.9365
vn -0.0000 0.2984 0.9544
vn -0.0000 0.1917 0.9814
vn -0.0000 0.4515 0.8923
vn -0.0000 0.5000 0.8660
vn -0.0000 0.5922 0.8058
vn -0.0000 0.5001 0.8660
vn -0.0000 0.6358 0.7719
vn -0.0000 0.7168 0.6973
vn -0.0000 0.7542 0.6567
vn -0.0000 0.8217 0.5699
vn -0.0000 0.7541 0.6567
vn -0.0000 0.8519 0.5236
vn -0.0000 0.8218 0.5698
vn -0.0000 0.9158 0.4017
vn -0.0000 0.8520 0.5236
vn -0.0000 0.9694 0.2455
vn -0.0000 0.9939 0.1101
vn -0.0000 0.9985 0.0550
vn -0.0000 0.9966 -0.0826
vn -0.0000 0.9985 0.0551
vn -0.0000 0.9694 -0.2455
vn -0.0000 0.9265 -0.3762
vn -0.0000 0.9043 -0.4268
vn -0.0000 0.8372 -0.5470
vn -0.0000 0.7357 -0.6773
vn -0.0000 0.8372 -0.5469
vn -0.0000 0.6358 -0.7719
vn -0.0000 0.5922 -0.8058
vn -0.0000 0.4760 -0.8795
vn -0.0000 0.4759 -0.8795
vn -0.0000 0.3247 -0.9458
vn -0.0000 0.1646 -0.9864
vn -0.0000 0.0826 -0.9966
vn -0.0000 -0.0000 1.0000
vn -0.0000 -0.9915 0.1305
vn -0.0000 -0.9969 0.0785
vn -0.0000 -0.9833 0.1823
vn -0.0000 -0.9588 0.2840
vn -0.0000 -0.9832 0.1823
vn -0.0000 -0.9426 0.3338
vn -0.0000 -0.9914 0.1305
vn -0.0000 -0.9026 0.4305
vn -0.0000 -0.9426 0.3339
vn -0.0000 -0.8788 0.4772
vn -0.0000 -0.8090 0.5878
vn -0.0000 -0.7071 0.7071
vn -0.0000 -0.6088 0.7933
vn -0.0000 -0.5664 0.8241
vn -0.0000 -0.4772 0.8788
vn -0.0000 -0.5664 0.8242
vn -0.0000 -0.4305 0.9026
vn -0.0000 -0.3339 0.9426
vn -0.0000 -0.2840 0.9588
vn -0.0000 -0.1823 0.9832
vn -0.0000 -0.1305 0.9914
vn -0.0000 -0.3338 0.9426
vn -0.0000 -0.0785 0.9969
vn -0.0000 -0.1305 0.9915
vn -0.0000 -0.1823 0.9833
vn -0.0000 -0.0000 -1.0000
vn 1.0000 -0.0000 -0.0000
vn -1.0000 -0.0000 -0.0000
vn -0.0000 0.9798 -0.1999
vn -0.0000 0.9927 -0.1205
vn -0.0000 0.9605 -0.2784
vn -0.0000 0.9035 -0.4286
vn -0.0000 0.8659 -0.5001
vn -0.0000 0.7747 -0.6323
vn -0.0000 0.7211 -0.6928
vn -0.0000 0.8659 -0.5002
vn -0.0000 0.9035 -0.4285
vn -0.0000 0.6009 -0.7993
vn -0.0000 0.5343 -0.8453
vn -0.0000 0.7211 -0.6929
vn -0.0000 0.3546 -0.9350
vn -0.0000 0.1205 -0.9927
vn -0.0000 0.1206 -0.9927
vn -0.0000 -0.0803 -0.9968
vn -0.0000 -0.1606 -0.9870
vn -0.0000 -0.3165 -0.9486
vn -0.0000 -0.3921 -0.9199
vn -0.0000 -0.5343 -0.8453
vn -0.0000 -0.6009 -0.7993
vn -0.0000 -0.7211 -0.6929
vn -0.0000 -0.7747 -0.6323
vn -0.0000 -0.8659 -0.5001
vn -0.0000 -0.9035 -0.4286
vn -0.0000 -0.7211 -0.6928
vn -0.0000 -0.9709 -0.2393
vn -0.0000 -0.9927 -0.1206
vn -0.0000 -0.9035 -0.4285
vn -0.0000 -0.8659 -0.5002
vn -0.0000 -0.9927 -0.1205
vn -0.0000 -0.7485 -0.6631
vn -0.0000 -0.8855 -0.4647
vn -0.0000 -0.9605 -0.2784
vn -0.0000 -0.9798 -0.1999
vn -0.0000 -0.8854 -0.4647
vn -0.0000 0.9798 -0.1998
vn -0.0000 0.9927 -0.1206
vn -0.0000 0.3921 -0.9199
vn -0.0000 0.3165 -0.9486
vn -0.0000 0.1606 -0.9870
vn -0.0000 0.0803 -0.9968
vn -0.0000 -0.9798 -0.1998
vn -0.0000 -0.5681 -0.8230
vn -0.0000 -0.3546 -0.9350
vn -0.0000 -0.5680 -0.8230
vn -0.0000 0.7485 -0.6631
s 0
usemtl material6.004
f 4//1 16//2 3//2
f 4//3 28//4 16//5
f 5//6 27//7 28//4
f 5//6 28//4 4//1
f 6//8 26//9 27//7
f 6//8 27//10 5//6
f 7//11 25//12 26//9
f 7//11 26//9 6//8
f 8//13 24//14 25//12
f 8//13 25//12 7//11
f 9//15 23//16 24//14
f 9//15 24//14 8//13
f 10//17 22//18 23//16
f 10//17 23//16 9//15
f 11//19 21//20 22//18
f 11//19 22//18 10//17
f 12//21 20//22 21//20
f 12//21 21//20 11//19
f 13//23 19//24 20//22
f 13//23 20//22 12//21
f 14//25 18//26 19//24
f 14//27 19//24 13//23
f 15//28 17//29 18//26
f 15//28 18//26 14//27
f 2//30 1//30 17//29
f 2//31 17//32 15//28
f 32//29 44//30 31//30
f 32//29 45//28 44//31
f 33//33 46//33 45//28
f 33//33 47//34 46//33
f 33//33 45//28 32//32
f 34//34 47//34 33//33
f 35//22 48//21 47//34
f 35//22 47//34 34//34
f 36//35 49//35 48//21
f 36//35 50//36 49//35
f 36//35 48//21 35//22
f 37//37 50//37 36//35
f 38//16 51//15 50//37
f 38//16 50//37 37//37
f 39//38 52//38 51//15
f 39//38 53//39 52//38
f 39//38 51//15 38//16
f 40//39 53//39 39//38
f 41//40 54//40 53//39
f 41//40 55//41 54//40
f 41//40 53//39 40//39
f 42//41 55//41 41//40
f 43//4 56//3 55//41
f 43//4 55//41 42//41
f 30//2 29//2 56//1
f 30//5 56//1 43//4
f 60//32 72//30 59//30
f 60//32 73//28 72//30
f 61//26 74//27 73//28
f 61//26 73//28 60//32
f 62//24 75//23 74//27
f 62//24 74//27 61//42
f 63//22 76//21 75//23
f 63//22 75//23 62//24
f 64//20 77//19 76//21
f 64//20 76//21 63//22
f 65//18 78//17 77//19
f 65//18 77//19 64//20
f 66//43 79//43 78//17
f 66//44 80//14 79//44
f 66//43 78//17 65//18
f 67//13 81//39 80//14
f 67//13 80//14 66//44
f 68//39 81//39 67//13
f 69//40 82//40 81//45
f 69//40 83//41 82//40
f 69//40 81//45 68//45
f 70//41 83//41 69//40
f 71//4 84//3 83//46
f 71//4 83//46 70//46
f 58//2 57//2 84//3
f 58//2 84//3 71//4
f 88//29 100//30 87//30
f 88//29 101//28 100//31
f 89//26 102//25 101//28
f 89//42 101//28 88//32
f 90//24 103//23 102//27
f 90//24 102//27 89//42
f 91//22 104//21 103//47
f 91//22 103//47 90//24
f 92//35 105//35 104//21
f 92//35 106//36 105//35
f 92//35 104//21 91//22
f 93//37 106//37 92//35
f 94//16 107//15 106//37
f 94//16 106//37 93//37
f 95//14 108//13 107//15
f 95//14 107//15 94//16
f 96//12 109//11 108//13
f 96//12 108//13 95//14
f 97//40 110//40 109//11
f 97//40 111//7 110//40
f 97//40 109//11 96//12
f 98//48 112//49 111//7
f 98//6 111//10 97//40
f 99//49 112//49 98//48
f 86//2 85//2 112//49
f 86//2 112//49 99//49
f 133//50 123//51 122//52
f 133//50 134//51 123//51
f 132//53 122//54 121//55
f 132//53 133//56 122//54
f 131//57 121//58 120//59
f 131//57 132//53 121//58
f 130//60 119//60 118//61
f 130//60 120//59 119//60
f 130//60 131//57 120//59
f 129//61 130//60 118//61
f 128//62 118//61 117//63
f 128//62 129//61 118//61
f 127//64 117//65 116//66
f 127//64 128//62 117//65
f 126//67 116//66 115//68
f 126//67 127//64 116//66
f 125//69 115//68 114//70
f 125//69 126//71 115//68
f 124//72 114//73 113//72
f 124//72 125//74 114//73
f 136//75 135//76 155//76
f 136//75 155//76 156//77
f 137//78 156//77 157//79
f 137//80 136//75 156//81
f 138//82 157//79 158//83
f 138//82 137//80 157//79
f 139//84 158//85 159//86
f 139//84 138//82 158//83
f 140//87 159//86 160//88
f 140//87 139//84 159//86
f 141//89 160//90 161//91
f 141//92 140//87 160//88
f 142//93 161//94 162//93
f 142//93 162//93 163//95
f 142//93 141//89 161//91
f 143//95 142//93 163//95
f 144//96 163//95 164//97
f 144//96 143//95 163//95
f 145//98 164//99 165//98
f 145//98 165//98 166//100
f 145//98 144//96 164//99
f 146//100 145//98 166//100
f 147//101 166//100 167//102
f 147//101 146//100 166//100
f 148//103 167//102 168//103
f 148//103 168//103 169//104
f 148//105 147//101 167//102
f 149//104 148//105 169//104
f 150//106 149//104 169//104
f 150//106 169//104 170//107
f 151//108 150//106 170//107
f 151//109 170//107 171//109
f 151//109 171//109 172//110
f 152//110 151//108 172//110
f 153//111 152//110 172//110
f 153//111 172//110 173//111
f 153//111 173//111 174//112
f 154//112 153//111 174//112
f 177//113 175//113 176//113
f 177//113 176//113 178//113
f 200//114 180//115 179//115
f 200//114 179//115 190//116
f 199//117 190//118 189//119
f 199//117 200//120 190//118
f 198//121 189//122 188//123
f 198//121 199//117 189//122
f 197//124 187//124 186//125
f 197//124 188//123 187//124
f 197//124 198//121 188//123
f 196//125 197//124 186//125
f 195//126 186//125 185//127
f 195//126 196//125 186//125
f 194//128 185//129 184//130
f 194//128 195//126 185//129
f 193//131 184//130 183//132
f 193//131 194//128 184//130
f 192//133 183//132 182//134
f 192//133 193//135 183//132
f 191//136 182//137 181//136
f 191//136 192//138 182//137
f 202//139 203//139 201//139
f 202//139 204//139 203//139
f 275//140 241//140 240//140
f 275//140 242//140 241//140
f 276//140 243//140 242//140
f 276//140 242//140 275//140
f 274//140 240//140 239//140
f 274//140 275//140 240//140
f 277//140 244//140 243//140
f 277//140 245//140 244//140
f 277//140 243//140 276//140
f 273//140 238//140 237//140
f 273//140 239//140 238//140
f 273//140 274//140 239//140
f 278//140 206//140 245//140
f 278//140 245//140 277//140
f 272//140 237//140 236//140
f 272//140 273//140 237//140
f 279//140 206//140 278//140
f 297//140 235//140 234//140
f 297//140 236//140 235//140
f 297//140 272//140 236//140
f 280//140 206//140 279//140
f 296//140 234//140 233//140
f 296//140 297//140 234//140
f 281//140 206//140 280//140
f 295//140 233//140 232//140
f 295//140 296//140 233//140
f 282//140 206//140 281//140
f 231//140 295//140 232//140
f 231//140 294//140 295//140
f 230//140 294//140 231//140
f 230//140 293//140 294//140
f 229//140 293//140 230//140
f 228//140 293//140 229//140
f 228//140 292//140 293//140
f 227//140 292//140 228//140
f 227//140 288//140 289//140
f 227//140 289//140 290//140
f 227//140 290//140 291//140
f 227//140 291//140 292//140
f 327//140 206//140 282//140
f 328//140 206//140 327//140
f 326//140 327//140 282//140
f 326//140 282//140 283//140
f 326//140 283//140 284//140
f 329//140 206//140 328//140
f 325//140 326//140 284//140
f 330//140 206//140 329//140
f 324//140 325//140 284//140
f 324//140 284//140 285//140
f 331//140 206//140 330//140
f 349//140 324//140 285//140
f 349//140 285//140 286//140
f 348//140 349//140 286//140
f 348//140 286//140 287//140
f 348//140 287//140 288//140
f 347//140 288//140 227//140
f 347//140 348//140 288//140
f 346//140 347//140 227//140
f 345//140 346//140 227//140
f 344//140 345//140 227//140
f 343//140 344//140 227//140
f 256//140 334//140 335//140
f 255//140 333//140 334//140
f 255//140 334//140 256//140
f 257//140 335//140 336//140
f 257//140 256//140 335//140
f 254//140 332//140 333//140
f 254//140 333//140 255//140
f 258//140 336//140 337//140
f 258//140 257//140 336//140
f 253//140 331//140 332//140
f 253//140 332//140 254//140
f 259//140 258//140 337//140
f 252//140 331//140 253//140
f 252//140 206//140 331//140
f 260//140 337//140 338//140
f 260//140 259//140 337//140
f 261//140 260//140 338//140
f 261//140 338//140 339//140
f 262//140 339//140 340//140
f 262//140 261//140 339//140
f 263//140 262//140 340//140
f 263//140 340//140 341//140
f 264//140 341//140 342//140
f 264//140 263//140 341//140
f 265//140 264//140 342//140
f 205//140 206//140 252//140
f 205//140 248//140 247//140
f 205//140 249//140 248//140
f 205//140 250//140 249//140
f 205//140 251//140 250//140
f 205//140 252//140 251//140
f 302//140 205//140 301//140
f 300//140 301//140 205//140
f 303//140 205//140 302//140
f 299//140 205//140 247//140
f 299//140 300//140 205//140
f 304//140 205//140 303//140
f 298//140 247//140 246//140
f 298//140 299//140 247//140
f 305//140 215//140 216//140
f 305//140 216//140 205//140
f 305//140 205//140 304//140
f 323//140 298//140 246//140
f 323//140 246//140 271//140
f 306//140 214//140 215//140
f 306//140 215//140 305//140
f 307//140 213//140 214//140
f 307//140 214//140 306//140
f 212//140 213//140 307//140
f 308//140 212//140 307//140
f 211//140 308//140 309//140
f 211//140 212//140 308//140
f 210//140 211//140 309//140
f 209//140 210//140 309//140
f 209//140 309//140 310//140
f 208//140 310//140 311//140
f 208//140 209//140 310//140
f 207//140 208//140 311//140
f 217//140 317//140 318//140
f 217//140 318//140 319//140
f 217//140 319//140 320//140
f 217//140 320//140 321//140
f 217//140 321//140 322//140
f 217//140 322//140 323//140
f 217//140 323//140 271//140
f 217//140 268//140 267//140
f 217//140 269//140 268//140
f 217//140 270//140 269//140
f 217//140 271//140 270//140
f 218//140 317//140 217//140
f 226//140 311//140 312//140
f 226//140 207//140 311//140
f 219//140 316//140 317//140
f 219//140 317//140 218//140
f 225//140 312//140 313//140
f 225//140 226//140 312//140
f 224//140 225//140 313//140
f 220//140 315//140 316//140
f 220//140 316//140 219//140
f 223//140 313//140 314//140
f 223//140 224//140 313//140
f 221//140 315//140 220//140
f 222//140 314//140 315//140
f 222//140 223//140 314//140
f 222//140 315//140 221//140
f 217//140 343//140 227//140
f 217//140 342//140 343//140
f 217//140 265//140 342//140
f 217//140 266//140 265//140
f 217//140 267//140 266//140
f 433//141 363//141 364//141
f 433//141 364//141 365//141
f 434//141 365//141 366//141
f 434//141 433//141 365//141
f 432//141 362//141 363//141
f 432//141 363//141 433//141
f 435//141 366//141 367//141
f 435//141 367//141 368//141
f 435//141 434//141 366//141
f 431//141 360//141 361//141
f 431//141 361//141 362//141
f 431//141 362//141 432//141
f 436//141 368//141 369//141
f 436//141 435//141 368//141
f 430//141 359//141 360//141
f 430//141 360//141 431//141
f 437//141 436//141 369//141
f 429//141 357//141 358//141
f 429//141 358//141 359//141
f 429//141 359//141 430//141
f 438//141 437//141 369//141
f 428//141 356//141 357//141
f 428//141 357//141 429//141
f 439//141 438//141 369//141
f 427//141 355//141 356//141
f 427//141 356//141 428//141
f 440//141 439//141 369//141
f 354//141 355//141 427//141
f 354//141 427//141 426//141
f 353//141 354//141 426//141
f 353//141 426//141 425//141
f 352//141 353//141 425//141
f 351//141 352//141 425//141
f 351//141 425//141 424//141
f 350//141 351//141 424//141
f 350//141 421//141 420//141
f 350//141 422//141 421//141
f 350//141 423//141 422//141
f 350//141 424//141 423//141
f 485//141 440//141 369//141
f 486//141 485//141 369//141
f 484//141 440//141 485//141
f 484//141 441//141 440//141
f 484//141 442//141 441//141
f 487//141 486//141 369//141
f 483//141 442//141 484//141
f 488//141 487//141 369//141
f 482//141 442//141 483//141
f 482//141 417//141 442//141
f 489//141 488//141 369//141
f 481//141 417//141 482//141
f 481//141 418//141 417//141
f 480//141 418//141 481//141
f 480//141 419//141 418//141
f 480//141 420//141 419//141
f 479//141 420//141 480//141
f 479//141 350//141 420//141
f 478//141 350//141 479//141
f 477//141 350//141 478//141
f 476//141 350//141 477//141
f 475//141 350//141 476//141
f 394//141 493//141 492//141
f 395//141 492//141 491//141
f 395//141 394//141 492//141
f 393//141 494//141 493//141
f 393//141 493//141 394//141
f 396//141 491//141 490//141
f 396//141 395//141 491//141
f 392//141 469//141 494//141
f 392//141 494//141 393//141
f 397//141 490//141 489//141
f 397//141 396//141 490//141
f 391//141 469//141 392//141
f 398//141 397//141 489//141
f 398//141 489//141 369//141
f 416//141 470//141 469//141
f 416//141 469//141 391//141
f 415//141 471//141 470//141
f 415//141 470//141 416//141
f 414//141 471//141 415//141
f 414//141 472//141 471//141
f 413//141 473//141 472//141
f 413//141 472//141 414//141
f 412//141 473//141 413//141
f 412//141 474//141 473//141
f 411//141 474//141 412//141
f 370//141 398//141 369//141
f 370//141 399//141 398//141
f 370//141 400//141 399//141
f 370//141 401//141 400//141
f 370//141 402//141 401//141
f 370//141 403//141 402//141
f 460//141 459//141 370//141
f 458//141 370//141 459//141
f 461//141 460//141 370//141
f 457//141 370//141 458//141
f 457//141 403//141 370//141
f 462//141 461//141 370//141
f 456//141 404//141 403//141
f 456//141 403//141 457//141
f 463//141 380//141 379//141
f 463//141 370//141 380//141
f 463//141 462//141 370//141
f 455//141 404//141 456//141
f 455//141 405//141 404//141
f 464//141 379//141 378//141
f 464//141 463//141 379//141
f 465//141 378//141 377//141
f 465//141 464//141 378//141
f 376//141 465//141 377//141
f 466//141 465//141 376//141
f 375//141 467//141 466//141
f 375//141 466//141 376//141
f 374//141 467//141 375//141
f 373//141 467//141 374//141
f 373//141 468//141 467//141
f 372//141 443//141 468//141
f 372//141 468//141 373//141
f 371//141 443//141 372//141
f 381//141 451//141 450//141
f 381//141 452//141 451//141
f 381//141 453//141 452//141
f 381//141 454//141 453//141
f 381//141 455//141 454//141
f 381//141 406//141 405//141
f 381//141 407//141 406//141
f 381//141 408//141 407//141
f 381//141 409//141 408//141
f 381//141 405//141 455//141
f 381//141 450//141 449//141
f 390//141 443//141 371//141
f 390//141 444//141 443//141
f 382//141 381//141 449//141
f 389//141 444//141 390//141
f 389//141 445//141 444//141
f 383//141 382//141 449//141
f 383//141 449//141 448//141
f 388//141 445//141 389//141
f 384//141 383//141 448//141
f 384//141 448//141 447//141
f 387//141 445//141 388//141
f 387//141 446//141 445//141
f 385//141 384//141 447//141
f 386//141 446//141 387//141
f 386//141 385//141 447//141
f 386//141 447//141 446//141
f 381//141 350//141 475//141
f 381//141 475//141 474//141
f 381//141 474//141 411//141
f 381//141 411//141 410//141
f 381//141 410//141 409//141
f 496//142 509//143 495//143
f 496//142 510//144 509//143
f 497//145 511//146 510//144
f 497//145 510//144 496//142
f 498//147 512//148 511//146
f 498//147 511//149 497//150
f 499//151 513//152 512//153
f 499//151 512//153 498//147
f 500//154 514//154 513//152
f 500//154 515//155 514//154
f 500//154 513//152 499//151
f 501//156 515//156 500//154
f 502//157 516//158 515//156
f 502//157 515//156 501//156
f 503//159 517//160 516//158
f 503//159 516//158 502//157
f 504//161 518//162 517//160
f 504//161 517//160 503//159
f 505//163 519//164 518//162
f 505//163 518//162 504//161
f 506//165 520//166 519//164
f 506//165 519//164 505//167
f 507//168 521//168 520//166
f 507//168 522//169 521//168
f 507//168 520//170 506//171
f 508//172 522//172 507//168
f 524//142 537//143 523//143
f 524//142 538//144 537//143
f 525//150 539//146 538//144
f 525//150 538//144 524//142
f 526//147 540//148 539//146
f 526//147 539//146 525//145
f 527//151 541//152 540//148
f 527//151 540//148 526//147
f 528//154 542//154 541//152
f 528//154 543//155 542//154
f 528//154 541//152 527//151
f 529//155 543//155 528//154
f 530//157 544//158 543//156
f 530//157 543//156 529//156
f 531//159 545//160 544//158
f 531//159 544//158 530//157
f 532//161 546//162 545//160
f 532//161 545//160 531//159
f 533//173 547//173 546//162
f 533//173 548//174 547//173
f 533//173 546//162 532//161
f 534//174 548//174 533//173
f 535//175 549//176 548//177
f 535//175 548//177 534//177
f 536//172 550//172 549//176
f 536//172 549//176 535//175
f 552//178 565//143 551//143
f 552//178 566//144 565//179
f 553//150 567//149 566//144
f 553//145 566//144 552//142
f 554//147 568//148 567//146
f 554//147 567//146 553//145
f 555//151 569//152 568//148
f 555//151 568//153 554//147
f 556//180 570//181 569//152
f 556//180 569//152 555//151
f 557//182 571//183 570//181
f 557//182 570//181 556//180
f 558//157 572//158 571//183
f 558//157 571//183 557//182
f 559//159 573//160 572//158
f 559//159 572//158 558//157
f 560//161 574//162 573//160
f 560//161 573//160 559//159
f 561//173 575//173 574//162
f 561//173 576//174 575//173
f 561//173 574//162 560//161
f 562//174 576//174 561//173
f 563//175 577//176 576//174
f 563//175 576//174 562//174
f 564//172 578//172 577//184
f 564//169 577//184 563//175
f 580//184 593//172 579//172
f 580//176 606//175 593//169
f 581//170 605//165 606//175
f 581//170 606//175 580//184
f 582//164 604//167 605//165
f 582//164 605//171 581//170
f 583//185 602//186 603//185
f 583//187 603//187 604//167
f 583//187 604//167 582//164
f 584//186 602//186 583//185
f 585//158 601//157 602//186
f 585//158 602//186 584//186
f 586//183 600//182 601//157
f 586//183 601//157 585//158
f 587//154 598//152 599//154
f 587//154 599//154 600//182
f 587//154 600//182 586//183
f 588//151 597//188 598//152
f 588//151 598//152 587//154
f 589//188 597//188 588//151
f 590//149 596//150 597//188
f 590//146 597//188 589//188
f 591//144 595//178 596//150
f 591//144 596//150 590//146
f 592//143 594//143 595//178
f 592//179 595//142 591//144
